<svg width="400" height="30" viewBox="0 0 400 30" fill="none" xmlns="http://www.w3.org/2000/svg">
<path d="M0.170172 2.512H8.73817C9.96217 2.512 11.1382 2.632 12.2662 2.872C13.4182 3.112 14.4262 3.52 15.2902 4.096C16.1542 4.648 16.8382 5.404 17.3422 6.364C17.8702 7.3 18.1342 8.476 18.1342 9.892C18.1342 11.5 17.8582 12.796 17.3062 13.78C16.7542 14.764 16.0102 15.532 15.0742 16.084C14.1382 16.612 13.0462 16.972 11.7982 17.164C10.5742 17.356 9.29017 17.452 7.94617 17.452H4.70617V28H0.170172V2.512ZM7.44217 13.564C8.09017 13.564 8.76217 13.54 9.45817 13.492C10.1542 13.444 10.7902 13.3 11.3662 13.06C11.9662 12.82 12.4462 12.46 12.8062 11.98C13.1902 11.5 13.3822 10.828 13.3822 9.964C13.3822 9.172 13.2142 8.548 12.8782 8.092C12.5422 7.612 12.1102 7.252 11.5822 7.012C11.0542 6.748 10.4662 6.58 9.81817 6.508C9.17017 6.436 8.54617 6.4 7.94617 6.4H4.70617V13.564H7.44217ZM32.582 25.624H32.474C31.85 26.608 31.058 27.328 30.098 27.784C29.138 28.216 28.082 28.432 26.93 28.432C26.138 28.432 25.358 28.324 24.59 28.108C23.846 27.892 23.174 27.568 22.574 27.136C21.998 26.704 21.53 26.164 21.17 25.516C20.81 24.868 20.63 24.112 20.63 23.248C20.63 22.312 20.798 21.52 21.134 20.872C21.47 20.2 21.914 19.648 22.466 19.216C23.042 18.76 23.702 18.4 24.446 18.136C25.19 17.872 25.958 17.68 26.75 17.56C27.566 17.416 28.382 17.332 29.198 17.308C30.014 17.26 30.782 17.236 31.502 17.236H32.582V16.768C32.582 15.688 32.21 14.884 31.466 14.356C30.722 13.804 29.774 13.528 28.622 13.528C27.71 13.528 26.858 13.696 26.066 14.032C25.274 14.344 24.59 14.776 24.014 15.328L21.746 13.06C22.706 12.076 23.822 11.368 25.094 10.936C26.39 10.504 27.722 10.288 29.09 10.288C30.314 10.288 31.346 10.432 32.186 10.72C33.026 10.984 33.722 11.332 34.274 11.764C34.826 12.196 35.246 12.7 35.534 13.276C35.846 13.828 36.062 14.392 36.182 14.968C36.326 15.544 36.41 16.108 36.434 16.66C36.458 17.188 36.47 17.656 36.47 18.064V28H32.582V25.624ZM32.33 20.26H31.43C30.83 20.26 30.158 20.284 29.414 20.332C28.67 20.38 27.962 20.5 27.29 20.692C26.642 20.86 26.09 21.124 25.634 21.484C25.178 21.82 24.95 22.3 24.95 22.924C24.95 23.332 25.034 23.68 25.202 23.968C25.394 24.232 25.634 24.46 25.922 24.652C26.21 24.844 26.534 24.988 26.894 25.084C27.254 25.156 27.614 25.192 27.974 25.192C29.462 25.192 30.554 24.844 31.25 24.148C31.97 23.428 32.33 22.456 32.33 21.232V20.26ZM56.8859 28H52.7819V25.228H52.7099C52.3019 26.092 51.6779 26.848 50.8379 27.496C49.9979 28.12 48.8579 28.432 47.4179 28.432C46.2659 28.432 45.2819 28.252 44.4659 27.892C43.6739 27.508 43.0259 27.004 42.5219 26.38C42.0179 25.732 41.6579 25 41.4419 24.184C41.2259 23.368 41.1179 22.516 41.1179 21.628V10.72H45.4379V19.468C45.4379 19.948 45.4619 20.488 45.5099 21.088C45.5579 21.664 45.6779 22.216 45.8699 22.744C46.0859 23.248 46.3979 23.68 46.8059 24.04C47.2379 24.376 47.8379 24.544 48.6059 24.544C49.3259 24.544 49.9259 24.424 50.4059 24.184C50.9099 23.944 51.3179 23.62 51.6299 23.212C51.9659 22.804 52.2059 22.336 52.3499 21.808C52.4939 21.28 52.5659 20.728 52.5659 20.152V10.72H56.8859V28ZM61.8618 0.783998H66.1818V28H61.8618V0.783998ZM82.1897 2.512H86.7257V13.312H86.9417L97.4897 2.512H103.61L91.6937 14.284L104.402 28H98.0297L86.9777 15.472H86.7257V28H82.1897V2.512ZM106.51 0.783998H110.83V28H106.51V0.783998ZM119.246 20.872C119.39 22.168 119.894 23.176 120.758 23.896C121.622 24.616 122.666 24.976 123.89 24.976C124.97 24.976 125.87 24.76 126.59 24.328C127.334 23.872 127.982 23.308 128.534 22.636L131.63 24.976C130.622 26.224 129.494 27.112 128.246 27.64C126.998 28.168 125.69 28.432 124.322 28.432C123.026 28.432 121.802 28.216 120.65 27.784C119.498 27.352 118.502 26.74 117.662 25.948C116.822 25.156 116.15 24.208 115.646 23.104C115.166 21.976 114.926 20.728 114.926 19.36C114.926 17.992 115.166 16.756 115.646 15.652C116.15 14.524 116.822 13.564 117.662 12.772C118.502 11.98 119.498 11.368 120.65 10.936C121.802 10.504 123.026 10.288 124.322 10.288C125.522 10.288 126.614 10.504 127.598 10.936C128.606 11.344 129.458 11.944 130.154 12.736C130.874 13.528 131.426 14.512 131.81 15.688C132.218 16.84 132.422 18.172 132.422 19.684V20.872H119.246ZM128.102 17.632C128.078 16.36 127.682 15.364 126.914 14.644C126.146 13.9 125.078 13.528 123.71 13.528C122.414 13.528 121.382 13.9 120.614 14.644C119.87 15.388 119.414 16.384 119.246 17.632H128.102ZM136.534 10.72H140.854V28H136.534V10.72ZM135.922 4.852C135.922 4.156 136.174 3.556 136.678 3.052C137.206 2.524 137.866 2.26 138.658 2.26C139.45 2.26 140.11 2.512 140.638 3.016C141.19 3.496 141.466 4.108 141.466 4.852C141.466 5.596 141.19 6.22 140.638 6.724C140.11 7.204 139.45 7.444 138.658 7.444C137.866 7.444 137.206 7.192 136.678 6.688C136.174 6.16 135.922 5.548 135.922 4.852ZM145.813 10.72H149.917V13.492H149.989C150.397 12.628 151.021 11.884 151.861 11.26C152.701 10.612 153.841 10.288 155.281 10.288C156.433 10.288 157.405 10.48 158.197 10.864C159.013 11.248 159.673 11.752 160.177 12.376C160.681 13 161.041 13.72 161.257 14.536C161.473 15.352 161.581 16.204 161.581 17.092V28H157.261V19.252C157.261 18.772 157.237 18.244 157.189 17.668C157.141 17.068 157.009 16.516 156.793 16.012C156.601 15.484 156.289 15.052 155.857 14.716C155.425 14.356 154.837 14.176 154.093 14.176C153.373 14.176 152.761 14.296 152.257 14.536C151.777 14.776 151.369 15.1 151.033 15.508C150.721 15.916 150.493 16.384 150.349 16.912C150.205 17.44 150.133 17.992 150.133 18.568V28H145.813V10.72ZM177.353 29.728L174.365 28.648L185.597 0.711999L188.585 1.864L177.353 29.728ZM202.178 2.512H212.114C213.074 2.512 214.022 2.632 214.958 2.872C215.894 3.088 216.722 3.46 217.442 3.988C218.186 4.492 218.786 5.152 219.242 5.968C219.698 6.784 219.926 7.768 219.926 8.92C219.926 10.36 219.518 11.548 218.702 12.484C217.886 13.42 216.818 14.092 215.498 14.5V14.572C216.29 14.668 217.022 14.896 217.694 15.256C218.39 15.592 218.978 16.036 219.458 16.588C219.938 17.116 220.31 17.74 220.574 18.46C220.862 19.156 221.006 19.912 221.006 20.728C221.006 22.12 220.73 23.284 220.178 24.22C219.626 25.132 218.894 25.876 217.982 26.452C217.094 27.004 216.062 27.4 214.886 27.64C213.734 27.88 212.558 28 211.358 28H202.178V2.512ZM206.714 12.88H210.854C212.366 12.88 213.494 12.592 214.238 12.016C215.006 11.416 215.39 10.636 215.39 9.676C215.39 8.572 214.994 7.756 214.202 7.228C213.434 6.676 212.186 6.4 210.458 6.4H206.714V12.88ZM206.714 24.112H210.89C211.466 24.112 212.078 24.076 212.726 24.004C213.398 23.932 214.01 23.764 214.562 23.5C215.114 23.236 215.57 22.864 215.93 22.384C216.29 21.88 216.47 21.208 216.47 20.368C216.47 19.024 216.026 18.088 215.138 17.56C214.274 17.032 212.918 16.768 211.07 16.768H206.714V24.112ZM225.126 10.72H229.446V13.456H229.518C229.998 12.448 230.682 11.668 231.57 11.116C232.458 10.564 233.478 10.288 234.63 10.288C234.894 10.288 235.146 10.312 235.386 10.36C235.65 10.408 235.914 10.468 236.178 10.54V14.716C235.818 14.62 235.458 14.548 235.098 14.5C234.762 14.428 234.426 14.392 234.09 14.392C233.082 14.392 232.266 14.584 231.642 14.968C231.042 15.328 230.574 15.748 230.238 16.228C229.926 16.708 229.71 17.188 229.59 17.668C229.494 18.148 229.446 18.508 229.446 18.748V28H225.126V10.72ZM237.621 19.36C237.621 17.992 237.861 16.756 238.341 15.652C238.845 14.524 239.517 13.564 240.357 12.772C241.197 11.98 242.193 11.368 243.345 10.936C244.497 10.504 245.721 10.288 247.017 10.288C248.313 10.288 249.537 10.504 250.689 10.936C251.841 11.368 252.837 11.98 253.677 12.772C254.517 13.564 255.177 14.524 255.657 15.652C256.161 16.756 256.413 17.992 256.413 19.36C256.413 20.728 256.161 21.976 255.657 23.104C255.177 24.208 254.517 25.156 253.677 25.948C252.837 26.74 251.841 27.352 250.689 27.784C249.537 28.216 248.313 28.432 247.017 28.432C245.721 28.432 244.497 28.216 243.345 27.784C242.193 27.352 241.197 26.74 240.357 25.948C239.517 25.156 238.845 24.208 238.341 23.104C237.861 21.976 237.621 20.728 237.621 19.36ZM241.941 19.36C241.941 20.032 242.049 20.68 242.265 21.304C242.505 21.928 242.841 22.48 243.273 22.96C243.729 23.44 244.269 23.824 244.893 24.112C245.517 24.4 246.225 24.544 247.017 24.544C247.809 24.544 248.517 24.4 249.141 24.112C249.765 23.824 250.293 23.44 250.725 22.96C251.181 22.48 251.517 21.928 251.733 21.304C251.973 20.68 252.093 20.032 252.093 19.36C252.093 18.688 251.973 18.04 251.733 17.416C251.517 16.792 251.181 16.24 250.725 15.76C250.293 15.28 249.765 14.896 249.141 14.608C248.517 14.32 247.809 14.176 247.017 14.176C246.225 14.176 245.517 14.32 244.893 14.608C244.269 14.896 243.729 15.28 243.273 15.76C242.841 16.24 242.505 16.792 242.265 17.416C242.049 18.04 241.941 18.688 241.941 19.36ZM258.118 10.72H262.798L266.542 22.816H266.614L270.106 10.72H274.786L278.53 22.816H278.602L282.202 10.72H286.558L280.69 28H276.406L272.302 16.192H272.23L268.594 28H264.13L258.118 10.72ZM292.566 20.872C292.71 22.168 293.214 23.176 294.078 23.896C294.942 24.616 295.986 24.976 297.21 24.976C298.29 24.976 299.19 24.76 299.91 24.328C300.654 23.872 301.302 23.308 301.854 22.636L304.95 24.976C303.942 26.224 302.814 27.112 301.566 27.64C300.318 28.168 299.01 28.432 297.642 28.432C296.346 28.432 295.122 28.216 293.97 27.784C292.818 27.352 291.822 26.74 290.982 25.948C290.142 25.156 289.47 24.208 288.966 23.104C288.486 21.976 288.246 20.728 288.246 19.36C288.246 17.992 288.486 16.756 288.966 15.652C289.47 14.524 290.142 13.564 290.982 12.772C291.822 11.98 292.818 11.368 293.97 10.936C295.122 10.504 296.346 10.288 297.642 10.288C298.842 10.288 299.934 10.504 300.918 10.936C301.926 11.344 302.778 11.944 303.474 12.736C304.194 13.528 304.746 14.512 305.13 15.688C305.538 16.84 305.742 18.172 305.742 19.684V20.872H292.566ZM301.422 17.632C301.398 16.36 301.002 15.364 300.234 14.644C299.466 13.9 298.398 13.528 297.03 13.528C295.734 13.528 294.702 13.9 293.934 14.644C293.19 15.388 292.734 16.384 292.566 17.632H301.422ZM309.782 10.72H314.102V13.456H314.174C314.654 12.448 315.338 11.668 316.226 11.116C317.114 10.564 318.134 10.288 319.286 10.288C319.55 10.288 319.802 10.312 320.042 10.36C320.306 10.408 320.57 10.468 320.834 10.54V14.716C320.474 14.62 320.114 14.548 319.754 14.5C319.418 14.428 319.082 14.392 318.746 14.392C317.738 14.392 316.922 14.584 316.298 14.968C315.698 15.328 315.23 15.748 314.894 16.228C314.582 16.708 314.366 17.188 314.246 17.668C314.15 18.148 314.102 18.508 314.102 18.748V28H309.782V10.72ZM324.17 2.512H334.106C335.066 2.512 336.014 2.632 336.95 2.872C337.886 3.088 338.714 3.46 339.434 3.988C340.178 4.492 340.778 5.152 341.234 5.968C341.69 6.784 341.918 7.768 341.918 8.92C341.918 10.36 341.51 11.548 340.694 12.484C339.878 13.42 338.81 14.092 337.49 14.5V14.572C338.282 14.668 339.014 14.896 339.686 15.256C340.382 15.592 340.97 16.036 341.45 16.588C341.93 17.116 342.302 17.74 342.566 18.46C342.854 19.156 342.998 19.912 342.998 20.728C342.998 22.12 342.722 23.284 342.17 24.22C341.618 25.132 340.886 25.876 339.974 26.452C339.086 27.004 338.054 27.4 336.878 27.64C335.726 27.88 334.55 28 333.35 28H324.17V2.512ZM328.706 12.88H332.846C334.358 12.88 335.486 12.592 336.23 12.016C336.998 11.416 337.382 10.636 337.382 9.676C337.382 8.572 336.986 7.756 336.194 7.228C335.426 6.676 334.178 6.4 332.45 6.4H328.706V12.88ZM328.706 24.112H332.882C333.458 24.112 334.07 24.076 334.718 24.004C335.39 23.932 336.002 23.764 336.554 23.5C337.106 23.236 337.562 22.864 337.922 22.384C338.282 21.88 338.462 21.208 338.462 20.368C338.462 19.024 338.018 18.088 337.13 17.56C336.266 17.032 334.91 16.768 333.062 16.768H328.706V24.112ZM357.918 25.624H357.81C357.186 26.608 356.394 27.328 355.434 27.784C354.474 28.216 353.418 28.432 352.266 28.432C351.474 28.432 350.694 28.324 349.926 28.108C349.182 27.892 348.51 27.568 347.91 27.136C347.334 26.704 346.866 26.164 346.506 25.516C346.146 24.868 345.966 24.112 345.966 23.248C345.966 22.312 346.134 21.52 346.47 20.872C346.806 20.2 347.25 19.648 347.802 19.216C348.378 18.76 349.038 18.4 349.782 18.136C350.526 17.872 351.294 17.68 352.086 17.56C352.902 17.416 353.718 17.332 354.534 17.308C355.35 17.26 356.118 17.236 356.838 17.236H357.918V16.768C357.918 15.688 357.546 14.884 356.802 14.356C356.058 13.804 355.11 13.528 353.958 13.528C353.046 13.528 352.194 13.696 351.402 14.032C350.61 14.344 349.926 14.776 349.35 15.328L347.082 13.06C348.042 12.076 349.158 11.368 350.43 10.936C351.726 10.504 353.058 10.288 354.426 10.288C355.65 10.288 356.682 10.432 357.522 10.72C358.362 10.984 359.058 11.332 359.61 11.764C360.162 12.196 360.582 12.7 360.87 13.276C361.182 13.828 361.398 14.392 361.518 14.968C361.662 15.544 361.746 16.108 361.77 16.66C361.794 17.188 361.806 17.656 361.806 18.064V28H357.918V25.624ZM357.666 20.26H356.766C356.166 20.26 355.494 20.284 354.75 20.332C354.006 20.38 353.298 20.5 352.626 20.692C351.978 20.86 351.426 21.124 350.97 21.484C350.514 21.82 350.286 22.3 350.286 22.924C350.286 23.332 350.37 23.68 350.538 23.968C350.73 24.232 350.97 24.46 351.258 24.652C351.546 24.844 351.87 24.988 352.23 25.084C352.59 25.156 352.95 25.192 353.31 25.192C354.798 25.192 355.89 24.844 356.586 24.148C357.306 23.428 357.666 22.456 357.666 21.232V20.26ZM375.67 15.508C374.83 14.332 373.702 13.744 372.286 13.744C371.71 13.744 371.146 13.888 370.594 14.176C370.042 14.464 369.766 14.932 369.766 15.58C369.766 16.108 369.994 16.492 370.45 16.732C370.906 16.972 371.482 17.176 372.178 17.344C372.874 17.512 373.618 17.692 374.41 17.884C375.226 18.052 375.982 18.328 376.678 18.712C377.374 19.072 377.95 19.576 378.406 20.224C378.862 20.872 379.09 21.76 379.09 22.888C379.09 23.92 378.862 24.796 378.406 25.516C377.974 26.212 377.398 26.776 376.678 27.208C375.982 27.64 375.19 27.952 374.302 28.144C373.414 28.336 372.526 28.432 371.638 28.432C370.294 28.432 369.058 28.24 367.93 27.856C366.802 27.472 365.794 26.776 364.906 25.768L367.786 23.068C368.338 23.692 368.926 24.208 369.55 24.616C370.198 25 370.978 25.192 371.89 25.192C372.202 25.192 372.526 25.156 372.862 25.084C373.198 25.012 373.51 24.892 373.798 24.724C374.086 24.556 374.314 24.352 374.482 24.112C374.674 23.848 374.77 23.548 374.77 23.212C374.77 22.612 374.542 22.168 374.086 21.88C373.63 21.592 373.054 21.364 372.358 21.196C371.662 21.004 370.906 20.836 370.09 20.692C369.298 20.524 368.554 20.272 367.858 19.936C367.162 19.576 366.586 19.084 366.13 18.46C365.674 17.836 365.446 16.972 365.446 15.868C365.446 14.908 365.638 14.08 366.022 13.384C366.43 12.664 366.958 12.076 367.606 11.62C368.254 11.164 368.998 10.828 369.838 10.612C370.678 10.396 371.53 10.288 372.394 10.288C373.546 10.288 374.686 10.492 375.814 10.9C376.942 11.284 377.854 11.956 378.55 12.916L375.67 15.508ZM385.906 20.872C386.05 22.168 386.554 23.176 387.418 23.896C388.282 24.616 389.326 24.976 390.55 24.976C391.63 24.976 392.53 24.76 393.25 24.328C393.994 23.872 394.642 23.308 395.194 22.636L398.29 24.976C397.282 26.224 396.154 27.112 394.906 27.64C393.658 28.168 392.35 28.432 390.982 28.432C389.686 28.432 388.462 28.216 387.31 27.784C386.158 27.352 385.162 26.74 384.322 25.948C383.482 25.156 382.81 24.208 382.306 23.104C381.826 21.976 381.586 20.728 381.586 19.36C381.586 17.992 381.826 16.756 382.306 15.652C382.81 14.524 383.482 13.564 384.322 12.772C385.162 11.98 386.158 11.368 387.31 10.936C388.462 10.504 389.686 10.288 390.982 10.288C392.182 10.288 393.274 10.504 394.258 10.936C395.266 11.344 396.118 11.944 396.814 12.736C397.534 13.528 398.086 14.512 398.47 15.688C398.878 16.84 399.082 18.172 399.082 19.684V20.872H385.906ZM394.762 17.632C394.738 16.36 394.342 15.364 393.574 14.644C392.806 13.9 391.738 13.528 390.37 13.528C389.074 13.528 388.042 13.9 387.274 14.644C386.53 15.388 386.074 16.384 385.906 17.632H394.762Z" fill="black"/>
</svg>
