<?xml version="1.0" standalone="yes"?>
<svg xmlns="http://www.w3.org/2000/svg" width="225" height="225">
<path style="fill:#241056; stroke:none;" d="M0 0L0 225L225 225L225 0L0 0z"/>
<path style="fill:#ecc77c; stroke:none;" d="M18 17L18 200L202 200L202 17L18 17z"/>
<path style="fill:#241056; stroke:none;" d="M21 20L21 107L108 107L108 20L21 20M111 20L111 107L199 107L199 20L111 20z"/>
<path style="fill:#ecc77c; stroke:none;" d="M97 70L82 70C80.1999 81.9567 67.8464 90.2872 57.0401 82.3511C45.7778 74.08 45.5252 54.6806 55.1049 45.1049C58.3929 41.8183 62.3126 39.9275 67 40.0586C75.6015 40.2992 76.5769 46.9907 82.4946 50.9722C85.8104 53.2031 92.1675 52 96 52C94.2549 30.6635 70.0936 21.5152 52 30.135C39.401 36.1372 33.3105 49.4775 33.054 63C32.8641 73.0133 37.176 84.8622 45.1844 91.1119C65.1095 106.661 94.7547 95.7171 97 70M149 27.4398C123.523 31.5419 113.218 64.7979 127.638 85C135.448 95.9418 149.104 99.8278 162 97.6744C185.444 93.7595 194.514 64.7838 184.622 45C177.997 31.7514 163.483 25.108 149 27.4398z"/>
<path style="fill:#241056; stroke:none;" d="M150 40.5332C127.588 45.9795 134.095 91.7923 160 84.9452C182.303 79.0503 175.892 34.2412 150 40.5332M21 110L21 197L108 197L108 110L21 110M111 110L111 197L199 197L199 110L111 110z"/>
<path style="fill:#ecc77c; stroke:none;" d="M52 165L37 165C38.4443 182.683 52.7869 189.388 69 188.985C81.131 188.684 93.529 182.188 94.8009 169C96.5113 151.267 77.66 148.596 65 144.856C60.5783 143.549 51.9473 140.237 55.7863 134.109C59.2081 128.647 69.2392 128.694 73.7755 132.573C75.9912 134.467 76.7617 138.106 79.4182 139.397C82.7822 141.031 88.3326 140 92 140C91.838 121.877 73.868 115.284 58 118.669C50.6986 120.227 43.036 124.399 40.6528 132C35.3844 148.803 50.7634 155.796 64 159.127C69.0398 160.395 77.774 161.968 79.2631 168.015C80.824 174.353 72.6344 176.87 68 176.984C59.6412 177.189 53.5475 173.543 52 165M130 119L130 188L182 188L182 175L145 175L145 158L178 158L178 147L145 147L145 132L181 132L181 119L130 119z"/>
</svg>
