<svg width="1414" height="2000" viewBox="0 0 1414 2000" fill="none" xmlns="http://www.w3.org/2000/svg">
<path opacity="0.999" fill-rule="evenodd" clip-rule="evenodd" d="M606.5 283.5C616.243 283.352 625.243 285.852 633.5 291C666.245 309.455 698.745 328.288 731 347.5C733.133 351.232 734.466 355.232 735 359.5C735.667 399.167 735.667 438.833 735 478.5C733.583 484.832 730.083 489.665 724.5 493C666.5 525 608.5 557 550.5 589C542.542 593.624 537.709 600.457 536 609.5C535.333 625.5 535.333 641.5 536 657.5C537.873 655.291 540.04 653.458 542.5 652C568.478 638.51 594.811 625.844 621.5 614C630.299 612.555 638.632 613.889 646.5 618C670.842 632.506 695.509 646.506 720.5 660C722.957 663.058 725.957 665.392 729.5 667C731.7 669.234 733.533 671.734 735 674.5C774.401 657.476 813.901 640.643 853.5 624C856.167 623.333 858.833 623.333 861.5 624C981.153 688.492 1100.49 753.492 1219.5 819C1223.88 823.603 1226.22 829.103 1226.5 835.5C1225.18 880.813 1224.02 926.146 1223 971.5C1221.5 981.339 1216 987.839 1206.5 991C1172.17 1009.17 1137.83 1027.33 1103.5 1045.5C1102.26 1043.27 1100.6 1042.93 1098.5 1044.5C1096.8 1044.1 1095.14 1043.6 1093.5 1043C1048.5 1016.83 1003.5 990.667 958.5 964.5C957.334 981.824 957.167 999.157 958 1016.5C959.35 1021.18 962.183 1024.68 966.5 1027C999.833 1045.67 1033.17 1064.33 1066.5 1083C1071.88 1087.04 1075.71 1092.21 1078 1098.5C1079.64 1135.12 1079.97 1171.79 1079 1208.5C1076.95 1217.13 1072.11 1223.63 1064.5 1228C1032.7 1244.65 1000.86 1261.15 969 1277.5C964.498 1276.17 960.331 1274.17 956.5 1271.5C955.983 1337.2 955.149 1402.87 954 1468.5C950.934 1474.9 946.434 1480.07 940.5 1484C909.324 1501.67 878.157 1519.17 847 1536.5C844.005 1535.72 841.172 1534.56 838.5 1533C804.105 1509.61 769.438 1486.61 734.5 1464C732.383 1462.27 730.883 1460.1 730 1457.5C729.667 1344.17 729.333 1230.83 729 1117.5C726.872 1120.63 724.372 1123.46 721.5 1126C622.553 1176.2 523.553 1226.2 424.5 1276C414.715 1280.87 404.715 1281.54 394.5 1278C357.453 1248.62 320.119 1219.62 282.5 1191C278.449 1187.28 275.616 1182.78 274 1177.5C273.333 1136.17 273.333 1094.83 274 1053.5C276.807 1044.03 282.974 1037.86 292.5 1035C355.833 1006.33 419.167 977.667 482.5 949C486.815 945.687 489.982 941.521 492 936.5C493.763 922.21 493.93 907.877 492.5 893.5C471.748 904.543 450.748 915.043 429.5 925C416.681 926.505 405.014 923.505 394.5 916C358.107 890.609 321.441 865.609 284.5 841C275.202 833.24 269.369 823.406 267 811.5C265.155 700.505 264.155 589.505 264 478.5C266.618 466.095 273.118 456.262 283.5 449C384.69 395.907 485.69 342.573 586.5 289C592.993 285.994 599.66 284.161 606.5 283.5Z" fill="white"/>
<path fill-rule="evenodd" clip-rule="evenodd" d="M716.5 349.5C725.227 348.563 729.394 352.563 729 361.5C729.982 401.226 729.649 440.893 728 480.5C726.167 483.667 723.667 486.167 720.5 488C665.339 518.08 610.339 548.413 555.5 579C547.265 583.19 540.098 588.69 534 595.5C532.073 598.948 530.739 602.615 530 606.5C529.333 641.5 529.333 676.5 530 711.5C535.504 734.973 550.338 745.139 574.5 742C622.112 718.861 669.445 695.194 716.5 671C722.693 669.346 726.86 671.513 729 677.5C730.662 817.111 730.995 956.778 730 1096.5C728.055 1105.89 723.889 1114.06 717.5 1121C618.886 1170.47 520.553 1220.14 422.5 1270C415.46 1273.75 408.127 1274.75 400.5 1273C396.698 1270.91 394.198 1267.75 393 1263.5C390.911 1255.97 389.578 1248.3 389 1240.5C388.333 1209.83 388.333 1179.17 389 1148.5C392.861 1136.63 400.361 1127.8 411.5 1122C472.658 1090.25 533.658 1058.25 594.5 1026C602.195 1020.78 607.028 1013.62 609 1004.5C609.667 962.833 609.667 921.167 609 879.5C602.901 857.362 588.401 847.529 565.5 850C520.553 872.14 475.886 894.807 431.5 918C407.593 920.451 390.759 910.618 381 888.5C378.144 781.523 376.811 674.523 377 567.5C379.082 538.791 392.582 517.624 417.5 504C510.833 455 604.167 406 697.5 357C703.746 353.98 710.079 351.48 716.5 349.5Z" fill="#132A3E"/>
<path fill-rule="evenodd" clip-rule="evenodd" d="M855.5 629.5C860.454 630.473 865.121 632.306 869.5 635C983.673 697.587 1098.01 759.921 1212.5 822C1217.3 825.232 1219.97 829.732 1220.5 835.5C1218.93 876.454 1217.76 917.454 1217 958.5C1216.67 963.5 1216.33 968.5 1216 973.5C1215.53 975.246 1214.86 976.913 1214 978.5C1211.09 981.037 1207.93 983.204 1204.5 985C1173.06 1001.13 1141.9 1017.63 1111 1034.5C1109.85 1029.17 1109.35 1023.67 1109.5 1018C1110.99 973.497 1112.16 928.997 1113 884.5C1111.59 877.424 1108.09 871.591 1102.5 867C983.371 804.539 864.704 741.205 746.5 677C782.859 661.053 819.192 645.22 855.5 629.5Z" fill="#132A3E"/>
<path fill-rule="evenodd" clip-rule="evenodd" d="M870.5 917.5C875.08 917.113 879.414 917.947 883.5 920C905.928 932.768 928.094 945.935 950 959.5C950.333 977.5 950.667 995.5 951 1013.5C951.582 1020.16 954.415 1025.66 959.5 1030C993.005 1049.25 1026.67 1068.25 1060.5 1087C1065.8 1090.3 1069.63 1094.8 1072 1100.5C1073.63 1135.46 1073.97 1170.46 1073 1205.5C1071.65 1213.38 1067.48 1219.21 1060.5 1223C1033.96 1236.56 1007.63 1250.39 981.5 1264.5C980.914 1264.29 980.414 1263.96 980 1263.5C979.833 1256.83 979.667 1250.17 979.5 1243.5C980.127 1210 980.793 1176.67 981.5 1143.5C981.256 1132.77 976.589 1124.6 967.5 1119C933.705 1102.61 900.705 1084.94 868.5 1066C862.582 1063.08 858.415 1058.58 856 1052.5C855.824 1011.49 856.491 970.49 858 929.5C860.208 923.337 864.375 919.337 870.5 917.5Z" fill="#142A3E"/>
<path fill-rule="evenodd" clip-rule="evenodd" d="M865.5 1223.5C869.792 1223.03 873.792 1223.87 877.5 1226C901.252 1239.63 925.086 1253.13 949 1266.5C949.667 1331.83 949.667 1397.17 949 1462.5C947.861 1468.64 944.694 1473.48 939.5 1477C912.962 1492.37 886.295 1507.53 859.5 1522.5C858.914 1522.29 858.414 1521.96 858 1521.5C857.333 1425.17 857.333 1328.83 858 1232.5C859.614 1228.72 862.114 1225.72 865.5 1223.5Z" fill="#142A3E"/>
</svg>
