<svg width="1065" height="57" viewBox="0 0 565 37" fill="" xmlns="http://www.w3.org/2000/svg">
<path d="M0.869391 2.512H10.9134C12.5934 2.512 14.2134 2.776 15.7734 3.304C17.3334 3.808 18.7134 4.588 19.9134 5.644C21.1134 6.7 22.0734 8.032 22.7934 9.64C23.5134 11.224 23.8734 13.096 23.8734 15.256C23.8734 17.44 23.4534 19.336 22.6134 20.944C21.7974 22.528 20.7294 23.848 19.4094 24.904C18.1134 25.936 16.6614 26.716 15.0534 27.244C13.4694 27.748 11.9094 28 10.3734 28H0.869391V2.512ZM8.78939 23.896C10.2054 23.896 11.5374 23.74 12.7854 23.428C14.0574 23.092 15.1614 22.588 16.0974 21.916C17.0334 21.22 17.7654 20.332 18.2934 19.252C18.8454 18.148 19.1214 16.816 19.1214 15.256C19.1214 13.72 18.8814 12.4 18.4014 11.296C17.9214 10.192 17.2494 9.304 16.3854 8.632C15.5454 7.936 14.5374 7.432 13.3614 7.12C12.2094 6.784 10.9374 6.616 9.54539 6.616H5.40539V23.896H8.78939ZM31.2458 20.872C31.3898 22.168 31.8938 23.176 32.7578 23.896C33.6218 24.616 34.6658 24.976 35.8898 24.976C36.9698 24.976 37.8698 24.76 38.5898 24.328C39.3338 23.872 39.9818 23.308 40.5338 22.636L43.6298 24.976C42.6218 26.224 41.4938 27.112 40.2458 27.64C38.9978 28.168 37.6898 28.432 36.3218 28.432C35.0258 28.432 33.8018 28.216 32.6498 27.784C31.4978 27.352 30.5018 26.74 29.6618 25.948C28.8218 25.156 28.1498 24.208 27.6458 23.104C27.1658 21.976 26.9258 20.728 26.9258 19.36C26.9258 17.992 27.1658 16.756 27.6458 15.652C28.1498 14.524 28.8218 13.564 29.6618 12.772C30.5018 11.98 31.4978 11.368 32.6498 10.936C33.8018 10.504 35.0258 10.288 36.3218 10.288C37.5218 10.288 38.6138 10.504 39.5978 10.936C40.6058 11.344 41.4578 11.944 42.1538 12.736C42.8738 13.528 43.4258 14.512 43.8098 15.688C44.2178 16.84 44.4218 18.172 44.4218 19.684V20.872H31.2458ZM40.1018 17.632C40.0778 16.36 39.6818 15.364 38.9138 14.644C38.1458 13.9 37.0778 13.528 35.7098 13.528C34.4138 13.528 33.3818 13.9 32.6138 14.644C31.8698 15.388 31.4138 16.384 31.2458 17.632H40.1018ZM48.4617 10.72H52.5657V13.312H52.6377C53.2617 12.256 54.1017 11.488 55.1577 11.008C56.2137 10.528 57.3537 10.288 58.5777 10.288C59.8977 10.288 61.0857 10.528 62.1417 11.008C63.1977 11.464 64.0977 12.1 64.8417 12.916C65.5857 13.732 66.1497 14.692 66.5337 15.796C66.9177 16.9 67.1097 18.088 67.1097 19.36C67.1097 20.632 66.9057 21.82 66.4977 22.924C66.0897 24.028 65.5137 24.988 64.7697 25.804C64.0497 26.62 63.1737 27.268 62.1417 27.748C61.1097 28.204 59.9817 28.432 58.7577 28.432C57.9417 28.432 57.2217 28.348 56.5977 28.18C55.9737 28.012 55.4217 27.796 54.9417 27.532C54.4617 27.268 54.0537 26.992 53.7177 26.704C53.3817 26.392 53.1057 26.092 52.8897 25.804H52.7817V36.208H48.4617V10.72ZM62.7897 19.36C62.7897 18.688 62.6697 18.04 62.4297 17.416C62.2137 16.792 61.8777 16.24 61.4217 15.76C60.9897 15.28 60.4617 14.896 59.8377 14.608C59.2137 14.32 58.5057 14.176 57.7137 14.176C56.9217 14.176 56.2137 14.32 55.5897 14.608C54.9657 14.896 54.4257 15.28 53.9697 15.76C53.5377 16.24 53.2017 16.792 52.9617 17.416C52.7457 18.04 52.6377 18.688 52.6377 19.36C52.6377 20.032 52.7457 20.68 52.9617 21.304C53.2017 21.928 53.5377 22.48 53.9697 22.96C54.4257 23.44 54.9657 23.824 55.5897 24.112C56.2137 24.4 56.9217 24.544 57.7137 24.544C58.5057 24.544 59.2137 24.4 59.8377 24.112C60.4617 23.824 60.9897 23.44 61.4217 22.96C61.8777 22.48 62.2137 21.928 62.4297 21.304C62.6697 20.68 62.7897 20.032 62.7897 19.36ZM81.9375 25.624H81.8295C81.2055 26.608 80.4135 27.328 79.4535 27.784C78.4935 28.216 77.4375 28.432 76.2855 28.432C75.4935 28.432 74.7135 28.324 73.9455 28.108C73.2015 27.892 72.5295 27.568 71.9295 27.136C71.3535 26.704 70.8855 26.164 70.5255 25.516C70.1655 24.868 69.9855 24.112 69.9855 23.248C69.9855 22.312 70.1535 21.52 70.4895 20.872C70.8255 20.2 71.2695 19.648 71.8215 19.216C72.3975 18.76 73.0575 18.4 73.8015 18.136C74.5455 17.872 75.3135 17.68 76.1055 17.56C76.9215 17.416 77.7375 17.332 78.5535 17.308C79.3695 17.26 80.1375 17.236 80.8575 17.236H81.9375V16.768C81.9375 15.688 81.5655 14.884 80.8215 14.356C80.0775 13.804 79.1295 13.528 77.9775 13.528C77.0655 13.528 76.2135 13.696 75.4215 14.032C74.6295 14.344 73.9455 14.776 73.3695 15.328L71.1015 13.06C72.0615 12.076 73.1775 11.368 74.4495 10.936C75.7455 10.504 77.0775 10.288 78.4455 10.288C79.6695 10.288 80.7015 10.432 81.5415 10.72C82.3815 10.984 83.0775 11.332 83.6295 11.764C84.1815 12.196 84.6015 12.7 84.8895 13.276C85.2015 13.828 85.4175 14.392 85.5375 14.968C85.6815 15.544 85.7655 16.108 85.7895 16.66C85.8135 17.188 85.8255 17.656 85.8255 18.064V28H81.9375V25.624ZM81.6855 20.26H80.7855C80.1855 20.26 79.5135 20.284 78.7695 20.332C78.0255 20.38 77.3175 20.5 76.6455 20.692C75.9975 20.86 75.4455 21.124 74.9895 21.484C74.5335 21.82 74.3055 22.3 74.3055 22.924C74.3055 23.332 74.3895 23.68 74.5575 23.968C74.7495 24.232 74.9895 24.46 75.2775 24.652C75.5655 24.844 75.8895 24.988 76.2495 25.084C76.6095 25.156 76.9695 25.192 77.3295 25.192C78.8175 25.192 79.9095 24.844 80.6055 24.148C81.3255 23.428 81.6855 22.456 81.6855 21.232V20.26ZM90.4734 10.72H94.7934V13.456H94.8654C95.3454 12.448 96.0294 11.668 96.9174 11.116C97.8054 10.564 98.8254 10.288 99.9774 10.288C100.241 10.288 100.493 10.312 100.733 10.36C100.997 10.408 101.261 10.468 101.525 10.54V14.716C101.165 14.62 100.805 14.548 100.445 14.5C100.109 14.428 99.7734 14.392 99.4374 14.392C98.4294 14.392 97.6134 14.584 96.9894 14.968C96.3894 15.328 95.9214 15.748 95.5854 16.228C95.2734 16.708 95.0574 17.188 94.9374 17.668C94.8414 18.148 94.7934 18.508 94.7934 18.748V28H90.4734V10.72ZM102.45 14.392V10.72H106.014V5.716H110.334V10.72H115.086V14.392H110.334V21.952C110.334 22.816 110.49 23.5 110.802 24.004C111.138 24.508 111.786 24.76 112.746 24.76C113.13 24.76 113.55 24.724 114.006 24.652C114.462 24.556 114.822 24.412 115.086 24.22V27.856C114.63 28.072 114.066 28.216 113.394 28.288C112.746 28.384 112.17 28.432 111.666 28.432C110.514 28.432 109.566 28.3 108.822 28.036C108.102 27.796 107.526 27.424 107.094 26.92C106.686 26.392 106.398 25.744 106.23 24.976C106.086 24.208 106.014 23.32 106.014 22.312V14.392H102.45ZM118.278 10.72H122.382V13.42H122.454C122.838 12.604 123.45 11.884 124.29 11.26C125.154 10.612 126.306 10.288 127.746 10.288C130.458 10.288 132.258 11.356 133.146 13.492C133.77 12.388 134.55 11.584 135.486 11.08C136.422 10.552 137.538 10.288 138.834 10.288C139.986 10.288 140.958 10.48 141.75 10.864C142.542 11.248 143.178 11.776 143.658 12.448C144.162 13.12 144.522 13.912 144.738 14.824C144.954 15.712 145.062 16.672 145.062 17.704V28H140.742V18.208C140.742 17.68 140.694 17.176 140.598 16.696C140.502 16.192 140.334 15.76 140.094 15.4C139.854 15.016 139.53 14.716 139.122 14.5C138.714 14.284 138.186 14.176 137.538 14.176C136.866 14.176 136.29 14.308 135.81 14.572C135.354 14.812 134.97 15.148 134.658 15.58C134.37 15.988 134.154 16.468 134.01 17.02C133.89 17.548 133.83 18.088 133.83 18.64V28H129.51V17.704C129.51 16.624 129.282 15.772 128.826 15.148C128.37 14.5 127.614 14.176 126.558 14.176C125.838 14.176 125.226 14.296 124.722 14.536C124.242 14.776 123.834 15.1 123.498 15.508C123.186 15.916 122.958 16.384 122.814 16.912C122.67 17.44 122.598 17.992 122.598 18.568V28H118.278V10.72ZM153.238 20.872C153.382 22.168 153.886 23.176 154.75 23.896C155.614 24.616 156.658 24.976 157.882 24.976C158.962 24.976 159.862 24.76 160.582 24.328C161.326 23.872 161.974 23.308 162.526 22.636L165.622 24.976C164.614 26.224 163.486 27.112 162.238 27.64C160.99 28.168 159.682 28.432 158.314 28.432C157.018 28.432 155.794 28.216 154.642 27.784C153.49 27.352 152.494 26.74 151.654 25.948C150.814 25.156 150.142 24.208 149.638 23.104C149.158 21.976 148.918 20.728 148.918 19.36C148.918 17.992 149.158 16.756 149.638 15.652C150.142 14.524 150.814 13.564 151.654 12.772C152.494 11.98 153.49 11.368 154.642 10.936C155.794 10.504 157.018 10.288 158.314 10.288C159.514 10.288 160.606 10.504 161.59 10.936C162.598 11.344 163.45 11.944 164.146 12.736C164.866 13.528 165.418 14.512 165.802 15.688C166.21 16.84 166.414 18.172 166.414 19.684V20.872H153.238ZM162.094 17.632C162.07 16.36 161.674 15.364 160.906 14.644C160.138 13.9 159.07 13.528 157.702 13.528C156.406 13.528 155.374 13.9 154.606 14.644C153.862 15.388 153.406 16.384 153.238 17.632H162.094ZM170.454 10.72H174.558V13.492H174.63C175.038 12.628 175.662 11.884 176.502 11.26C177.342 10.612 178.482 10.288 179.922 10.288C181.074 10.288 182.046 10.48 182.838 10.864C183.654 11.248 184.314 11.752 184.818 12.376C185.322 13 185.682 13.72 185.898 14.536C186.114 15.352 186.222 16.204 186.222 17.092V28H181.902V19.252C181.902 18.772 181.878 18.244 181.83 17.668C181.782 17.068 181.65 16.516 181.434 16.012C181.242 15.484 180.93 15.052 180.498 14.716C180.066 14.356 179.478 14.176 178.734 14.176C178.014 14.176 177.402 14.296 176.898 14.536C176.418 14.776 176.01 15.1 175.674 15.508C175.362 15.916 175.134 16.384 174.99 16.912C174.846 17.44 174.774 17.992 174.774 18.568V28H170.454V10.72ZM189.11 14.392V10.72H192.674V5.716H196.994V10.72H201.746V14.392H196.994V21.952C196.994 22.816 197.15 23.5 197.462 24.004C197.798 24.508 198.446 24.76 199.406 24.76C199.79 24.76 200.21 24.724 200.666 24.652C201.122 24.556 201.482 24.412 201.746 24.22V27.856C201.29 28.072 200.726 28.216 200.054 28.288C199.406 28.384 198.83 28.432 198.326 28.432C197.174 28.432 196.226 28.3 195.482 28.036C194.762 27.796 194.186 27.424 193.754 26.92C193.346 26.392 193.058 25.744 192.89 24.976C192.746 24.208 192.674 23.32 192.674 22.312V14.392H189.11ZM214.906 19.36C214.906 17.992 215.146 16.756 215.626 15.652C216.13 14.524 216.802 13.564 217.642 12.772C218.482 11.98 219.478 11.368 220.63 10.936C221.782 10.504 223.006 10.288 224.302 10.288C225.598 10.288 226.822 10.504 227.974 10.936C229.126 11.368 230.122 11.98 230.962 12.772C231.802 13.564 232.462 14.524 232.942 15.652C233.446 16.756 233.698 17.992 233.698 19.36C233.698 20.728 233.446 21.976 232.942 23.104C232.462 24.208 231.802 25.156 230.962 25.948C230.122 26.74 229.126 27.352 227.974 27.784C226.822 28.216 225.598 28.432 224.302 28.432C223.006 28.432 221.782 28.216 220.63 27.784C219.478 27.352 218.482 26.74 217.642 25.948C216.802 25.156 216.13 24.208 215.626 23.104C215.146 21.976 214.906 20.728 214.906 19.36ZM219.226 19.36C219.226 20.032 219.334 20.68 219.55 21.304C219.79 21.928 220.126 22.48 220.558 22.96C221.014 23.44 221.554 23.824 222.178 24.112C222.802 24.4 223.51 24.544 224.302 24.544C225.094 24.544 225.802 24.4 226.426 24.112C227.05 23.824 227.578 23.44 228.01 22.96C228.466 22.48 228.802 21.928 229.018 21.304C229.258 20.68 229.378 20.032 229.378 19.36C229.378 18.688 229.258 18.04 229.018 17.416C228.802 16.792 228.466 16.24 228.01 15.76C227.578 15.28 227.05 14.896 226.426 14.608C225.802 14.32 225.094 14.176 224.302 14.176C223.51 14.176 222.802 14.32 222.178 14.608C221.554 14.896 221.014 15.28 220.558 15.76C220.126 16.24 219.79 16.792 219.55 17.416C219.334 18.04 219.226 18.688 219.226 19.36ZM239.291 14.392H235.727V10.72H239.291V8.272C239.291 7.072 239.375 5.992 239.543 5.032C239.711 4.048 240.023 3.208 240.479 2.512C240.959 1.816 241.619 1.288 242.459 0.927999C243.299 0.543999 244.391 0.352 245.735 0.352C246.719 0.352 247.631 0.435999 248.471 0.603999L248.183 4.276C247.871 4.204 247.571 4.144 247.283 4.096C246.995 4.048 246.695 4.024 246.383 4.024C245.783 4.024 245.303 4.12 244.943 4.312C244.583 4.504 244.295 4.768 244.079 5.104C243.887 5.416 243.755 5.788 243.683 6.22C243.635 6.652 243.611 7.108 243.611 7.588V10.72H247.607V14.392H243.611V28H239.291V14.392ZM278.944 8.488C278.008 7.48 277.096 6.808 276.208 6.472C275.344 6.136 274.468 5.968 273.58 5.968C272.26 5.968 271.06 6.208 269.98 6.688C268.924 7.144 268.012 7.792 267.244 8.632C266.476 9.448 265.876 10.408 265.444 11.512C265.036 12.616 264.832 13.804 264.832 15.076C264.832 16.444 265.036 17.704 265.444 18.856C265.876 20.008 266.476 21.004 267.244 21.844C268.012 22.684 268.924 23.344 269.98 23.824C271.06 24.304 272.26 24.544 273.58 24.544C274.612 24.544 275.608 24.304 276.568 23.824C277.552 23.32 278.464 22.528 279.304 21.448L283.048 24.112C281.896 25.696 280.492 26.848 278.836 27.568C277.18 28.288 275.416 28.648 273.544 28.648C271.576 28.648 269.764 28.336 268.108 27.712C266.476 27.064 265.06 26.164 263.86 25.012C262.684 23.836 261.76 22.432 261.088 20.8C260.416 19.168 260.08 17.356 260.08 15.364C260.08 13.324 260.416 11.476 261.088 9.82C261.76 8.14 262.684 6.712 263.86 5.536C265.06 4.36 266.476 3.46 268.108 2.836C269.764 2.188 271.576 1.864 273.544 1.864C275.272 1.864 276.868 2.176 278.332 2.8C279.82 3.4 281.2 4.432 282.472 5.896L278.944 8.488ZM284.832 19.36C284.832 17.992 285.072 16.756 285.552 15.652C286.056 14.524 286.728 13.564 287.568 12.772C288.408 11.98 289.404 11.368 290.556 10.936C291.708 10.504 292.932 10.288 294.228 10.288C295.524 10.288 296.748 10.504 297.9 10.936C299.052 11.368 300.048 11.98 300.888 12.772C301.728 13.564 302.388 14.524 302.868 15.652C303.372 16.756 303.624 17.992 303.624 19.36C303.624 20.728 303.372 21.976 302.868 23.104C302.388 24.208 301.728 25.156 300.888 25.948C300.048 26.74 299.052 27.352 297.9 27.784C296.748 28.216 295.524 28.432 294.228 28.432C292.932 28.432 291.708 28.216 290.556 27.784C289.404 27.352 288.408 26.74 287.568 25.948C286.728 25.156 286.056 24.208 285.552 23.104C285.072 21.976 284.832 20.728 284.832 19.36ZM289.152 19.36C289.152 20.032 289.26 20.68 289.476 21.304C289.716 21.928 290.052 22.48 290.484 22.96C290.94 23.44 291.48 23.824 292.104 24.112C292.728 24.4 293.436 24.544 294.228 24.544C295.02 24.544 295.728 24.4 296.352 24.112C296.976 23.824 297.504 23.44 297.936 22.96C298.392 22.48 298.728 21.928 298.944 21.304C299.184 20.68 299.304 20.032 299.304 19.36C299.304 18.688 299.184 18.04 298.944 17.416C298.728 16.792 298.392 16.24 297.936 15.76C297.504 15.28 296.976 14.896 296.352 14.608C295.728 14.32 295.02 14.176 294.228 14.176C293.436 14.176 292.728 14.32 292.104 14.608C291.48 14.896 290.94 15.28 290.484 15.76C290.052 16.24 289.716 16.792 289.476 17.416C289.26 18.04 289.152 18.688 289.152 19.36ZM307.489 10.72H311.593V13.42H311.665C312.049 12.604 312.661 11.884 313.501 11.26C314.365 10.612 315.517 10.288 316.957 10.288C319.669 10.288 321.469 11.356 322.357 13.492C322.981 12.388 323.761 11.584 324.697 11.08C325.633 10.552 326.749 10.288 328.045 10.288C329.197 10.288 330.169 10.48 330.961 10.864C331.753 11.248 332.389 11.776 332.869 12.448C333.373 13.12 333.733 13.912 333.949 14.824C334.165 15.712 334.273 16.672 334.273 17.704V28H329.953V18.208C329.953 17.68 329.905 17.176 329.809 16.696C329.713 16.192 329.545 15.76 329.305 15.4C329.065 15.016 328.741 14.716 328.333 14.5C327.925 14.284 327.397 14.176 326.749 14.176C326.077 14.176 325.501 14.308 325.021 14.572C324.565 14.812 324.181 15.148 323.869 15.58C323.581 15.988 323.365 16.468 323.221 17.02C323.101 17.548 323.041 18.088 323.041 18.64V28H318.721V17.704C318.721 16.624 318.493 15.772 318.037 15.148C317.581 14.5 316.825 14.176 315.769 14.176C315.049 14.176 314.437 14.296 313.933 14.536C313.453 14.776 313.045 15.1 312.709 15.508C312.397 15.916 312.169 16.384 312.025 16.912C311.881 17.44 311.809 17.992 311.809 18.568V28H307.489V10.72ZM338.993 10.72H343.097V13.312H343.169C343.793 12.256 344.633 11.488 345.689 11.008C346.745 10.528 347.885 10.288 349.109 10.288C350.429 10.288 351.617 10.528 352.673 11.008C353.729 11.464 354.629 12.1 355.373 12.916C356.117 13.732 356.681 14.692 357.065 15.796C357.449 16.9 357.641 18.088 357.641 19.36C357.641 20.632 357.437 21.82 357.029 22.924C356.621 24.028 356.045 24.988 355.301 25.804C354.581 26.62 353.705 27.268 352.673 27.748C351.641 28.204 350.513 28.432 349.289 28.432C348.473 28.432 347.753 28.348 347.129 28.18C346.505 28.012 345.953 27.796 345.473 27.532C344.993 27.268 344.585 26.992 344.249 26.704C343.913 26.392 343.637 26.092 343.421 25.804H343.313V36.208H338.993V10.72ZM353.321 19.36C353.321 18.688 353.201 18.04 352.961 17.416C352.745 16.792 352.409 16.24 351.953 15.76C351.521 15.28 350.993 14.896 350.369 14.608C349.745 14.32 349.037 14.176 348.245 14.176C347.453 14.176 346.745 14.32 346.121 14.608C345.497 14.896 344.957 15.28 344.501 15.76C344.069 16.24 343.733 16.792 343.493 17.416C343.277 18.04 343.169 18.688 343.169 19.36C343.169 20.032 343.277 20.68 343.493 21.304C343.733 21.928 344.069 22.48 344.501 22.96C344.957 23.44 345.497 23.824 346.121 24.112C346.745 24.4 347.453 24.544 348.245 24.544C349.037 24.544 349.745 24.4 350.369 24.112C350.993 23.824 351.521 23.44 351.953 22.96C352.409 22.48 352.745 21.928 352.961 21.304C353.201 20.68 353.321 20.032 353.321 19.36ZM377.437 28H373.333V25.228H373.261C372.853 26.092 372.229 26.848 371.389 27.496C370.549 28.12 369.409 28.432 367.969 28.432C366.817 28.432 365.833 28.252 365.017 27.892C364.225 27.508 363.577 27.004 363.073 26.38C362.569 25.732 362.209 25 361.993 24.184C361.777 23.368 361.669 22.516 361.669 21.628V10.72H365.989V19.468C365.989 19.948 366.013 20.488 366.061 21.088C366.109 21.664 366.229 22.216 366.421 22.744C366.637 23.248 366.949 23.68 367.357 24.04C367.789 24.376 368.389 24.544 369.157 24.544C369.877 24.544 370.477 24.424 370.957 24.184C371.461 23.944 371.869 23.62 372.181 23.212C372.517 22.804 372.757 22.336 372.901 21.808C373.045 21.28 373.117 20.728 373.117 20.152V10.72H377.437V28ZM380.325 14.392V10.72H383.889V5.716H388.209V10.72H392.961V14.392H388.209V21.952C388.209 22.816 388.365 23.5 388.677 24.004C389.013 24.508 389.661 24.76 390.621 24.76C391.005 24.76 391.425 24.724 391.881 24.652C392.337 24.556 392.697 24.412 392.961 24.22V27.856C392.505 28.072 391.941 28.216 391.269 28.288C390.621 28.384 390.045 28.432 389.541 28.432C388.389 28.432 387.441 28.3 386.697 28.036C385.977 27.796 385.401 27.424 384.969 26.92C384.561 26.392 384.273 25.744 384.105 24.976C383.961 24.208 383.889 23.32 383.889 22.312V14.392H380.325ZM399.789 20.872C399.933 22.168 400.437 23.176 401.301 23.896C402.165 24.616 403.209 24.976 404.433 24.976C405.513 24.976 406.413 24.76 407.133 24.328C407.877 23.872 408.525 23.308 409.077 22.636L412.173 24.976C411.165 26.224 410.037 27.112 408.789 27.64C407.541 28.168 406.233 28.432 404.865 28.432C403.569 28.432 402.345 28.216 401.193 27.784C400.041 27.352 399.045 26.74 398.205 25.948C397.365 25.156 396.693 24.208 396.189 23.104C395.709 21.976 395.469 20.728 395.469 19.36C395.469 17.992 395.709 16.756 396.189 15.652C396.693 14.524 397.365 13.564 398.205 12.772C399.045 11.98 400.041 11.368 401.193 10.936C402.345 10.504 403.569 10.288 404.865 10.288C406.065 10.288 407.157 10.504 408.141 10.936C409.149 11.344 410.001 11.944 410.697 12.736C411.417 13.528 411.969 14.512 412.353 15.688C412.761 16.84 412.965 18.172 412.965 19.684V20.872H399.789ZM408.645 17.632C408.621 16.36 408.225 15.364 407.457 14.644C406.689 13.9 405.621 13.528 404.253 13.528C402.957 13.528 401.925 13.9 401.157 14.644C400.413 15.388 399.957 16.384 399.789 17.632H408.645ZM417.005 10.72H421.325V13.456H421.397C421.877 12.448 422.561 11.668 423.449 11.116C424.337 10.564 425.357 10.288 426.509 10.288C426.773 10.288 427.025 10.312 427.265 10.36C427.529 10.408 427.793 10.468 428.057 10.54V14.716C427.697 14.62 427.337 14.548 426.977 14.5C426.641 14.428 426.305 14.392 425.969 14.392C424.961 14.392 424.145 14.584 423.521 14.968C422.921 15.328 422.453 15.748 422.117 16.228C421.805 16.708 421.589 17.188 421.469 17.668C421.373 18.148 421.325 18.508 421.325 18.748V28H417.005V10.72ZM454.537 7.984C454.057 7.288 453.409 6.784 452.593 6.472C451.801 6.136 450.961 5.968 450.073 5.968C449.545 5.968 449.029 6.028 448.525 6.148C448.045 6.268 447.601 6.46 447.193 6.724C446.809 6.988 446.497 7.336 446.257 7.768C446.017 8.176 445.897 8.668 445.897 9.244C445.897 10.108 446.197 10.768 446.797 11.224C447.397 11.68 448.141 12.076 449.029 12.412C449.917 12.748 450.889 13.072 451.945 13.384C453.001 13.696 453.973 14.128 454.861 14.68C455.749 15.232 456.493 15.964 457.093 16.876C457.693 17.788 457.993 19 457.993 20.512C457.993 21.88 457.741 23.08 457.237 24.112C456.733 25.12 456.049 25.96 455.185 26.632C454.345 27.304 453.361 27.808 452.233 28.144C451.105 28.48 449.917 28.648 448.669 28.648C447.085 28.648 445.561 28.384 444.097 27.856C442.633 27.328 441.373 26.44 440.317 25.192L443.737 21.88C444.289 22.72 445.009 23.38 445.897 23.86C446.809 24.316 447.769 24.544 448.777 24.544C449.305 24.544 449.833 24.472 450.361 24.328C450.889 24.184 451.369 23.968 451.801 23.68C452.233 23.392 452.581 23.032 452.845 22.6C453.109 22.144 453.241 21.628 453.241 21.052C453.241 20.116 452.941 19.396 452.341 18.892C451.741 18.388 450.997 17.968 450.109 17.632C449.221 17.272 448.249 16.936 447.193 16.624C446.137 16.312 445.165 15.892 444.277 15.364C443.389 14.812 442.645 14.092 442.045 13.204C441.445 12.292 441.145 11.08 441.145 9.568C441.145 8.248 441.409 7.108 441.937 6.148C442.489 5.188 443.197 4.396 444.061 3.772C444.949 3.124 445.957 2.644 447.085 2.332C448.213 2.02 449.365 1.864 450.541 1.864C451.885 1.864 453.181 2.068 454.429 2.476C455.701 2.884 456.841 3.556 457.849 4.492L454.537 7.984ZM474.129 15.904C473.625 15.376 473.097 14.956 472.545 14.644C471.993 14.332 471.429 14.176 470.853 14.176C470.061 14.176 469.353 14.32 468.729 14.608C468.105 14.896 467.565 15.28 467.109 15.76C466.677 16.24 466.341 16.792 466.101 17.416C465.885 18.04 465.777 18.688 465.777 19.36C465.777 20.032 465.885 20.68 466.101 21.304C466.341 21.928 466.677 22.48 467.109 22.96C467.565 23.44 468.105 23.824 468.729 24.112C469.353 24.4 470.061 24.544 470.853 24.544C471.525 24.544 472.149 24.412 472.725 24.148C473.301 23.86 473.793 23.452 474.201 22.924L477.081 26.02C476.649 26.452 476.145 26.824 475.569 27.136C475.017 27.448 474.453 27.7 473.877 27.892C473.301 28.084 472.749 28.216 472.221 28.288C471.693 28.384 471.237 28.432 470.853 28.432C469.557 28.432 468.333 28.216 467.181 27.784C466.029 27.352 465.033 26.74 464.193 25.948C463.353 25.156 462.681 24.208 462.177 23.104C461.697 21.976 461.457 20.728 461.457 19.36C461.457 17.992 461.697 16.756 462.177 15.652C462.681 14.524 463.353 13.564 464.193 12.772C465.033 11.98 466.029 11.368 467.181 10.936C468.333 10.504 469.557 10.288 470.853 10.288C471.957 10.288 473.061 10.504 474.165 10.936C475.293 11.344 476.277 12.004 477.117 12.916L474.129 15.904ZM479.76 10.72H484.08V28H479.76V10.72ZM479.148 4.852C479.148 4.156 479.4 3.556 479.904 3.052C480.432 2.524 481.092 2.26 481.884 2.26C482.676 2.26 483.336 2.512 483.864 3.016C484.416 3.496 484.692 4.108 484.692 4.852C484.692 5.596 484.416 6.22 483.864 6.724C483.336 7.204 482.676 7.444 481.884 7.444C481.092 7.444 480.432 7.192 479.904 6.688C479.4 6.16 479.148 5.548 479.148 4.852ZM492.496 20.872C492.64 22.168 493.144 23.176 494.008 23.896C494.872 24.616 495.916 24.976 497.14 24.976C498.22 24.976 499.12 24.76 499.84 24.328C500.584 23.872 501.232 23.308 501.784 22.636L504.88 24.976C503.872 26.224 502.744 27.112 501.496 27.64C500.248 28.168 498.94 28.432 497.572 28.432C496.276 28.432 495.052 28.216 493.9 27.784C492.748 27.352 491.752 26.74 490.912 25.948C490.072 25.156 489.4 24.208 488.896 23.104C488.416 21.976 488.176 20.728 488.176 19.36C488.176 17.992 488.416 16.756 488.896 15.652C489.4 14.524 490.072 13.564 490.912 12.772C491.752 11.98 492.748 11.368 493.9 10.936C495.052 10.504 496.276 10.288 497.572 10.288C498.772 10.288 499.864 10.504 500.848 10.936C501.856 11.344 502.708 11.944 503.404 12.736C504.124 13.528 504.676 14.512 505.06 15.688C505.468 16.84 505.672 18.172 505.672 19.684V20.872H492.496ZM501.352 17.632C501.328 16.36 500.932 15.364 500.164 14.644C499.396 13.9 498.328 13.528 496.96 13.528C495.664 13.528 494.632 13.9 493.864 14.644C493.12 15.388 492.664 16.384 492.496 17.632H501.352ZM509.712 10.72H513.816V13.492H513.888C514.296 12.628 514.92 11.884 515.76 11.26C516.6 10.612 517.74 10.288 519.18 10.288C520.332 10.288 521.304 10.48 522.096 10.864C522.912 11.248 523.572 11.752 524.076 12.376C524.58 13 524.94 13.72 525.156 14.536C525.372 15.352 525.48 16.204 525.48 17.092V28H521.16V19.252C521.16 18.772 521.136 18.244 521.088 17.668C521.04 17.068 520.908 16.516 520.692 16.012C520.5 15.484 520.188 15.052 519.756 14.716C519.324 14.356 518.736 14.176 517.992 14.176C517.272 14.176 516.66 14.296 516.156 14.536C515.676 14.776 515.268 15.1 514.932 15.508C514.62 15.916 514.392 16.384 514.248 16.912C514.104 17.44 514.032 17.992 514.032 18.568V28H509.712V10.72ZM542.192 15.904C541.688 15.376 541.16 14.956 540.608 14.644C540.056 14.332 539.492 14.176 538.916 14.176C538.124 14.176 537.416 14.32 536.792 14.608C536.168 14.896 535.628 15.28 535.172 15.76C534.74 16.24 534.404 16.792 534.164 17.416C533.948 18.04 533.84 18.688 533.84 19.36C533.84 20.032 533.948 20.68 534.164 21.304C534.404 21.928 534.74 22.48 535.172 22.96C535.628 23.44 536.168 23.824 536.792 24.112C537.416 24.4 538.124 24.544 538.916 24.544C539.588 24.544 540.212 24.412 540.788 24.148C541.364 23.86 541.856 23.452 542.264 22.924L545.144 26.02C544.712 26.452 544.208 26.824 543.632 27.136C543.08 27.448 542.516 27.7 541.94 27.892C541.364 28.084 540.812 28.216 540.284 28.288C539.756 28.384 539.3 28.432 538.916 28.432C537.62 28.432 536.396 28.216 535.244 27.784C534.092 27.352 533.096 26.74 532.256 25.948C531.416 25.156 530.744 24.208 530.24 23.104C529.76 21.976 529.52 20.728 529.52 19.36C529.52 17.992 529.76 16.756 530.24 15.652C530.744 14.524 531.416 13.564 532.256 12.772C533.096 11.98 534.092 11.368 535.244 10.936C536.396 10.504 537.62 10.288 538.916 10.288C540.02 10.288 541.124 10.504 542.228 10.936C543.356 11.344 544.34 12.004 545.18 12.916L542.192 15.904ZM551.207 20.872C551.351 22.168 551.855 23.176 552.719 23.896C553.583 24.616 554.627 24.976 555.851 24.976C556.931 24.976 557.831 24.76 558.551 24.328C559.295 23.872 559.943 23.308 560.495 22.636L563.591 24.976C562.583 26.224 561.455 27.112 560.207 27.64C558.959 28.168 557.651 28.432 556.283 28.432C554.987 28.432 553.763 28.216 552.611 27.784C551.459 27.352 550.463 26.74 549.623 25.948C548.783 25.156 548.111 24.208 547.607 23.104C547.127 21.976 546.887 20.728 546.887 19.36C546.887 17.992 547.127 16.756 547.607 15.652C548.111 14.524 548.783 13.564 549.623 12.772C550.463 11.98 551.459 11.368 552.611 10.936C553.763 10.504 554.987 10.288 556.283 10.288C557.483 10.288 558.575 10.504 559.559 10.936C560.567 11.344 561.419 11.944 562.115 12.736C562.835 13.528 563.387 14.512 563.771 15.688C564.179 16.84 564.383 18.172 564.383 19.684V20.872H551.207ZM560.063 17.632C560.039 16.36 559.643 15.364 558.875 14.644C558.107 13.9 557.039 13.528 555.671 13.528C554.375 13.528 553.343 13.9 552.575 14.644C551.831 15.388 551.375 16.384 551.207 17.632H560.063Z" fill="white"/>
</svg>
