<svg id="Desmos_Logo" data-name="Desmos Logo" xmlns="http://www.w3.org/2000/svg" xmlns:xlink="http://www.w3.org/1999/xlink" viewBox="0 0 779 202.00009"><defs><linearGradient id="linear-gradient" y1="1080" x2="1" y2="1080" gradientTransform="matrix(0, 202, 202, 0, -217488, 439)" gradientUnits="userSpaceOnUse"><stop offset="0" stop-color="#158f48"/><stop offset="1" stop-color="#0f6733"/></linearGradient><linearGradient id="linear-gradient-2" y1="1079.68536" x2="1" y2="1079.68536" gradientTransform="matrix(0, 202, 202, 0, -217488, 439)" gradientUnits="userSpaceOnUse"><stop offset="0" stop-color="#fff"/><stop offset="1" stop-color="#fff"/></linearGradient><linearGradient id="linear-gradient-3" y1="1080" y2="1080" xlink:href="#linear-gradient-2"/><linearGradient id="linear-gradient-4" y1="1079.95843" y2="1079.95843" xlink:href="#linear-gradient-2"/><linearGradient id="linear-gradient-5" y1="1080.26677" y2="1080.26677" xlink:href="#linear-gradient-2"/></defs><rect id="Logo-White" y="0.00006" width="202" height="202" rx="44.05884" fill="#fff"/><path id="desmos" d="M1237.69338,522.63629c7.19247,0,13.25841,2.68635,18.54445,8.23236a27.08387,27.08387,0,0,1,7.79907,19.49767,26.26188,26.26188,0,0,1-7.71243,19.32435,24.69874,24.69874,0,0,1-18.80444,7.9724,24.37112,24.37112,0,0,1-18.54445-7.88574,26.73886,26.73886,0,0,1-7.53911-19.32435,27.55834,27.55834,0,0,1,7.79907-19.671,24.47937,24.47937,0,0,1,18.45784-8.14569m29.0299-2.07974a40.4978,40.4978,0,0,0-58.1464,0A41.21966,41.21966,0,0,0,1196.705,550.193a40.65312,40.65312,0,0,0,11.87193,29.2032,39.63855,39.63855,0,0,0,29.28983,12.21855,39.11818,39.11818,0,0,0,29.11653-12.21855,42.279,42.279,0,0,0-.26-58.83967M896.78736,550.193a26.273,26.273,0,0,1-7.62576,19.15106,24.634,24.634,0,0,1-18.54445,7.88573,26.41759,26.41759,0,0,1-9.09892-1.5598.31835.31835,0,0,1-.26-.08666l-.34662-.17333a24.00852,24.00852,0,0,1-8.66564-5.97928,26.29577,26.29577,0,0,1-6.75919-12.56517,28.99334,28.99334,0,0,1,7.01916-25.9969c5.19938-5.45934,11.17867-8.059,18.28449-8.059s13.0851,2.59969,18.28448,8.14569a26.47948,26.47948,0,0,1,7.71242,19.23769m7.36579-66.03213a7.0287,7.0287,0,0,0-7.01916,6.1526v28.07665a38.42846,38.42846,0,0,0-21.49077-9.61886h-.26c-.51993-.08666-1.03987-.08666-1.55981-.17332s-1.03988-.08667-1.55982-.17333h-3.72623l-.34662.08666a10.48555,10.48555,0,0,0-1.64647.08667,18.33355,18.33355,0,0,0-2.07976.17332l-.43328.08666c-.51994.08666-1.03988.08666-1.3865.17332a16.39126,16.39126,0,0,0-1.9931.43329,38.48817,38.48817,0,0,0-17.2446,9.61885l-.17332.08667c-.43328.51994-.86656.86656-1.3865,1.3865l-.43328.51995c-.26.34662-.60659.69324-.86656,1.03988a24.22507,24.22507,0,0,0-2.513,3.2063l-.7799,1.03988-.17332.26a40.63241,40.63241,0,0,0-6.84585,23.22389v2.16641c.08666,1.38651.17332,2.59969.34663,3.81287l.26,1.64647a14.07754,14.07754,0,0,0,.34662,1.64646l.26,1.29985a40.83944,40.83944,0,0,0,10.48542,18.45779,37.63681,37.63681,0,0,0,6.75919,5.63266l1.12653.7799a1.89462,1.89462,0,0,1,.43328.26l.17332.08666a31.05249,31.05249,0,0,0,2.773,1.5598,18.12531,18.12531,0,0,1,1.81978.86657,41.678,41.678,0,0,0,15.85811,3.033h.26a13.41638,13.41638,0,0,0,1.90644-.08666,3.886,3.886,0,0,0,.95322-.08666h.26l.86656-.08667a1.47467,1.47467,0,0,1,.6066-.08666,38.68912,38.68912,0,0,0,21.49076-9.35887v3.55291a7.17019,7.17019,0,0,0,6.1526,6.066H905.193a7.18011,7.18011,0,0,0,6.1526-7.10583V491.18a7.19662,7.19662,0,0,0-7.19246-7.01914m32.7561,58.83964a24.82532,24.82532,0,0,1,3.29294-7.62574l.17331-.34662a30.23924,30.23924,0,0,1,3.3796-4.24616,24.17777,24.17777,0,0,1,18.4578-8.14569c7.19248,0,13.25842,2.68635,18.54445,8.23235a30.52054,30.52054,0,0,1,5.71932,8.49231,18.73031,18.73031,0,0,1,1.21319,3.72621H936.90925Zm66.20544,5.37271c0-1.03989-.08667-2.07975-.17331-3.11964a39.53458,39.53458,0,0,0-5.63267-16.72466,42.60746,42.60746,0,0,0-6.06594-7.88573,39.07626,39.07626,0,0,0-20.71086-11.52528l-.60659-.08667a6.00432,6.00432,0,0,0-1.73313-.25995c-.86656-.08667-1.73312-.26-2.513-.26a9.95024,9.95024,0,0,0-1.64646-.08666,30.58051,30.58051,0,0,0-3.9862,0,38.70274,38.70274,0,0,0-19.84429,6.3259,24.53787,24.53787,0,0,0-2.42638,1.73312c-1.21319.95323-2.16641,1.81979-3.033,2.59969-.51995.43329-.95323.95323-1.55982,1.55981a41.298,41.298,0,0,0-11.95858,29.63648,42.18633,42.18633,0,0,0,2.773,15.25152,40.24044,40.24044,0,0,0,9.01226,13.865c.95322.95322,1.90643,1.81979,3.033,2.85965a44.99044,44.99044,0,0,0,4.93941,3.63957c1.03987.60661,2.07974,1.21319,3.55291,1.90645a45.46883,45.46883,0,0,0,9.5322,3.11964,17.351,17.351,0,0,0,2.07974.34662c.69326.08666,1.38651.17332,1.9931.26a15.33945,15.33945,0,0,0,1.9931.08666h.26a12.79752,12.79752,0,0,0,1.81979.08666h.26a14.03952,14.03952,0,0,0,1.90644-.08666,7.92951,7.92951,0,0,0,1.38651-.08666l.60659-.08667a38.60285,38.60285,0,0,0,25.04367-12.04522,45.03947,45.03947,0,0,0,4.24616-5.02606c.43328-.6066.95322-1.29984,1.38651-1.99308l.17331-.43328a6.95443,6.95443,0,0,0,.51994-2.59969,7.26708,7.26708,0,0,0-7.27913-7.27913,7.64537,7.64537,0,0,0-6.06594,3.20629,23.779,23.779,0,0,1-3.46626,4.33282,26.05775,26.05775,0,0,1-37.43553.08666,27.45433,27.45433,0,0,1-2.42638-2.94631l-.26-.43328a29.50326,29.50326,0,0,1-1.73313-2.94631,24.95292,24.95292,0,0,1-2.513-7.27913h60.48613l.51994-.08666a7.19223,7.19223,0,0,0,5.63266-6.3259v-.17332a4.94233,4.94233,0,0,0-.08668-1.1266m183.71144-10.91871a29.12037,29.12037,0,0,0-8.49231-20.97084l-1.64646-1.64647a27.54829,27.54829,0,0,0-16.638-7.10583,21.90831,21.90831,0,0,0-2.42637-.08666,28.0472,28.0472,0,0,0-18.97773,7.10583c-.60661.51994-1.12652,1.12652-1.73313,1.64647-.43328.51994-.95322.95322-1.29984,1.3865-.43328-.43328-.86657-.95322-1.29985-1.3865a10.48469,10.48469,0,0,0-1.73312-1.64647,28.10789,28.10789,0,0,0-19.0644-7.10583,29.46138,29.46138,0,0,0-13.77835,3.37959,12.1583,12.1583,0,0,0-1.5598,1.03989,7.32513,7.32513,0,0,0-6.67255-4.41948,7.23041,7.23041,0,0,0-7.19247,7.19247v69.06508a7.17476,7.17476,0,0,0,7.19247,7.19247,7.2781,7.2781,0,0,0,7.19246-6.23927v-47.2277a15.43607,15.43607,0,0,1,4.50614-11.17867,13.63615,13.63615,0,0,1,10.39876-4.59277,13.94154,13.94154,0,0,1,10.39876,4.59277,27.8459,27.8459,0,0,1,2.42637,3.63958s1.90645,4.41948,1.99309,6.67255a3.25062,3.25062,0,0,0,.08666.86656l-.08666,46.79442v.26a7.16917,7.16917,0,0,0,14.29829-.7799V536.76121a15.72668,15.72668,0,0,1,4.41948-10.39876,13.508,13.508,0,0,1,10.39876-4.59277,3.571,3.571,0,0,1,1.03989.08666,13.8411,13.8411,0,0,1,9.35887,4.59277,15.57051,15.57051,0,0,1,4.41948,11.17867v47.05438a7.096,7.096,0,0,0,7.19246,6.41256,7.17476,7.17476,0,0,0,7.19247-7.19247V537.45453m-112.22,29.89644a24.60335,24.60335,0,0,0-14.55825-22.35733,24.35262,24.35262,0,0,0-9.87882-2.07974h-13.95165a10.31228,10.31228,0,0,1,.08667-20.6242h28.6832a7.06263,7.06263,0,1,0,0-14.125H1036.2174a24.4371,24.4371,0,0,0,0,48.8742h13.95165a10.28138,10.28138,0,0,1,10.3121,10.31209,10.39407,10.39407,0,0,1-10.22544,10.39876h-28.68325a7.01917,7.01917,0,1,0,0,14.03834H1050.689a24.458,24.458,0,0,0,23.83051-24.43712m275.48049,0a24.60332,24.60332,0,0,0-14.55825-22.35733,24.05469,24.05469,0,0,0-9.87885-2.07974h-14.03833a10.31246,10.31246,0,0,1,.17332-20.6242h28.68323a7.06263,7.06263,0,1,0,0-14.125h-28.68323a24.4371,24.4371,0,1,0,0,48.8742,4.21845,4.21845,0,0,0,1.03989-.08667h12.82512a10.35589,10.35589,0,0,1,.08669,20.71086h-28.68323a6.99,6.99,0,0,0-7.01914,7.01917,7.12046,7.12046,0,0,0,7.01914,7.10583h29.02988A24.48983,24.48983,0,0,0,1350,567.351" transform="translate(-571 -438.99994)" fill="#127a3d"/><g id="Icon"><path d="M669.84393,599.54407c-18.24481,0-29.71307-15.70441-35.97625-24.00019l10.12359-10.2138c2.7218,3.40646,12.90729,19.14911,25.95465,19.14911a18.68036,18.68036,0,0,0,11.56879-4.34638s7.72064,6.75678,11.82373,8.84479c0,0-7.67688,10.51166-23.38239,10.56628l-.11212.00019m90.53681-45.07331h-.02765c-13.67682.02918-30.17676,34.23536-52.47077,34.23536-23.32373,0-38.05859-34.08106-52.58831-34.08106-15.82325,0-30.00006,34.08106-52.58789,34.08106-12.10267,0-21.63141-8.95026-31.70606-18.60822v26.84341A44.05844,44.05844,0,0,0,615.05859,641H728.94147a44.05842,44.05842,0,0,0,44.05847-44.05872V560.35889c-2.07135-2.00617-6.82825-5.8877-12.6192-5.88813M728.94147,438.99994H615.05859a43.913,43.913,0,0,0-17.77771,3.73382c6.87159,24.95673,22.83289,80.10926,35.39307,101.9997-3.78967,3.73041-7.14954,6.80072-11.027,10.61914-10.74994-16.31024-29.82165-78.20837-37.43439-103.75323a43.9257,43.9257,0,0,0-13.21246,31.45928v66.38514c11.61658,9.44256,21.08045,24.02719,31.6203,24.02719l.08576-.00031C617.49951,573.35931,631.35309,540,655.294,540c24.412,0,35.17663,33.294,52.353,33.294C724.17627,573.294,736.61774,540,760,540a27.799,27.799,0,0,1,12.99994,3.21344V483.05865a43.99331,43.99331,0,0,0-17.49066-35.1502c-7.37067,30.04168-24.31458,87.99005-46.39167,121.9002a24.95592,24.95592,0,0,1-12.853-7.48547c22.79944-34.376,43.62091-110.397,46.48785-121.11517a44.02056,44.02056,0,0,0-13.811-2.20807" transform="translate(-571 -438.99994)" fill="url(#linear-gradient)"/><path d="M597.28088,442.73376a44.12808,44.12808,0,0,0-13.06836,8.86561c7.61274,25.54486,26.68445,87.443,37.43439,103.75323,3.8775-3.81842,7.23737-6.88873,11.027-10.61914-12.56018-21.89044-28.52148-77.043-35.39307-101.9997" transform="translate(-571 -438.99994)" fill="url(#linear-gradient-2)"/><path d="M760,540c-23.38226,0-35.82373,33.294-52.353,33.294-17.17639,0-27.941-33.294-52.353-33.294-23.94092,0-37.7945,33.35931-52.58789,33.47067l-.08576.00031c-10.53985,0-20.00372-14.58463-31.6203-24.02719V570.0979c10.07465,9.658,19.60339,18.60822,31.70606,18.60822,22.58783,0,36.76464-34.08106,52.58789-34.08106,14.52972,0,29.26458,34.08106,52.58831,34.08106,22.294,0,38.79395-34.20618,52.47077-34.23536h.02765c5.791.00043,10.54785,3.882,12.6192,5.88813V543.21344A27.799,27.799,0,0,0,760,540" transform="translate(-571 -438.99994)" fill="url(#linear-gradient-3)"/><path d="M643.99127,565.33008l-10.12359,10.2138c6.26318,8.29578,17.73144,24.00019,35.97625,24.00019l.11212-.00019c15.70551-.05462,23.38239-10.56628,23.38239-10.56628-4.10309-2.088-11.82373-8.84479-11.82373-8.84479a18.68036,18.68036,0,0,1-11.56879,4.34638c-13.04736,0-23.23285-15.74265-25.95465-19.14911" transform="translate(-571 -438.99994)" fill="url(#linear-gradient-4)"/><path d="M742.75244,441.208c-2.86694,10.7182-23.68841,86.73919-46.48785,121.11517a24.95592,24.95592,0,0,0,12.853,7.48547c22.07709-33.91015,39.021-91.85852,46.39167-121.9002a43.92448,43.92448,0,0,0-12.75684-6.70044" transform="translate(-571 -438.99994)" fill="url(#linear-gradient-5)"/></g></svg>