<?xml version="1.0" encoding="UTF-8"?>
<svg width="385.5" height="193" xmlns="http://www.w3.org/2000/svg" xmlns:xlink="http://www.w3.org/1999/xlink" x="0px" y="0px" viewBox="0 0 385.5 193" style="enable-background:new 0 0 385.5 193;" xml:space="preserve">
<style type="text/css">
	.st0{fill:#73308A;}
	.st1{fill:#582C5F;}
	.st2{fill:#1D8649;}
	.st3{fill:#6BA43A;}
	.st4{fill:#7B7D7D;}
	.st5{fill:#FFFFFF;}
	.st6{clip-path:url(#SVGID_2_);}
	.st7{fill:url(#SVGID_3_);}
	.st8{fill:url(#SVGID_4_);}
	.st9{fill:url(#SVGID_5_);}
	.st10{fill:url(#SVGID_6_);}
	.st11{fill:url(#SVGID_7_);}
	.st12{fill:url(#SVGID_8_);}
	.st13{fill:url(#SVGID_9_);}
	.st14{fill:#5B413F;}
	.st15{fill:#2F1414;}
	.st16{fill:url(#SVGID_10_);}
</style>
<g>
	<g>
		<path class="st0" d="M381.8,167.3c0,3.3-2.7,5.9-6,5.9c-3.4,0-6.1-2.6-6.1-5.9c0-3.3,2.7-5.9,6.1-5.9    C379.2,161.4,381.8,164,381.8,167.3z M371.2,167.3c0,2.6,2,4.7,4.6,4.7c2.6,0,4.5-2.1,4.5-4.7c0-2.6-1.9-4.7-4.6-4.7    C373.2,162.6,371.2,164.7,371.2,167.3z M374.9,170.4h-1.4v-5.9c0.5-0.1,1.3-0.2,2.3-0.2c1.1,0,1.6,0.2,2,0.5    c0.4,0.3,0.6,0.7,0.6,1.3c0,0.7-0.5,1.2-1.2,1.4v0.1c0.6,0.2,0.9,0.6,1,1.4c0.2,0.9,0.3,1.2,0.4,1.4h-1.4    c-0.2-0.2-0.3-0.7-0.5-1.4c-0.1-0.6-0.5-0.9-1.2-0.9h-0.6V170.4z M374.9,167h0.6c0.8,0,1.4-0.3,1.4-0.9c0-0.5-0.4-0.9-1.3-0.9    c-0.4,0-0.6,0-0.8,0.1V167z"/>
	</g>
	<g>
		<path class="st1" d="M368.4,175.9c0.5-1.9,0.3-3.9-0.8-5.6c-0.5-0.9-1.1-1.6-1.6-2.3c-0.4-0.6-0.9-1.3-1.1-1.7    c-1.3-2.9-4.4-4.6-7.5-4.1c-1.8,0.3-3.5,0.7-5,1.1c-1.6-1-3.4-1.4-5.3-1c-1.5,0.3-3.8,0.5-5.8,0.5c-1,0-1.9-0.1-2.6-0.2    c-0.7-0.1-1.4-0.1-2.1,0c-0.4,0-0.7,0-1.1,0.1c-0.2,0-1.1,0.1-2.2,0.1c-0.9,0-1.4,0-1.6-0.1c-1.5-0.4-3-0.3-4.4,0.3    c-1,0.1-2.3,0-3.7-0.2c-0.8-0.1-1.7,0-2.5,0.1c-1.5-0.4-3.1-0.6-4.6-0.6c-2.1,0-4.1,0.3-5.9,1c-1-0.5-2.1-0.7-3.3-0.7    c-1.5,0.1-3.3,0.1-5.1-0.1c-0.9-0.1-1.8,0.1-2.7,0.4c-1-0.1-2.2-0.2-3.8-0.4c-1.4-0.2-2.8,0-4,0.6c-1.5,0-3.3-0.1-4.5-0.3    c-0.1,0-0.2,0-0.3,0c-1-0.3-2.1-0.4-3.2-0.2c-1.6,0.2-3.2,0.4-4.3,0.4c-0.4,0-0.6,0-0.7,0c-0.6-0.1-1.2-0.1-1.7,0    c-1.8-0.8-4.1-1.4-6.8-1.4c-2.3,0-5.6,0.4-7.5,1c-0.1,0-0.2,0.1-0.3,0.1c-0.9,0-2.4,0-4.8-0.1c-1,0-1.9,0.2-2.8,0.5    c-1.8,0.1-3.7,0.1-6.1-0.1c-0.3,0-0.5,0-0.8,0c-1.7-1.1-3.7-1.5-5.6-1c-0.5,0.1-1.8,0.3-3.8,0.3c-0.7,0-1.5,0-2.1-0.1    c-1-0.1-2,0.1-3,0.4c-1.4-1-3.2-1.5-5-1.2c-5.6,0.8-9.7,2.7-12.2,5.4c-1.7-3.2-5.3-5.7-10.6-5.8c-3.3,0-6.5,1.1-8.9,3.1    c-0.3-0.4-0.6-0.7-0.9-1c-1.7-1.6-4-2.2-6.3-1.8c-1.5,0.3-3.8,0.5-5.8,0.5c-1,0-1.9-0.1-2.6-0.2c-0.9-0.2-1.9-0.1-2.7,0.1    c-1.1,0.1-2.3,0.1-3.9-0.1c-1-0.1-2,0-2.8,0.3c-0.3,0-0.7,0-1,0c-2.3,0.2-3.9,0.2-5.3,0c-0.9-0.1-1.8,0-2.6,0.2    c-1.5-0.5-3.1-0.8-4.9-0.9c-2.8,0-5.4,0.7-7.5,1.9c-1.3-1-2.9-1.6-4.6-1.5c-2,0.1-4.2,0-5.6-0.1c-2.1-0.2-4.1,0.6-5.6,2.1    c-1.5,1.5-2.2,3.5-2.1,5.6c0.2,3,0.3,5.7,0.3,8c0,1.7-0.1,3.1-0.3,4.1c-0.3,2.2,0.4,4.4,1.9,6c1.3,1.4,3.2,2.2,5.1,2.2    c0.2,0,0.5,0,0.7,0c1.3-0.1,2.5-0.2,3.8-0.2c1.2,0,2.3,0.1,3.5,0.1c0.8,0,1.7,0.1,2.5,0.1c0.9,0,1.9-0.1,2.7-0.4    c1.5,0.5,3.2,0.8,4.9,0.9c2.2,0,4.4-0.5,6.3-1.4c1.2,0.9,2.6,1.3,4.1,1.4c0.4,0,0.7,0,1.1-0.1c1.7-0.2,4.3-0.3,6.9-0.1    c0.6,0,1.2,0,1.8-0.1c1,0.3,2.1,0.4,3.2,0.2c1.2-0.2,2.9-0.3,4.7-0.3c1.7,0,3.3,0.1,4.5,0.3c0.4,0.1,0.8,0.1,1.2,0.1    c1.6,0,3.2-0.5,4.4-1.5c2.1,1.2,4.8,1.9,8.2,2c1.2,0,3.1-0.2,5-0.8c0.9,0.4,1.9,0.7,2.9,0.9c0.4,0.1,0.8,0.1,1.2,0.1    c1.5,0,3-0.5,4.2-1.4c0.3-0.2,0.5-0.4,0.7-0.6c1.3,1.7,3.4,2.7,5.5,2.7c0.4,0,0.8,0,1.2-0.1c0.1,0,2.4-0.4,5.2-1.6    c0.6,0.2,1.2,0.3,1.9,0.4l0.7,0c1.4,0.1,3.1,0.1,4.5,0.4c0.5,0.1,1,0.2,1.4,0.2c0.6,0,1.3-0.1,1.9-0.2c1.2,0.2,2.5,0,3.7-0.4    c0.3-0.1,0.6-0.2,1-0.3c0.9,0.4,1.8,0.6,2.8,0.6c1.1,0,2.1,0,3.2,0c0.8,0,1.7,0,2.7,0c0.4,0,0.8,0,1.1-0.1    c0.5,0.1,0.9,0.1,1.4,0.1c2.7-0.1,5.2-0.2,6.8-0.2c0.6,0,1.2-0.1,1.8-0.2c2.3,0.5,4.5,0.5,5,0.5c0,0,0.1,0,0.1,0l0,0    c2.3,0,4.7-0.5,6.9-1.5c1.1,0.8,2.5,1.2,3.9,1.3c2.6,0,4.9,0.3,5.5,0.4c0.5,0.1,1.1,0.2,1.7,0.2c1,0,2-0.2,2.9-0.6    c1.4-0.1,3.1,0,5,0.1c0.5,0,1.1,0.1,1.6,0.1c0.8,0,1.5,0,2.2-0.2c0.7,0.2,1.3,0.3,2,0.3c0.1,0,0.2,0,0.3,0c1.8-0.1,3.8-0.1,5.6,0    c1,0,1.9-0.1,2.8-0.5c1.8,0.6,3.8,1,6.2,1c1.2,0,2.7-0.1,4.3-0.6c0.5,0.1,1,0.2,1.5,0.2c0.2,0,0.4,0,0.7,0    c1.3-0.1,3.2-0.2,4.3-0.1c0.6,0.1,1.2,0.1,1.7,0c0.4,0.1,0.9,0.1,1.3,0.1c1.2,0,3.4,0,4.9,0c1,0.3,2.1,0.4,3.2,0.2    c1.2-0.2,2.9-0.3,4.7-0.3c1.7,0,3.3,0.1,4.5,0.3c0.3,0.1,0.7,0.1,1,0.1c1.1,0.8,2.5,1.2,3.9,1.2c0.4,0,0.8,0,1.2-0.1    c0.1,0,15-2.8,15.1-12.9C369,178.2,368.8,177.1,368.4,175.9z"/>
		<path class="st0" d="M368.4,174.9c0.5-1.9,0.3-3.9-0.8-5.6c-0.5-0.9-1.1-1.6-1.6-2.3c-0.4-0.6-0.9-1.3-1.1-1.7    c-1.3-2.9-4.4-4.6-7.5-4.1c-1.8,0.3-3.5,0.7-5,1.1c-1.6-1-3.4-1.4-5.3-1c-1.5,0.3-3.8,0.5-5.8,0.5c-1,0-1.9-0.1-2.6-0.2    c-0.7-0.1-1.4-0.1-2.1,0c-0.4,0-0.7,0-1.1,0.1c-0.2,0-1.1,0.1-2.2,0.1c-0.9,0-1.4,0-1.6-0.1c-1.5-0.4-3-0.3-4.4,0.3    c-1,0.1-2.3,0-3.7-0.2c-0.8-0.1-1.7,0-2.5,0.1c-1.5-0.4-3.1-0.6-4.6-0.7c-2.1,0-4.1,0.4-5.9,1c-1-0.5-2.1-0.7-3.3-0.7    c-1.5,0.1-3.3,0.1-5.1-0.1c-0.9-0.1-1.8,0.1-2.7,0.4c-1-0.1-2.2-0.2-3.8-0.4c-1.4-0.2-2.8,0-4,0.6c-1.5,0-3.3-0.1-4.5-0.3    c-0.1,0-0.2,0-0.3,0c-1-0.3-2.1-0.4-3.2-0.2c-1.6,0.3-3.2,0.4-4.3,0.4c-0.4,0-0.6,0-0.7,0c-0.6-0.1-1.2-0.1-1.7,0    c-1.8-0.8-4.1-1.4-6.8-1.4c-2.3,0-5.6,0.4-7.5,1c-0.1,0-0.2,0.1-0.3,0.1c-0.9,0-2.4,0-4.8-0.1c-1,0-1.9,0.2-2.8,0.5    c-1.8,0.1-3.7,0.1-6.1-0.1c-0.3,0-0.5,0-0.8,0c-1.7-1.1-3.7-1.5-5.6-1c-0.5,0.1-1.8,0.3-3.8,0.3c-0.7,0-1.5,0-2.1-0.1    c-1-0.1-2,0.1-3,0.4c-1.4-1-3.2-1.5-5-1.2c-5.6,0.8-9.7,2.7-12.2,5.4c-1.7-3.2-5.3-5.7-10.6-5.8c-3.3,0-6.5,1.1-8.9,3.1    c-0.3-0.4-0.6-0.7-0.9-1c-1.7-1.6-4-2.2-6.3-1.8c-1.5,0.3-3.8,0.5-5.8,0.5c-1,0-1.9-0.1-2.6-0.2c-0.9-0.2-1.9-0.1-2.7,0.1    c-1.1,0.1-2.3,0.1-3.9-0.1c-1-0.1-2,0-2.8,0.3c-0.3,0-0.7,0-1,0c-2.3,0.2-3.9,0.2-5.3,0c-0.9-0.1-1.8,0-2.6,0.2    c-1.5-0.5-3.1-0.8-4.9-0.9c-2.8,0-5.4,0.7-7.5,2c-1.3-1-2.9-1.6-4.6-1.5c-2,0.1-4.2,0-5.6-0.1c-2.1-0.2-4.1,0.6-5.6,2.1    c-1.5,1.5-2.2,3.5-2.1,5.6c0.2,3,0.3,5.7,0.3,8c0,1.7-0.1,3.1-0.3,4.1c-0.3,2.2,0.4,4.4,1.9,6c1.3,1.4,3.2,2.2,5.1,2.2    c0.2,0,0.5,0,0.7,0c1.3-0.1,2.5-0.2,3.8-0.2c1.2,0,2.3,0.1,3.5,0.1c0.8,0,1.7,0.1,2.5,0.1c0.9,0,1.9-0.1,2.7-0.5    c1.5,0.5,3.2,0.8,4.9,0.9c2.2,0,4.4-0.5,6.3-1.4c1.2,0.9,2.6,1.3,4.1,1.4c0.4,0,0.7,0,1.1-0.1c1.7-0.2,4.3-0.3,6.9-0.1    c0.6,0,1.2,0,1.8-0.1c1,0.3,2.1,0.4,3.2,0.2c1.2-0.2,2.9-0.3,4.7-0.3c1.7,0,3.3,0.1,4.5,0.3c0.4,0.1,0.8,0.1,1.2,0.1    c1.6,0,3.2-0.5,4.4-1.5c2.1,1.2,4.8,1.9,8.2,2c1.2,0,3.1-0.2,5-0.9c0.9,0.4,1.9,0.7,2.9,0.9c0.4,0.1,0.8,0.1,1.2,0.1    c1.5,0,3-0.5,4.2-1.4c0.3-0.2,0.5-0.4,0.7-0.6c1.3,1.7,3.4,2.7,5.5,2.7c0.4,0,0.8,0,1.2-0.1c0.1,0,2.4-0.4,5.2-1.6    c0.6,0.2,1.2,0.3,1.9,0.4l0.7,0c1.4,0.1,3.1,0.1,4.5,0.4c0.5,0.1,1,0.2,1.4,0.2c0.6,0,1.3-0.1,1.9-0.2c1.2,0.2,2.5,0,3.7-0.5    c0.3-0.1,0.6-0.2,1-0.3c0.9,0.4,1.8,0.6,2.8,0.6c1.1,0,2.1,0,3.2,0c0.8,0,1.7,0,2.7,0c0.4,0,0.8,0,1.1-0.1    c0.5,0.1,0.9,0.1,1.4,0.1c2.7-0.1,5.2-0.2,6.8-0.2c0.6,0,1.2-0.1,1.8-0.2c2.3,0.5,4.5,0.5,5,0.5c0,0,0.1,0,0.1,0l0,0    c2.3,0,4.7-0.5,6.9-1.5c1.1,0.8,2.5,1.2,3.9,1.3c2.6,0,4.9,0.3,5.5,0.4c0.5,0.1,1.1,0.2,1.7,0.2c1,0,2-0.2,2.9-0.6    c1.4-0.1,3.1,0,5,0.1c0.5,0,1.1,0.1,1.6,0.1c0.8,0,1.5,0,2.2-0.2c0.7,0.2,1.3,0.3,2,0.3c0.1,0,0.2,0,0.3,0c1.8-0.1,3.8-0.1,5.6,0    c1,0,1.9-0.1,2.8-0.5c1.8,0.6,3.8,1,6.2,1c1.2,0,2.7-0.1,4.3-0.6c0.5,0.1,1,0.2,1.5,0.2c0.2,0,0.4,0,0.7,0    c1.3-0.1,3.2-0.2,4.3-0.1c0.6,0.1,1.2,0.1,1.7,0c0.4,0.1,0.9,0.1,1.3,0.1c1.2,0,3.4,0,4.9,0c1,0.3,2.1,0.4,3.2,0.2    c1.2-0.2,2.9-0.3,4.7-0.3c1.7,0,3.3,0.1,4.5,0.3c0.3,0.1,0.7,0.1,1,0.1c1.1,0.8,2.5,1.2,3.9,1.2c0.4,0,0.8,0,1.2-0.1    c0.1,0,15-2.8,15.1-12.9C369,177.2,368.8,176.1,368.4,174.9z"/>
		<g>
			<path class="st2" d="M193.8,178.1c0.1-0.7-0.2-1.4-0.6-1.9c0-0.6,0-1.2,0-1.7c0-0.3,0-0.6-0.1-0.9c0-0.2,0-0.3,0-0.5     c-0.1-1.5-0.1-3,0.1-4.4c0.1-0.8-0.2-1.5-0.7-2c-0.6-0.5-1.3-0.7-2.1-0.6c-2.7,0.6-7.4,0.8-10.1,0.3c-0.4-0.1-0.8,0-1.1,0.1     c-1.5,0.2-3.2,0.2-5.3,0c-0.7-0.1-1.3,0.1-1.8,0.5c-0.4-0.2-0.8-0.3-1.3-0.3c-2.6,0.2-4.4,0.2-6.1,0c-0.7-0.1-1.5,0.2-2,0.8     c-1.4-0.8-3.1-1.3-5-1.4c-5.3,0-9.1,3.3-9.7,8.3c0,0-0.1,0-0.1,0c0-1.7,0.1-3.4,0.3-5.3c0.1-0.7-0.2-1.3-0.6-1.8     c-0.5-0.5-1.1-0.8-1.8-0.7c-0.9,0-1.8,0-2.8,0c-1.3,0-2.4-0.1-3.4-0.1c-0.7-0.1-1.4,0.2-1.9,0.7c-0.5,0.5-0.7,1.2-0.7,1.9     c0.2,3.2,0.4,6,0.3,8.4c0,1.9-0.1,3.5-0.3,4.8c-0.1,0.7,0.1,1.5,0.6,2c0.4,0.5,1.1,0.7,1.7,0.7c0.1,0,0.2,0,0.2,0     c1.5-0.1,2.8-0.2,4.3-0.2c1.3,0,2.5,0.1,3.7,0.1c0.8,0,1.6,0.1,2.5,0.1c0.7,0,1.4-0.3,1.9-0.8c0.1-0.1,0.2-0.2,0.2-0.3     c1.5,1,3.4,1.5,5.4,1.5c3.2,0,6-1.5,7.8-3.8c0.1,0.6,0.2,1.2,0.2,1.6c0.1,0.6,0.4,1.2,0.9,1.6c0.4,0.3,0.9,0.5,1.4,0.5     c0.1,0,0.2,0,0.4,0c2-0.3,5-0.4,8-0.2c0.7,0,1.3-0.2,1.8-0.6c0,0,0.1,0.1,0.1,0.1c0.5,0.5,1.3,0.8,2,0.7c1.5-0.2,3.4-0.4,5.5-0.4     c2,0,3.8,0.2,5.3,0.4c0.1,0,0.3,0,0.4,0c0.6,0,1.2-0.2,1.7-0.7c0.5-0.6,0.8-1.4,0.6-2.1C193.5,181.1,193.6,179.7,193.8,178.1z"/>
			<path class="st2" d="M215.2,172c-0.5-0.2-1.3-0.6-2.1-1c-0.2-0.1-0.4-0.2-0.6-0.3c-0.2-2-2.1-4.9-6.9-5c-2.4,0-4.7,0.9-6.3,2.5     c-1.3,1.3-2,2.9-2,4.5c0,0.6,0.1,1.2,0.3,1.7c-1.3,1.1-2.4,2.7-2.4,4.9c0,4,3.4,6.4,8.9,6.5c1.1,0,3.4-0.3,5.1-1.3     c1.1,0.6,2.5,1.2,3.6,1.4c0.1,0,0.3,0,0.4,0c0.5,0,1-0.2,1.4-0.5c0.5-0.4,0.9-0.9,1-1.6c0.2-1.4,0.7-4.2,0.9-5.7l0.1-0.4     c0.1-0.6,0-1.3-0.4-1.8c0.2-0.4,0.4-0.8,0.5-1.2C217,173.7,216.3,172.4,215.2,172z"/>
			<path class="st2" d="M362.8,176c0.4-0.2,0.7-0.6,0.9-1c0.4-0.7,0.3-1.6-0.1-2.3c-0.4-0.7-0.9-1.3-1.3-2c-0.6-0.9-1.2-1.7-1.6-2.5     c-0.4-1-1.4-1.5-2.5-1.4c-1.8,0.3-4.8,0.9-7.3,2.2c0-0.6-0.3-1.2-0.7-1.6c-0.6-0.5-1.3-0.7-2.1-0.6c-2.7,0.6-7.4,0.8-10.1,0.3     c-0.4-0.1-0.7,0-1.1,0.1c-0.2,0-0.5-0.1-0.7,0c-0.5,0.1-1.6,0.1-2.9,0.1c-1.7,0-2.5-0.1-2.6-0.2c-0.7-0.2-1.4-0.1-2,0.3     c0,0-0.1,0-0.1,0c-1.5,0.2-3.3,0.2-5.4-0.1c-0.6-0.1-1.2,0.1-1.7,0.5c-1.5-0.6-3.2-0.9-4.8-0.9c-2.5,0-4.8,0.7-6.6,2     c-0.1-0.3-0.3-0.6-0.5-0.9c-0.5-0.5-1.2-0.8-1.9-0.8c-1.7,0.1-3.7,0.1-5.6-0.1c-0.6,0-1.1,0.1-1.5,0.5c-1.1-0.1-2.8-0.2-5.4-0.6     c-0.7-0.1-1.4,0.1-1.9,0.6c0,0-0.1,0.1-0.1,0.1c-2,0.1-4.9,0-6.7-0.3c-0.2,0-0.4,0-0.6,0c-0.5-0.2-1-0.3-1.5-0.3     c-0.9,0.1-3.1,0.5-5,0.4c-0.4,0-0.8,0-1.2-0.1c-0.6-0.1-1.2,0.1-1.7,0.5c-1.4-1-3.5-1.8-6.4-1.8c-2,0-4.8,0.4-6.1,0.8     c-0.2,0.1-0.5,0.2-0.7,0.3c-0.1,0-0.1,0-0.2,0c0,0-1.8,0-5.7-0.1c-0.6,0-1.1,0.2-1.5,0.6c-0.2-0.1-0.4-0.1-0.7-0.1     c-2.1,0.1-4.2,0.1-6.9-0.1c-0.7,0-1.4,0.2-1.9,0.7c-0.1,0.1-0.1,0.2-0.2,0.2c0,0,0-0.1,0-0.1c-0.1-0.7-0.5-1.3-1-1.6     c-0.6-0.4-1.2-0.5-1.9-0.3c-1.1,0.3-2.9,0.4-4.9,0.4c-0.9,0-1.7,0-2.5-0.1c-1.3-0.1-2.4,0.8-2.6,2.1c0,0.4-0.1,0.7-0.1,1.1     c0-0.1-0.1-0.1-0.1-0.2c-0.6-0.9-1.2-1.7-1.6-2.5c-0.4-1-1.5-1.5-2.5-1.4c-3.3,0.5-10.9,2.2-11,7.6c0,1.4,0.5,2.5,1.2,3.2     c-0.7,0.2-1.3,0.7-1.6,1.5c-0.3,0.8-0.2,1.7,0.4,2.4c1.2,1.4,2.3,2.9,3.3,4.4l0.3,0.5c0.4,0.6,1.2,1,1.9,1c0.1,0,0.3,0,0.4,0     c0.1,0,3.3-0.7,6.3-2.3c0.4,0.6,1.1,1,1.8,1l0.7,0c1.6,0.1,3.5,0.2,5.2,0.5c0.2,0,0.3,0.1,0.5,0.1c0.5,0,1.1-0.2,1.5-0.5     c0,0,0,0,0.1-0.1c0,0,0.1,0.1,0.2,0.1c0.6,0.4,1.4,0.4,2.1,0.1c0.8-0.3,2.2-0.8,3.7-1c0,0,0.1,0.1,0.1,0.1     c0.4,0.5,1.1,0.8,1.8,0.8c1.1,0,2.1,0,3.3,0c0.8,0,1.7,0,2.7,0c0.4,0,0.8-0.1,1.1-0.3c0.4,0.2,0.8,0.3,1.2,0.3     c2.7-0.1,5.4-0.2,7-0.2c0.5,0,1-0.2,1.4-0.4c1.7,0.5,3.9,0.7,5.4,0.7c0,0,0.1,0,0.1,0l0,0c2.4,0,4.9-0.8,6.8-2.2     c0.6-0.5,1.1-1,1.6-1.5c0,0.4,0.1,0.8,0.1,1.2c0,1.3,1.1,2.3,2.3,2.3c2.6,0,5.4,0.3,6.6,0.6c0.2,0.1,0.4,0.1,0.6,0.1     c0.5,0,1-0.1,1.4-0.4c0.1-0.1,0.2-0.1,0.2-0.2c0.3,0.1,0.5,0.1,0.8,0.1c0.6,0,1.1-0.1,1.8-0.1c1.3,0,2.5,0.1,3.9,0.2     c0.5,0,1.1,0.1,1.6,0.1c0.8,0.1,1.6-0.3,2-1c0.1,0.1,0.1,0.2,0.2,0.3c0.4,0.5,1.1,0.8,1.8,0.8c0,0,0.1,0,0.1,0c1.9-0.1,4-0.1,6,0     c0.7,0,1.4-0.3,1.9-0.8c0.1-0.1,0.2-0.2,0.2-0.4c1.6,1,3.8,1.7,6.7,1.7c1.6,0,3.1-0.3,4.5-0.8c0.4,0.3,0.9,0.5,1.4,0.5     c0.1,0,0.1,0,0.2,0c1.5-0.1,3.8-0.3,5.4,0c0.4,0.1,0.9,0,1.3-0.2c0.3,0.2,0.7,0.3,1.1,0.2c1.4,0,4.2-0.1,5.7,0c0.1,0,0.1,0,0.2,0     c0.5,0.3,1,0.4,1.6,0.3c1.5-0.2,3.4-0.4,5.5-0.4c2,0,3.8,0.2,5.3,0.4c0.1,0,0.3,0,0.4,0c0.5,0,1-0.2,1.4-0.4c0,0,0.1,0.1,0.1,0.1     l0.3,0.5c0.4,0.6,1.2,1,1.9,1c0.1,0,0.3,0,0.4,0c0.1,0,11.1-2.3,11.1-8.3C364.2,177.7,363.6,176.7,362.8,176z"/>
		</g>
		<g>
			<path class="st3" d="M193.8,177c0.1-0.7-0.2-1.4-0.6-1.9c0-0.6,0-1.2,0-1.7c0-0.3,0-0.6-0.1-0.9c0-0.2,0-0.3,0-0.5     c-0.1-1.5-0.1-3,0.1-4.4c0.1-0.8-0.2-1.5-0.7-2c-0.6-0.5-1.3-0.7-2.1-0.6c-2.7,0.6-7.4,0.8-10.1,0.3c-0.4-0.1-0.8,0-1.1,0.1     c-1.5,0.2-3.2,0.2-5.3,0c-0.7-0.1-1.3,0.1-1.8,0.5c-0.4-0.2-0.8-0.3-1.3-0.3c-2.6,0.2-4.4,0.2-6.1,0c-0.7-0.1-1.5,0.2-2,0.8     c-1.4-0.9-3.1-1.3-5-1.4c-5.3,0-9.1,3.3-9.7,8.3c0,0-0.1,0-0.1,0c0-1.7,0.1-3.4,0.3-5.3c0.1-0.7-0.2-1.3-0.6-1.8     c-0.5-0.5-1.1-0.8-1.8-0.7c-0.9,0-1.8,0-2.8,0c-1.3,0-2.4-0.1-3.4-0.1c-0.7-0.1-1.4,0.2-1.9,0.7c-0.5,0.5-0.7,1.2-0.7,1.9     c0.2,3.2,0.4,6,0.3,8.4c0,1.9-0.1,3.5-0.3,4.8c-0.1,0.7,0.1,1.5,0.6,2c0.4,0.5,1.1,0.7,1.7,0.7c0.1,0,0.2,0,0.2,0     c1.5-0.1,2.8-0.2,4.3-0.2c1.3,0,2.5,0.1,3.7,0.1c0.8,0,1.6,0.1,2.5,0.1c0.7,0,1.4-0.3,1.9-0.8c0.1-0.1,0.2-0.2,0.2-0.3     c1.5,1,3.4,1.5,5.4,1.5c3.2,0,6-1.5,7.8-3.8c0.1,0.6,0.2,1.2,0.2,1.6c0.1,0.7,0.4,1.3,0.9,1.6c0.4,0.3,0.9,0.5,1.4,0.5     c0.1,0,0.2,0,0.4,0c2-0.3,5-0.4,8-0.2c0.7,0,1.3-0.2,1.8-0.6c0,0.1,0.1,0.1,0.1,0.1c0.5,0.5,1.3,0.8,2,0.7     c1.5-0.2,3.4-0.4,5.5-0.4c2,0,3.8,0.2,5.3,0.4c0.1,0,0.3,0,0.4,0c0.6,0,1.2-0.2,1.7-0.7c0.5-0.6,0.8-1.4,0.6-2.1     C193.5,180.1,193.7,178.6,193.8,177z"/>
			<path class="st3" d="M215.2,171c-0.5-0.2-1.3-0.6-2.1-1c-0.2-0.1-0.4-0.2-0.6-0.3c-0.2-2-2.1-4.9-6.9-5c-2.4,0-4.7,0.9-6.3,2.5     c-1.3,1.3-2,2.9-2,4.5c0,0.6,0.1,1.2,0.3,1.8c-1.3,1.1-2.4,2.7-2.4,4.9c0,4,3.4,6.4,8.9,6.5c1.1,0,3.4-0.3,5.1-1.3     c1.1,0.6,2.5,1.2,3.6,1.4c0.1,0,0.3,0,0.4,0c0.5,0,1-0.2,1.4-0.5c0.5-0.4,0.9-0.9,1-1.6c0.2-1.4,0.7-4.2,0.9-5.7l0.1-0.4     c0.1-0.6,0-1.3-0.4-1.8c0.2-0.4,0.4-0.8,0.5-1.2C217,172.6,216.4,171.4,215.2,171z"/>
			<path class="st3" d="M362.8,175c0.4-0.2,0.7-0.6,0.9-1c0.4-0.7,0.3-1.6-0.1-2.3c-0.4-0.7-0.9-1.3-1.3-2c-0.6-0.9-1.2-1.7-1.6-2.5     c-0.4-1-1.4-1.5-2.5-1.4c-1.8,0.3-4.8,0.9-7.3,2.2c0-0.6-0.3-1.2-0.7-1.6c-0.6-0.5-1.3-0.7-2.1-0.6c-2.7,0.6-7.4,0.8-10.1,0.3     c-0.4-0.1-0.7,0-1.1,0.1c-0.2,0-0.5-0.1-0.7,0c-0.5,0.1-1.6,0.1-2.9,0.1c-1.7,0-2.5-0.1-2.6-0.2c-0.7-0.2-1.4-0.1-2,0.3     c0,0-0.1,0-0.1,0c-1.5,0.2-3.3,0.2-5.4-0.1c-0.6-0.1-1.2,0.1-1.7,0.5c-1.5-0.6-3.2-0.9-4.8-0.9c-2.5,0-4.8,0.7-6.6,2     c-0.1-0.3-0.3-0.6-0.5-0.9c-0.5-0.5-1.2-0.8-1.9-0.8c-1.7,0.1-3.7,0.1-5.6-0.1c-0.6,0-1.1,0.1-1.5,0.5c-1.1-0.1-2.8-0.2-5.4-0.6     c-0.7-0.1-1.4,0.1-1.9,0.6c0,0-0.1,0.1-0.1,0.1c-2,0.1-4.9,0-6.7-0.3c-0.2,0-0.4,0-0.6,0c-0.5-0.2-1-0.3-1.5-0.2     c-0.9,0.1-3.1,0.5-5,0.4c-0.4,0-0.8,0-1.2-0.1c-0.6-0.1-1.2,0.1-1.7,0.5c-1.4-1-3.5-1.8-6.4-1.8c-2,0-4.8,0.4-6.1,0.8     c-0.2,0.1-0.5,0.2-0.7,0.3c-0.1,0-0.1,0-0.2,0c0,0-1.8,0-5.7-0.1c-0.6,0-1.1,0.2-1.5,0.5c-0.2,0-0.4-0.1-0.7-0.1     c-2.1,0.1-4.2,0.1-6.9-0.1c-0.7,0-1.4,0.2-1.9,0.7c-0.1,0.1-0.1,0.2-0.2,0.2c0,0,0-0.1,0-0.1c-0.1-0.7-0.5-1.3-1-1.6     c-0.6-0.4-1.2-0.5-1.9-0.3c-1.1,0.3-2.9,0.4-4.9,0.4c-0.9,0-1.7,0-2.5-0.1c-1.3-0.1-2.4,0.8-2.6,2.1c0,0.4-0.1,0.7-0.1,1.1     c0-0.1-0.1-0.1-0.1-0.1c-0.6-0.9-1.2-1.7-1.6-2.5c-0.4-1-1.5-1.5-2.5-1.4c-3.3,0.5-10.9,2.2-11,7.6c0,1.4,0.5,2.5,1.2,3.2     c-0.7,0.2-1.3,0.7-1.6,1.5c-0.3,0.8-0.2,1.7,0.4,2.4c1.2,1.4,2.3,2.9,3.3,4.4l0.3,0.5c0.4,0.6,1.2,1,1.9,1c0.1,0,0.3,0,0.4,0     c0.1,0,3.3-0.7,6.3-2.3c0.4,0.6,1.1,1,1.8,1l0.7,0c1.6,0.1,3.5,0.2,5.2,0.5c0.2,0,0.3,0.1,0.5,0.1c0.5,0,1.1-0.2,1.5-0.5     c0,0,0,0,0.1-0.1c0,0,0.1,0.1,0.2,0.1c0.6,0.4,1.4,0.4,2.1,0.1c0.8-0.3,2.2-0.8,3.7-1c0,0,0.1,0.1,0.1,0.1     c0.4,0.5,1.1,0.8,1.8,0.8c1.1,0,2.1,0,3.3,0c0.8,0,1.7,0,2.7,0c0.4,0,0.8-0.1,1.1-0.3c0.4,0.2,0.8,0.3,1.2,0.3     c2.7-0.1,5.4-0.2,7-0.2c0.5,0,1-0.2,1.4-0.4c1.7,0.5,3.9,0.7,5.4,0.7c0,0,0.1,0,0.1,0l0,0c2.4,0,4.9-0.8,6.8-2.2     c0.6-0.4,1.1-1,1.6-1.5c0,0.4,0.1,0.8,0.1,1.2c0,1.3,1.1,2.3,2.3,2.3c2.6,0,5.4,0.3,6.6,0.6c0.2,0,0.4,0.1,0.6,0.1     c0.5,0,1-0.2,1.4-0.5c0.1-0.1,0.2-0.1,0.2-0.2c0.3,0.1,0.5,0.1,0.8,0.1c0.6,0,1.1-0.1,1.8-0.1c1.3,0,2.5,0.1,3.9,0.2     c0.5,0,1.1,0.1,1.6,0.1c0.8,0.1,1.6-0.3,2-1c0.1,0.1,0.1,0.2,0.2,0.3c0.4,0.5,1.1,0.8,1.8,0.8c0,0,0.1,0,0.1,0c1.9-0.1,4-0.1,6,0     c0.7,0,1.4-0.3,1.9-0.8c0.1-0.1,0.2-0.2,0.2-0.4c1.6,1.1,3.8,1.7,6.7,1.7c1.6,0,3.1-0.3,4.5-0.8c0.4,0.3,0.9,0.5,1.4,0.5     c0.1,0,0.1,0,0.2,0c1.5-0.1,3.8-0.3,5.4-0.1c0.4,0.1,0.9,0,1.3-0.2c0.3,0.2,0.7,0.3,1.1,0.2c1.4,0,4.2-0.1,5.7,0     c0.1,0,0.1,0,0.2,0c0.5,0.3,1,0.4,1.6,0.3c1.5-0.2,3.4-0.4,5.5-0.4c2,0,3.8,0.2,5.3,0.4c0.1,0,0.3,0,0.4,0c0.5,0,1-0.2,1.4-0.4     c0,0,0.1,0.1,0.1,0.1l0.3,0.5c0.4,0.6,1.2,1,1.9,1c0.1,0,0.3,0,0.4,0c0.1,0,11.1-2.3,11.1-8.3C364.2,176.7,363.6,175.7,362.8,175     z"/>
		</g>
		<g>
			<path class="st4" d="M150.1,176.2c-1.5,0-2.9,0.2-4.4,0c-0.2-2.6,0-5.2,0.2-7.8c-2.2,0.1-4.5,0.1-6.4-0.1     c0.1,1.5,0.4,5.1,0.3,8.6c0,1.8-0.1,3.6-0.3,5.1c1.7-0.2,3.2-0.2,4.6-0.2c2.1,0,4.1,0.2,6.2,0.2     C150,180.2,149.9,178.1,150.1,176.2z"/>
			<path class="st4" d="M157.8,167.9c-4.3,0-7.4,2.8-7.5,7.2c0,4,3,7.2,7.4,7.3c4.1,0,7.3-3.2,7.3-7.2     C165.1,171.3,162.1,168,157.8,167.9z M159,174.7c-0.8,0-1.4-0.5-1.4-1.1c0-0.6,0.6-1.2,1.4-1.1c0.8,0,1.4,0.5,1.4,1.2     C160.4,174.2,159.8,174.7,159,174.7z"/>
			<path class="st4" d="M173.6,168.3c-0.2,1.7-0.6,5.4-1.1,7.9c-0.4-1.3-1.4-4.8-1.5-7.7c-2.2,0.1-4.4,0.2-6.5,0     c1.3,2.7,3.3,11,3.6,13.8c1.6-0.2,3.5-0.3,5.4-0.3c1.1,0,2.1,0.1,3.1,0.1c0.3-3.7,1.8-10.3,3.4-13.9     C177.8,168.6,175.7,168.5,173.6,168.3z"/>
			<path class="st4" d="M191.4,177.3c-1.6,0.3-4.1,0.3-5.7,0.2c0-0.4,0-0.7,0-1c1.7-0.2,3.5-0.2,5.1-0.2c-0.1-0.9-0.1-1.8,0-2.7     c-1.6,0.2-4,0.3-5.2,0.3c0-0.3,0-0.7,0-1c1.8-0.3,4.1-0.3,5.2-0.3c-0.1-1.6-0.1-3.3,0.1-4.9c-2,0.4-4.8,0.6-7.3,0.6     c-1.4,0-2.6-0.1-3.7-0.3c0.4,2.1,0.6,4.4,0.5,6.6c0,3-0.3,5.8-0.6,7.6c1.7-0.3,3.7-0.4,5.8-0.4c2,0,4,0.1,5.7,0.5     C191.1,180.8,191.3,179,191.4,177.3z"/>
			<path class="st4" d="M210.8,172.1c-0.4,1-1.6,2.6-3,2.7c-0.3,0-0.6,0-0.9-0.2c1.9-0.9,3.2-2.2,3.2-4c0-0.8-0.9-2.9-4.6-2.9     c-3.6,0-5.9,2.5-5.9,4.6c0,1,0.5,1.9,1.3,2.5c-0.8,0.3-3.4,1.4-3.4,4.1c0,3,3.3,4.1,6.6,4.1c1.4,0,4.1-0.7,5-1.8     c0.7,0.5,2.9,1.7,4.2,1.9c0.2-1.6,0.8-4.7,1-6.2c-0.5,0-1,0.1-1.5,0.1c-0.2,0-0.3,0-0.4,0c0.7-0.8,1.8-2.3,2-3.2     C213.5,173.4,212,172.6,210.8,172.1z M204.3,178.7c-0.3,0-0.6,0-0.8-0.2c-0.1-0.1-0.2-0.3-0.2-0.5c0-0.4,0.2-0.7,0.4-1     c0.3,0.3,1,0.9,1.4,1.2C205,178.5,204.6,178.7,204.3,178.7z M205.5,172.1c-0.4,0-0.8-0.3-0.8-0.8c0-0.4,0.3-0.7,0.7-0.7     c0.6,0,0.8,0.4,0.8,0.7C206.2,171.7,205.9,172.1,205.5,172.1z"/>
			<path class="st4" d="M229.1,174.5c0-0.8,2.2-1.7,3.4-1.9c-0.9-1.6-2.3-3.1-3.1-4.7c-1.3,0.2-8.9,1.4-8.9,5.2     c0,2.7,3.7,2.7,3.7,3.4c0,1.3-2.8,1.9-4.2,2.1c1.4,1.6,2.6,3.4,3.8,5.1c1.5-0.3,9.1-2.5,9.1-5.9     C232.8,175.7,229.1,175.7,229.1,174.5z"/>
			<path class="st4" d="M263.2,169.4c0,0-1.8,0-5.7-0.1c0.2,2.1,0.5,4.9,0.5,7.1c-1.2-2.4-1.8-4.4-2.5-6.6c-2.4,0.1-4.8,0.1-7.2-0.1     c0.5,3.9,0.1,7.9-0.2,11.9c-2.4-3.4-3.5-8.9-4.1-13.1c-1.9,0.5-5.4,0.6-8.2,0.3c-0.6,5.1-1.9,10.3-3.5,13.7     c1.8,0.1,4.1,0.1,6.3,0.6c0-1.2,0.1-2.6,0.4-3.8c0.7,0,1.3,0,2,0c0.2,1.1,0.4,2.6,0.6,3.6c1.4-0.6,4.2-1.4,6.5-1.4     c0,0.4-0.1,0.7-0.1,1.1c1.9,0,3.7,0,6,0.1c0,0-0.3-2.2-0.7-6.6c1.3,2,2.2,4.2,2.8,6.5c2.2-0.1,5.1-0.2,7.2-0.2     C262.7,179,262.9,173,263.2,169.4z M239.2,176.2c0.1-0.8,0.4-2.4,0.6-3.1c0.3,1.1,0.6,2.5,0.7,3     C240.1,176.2,239.6,176.2,239.2,176.2z"/>
			<path class="st4" d="M270.1,168.2c-1.8,0-4.4,0.4-5.4,0.7c0.3,2,0.5,5.4,0.5,7.8c0,2-0.1,3.8-0.3,5.3c1.3,0.5,3.5,0.7,5,0.7     c3.5,0,8.2-2.3,8.2-7.3C278.2,172.3,276,168.2,270.1,168.2z M270.8,177.6c-0.1-1.6-0.1-2.9-0.1-4.5c0.1,0,0.2-0.1,0.3-0.1     c0.9,0,1.1,1.2,1.1,1.9C272.1,175.9,271.9,177.3,270.8,177.6z"/>
			<path class="st4" d="M294,175.6c-0.6-1.7-0.7-4-0.6-5.8c-2.2,0.1-5.2,0-7.3-0.3c-0.1,1.6-0.3,4.2-0.7,5.7c-0.5-1.8-0.8-4.1-0.6-6     c-2,0.3-4.9,0.6-6.9,0.4c1.2,2.4,2.8,8.1,2.9,12.9c2.4,0,5.6,0.3,7.1,0.6c0.2-2.1,0.5-4.7,1.2-6.6c0.6,1.5,0.8,4.3,1.1,6     c2.5-0.2,5,0.1,7.6,0.2c0.3-3.1,2.5-10,3.7-13.1c0,0-2.2,0-6.8-0.6C294.8,171,294.6,173.7,294,175.6z"/>
			<path class="st4" d="M307.7,169.3c-1.9,0.1-4,0.1-5.8-0.1c0.2,1.4,0.3,4.1,0.3,6.8c0,2.5-0.1,5.1-0.4,6.9c2.1-0.1,4.1-0.1,6.2,0     c-0.5-2.5-0.6-5.2-0.6-7.6C307.3,173.1,307.5,171,307.7,169.3z"/>
			<path class="st4" d="M316.5,174.9c1.2,0,1.8,0.3,2.5,0.7c0.8-1.6,2.6-3.7,3.6-4.8c-1.5-1.1-3.9-1.9-6.1-1.9     c-4.4,0-8.1,2.8-8.2,7.4c0,4.1,2.5,7.1,8.3,7.1c3,0,4.8-1.3,5.6-1.8c-1.2-1.9-1.9-3.6-2.4-5.7c-0.9,0.6-1.9,1-3.1,1     c-0.5,0-1.7-0.1-1.7-1C315.1,175.5,315.5,174.9,316.5,174.9z"/>
			<path class="st4" d="M329.9,169.1c0.1,1.9,0.1,3.7,0,5.6c-0.5,0.1-0.9,0-1.4,0c-0.1-1.1,0.1-3.9,0.3-5.2c-1.9,0.3-4.1,0.1-6-0.1     c0,1.8,0.3,5.5,0.2,8.9c-0.1,1.8-0.2,3.5-0.5,4.8c1.9-0.2,4-0.3,5.9,0c-0.2-1.3-0.2-2.8-0.1-4c0.6-0.1,1.5,0,2.3,0     c0.2,1.3,0,2.9-0.2,4c1.4,0,4.3-0.1,5.8,0c-0.2-2.6-0.3-5.5-0.3-8.1c0.1-2.1,0.2-4.1,0.7-5.7     C335.2,169.4,331.2,169.5,329.9,169.1z"/>
			<path class="st4" d="M349,178.3c-1.6,0.3-4.1,0.3-5.7,0.2c0-0.4,0-0.7,0-1c1.7-0.2,3.5-0.2,5.2-0.2c-0.1-0.9-0.1-1.8,0-2.7     c-1.6,0.2-4,0.3-5.3,0.3c0-0.3,0-0.7,0-1c1.8-0.3,4.1-0.3,5.2-0.3c-0.1-1.6-0.1-3.3,0.1-4.9c-2,0.4-4.8,0.6-7.3,0.6     c-1.3,0-2.6-0.1-3.7-0.3c0.4,2.1,0.6,4.4,0.5,6.6c0,3-0.3,5.8-0.6,7.6c1.7-0.3,3.7-0.4,5.9-0.4c2,0,4,0.1,5.7,0.5     C348.7,181.7,348.9,180,349,178.3z"/>
			<path class="st4" d="M358.2,175.3c0-0.8,2.2-1.7,3.4-1.9c-0.9-1.6-2.3-3.1-3.1-4.7c-1.3,0.2-8.9,1.4-8.9,5.2     c0,2.7,3.7,2.7,3.7,3.4c0,1.3-2.8,1.9-4.2,2.1c1.4,1.6,2.6,3.4,3.8,5.1c1.5-0.3,9.1-2.5,9.1-5.9     C361.9,176.5,358.2,176.5,358.2,175.3z"/>
		</g>
		<g>
			<path class="st5" d="M150.1,175.6c-1.5,0-2.9,0.2-4.4,0c-0.2-2.6,0-5.2,0.2-7.8c-2.2,0.1-4.5,0.1-6.4-0.1     c0.1,1.5,0.4,5.1,0.3,8.6c0,1.8-0.1,3.6-0.3,5.2c1.7-0.2,3.2-0.2,4.6-0.2c2.1,0,4.1,0.2,6.2,0.2     C150,179.6,149.9,177.5,150.1,175.6z"/>
			<path class="st5" d="M157.8,167.4c-4.3,0-7.4,2.8-7.5,7.2c0,4,3,7.2,7.4,7.3c4.1,0,7.3-3.2,7.3-7.2     C165.1,170.7,162.1,167.5,157.8,167.4z M159,174.2c-0.8,0-1.4-0.5-1.4-1.1c0-0.6,0.6-1.2,1.4-1.2c0.8,0,1.4,0.5,1.4,1.2     C160.4,173.6,159.8,174.2,159,174.2z"/>
			<path class="st5" d="M173.6,167.8c-0.2,1.7-0.6,5.4-1.1,7.9c-0.4-1.3-1.4-4.8-1.5-7.7c-2.2,0.1-4.4,0.2-6.5,0     c1.3,2.7,3.3,11,3.6,13.8c1.6-0.2,3.5-0.3,5.4-0.3c1.1,0,2.1,0.1,3.1,0.1c0.3-3.7,1.8-10.3,3.4-13.9     C177.8,168.1,175.7,168,173.6,167.8z"/>
			<path class="st5" d="M191.4,176.8c-1.6,0.3-4.1,0.3-5.7,0.2c0-0.4,0-0.7,0-1c1.7-0.2,3.5-0.2,5.1-0.2c-0.1-0.9-0.1-1.8,0-2.7     c-1.6,0.2-4,0.3-5.2,0.3c0-0.3,0-0.7,0-1c1.8-0.3,4.1-0.3,5.2-0.3c-0.1-1.6-0.1-3.3,0.1-4.9c-2,0.4-4.8,0.6-7.3,0.6     c-1.4,0-2.6-0.1-3.7-0.3c0.4,2.1,0.6,4.4,0.5,6.6c0,3-0.3,5.8-0.6,7.6c1.7-0.3,3.7-0.4,5.8-0.4c2,0,4,0.1,5.7,0.5     C191.1,180.3,191.3,178.5,191.4,176.8z"/>
			<path class="st5" d="M210.8,171.5c-0.4,1-1.6,2.6-3,2.7c-0.3,0-0.6,0-0.9-0.2c1.9-0.9,3.2-2.2,3.2-4c0-0.8-0.9-2.9-4.6-2.9     c-3.6,0-5.9,2.5-5.9,4.6c0,1,0.5,1.9,1.3,2.5c-0.8,0.3-3.4,1.4-3.4,4.1c0,3,3.3,4.1,6.6,4.1c1.4,0,4.1-0.7,5-1.8     c0.7,0.5,2.9,1.7,4.2,1.9c0.2-1.6,0.8-4.7,1-6.2c-0.5,0-1,0.1-1.5,0.1c-0.2,0-0.3,0-0.4,0c0.7-0.8,1.8-2.3,2-3.2     C213.5,172.9,212,172.1,210.8,171.5z M204.3,178.2c-0.3,0-0.6,0-0.8-0.2c-0.1-0.1-0.2-0.3-0.2-0.5c0-0.4,0.2-0.7,0.4-1     c0.3,0.3,1,0.9,1.4,1.2C205,178,204.6,178.2,204.3,178.2z M205.5,171.6c-0.4,0-0.8-0.3-0.8-0.8c0-0.4,0.3-0.7,0.7-0.7     c0.6,0,0.8,0.4,0.8,0.7C206.2,171.2,205.9,171.6,205.5,171.6z"/>
			<path class="st5" d="M229.1,174c0-0.8,2.2-1.7,3.4-1.9c-0.9-1.6-2.3-3.1-3.1-4.7c-1.3,0.2-8.9,1.4-8.9,5.2c0,2.7,3.7,2.7,3.7,3.4     c0,1.3-2.8,1.9-4.2,2.1c1.4,1.6,2.6,3.4,3.8,5.1c1.5-0.2,9.1-2.5,9.1-5.9C232.8,175.2,229.1,175.2,229.1,174z"/>
			<path class="st5" d="M263.2,168.8c0,0-1.8,0-5.7-0.1c0.2,2.1,0.5,4.9,0.5,7.1c-1.2-2.4-1.8-4.4-2.5-6.6c-2.4,0.1-4.8,0.1-7.2-0.1     c0.5,3.9,0.1,7.9-0.2,11.9c-2.4-3.4-3.5-8.9-4.1-13.1c-1.9,0.5-5.4,0.6-8.2,0.4c-0.6,5.1-1.9,10.3-3.5,13.7     c1.8,0.1,4.1,0.1,6.3,0.6c0-1.2,0.1-2.6,0.4-3.8c0.7,0,1.3-0.1,2,0c0.2,1.1,0.4,2.6,0.6,3.6c1.4-0.6,4.2-1.4,6.5-1.4     c0,0.4-0.1,0.7-0.1,1.1c1.9,0,3.7,0,6,0.1c0,0-0.3-2.2-0.7-6.6c1.3,2,2.2,4.2,2.8,6.6c2.2-0.1,5.1-0.2,7.2-0.2     C262.7,178.5,262.9,172.5,263.2,168.8z M239.2,175.7c0.1-0.8,0.4-2.4,0.6-3.1c0.3,1.1,0.6,2.5,0.7,3     C240.1,175.7,239.6,175.7,239.2,175.7z"/>
			<path class="st5" d="M270.1,167.7c-1.8,0-4.4,0.4-5.4,0.7c0.3,2,0.5,5.4,0.5,7.8c0,2-0.1,3.8-0.3,5.3c1.3,0.5,3.5,0.7,5,0.7     c3.5,0,8.2-2.3,8.2-7.3C278.2,171.8,276,167.7,270.1,167.7z M270.8,177.1c-0.1-1.6-0.1-2.9-0.1-4.5c0.1,0,0.2-0.1,0.3-0.1     c0.9,0,1.1,1.1,1.1,1.9C272.1,175.4,271.9,176.8,270.8,177.1z"/>
			<path class="st5" d="M294,175c-0.6-1.7-0.7-4-0.6-5.8c-2.2,0.1-5.2,0-7.3-0.3c-0.1,1.6-0.3,4.2-0.7,5.7c-0.5-1.8-0.8-4.1-0.6-6     c-2,0.3-4.9,0.6-6.9,0.4c1.2,2.4,2.8,8.1,2.9,12.9c2.4,0,5.6,0.3,7.1,0.6c0.2-2.1,0.5-4.7,1.2-6.6c0.6,1.5,0.8,4.3,1.1,6     c2.5-0.2,5,0.1,7.6,0.2c0.3-3.1,2.5-10,3.7-13.1c0,0-2.2,0-6.8-0.6C294.8,170.5,294.6,173.2,294,175z"/>
			<path class="st5" d="M307.7,168.8c-1.9,0.1-4,0.1-5.8-0.1c0.2,1.4,0.3,4.1,0.3,6.8c0,2.5-0.1,5.1-0.4,6.9c2.1-0.1,4.1-0.1,6.2,0     c-0.5-2.5-0.6-5.2-0.6-7.6C307.3,172.6,307.5,170.5,307.7,168.8z"/>
			<path class="st5" d="M316.5,174.4c1.2,0,1.8,0.3,2.5,0.7c0.8-1.6,2.6-3.7,3.6-4.9c-1.5-1.1-3.9-1.9-6.1-1.9     c-4.4,0-8.1,2.8-8.2,7.4c0,4.1,2.5,7.1,8.3,7.1c3,0,4.8-1.2,5.6-1.8c-1.2-1.9-1.9-3.6-2.4-5.7c-0.9,0.6-1.9,1-3.1,1     c-0.5,0-1.7-0.1-1.7-1C315.1,175,315.5,174.4,316.5,174.4z"/>
			<path class="st5" d="M329.9,168.6c0.1,1.9,0.1,3.7,0,5.6c-0.5,0.1-0.9,0-1.4,0c-0.1-1.1,0.1-3.9,0.3-5.2c-1.9,0.2-4.1,0.1-6-0.1     c0,1.8,0.3,5.5,0.2,8.9c-0.1,1.8-0.2,3.5-0.5,4.8c1.9-0.2,4-0.3,5.9,0c-0.2-1.3-0.2-2.8-0.1-4c0.6-0.1,1.5,0,2.3,0.1     c0.2,1.3,0,2.9-0.2,4c1.4,0,4.3-0.1,5.8,0c-0.2-2.6-0.3-5.5-0.3-8.1c0.1-2.1,0.2-4.1,0.7-5.7     C335.2,168.9,331.2,168.9,329.9,168.6z"/>
			<path class="st5" d="M349,177.8c-1.6,0.3-4.1,0.3-5.7,0.2c0-0.4,0-0.7,0-1c1.7-0.2,3.5-0.2,5.2-0.2c-0.1-0.9-0.1-1.8,0-2.7     c-1.6,0.2-4,0.3-5.3,0.3c0-0.3,0-0.7,0-1c1.8-0.3,4.1-0.3,5.2-0.3c-0.1-1.6-0.1-3.3,0.1-4.9c-2,0.4-4.8,0.6-7.3,0.6     c-1.3,0-2.6-0.1-3.7-0.3c0.4,2.1,0.6,4.4,0.5,6.6c0,3-0.3,5.8-0.6,7.6c1.7-0.3,3.7-0.4,5.9-0.4c2,0,4,0.1,5.7,0.5     C348.7,181.2,348.9,179.5,349,177.8z"/>
			<path class="st5" d="M358.2,174.8c0-0.8,2.2-1.7,3.4-1.9c-0.9-1.6-2.3-3.1-3.1-4.7c-1.3,0.2-8.9,1.4-8.9,5.2     c0,2.7,3.7,2.7,3.7,3.4c0,1.3-2.8,1.9-4.2,2.1c1.4,1.6,2.6,3.4,3.8,5.1c1.5-0.2,9.1-2.5,9.1-5.9C361.9,176,358.2,176,358.2,174.8     z"/>
		</g>
		<path class="st1" d="M76.4,43.2C39.1,43,8.6,73.3,8.3,110.7c-0.2,27.6,16.1,52.4,41.4,63.1c2.5,1.1,11.4,3.7,13.7,4.1    c4,0.7,8,1.1,12.1,1.2c37.3,0.2,67.8-30.1,68-67.5C143.8,74.1,113.7,43.4,76.4,43.2z"/>
		<g>
			<path class="st1" d="M345.9,109.7c1.1-0.9,1.9-2.1,2.6-3.4c1.6-3.3,1.4-7.1-0.5-10.3c-1.7-2.8-3.5-5.3-5.3-7.8     c-2.4-3.4-4.7-6.5-6.1-9.6c-2-4.3-6.5-6.8-11.2-6.2c-6.6,1-17.5,3.2-26.9,7.9c-4.1-5.6-10.8-8.5-17.4-8.6c-3.2,0-6.2,0.6-8.8,1.7     c-2.1-1-4.4-1.3-6.6-0.8c-6.9,1.4-17,2.2-26.2,2.2c-4.8,0-9.2-0.3-12.7-0.9c-3.4-0.5-6.9,0.6-9.3,3.1c-0.1,0.1-0.1,0.1-0.2,0.2     c-4-2.5-5.9-4-5.9-4c-2.3-1.9-5.2-2.7-8.2-2.3c-2.9,0.4-5.6,2-7.3,4.4c-0.1,0.2-0.3,0.4-0.4,0.6c-0.8-1.1-1.9-2-3-2.6     c-2.8-1.6-6.2-1.9-9.3-0.7c-3.6,1.4-10.3,3.3-16.1,4.4c-2-1.6-4.5-2.4-7.1-2.3c-6.6,0.3-14.3,0.2-21.7-0.2     c-3.2-0.2-6.3,1.1-8.5,3.5c-2.2,2.4-3.1,5.6-2.7,8.8c0.7,4.7,1.1,14.5,1,24.9c-0.1,10.7-0.6,19.7-1.5,25.3     c-0.5,3.2,0.4,6.4,2.5,8.8c2,2.3,4.9,3.6,7.9,3.6c0.1,0,0.3,0,0.4,0c5-0.2,10.4-0.3,15.7-0.3c2.7,0,5.2,0.1,7.6,0.2     c1.5,0.1,2.9-0.2,4.3-0.7c1.7,0.7,3.5,0.9,5.3,0.7c1.8-0.2,3.8-0.4,6-0.3c4.6,0,9.3,0.6,13.4,1.1l0.6,0.1c1.5,0.2,2.9,0,4.3-0.4     c1.3,0.9,2.7,1.5,4.3,1.8c0.6,0.1,1.2,0.2,1.8,0.2c2.7,0,5.3-1,7.3-2.8c1.7-1.6,4.1-3.3,6.7-5c0.5,1.4,1.3,2.7,2.4,3.8     c2.4,2.4,5.8,3.5,9.2,3c5.8-0.9,13.2-1.4,21.1-1.4c7.8,0,14.8,0.6,20.4,1.6c0.6,0.1,1.2,0.2,1.8,0.2c2.9,0,5.6-1.1,7.7-3.2     c2.5-2.5,3.5-6.1,2.9-9.6c-0.6-3-0.6-6.2-0.5-9.6c0.4,1.3,1.1,2.5,2,3.5c4.5,5.2,8.7,11.2,12.7,17l1.4,2c2,2.9,5.2,4.5,8.7,4.6     c0.6,0,1.2,0,1.8-0.1c0.4-0.1,44.3-8.9,44.5-33.7C350.8,116.4,348.7,112.5,345.9,109.7z"/>
			<path class="st0" d="M345.9,108.5c1.1-0.9,1.9-2.1,2.6-3.4c1.6-3.3,1.4-7.1-0.5-10.3c-1.7-2.8-3.5-5.3-5.3-7.8     c-2.4-3.4-4.7-6.5-6.1-9.6c-2-4.3-6.5-6.8-11.2-6.1c-6.6,1-17.5,3.2-26.9,7.9c-4.1-5.6-10.8-8.5-17.4-8.6c-3.2,0-6.2,0.6-8.8,1.7     c-2.1-1-4.4-1.3-6.6-0.8c-6.9,1.4-17,2.2-26.2,2.2c-4.8,0-9.2-0.3-12.7-0.9c-3.4-0.5-6.9,0.6-9.3,3.1c-0.1,0.1-0.1,0.1-0.2,0.2     c-4-2.5-5.9-4-5.9-4c-2.3-1.9-5.2-2.7-8.2-2.4c-2.9,0.4-5.6,2-7.3,4.4c-0.1,0.2-0.3,0.4-0.4,0.6c-0.8-1.1-1.9-2-3-2.6     c-2.8-1.6-6.2-1.9-9.3-0.7c-3.6,1.4-10.3,3.3-16.1,4.4c-2-1.6-4.5-2.4-7.1-2.3c-6.6,0.3-14.3,0.2-21.7-0.2     c-3.2-0.2-6.3,1.1-8.5,3.5c-2.2,2.4-3.1,5.6-2.7,8.8c0.7,4.7,1.1,14.5,1,24.9c-0.1,10.7-0.6,19.7-1.5,25.3     c-0.5,3.2,0.4,6.4,2.5,8.8c2,2.3,4.9,3.6,7.9,3.6c0.1,0,0.3,0,0.4,0c5-0.2,10.4-0.3,15.7-0.3c2.7,0,5.2,0.1,7.6,0.2     c1.5,0.1,2.9-0.2,4.3-0.7c1.7,0.7,3.5,0.9,5.3,0.7c1.8-0.2,3.8-0.4,6-0.3c4.6,0,9.3,0.6,13.4,1.1l0.6,0.1c1.5,0.2,2.9,0,4.3-0.4     c1.3,0.9,2.7,1.5,4.3,1.8c0.6,0.1,1.2,0.2,1.8,0.2c2.7,0,5.3-1,7.3-2.8c1.7-1.6,4.1-3.3,6.7-5c0.5,1.4,1.3,2.7,2.4,3.8     c2.4,2.4,5.8,3.5,9.2,3c5.8-0.9,13.2-1.4,21.1-1.4c7.8,0,14.8,0.6,20.4,1.6c0.6,0.1,1.2,0.2,1.8,0.2c2.9,0,5.6-1.1,7.7-3.2     c2.5-2.5,3.5-6.1,2.9-9.6c-0.6-3-0.6-6.2-0.5-9.6c0.4,1.3,1.1,2.5,2,3.5c4.5,5.2,8.7,11.2,12.7,17.1l1.4,2c2,2.9,5.2,4.5,8.7,4.6     c0.6,0,1.2,0,1.8-0.1c0.4-0.1,44.3-8.9,44.5-33.7C350.8,115.3,348.7,111.4,345.9,108.5z"/>
			<g>
				<path class="st0" d="M76.4,42.2C39.1,42,8.6,72.2,8.3,109.7c-0.2,27.6,16.1,52.4,41.4,63.1c2.5,1.1,11.4,3.7,13.7,4.1      c4,0.7,8,1.1,12.1,1.2c37.3,0.2,67.8-30.1,68-67.5C143.8,73.1,113.7,42.4,76.4,42.2z"/>
				<path class="st5" d="M75.6,170.3c-3.6,0-7.2-0.4-10.7-1c-1.8-0.3-10.1-2.8-12.1-3.7c-22.4-9.5-36.8-31.4-36.7-55.8      c0.2-33.2,27.2-60,60.3-59.8c33,0.2,59.7,27.4,59.5,60.5C135.6,143.7,108.6,170.5,75.6,170.3L75.6,170.3z"/>
				<g>
					<g>
						<path class="st2" d="M76.3,53.6c31.6,0.2,57.1,26.2,56.9,57.9c-0.2,31.7-26.1,57.4-57.7,57.2c-3.4,0-6.9-0.4-10.2-1        c-1.6-0.3-9.8-2.7-11.6-3.5c-21.5-9.1-35.3-30-35.1-53.4C18.8,79.1,44.7,53.4,76.3,53.6 M76.3,48.4        c-34.5-0.2-62.6,27.7-62.9,62.4c-0.2,26.2,15.7,48.7,38.3,58.2c2.2,0.9,10.7,3.4,12.7,3.8c3.6,0.7,7.3,1,11.1,1.1        c34.5,0.2,62.6-27.7,62.8-62.4C138.6,76.9,110.8,48.6,76.3,48.4L76.3,48.4z"/>
					</g>
					<path class="st2" d="M334.8,108.5c1.6-0.7,3.4-1.2,4.7-1.4c1.9-0.2,3.5-1.4,4.4-3.1c0.8-1.7,0.8-3.7-0.2-5.4       c-1.6-2.6-3.4-5.1-5.1-7.5c-2.6-3.6-5-6.9-6.6-10.4c-1-2.3-3.4-3.6-5.9-3.2c-7.3,1.1-20.5,3.7-29.7,9.8       c-2.4-7.5-10-10.4-15.4-10.5c-3.6,0-6.6,0.9-9.2,2.5c-0.1-0.1-0.2-0.2-0.3-0.4c-1.3-1.2-3.1-1.8-4.9-1.4       c-7.2,1.5-17.7,2.3-27.3,2.3c-5,0-9.7-0.4-13.4-1c-1.8-0.3-3.6,0.3-4.9,1.6c-1,1.1-1.6,2.5-1.6,3.9c-7.7-4.4-11.3-7.4-11.3-7.4       c-1.2-1-2.8-1.4-4.3-1.2c-1.5,0.2-2.9,1-3.8,2.3c-2.1,2.9-4.3,6-6.5,8.9c-0.3-1.8-0.6-3.6-0.8-5.4c-0.2-1.7-1.3-3.2-2.7-4       c-1.5-0.9-3.3-1-4.9-0.4c-4.4,1.8-12.9,4.1-19.8,5.2c-0.2-0.3-0.4-0.6-0.6-0.9c-1.1-1.2-2.7-1.9-4.4-1.8       c-6.7,0.3-14.6,0.2-22.2-0.2c-1.7-0.1-3.3,0.6-4.5,1.8c-1.1,1.2-1.7,2.9-1.4,4.6c0.7,5,1.2,14.9,1.1,25.6       c-0.1,11.1-0.6,20.2-1.6,26.1c-0.3,1.7,0.2,3.4,1.3,4.6c1.1,1.2,2.6,1.9,4.2,1.9c0.1,0,0.1,0,0.2,0c5.1-0.2,10.5-0.3,15.9-0.3       c2.8,0,5.3,0.1,7.8,0.2c1.5,0.1,3-0.5,4.1-1.5c0,0,0,0,0,0c1.2,1.2,2.9,1.7,4.6,1.5c2-0.3,4.2-0.4,6.7-0.4       c4.9,0,9.9,0.6,14,1.1l0.6,0.1c1.7,0.2,3.4-0.4,4.6-1.7c0.1,0,0.1-0.1,0.2-0.2c0.1,0.1,0.1,0.2,0.1,0.3c0.8,1.6,2.3,2.7,4,3       c0.3,0.1,0.7,0.1,1,0.1c1.4,0,2.8-0.5,3.8-1.5c3.9-3.6,10.1-7.4,15.1-10.2c-0.2,1.8-0.4,3.2-0.6,4.2c-0.3,1.8,0.3,3.6,1.6,4.9       c1.3,1.3,3.1,1.9,4.8,1.6c6-1,13.8-1.5,21.9-1.4c8.1,0,15.4,0.6,21.2,1.7c0.3,0.1,0.6,0.1,1,0.1c1.5,0,3-0.6,4-1.7       c1.3-1.3,1.9-3.2,1.5-5c-1.1-5.8-0.6-11.9,0-18.3c0.2-1.7-0.5-3.4-1.8-4.6c-0.2-0.2-0.4-0.4-0.6-0.5c-0.2-1.7-0.2-3.5-0.2-5.2       c0.2,0.4,0.5,0.8,0.8,1.2c1.1,1.2,2.6,1.9,4.2,1.9c0.4,0,0.9,0,1.3-0.1c2-0.5,5.2-2,8.4-4.3c1.7,4.6,5.5,7.2,9,8.8       c-1.9,0.6-4.4,1.1-7.2,1.5c-2,0.3-3.8,1.6-4.5,3.6c-0.7,1.9-0.4,4.1,1,5.7c4.7,5.4,8.9,11.5,13,17.5l1.4,2       c1,1.5,2.8,2.4,4.5,2.4c0.3,0,0.6,0,0.9-0.1c0.4-0.1,40.1-8.6,40.2-28.7C345.8,114,339.2,110.5,334.8,108.5z M221.6,110.1       c0,2.6-0.1,5.2-0.2,7.6c-2.9-2.9-5.6-5.9-8.1-8.7c2.6-2.4,5.3-4.7,8.1-7C221.5,104.6,221.6,107.3,221.6,110.1z"/>
					<g>
						<path class="st3" d="M76.3,52.6c31.6,0.2,57.1,26.2,56.9,57.9c-0.2,31.7-26.1,57.4-57.7,57.2c-3.4,0-6.9-0.3-10.2-1        c-1.6-0.3-9.8-2.7-11.6-3.5c-21.5-9.1-35.3-30-35.1-53.4C18.9,78,44.7,52.4,76.3,52.6 M76.3,47.4        c-34.5-0.2-62.6,27.7-62.9,62.4c-0.2,26.2,15.7,48.7,38.3,58.2c2.2,0.9,10.7,3.4,12.7,3.8c3.6,0.7,7.3,1,11.1,1.1        c34.5,0.2,62.6-27.7,62.8-62.4C138.6,75.9,110.8,47.6,76.3,47.4L76.3,47.4z"/>
					</g>
				</g>
				<g>
					<defs>
						<path id="SVGID_1_" d="M133.8,61.1C134,29.2,115.5,0.8,83.7,0.6C52,0.4,13,28.5,12.8,60.4l5.6,49.4        c-0.2,31.9,25.5,58,57.2,58.2c31.7,0.2,57.7-25.6,57.9-57.4L133.8,61.1z"/>
					</defs>
					<clipPath id="SVGID_2_">
						<use xlink:href="#SVGID_1_" style="overflow:visible;"/>
					</clipPath>
					<g class="st6">
						<g>
							<g>
								<g>
									<g>
										
											<linearGradient id="SVGID_3_" gradientUnits="userSpaceOnUse" x1="49.7829" y1="203.6065" x2="159.2954" y2="313.1189" gradientTransform="matrix(1 6.146997e-03 -6.146997e-03 1 -30.1768 -160.644)">
											<stop offset="0" style="stop-color:#F2CF96"/>
											<stop offset="0.3311" style="stop-color:#EDCA93"/>
											<stop offset="0.7258" style="stop-color:#DEBB8C"/>
											<stop offset="1" style="stop-color:#D0AD84"/>
										</linearGradient>
										<path class="st7" d="M129.8,65.7c0.3-1.8-1.4-3.7-2.6-5c-4-7.2,2.6-16-9.7-35.5c-14.2-22.6-43-22.3-67.6-10.1            c-14.5,7.2-26.1,23.5-21.4,47.5l0.4,0.7c-4.2-2.5-9.1-2.5-11.8,4.4c-2.1,5.2,2.4,12,3.1,17.1c1,6.9,6.7,11.8,10.7,10.4            c0.7,8.6,0.7,20.2,0.8,28.4c0,3.8-0.1,8.1-1.4,11.7C26.5,146.4,20,149.6,11.3,156c11.3,8.4,43.8,20.1,59.2,21.8            c18.5,1.2,43.6-2.4,43.7-15.5c-2.7-3.9-14.7-11.5-15.5-16.6c1.5-0.4-0.9-0.9,0.5-1.4c6.5-2.6,10.2-5.5,10.6-13.7            c3-3.7,17.7-19.1,17.5-35.3c0-7.3,0.3-9.5-1.3-16.3c-0.7-3-0.7-7,1.4-9.5C128.5,68.3,129.4,67.4,129.8,65.7z"/>
									</g>
								</g>
								<g>
									<g>
										
											<linearGradient id="SVGID_4_" gradientUnits="userSpaceOnUse" x1="117.4068" y1="255.5346" x2="142.2803" y2="255.5346" gradientTransform="matrix(1 6.146997e-03 -6.146997e-03 1 -30.1768 -160.644)">
											<stop offset="0" style="stop-color:#BA9B76"/>
											<stop offset="0.363" style="stop-color:#B59974"/>
											<stop offset="0.7957" style="stop-color:#A6926E"/>
											<stop offset="1" style="stop-color:#9D8D6A"/>
										</linearGradient>
										<path class="st8" d="M105.9,94.5c-4.5,2.3-16.2,0.3-20.2-4c1.9,7.1,12.8,11.9,20.4,9.9c4.4-1.1,5.1-4.9,3.9-9.2            C109.2,92.4,107.9,93.5,105.9,94.5z"/>
									</g>
								</g>
								<g>
									
										<linearGradient id="SVGID_5_" gradientUnits="userSpaceOnUse" x1="113.5762" y1="228.4941" x2="161.4142" y2="228.4941" gradientTransform="matrix(1 6.146997e-03 -6.146997e-03 1 -30.1768 -160.644)">
										<stop offset="0" style="stop-color:#BA9B76"/>
										<stop offset="0.363" style="stop-color:#B59974"/>
										<stop offset="0.7957" style="stop-color:#A6926E"/>
										<stop offset="1" style="stop-color:#9D8D6A"/>
									</linearGradient>
									<path class="st9" d="M127.2,60.7c-2.8-7.1,1.9-17.1-9.7-35.5c-8.1-12.9-21-18.3-35.1-18.4c12.6,0.1,24,5.6,31.3,18.3           c9.3,16.5,7,25.3,8.1,31.9c-2.5-1.6-5.1-2-7.6-0.6c-1.1,0.6-2.6,1.6-3.9,2.3l-2.4-1.6c-0.5,0.4-1.2,1-1.9,1.7           c-0.1-0.7,0.2-1.8,0.9-3.5c-0.8,1.8-1.4,3.2-1.7,4.3c-3.8,4.2-7.9,11.9-0.1,19.3c0.3,0.3,0.5,0.5,0.8,0.8           c-2.7-6-1.9-14,5.4-18.1c1.6-0.9,5.3-0.7,7.5,0.3c3.9,1.9,4.2,5.3,3.9,6.5c-0.4,1.7-2.7-0.3-3.7,0.8           c-2.1,2.4-0.7,6.4,0,9.5c1.6,6.7,2.7,8.9,2.7,16.3c0.2,18.7-11.9,35.3-11.9,35.3s17.7-16.6,17.5-35.3           c0-7.3,0.3-9.5-1.3-16.3c-0.7-3-0.7-7,1.4-9.5c0.9-1.1,1.9-2,2.3-3.7l0,0l0,0C130.2,63.6,128.6,62.2,127.2,60.7z"/>
								</g>
								<g>
									
										<linearGradient id="SVGID_6_" gradientUnits="userSpaceOnUse" x1="70.1154" y1="280.8177" x2="134.9309" y2="280.8177" gradientTransform="matrix(1 6.146997e-03 -6.146997e-03 1 -30.1768 -160.644)">
										<stop offset="0" style="stop-color:#BA9B76"/>
										<stop offset="0.363" style="stop-color:#B59974"/>
										<stop offset="0.7957" style="stop-color:#A6926E"/>
										<stop offset="1" style="stop-color:#9D8D6A"/>
									</linearGradient>
									<path class="st10" d="M98.8,146.2c1.5-0.4-0.9-0.9,0.5-1.5c-5.9,2.4-10.4,3.2-17.4,2.6c-4-0.3-8.8-2.5-13-6           c-2.1-1.2-4.5-2.8-6.7-4.3c-10.8-7.5-21.5-18.8-21.8-34.3c-0.2-7.3-0.5-11.9-1.9-18.7c1.4,7.9,1.7,13.2,1.9,21.6           c0.4,21.6,16,36.4,28.5,44.6l0,0c4.2,3.9,9.1,6.5,13,6.9c7,0.7,11.5-0.2,17.4-3c1.3-0.6,2.5-1.3,3.6-2           C100.8,150.4,99.1,148.4,98.8,146.2z"/>
								</g>
								<g>
									
										<linearGradient id="SVGID_7_" gradientUnits="userSpaceOnUse" x1="58.8415" y1="197.0148" x2="109.2446" y2="197.0148" gradientTransform="matrix(1 6.146997e-03 -6.146997e-03 1 -30.1768 -160.644)">
										<stop offset="0" style="stop-color:#BA9B76"/>
										<stop offset="0.363" style="stop-color:#B59974"/>
										<stop offset="0.7957" style="stop-color:#A6926E"/>
										<stop offset="1" style="stop-color:#9D8D6A"/>
									</linearGradient>
									<path class="st11" d="M28.4,62.5l4.8,4.3c-4.2-24,6.3-44.5,19.4-51.7c8.3-4.5,17-7.4,25.5-8.1c-9.3,0.7-19.1,3.6-28.2,8.1           C35.3,22.3,23.7,38.6,28.4,62.5z"/>
								</g>
								<g>
									
										<linearGradient id="SVGID_8_" gradientUnits="userSpaceOnUse" x1="43.4486" y1="283.7716" x2="68.0155" y2="283.7716" gradientTransform="matrix(1 6.146997e-03 -6.146997e-03 1 -30.1768 -160.644)">
										<stop offset="0" style="stop-color:#BA9B76"/>
										<stop offset="0.363" style="stop-color:#B59974"/>
										<stop offset="0.7957" style="stop-color:#A6926E"/>
										<stop offset="1" style="stop-color:#9D8D6A"/>
									</linearGradient>
									<path class="st12" d="M34.3,91c1.2,9.6,1.6,25.8,1.8,35.4c0,4.2-0.1,9-1.9,12.7c-4.8,11.2-12.8,12.8-22.9,16.9           c8.7-6.4,15.2-9.6,18.8-20.7c1.3-3.6,1.4-8,1.4-11.7c-0.1-8.7-0.1-19.1-1-27.9L34.3,91z"/>
								</g>
								<g>
									<g>
										
											<linearGradient id="SVGID_9_" gradientUnits="userSpaceOnUse" x1="86.4869" y1="212.2865" x2="124.3114" y2="212.2865" gradientTransform="matrix(1 6.146997e-03 -6.146997e-03 1 -30.1768 -160.644)">
											<stop offset="0" style="stop-color:#BA9B76"/>
											<stop offset="0.363" style="stop-color:#B59974"/>
											<stop offset="0.7957" style="stop-color:#A6926E"/>
											<stop offset="1" style="stop-color:#9D8D6A"/>
										</linearGradient>
										<path class="st13" d="M83.2,48c-12.1-5.7-22.7-0.5-28.2,9.5c7-6.2,12.7-9.2,22.6-6.8c6.7,1.6,14.8,12.4,15.2,7            C91.6,58.8,88.7,50.5,83.2,48z"/>
									</g>
								</g>
								<g>
									<g>
										<g>
											<g>
												<path class="st14" d="M11.3,156c2,1.9,3.8,3.3,5.8,4.6c2,1.3,4.2,2.6,7.2,3.9c3.2,1.5,12.8,5.6,22,8.5              c4.6,1.5,9,2.8,12.3,3.6c1.6,0.4,3,0.7,4,0.9c1,0.2,1.5,0.3,1.5,0.3s0.5,0.1,1.5,0.3c0.5,0.1,1.1,0.2,1.7,0.3              c0.7,0.1,1.5,0.2,2.3,0.3c1.7,0.2,3.7,0.3,5.9,0.4c2.2,0.1,4.5,0.1,7,0c4.8-0.2,9.9-0.7,14.1-1.6              c4.2-0.8,7.6-2.1,9.3-2.9c1.5-0.7,2.8-1.5,3.9-2.3c1.1-0.9,2-1.8,2.8-2.8c0.7-1.1,1.3-2.2,1.6-3.4              c0.3-1.2,0.4-2.5,0.2-3.9c-0.2,1.3-0.6,2.5-1.2,3.5c-0.6,1-1.2,1.8-2,2.6c-0.8,0.8-1.7,1.5-2.7,2.2              c-1.1,0.7-2.2,1.3-3.6,2c-1.5,0.7-4.7,1.9-8.7,2.7c-4.1,0.8-9,1.4-13.7,1.5c-2.4,0.1-4.7,0.1-6.8,0              c-2.1-0.1-4.1-0.1-5.7-0.3c-0.8-0.1-1.5-0.2-2.2-0.3c-0.7-0.1-1.2-0.2-1.7-0.3c-0.9-0.2-1.5-0.3-1.5-0.3              s-0.5-0.1-1.5-0.3c-0.9-0.2-2.3-0.5-3.9-0.9c-3.2-0.8-7.6-2.1-12.1-3.5c-9.1-2.9-18.6-6.9-21.7-8.4              c-2.9-1.3-5.2-2.3-7.3-3.3C15.8,158.1,13.7,157.2,11.3,156z"/>
											</g>
										</g>
									</g>
								</g>
								<g>
									<path class="st15" d="M90.6,56.6c4.1,5.8,3.1-6.4,2.6-8.3c-2.1-8.7-8.7-15-17.8-13.2C64.7,37.2,57.5,48,54.1,57.7           c-0.1,0.2,0,0.4,0.2,0.5c0.3,0.2,0.9,0.2,1.1-0.2c4-7.1,10.3-11.9,18.6-11.9C81.9,46.1,86.4,50.7,90.6,56.6z"/>
									<path class="st15" d="M122.6,50.1c-4.2-2.5-9.2-2.7-13.1,0.5c-1.3,1.1-6.8,9.8-2.6,9.7c2.1,0,4-1.3,5.7-2.3           c7.5-4.4,12.7,2.2,16.6,8c0.1,0.1,0.2,0.2,0.3,0.2c0,0,0,0,0,0c0,0,0,0,0,0c0.3,0.1,0.7,0,0.8-0.3c0-0.1,0-0.2,0-0.2           C130.1,59.8,127.9,53.3,122.6,50.1z"/>
									<path class="st15" d="M103.2,128c-0.6-0.4-2-0.5-4-0.6c-4.1,0-12.1,0.8-13.3,2.5c-0.6,1,0.2,2.9,0.7,3.9           c1.6,2.9,4.6,6.1,7,6.1l0.2,0c3.2-0.2,9.2-7.1,9.9-10.2C103.9,128.7,103.6,128.2,103.2,128z"/>
									<path class="st15" d="M87.7,67.6c0.1,0.1,0.2,0.1,0.3,0.1c0.1,0,0.2,0,0.2-0.1c0.2-0.1,0.2-0.3,0.1-0.5           c-2.5-4.4-5.2-7.2-8.3-8.6c-0.5-0.2-1-0.4-1.4-0.5c0,0-0.1,0-0.1,0c-0.2-0.1-0.4-0.1-0.6-0.2c-0.1,0-0.1,0-0.1,0           c-0.5-0.1-1-0.2-1.5-0.2l-0.2,0c-0.2,0-0.3,0-0.5,0l-0.4,0c-0.3,0-0.5,0-0.8,0c-0.5,0-0.9,0.1-1.4,0.2           c-3.4,0.7-6.6,2.4-10.3,4.3L62,62.4c-0.2,0.1-0.3,0.3-0.2,0.5c0.1,0.2,0.3,0.3,0.5,0.2c3.3-1,6.4-1.4,8.7-1.6           c-0.2,1.1,0,2.3,0.5,3.3c0,0.1,0.1,0.2,0.2,0.2l0.1,0.1c2.1,0.9,4.1,1.7,6.1,2c0.3,0.1,0.7,0.1,1,0.2c0.1,0,0.2,0,0.2,0           c1.6-0.7,2.6-2.3,2.8-4.2C84.2,64.2,86.1,65.7,87.7,67.6z"/>
									<path class="st15" d="M118.7,66.1l-0.4,0c0,0-0.1,0-0.1,0l-0.8,0l-0.4,0c-0.1,0-0.3,0-0.5,0l-0.9,0.1c-0.1,0-0.3,0-0.4,0           l-1.1,0.2c-0.2,0-0.4,0.1-0.5,0.1l-1.2,0.3c-0.1,0-0.3,0.1-0.4,0.1l-0.3,0.1c-1.9,0.6-3.6,1.5-5.1,2.7           c-0.2,0.1-0.2,0.4-0.1,0.5c0.1,0.2,0.3,0.2,0.5,0.1c1-0.5,2.2-0.9,3.6-1.3c-0.2,1,0,2.1,0.5,3.1c0,0.1,0.1,0.2,0.2,0.2           c2.4,0.9,4.2,1.3,6.3,1.4l0,0c0.1,0,0.2,0,0.2-0.1c1.4-1,2.1-2.8,2-4.6c2.7,0.7,4.9,2.1,5.4,3.6l0,0           c0.1,0.2,0.3,0.3,0.5,0.2c0.2-0.1,0.3-0.3,0.2-0.5C125,69.8,123.8,66.4,118.7,66.1z"/>
								</g>
							</g>
						</g>
						<g>
							
								<linearGradient id="SVGID_10_" gradientUnits="userSpaceOnUse" x1="96.6828" y1="267.4531" x2="145.446" y2="267.4531" gradientTransform="matrix(1 6.146997e-03 -6.146997e-03 1 -30.1768 -160.644)">
								<stop offset="0" style="stop-color:#FFFFFF"/>
								<stop offset="1" style="stop-color:#C7C3C2"/>
							</linearGradient>
							<path class="st16" d="M103.8,110.8l9.8-9.3c-6.2,2.2-13.3,4.1-23,3.4c-13.5-1-20.4-5.2-25-11.3c-0.9,2.5-1.1,5.9-0.3,9.6         c1.3,5.7,5.2,11.9,12.6,15.3c11.7,5.4,24.5,1.5,30.6-0.6L103.8,110.8"/>
						</g>
						<g>
							<path class="st4" d="M103.8,110.8c-2,0.1-3.2,0.1-5.4,0.5c-2.4,1-14.5-0.1-14.4-0.5c-0.1,0.3-11.6-3.6-13.5-5.3         c-2-1.1-3.1-1.6-5-2.2c1.3,1.4,2.2,2.5,4.2,3.6c1.9,1.8,13.8,5.8,14,5.5c-0.1,0.4,12.5,1.6,15,0.6         C100.9,112.5,102.2,111.9,103.8,110.8z"/>
						</g>
						<g>
							<path class="st15" d="M89,80.8c-3.3,0.6-7.2,3.5-5.1,8.6c1,3,8.2,6.5,15,6.8c7.3,1.3,12.4-4.6,11.9-4.8         c-0.1,0.1,1.2-1.6,0.7-4.3c-0.4-2.6-2.5-5.4-4.9-7.8c-5.8-4.1-5.9-11.5-4.4-13.6c1.7-3.9,3.2-5.9,5.6-8.7         c-3.1,2-5.3,3.8-7.1,8.1c-0.4,1.2-1.3,3.7-0.7,6.9c0.6,3.2,3.1,6.2,5.5,8.4c2.3,2.3,4.1,4.9,4.4,6.9c0.4,2.1-0.6,3.2-0.5,3.2         c0.4,0-3.6,5.1-10.4,4c-6.5-0.3-13.1-3.8-13.6-5.9C83.8,85,85.9,82.5,89,80.8z"/>
							<path class="st15" d="M106.4,153.8c0,0-5.1-4.7-5.7-5.9c-0.7-1-1.2-1.4-1.9-2.3c-0.3,1.1-0.2,2.1,0.6,3.3         c0.7,1.4,5.9,6.2,5.9,6.2c0,0,5.3,4.5,6.3,5.5c0.9,0.9,1.6,1.2,2.6,1.7c-0.2-1.2-0.6-2-1.5-2.9         C111.7,158.3,106.4,153.8,106.4,153.8z"/>
							<path class="st15" d="M129.8,67.7c1.6-2.2,0.3-5-0.9-6c-0.3-0.3-0.6-0.6-0.9-0.8c-3-7.2,0-13.1-3.3-22.3         c-1.5-4.7-7.6-20.6-21-27.5C90.6,4.1,76.8,6.5,77,6.3c0.1-0.1-13.2,1-26.1,7.4c-14,5.5-21.8,20.9-22.6,25.9         c-2.4,9.2-1.6,15,0,22.4c-0.5-0.3-1.1-0.5-1.8-0.7c-2.5-1-6.5-0.2-8.3,2.4c-4.3,4.9-1.9,11.3-2.1,10.9         c-0.2,0,1.9,5.1,3.1,10.3c0.7,6.2,6.2,11,8.7,11.1c1,0.2,1.9,0.1,2.6-0.1c-0.3,3.1-0.3,5.2-0.2,8.9c0.2,4.1,0.6,25,0.1,24.9         c0,0-0.5,5.1-3.2,10.1c-2.5,5.1-7.4,8.9-9,10.1c-3,2.3-4.7,3.7-7,6c2.9-1.5,4.8-2.4,7.9-4.7c1.7-1.2,6.8-5.3,9.5-10.6         c2.8-5.2,3.4-10.7,3.3-10.7c0.5-0.1,0.1-20.9-0.1-25.1c-0.1-3.7-0.7-5.9-1.3-8.9c2.7-0.8,3.6-3.7,3.6-5.9         c-1.2,2.8-2.7,5-5.9,4.4c-6.2,1.3-10.2-20.7-10.6-20.2c0.2,0.1-2-5.1,1.8-9.5c3.6-4.8,10-0.5,11,0.8c2.7,2.4,4.1,4,5.7,6.8         c-0.7-3.1-1.7-5.3-4.6-8c-0.6-0.5-1.7-1.4-3.2-2.2c-0.7-7.7-0.9-13.2,1.5-22c0.8-4.8,8.2-19.5,21.7-24.9         c12.7-6.3,25.7-7.4,25.6-7.3c-0.2,0.2,13.3-2.1,25.8,4.6c12.8,6.4,18.9,22,20.3,26.5c3.1,8.6,0.9,14.8,4.7,21.8         c-0.9-0.8-1.9-1.5-2.6-2.7c1,3.6,5.3,5.2,3.1,8.8c-0.3,0.8-2.7,2.6-3.3,5.9c-0.7,3.2,0.4,6.9,1,10c0.9,6.4,0.3,12.7,0.5,12.6         c0,0,0.1,6-2.4,12.2c-2.3,6.2-6.4,12.2-7.9,14.1c-2.6,3.4-4,5.5-6.1,8.3c-0.1-0.8-0.2-1.6-0.3-2.4c-0.7,3-0.9,5-2.1,8.1         c-0.4,1.9-4.1,6.2-9.2,7.8c-4.9,2.1-9.6,2.4-9.6,2.4c0.1,0-4.9,0.6-9.8-0.5c-5-1.4-9.6-5-10.9-6.3c-2.6-2.3-3.9-3.8-6.1-5.9         c0.9,2.1,1.8,3.7,3.3,5.5c-1.2-0.9-2.4-1.9-4-3c-1.7-1.2-6.6-5.1-10.4-9.5c-3.8-4.3-6.2-9-6.1-9c0,0-2.5-4.6-3.4-10.3         c-0.8-5.6-0.6-12.1-1-14.2c-0.4-3.9-1.1-6.1-2.2-9.2c0.1,3.3,0.2,5.5,0.6,9.4c0.4,2.1,0.2,8.3,1,14.3         c0.9,5.9,3.6,10.7,3.6,10.7c0,0,2.4,4.9,6.3,9.3c3.8,4.5,8.9,8.5,10.6,9.7c2.9,2.1,4.8,3,7.4,4.1c2,1.7,6.2,4.7,10.8,5.9         c5.5,1.3,10.4,0.5,10.4,0.6c0,0,5-0.3,10.1-2.5c5.3-1.6,9.7-6.6,10.1-8.7c1-2.5,1.1-4.3,0.9-6.2c2.8-2.2,4.7-4,7.4-7.4         c1.5-1.9,5.7-8.1,8.1-14.5c2.5-6.4,2.5-12.8,2.5-12.8c-0.2,0,0.5-6.1-0.5-12.9c-0.6-3.4-1.6-6.7-1-9.4         C127.1,70.4,129.1,69,129.8,67.7z"/>
							<path class="st15" d="M72.4,115.9c9.5,7.8,23.3,6.2,27.1,5.3c3.8-0.8,6.7-1.7,9.3-2.7c-0.9-4-3.1-4.9-4.9-7.7         c1.7,2.4,2.7,6,4.6,6.6c-2.7,0.8-5.5,1.5-9.2,2.3c-3.7,0.9-16.9,2.3-25.8-5c-8.9-7.4-7.9-19.1-7.6-18.5c0,0,0-0.3,0.2-0.9         c0.5,0.6,1.1,1.4,1.9,2c2.9,2.9,7.9,5.8,13.6,7.1c11.3,2.9,24,0.8,27.9-0.6c0.5-0.2,1-0.3,1.5-0.5c-0.4,0.4-0.7,0.7-1.1,1.1         c-2,2-3.8,4-5.9,6.4c2.5-2,4.6-3.7,6.7-5.5c1.1-0.9,2.2-1.9,3.3-2.9l0.2-0.2l0.1-0.1l0,0l0,0c-0.3-0.6,0.8,1.3-0.8-1.3l0,0         l0,0l-0.1,0l-0.1,0c0-0.1,0-0.1,0,0l-0.4,0.1l-1.2,0.4c-0.8,0.3-1.7,0.5-2.6,0.8c-3.8,1.4-16.1,3.4-27.1,0.6         c-5.4-1.2-10.1-3.9-12.8-6.7c-0.7-0.6-1.3-1.3-1.8-1.9l-0.7-0.8l-0.2-0.2c-2.8,0.2-0.8,0.2-1.5,0.3L64.8,94         c-0.5,1.2-0.6,1.9-0.6,1.9C63.9,95.6,62.8,108,72.4,115.9z"/>
						</g>
						<path class="st15" d="M31,77.9c-0.7,1.5-1.4,3-1.2,4.5c0.1,1.2,1,2.2,1.9,2.9c0.4,0.4,0.9,0.4,1.6,0.3c0-0.7-0.1-1.1-0.5-1.5        c-0.6-0.6-1.4-1.2-1.5-2c-0.1-1.2,0.6-2.5,1.1-3.7c0.2-0.5,0.1-0.9-0.2-1.6C31.6,77.2,31.2,77.3,31,77.9z"/>
						<path class="st15" d="M32.9,71.1c-2.7-3.9-8-8-11.8-5.6c-1,0.7-1.2,1.5-1.2,2.4c0.9-0.4,1.4-0.6,2-1c3.1-1.9,7.4,1.9,9.7,5.1        c0.6,0.8,1,1.1,1.8,1.6C33.6,72.6,33.5,71.9,32.9,71.1z"/>
						<path class="st15" d="M23.4,79.4c0.3-2.4,0.2-4.8-0.4-7.1c-0.1-0.5-0.5-0.8-1.1-1.1c-0.4,0.6-0.6,0.9-0.5,1.4        c0.5,2.2,0.5,4.4,0.3,6.6c0,0.5,0.2,0.8,0.7,1.3C23,80.2,23.3,79.9,23.4,79.4z"/>
						<path class="st15" d="M25.5,84.5c0.2,0.8,0.8,1.1,1.5,1.4c0.2-0.9,0.2-1.2,0.1-1.8c-0.5-2.7,0.8-5.9,2.9-7.7        c0.5-0.4,0.6-0.8,0.9-1.6c-0.7-0.1-1.3-0.1-1.9,0.4C26.3,77.3,24.6,81.3,25.5,84.5z"/>
					</g>
				</g>
			</g>
			<path class="st3" d="M334.8,107.4c1.6-0.7,3.4-1.2,4.7-1.4c1.9-0.2,3.5-1.4,4.4-3.1c0.8-1.7,0.8-3.8-0.2-5.4     c-1.6-2.6-3.4-5.1-5.1-7.5c-2.6-3.6-5-6.9-6.6-10.4c-1-2.3-3.4-3.6-5.9-3.2c-7.3,1.1-20.5,3.7-29.7,9.8     c-2.4-7.5-10-10.4-15.4-10.5c-3.6,0-6.6,0.9-9.2,2.5c-0.1-0.1-0.2-0.2-0.3-0.3c-1.3-1.2-3.1-1.8-4.9-1.4     c-7.2,1.5-17.7,2.3-27.3,2.3c-5,0-9.7-0.4-13.4-1c-1.8-0.3-3.6,0.3-4.9,1.6c-1,1.1-1.6,2.5-1.6,3.9c-7.7-4.5-11.3-7.4-11.3-7.4     c-1.2-1-2.8-1.4-4.3-1.2c-1.5,0.2-2.9,1-3.8,2.3c-2.1,2.9-4.3,6-6.5,8.9c-0.3-1.8-0.6-3.6-0.8-5.5c-0.2-1.7-1.3-3.2-2.7-4.1     c-1.5-0.9-3.3-1-4.9-0.4c-4.4,1.8-12.9,4.1-19.8,5.2c-0.2-0.3-0.4-0.6-0.6-0.9c-1.1-1.2-2.7-1.9-4.4-1.8     c-6.7,0.3-14.6,0.2-22.2-0.2c-1.7-0.1-3.3,0.6-4.5,1.8c-1.1,1.2-1.7,2.9-1.4,4.6c0.7,5,1.2,14.8,1.1,25.7     c-0.1,11.1-0.6,20.2-1.6,26.1c-0.3,1.7,0.2,3.4,1.3,4.6c1.1,1.2,2.6,1.9,4.2,1.9c0.1,0,0.1,0,0.2,0c5.1-0.2,10.5-0.3,15.9-0.3     c2.8,0,5.3,0.1,7.8,0.2c1.5,0.1,3-0.5,4.1-1.5c0,0,0,0,0,0c1.2,1.2,2.9,1.7,4.6,1.5c2-0.3,4.2-0.4,6.7-0.4c4.9,0,9.9,0.6,14,1.1     l0.6,0.1c1.7,0.2,3.4-0.4,4.6-1.7c0.1-0.1,0.1-0.1,0.2-0.2c0.1,0.1,0.1,0.2,0.1,0.3c0.8,1.6,2.3,2.7,4,3c0.3,0.1,0.7,0.1,1,0.1     c1.4,0,2.8-0.5,3.8-1.5c3.9-3.6,10.1-7.4,15.1-10.2c-0.2,1.8-0.4,3.2-0.6,4.2c-0.3,1.8,0.3,3.6,1.6,4.9c1.3,1.3,3.1,1.9,4.8,1.6     c6-1,13.8-1.5,21.9-1.4c8.1,0,15.4,0.6,21.2,1.7c0.3,0.1,0.6,0.1,1,0.1c1.5,0,3-0.6,4-1.7c1.3-1.3,1.9-3.2,1.5-5     c-1.1-5.8-0.6-11.9,0-18.3c0.2-1.7-0.5-3.4-1.8-4.6c-0.2-0.2-0.4-0.4-0.6-0.5c-0.2-1.7-0.2-3.5-0.2-5.2c0.2,0.4,0.5,0.8,0.8,1.2     c1.1,1.2,2.6,1.9,4.2,1.9c0.4,0,0.9,0,1.3-0.1c2-0.5,5.2-2,8.4-4.3c1.7,4.6,5.5,7.2,9,8.8c-1.9,0.6-4.4,1.1-7.2,1.5     c-2,0.3-3.8,1.6-4.5,3.6c-0.7,1.9-0.4,4.1,1,5.7c4.7,5.4,8.9,11.5,13,17.5l1.4,2c1,1.5,2.8,2.4,4.5,2.4c0.3,0,0.6,0,0.9-0.1     c0.4-0.1,40.1-8.6,40.2-28.7C345.8,112.8,339.3,109.3,334.8,107.4z M221.6,108.9c0,2.6-0.1,5.2-0.2,7.6c-2.9-2.9-5.6-5.9-8.1-8.7     c2.6-2.4,5.3-4.7,8.1-7C221.5,103.5,221.6,106.1,221.6,108.9z"/>
			<g>
				<path class="st4" d="M137.2,138.6c1.1-7,1.6-17.1,1.6-27c0.1-10.7-0.3-21-1.2-26.5c7.4,0.4,15.4,0.6,22.8,0.2      c-0.9,6.7-1.6,14.8-1.6,23.5c-0.1,9.6,0.6,19.9,2.5,29.7C153.3,138.2,145.3,138.4,137.2,138.6z"/>
				<path class="st4" d="M205.7,108.6c5,6.3,11.2,12.8,17.2,18.4c-5.8,2.8-16,8.5-21.9,13.9c-5.6-11.2-9.4-17.8-10.5-19.8      c-0.1,5.2,0.4,12.2,1.2,18.3c-6.4-0.7-15-1.8-22.7-0.8c1.1-14.8-0.7-37.5-5-50.3c7.4-0.9,17.6-3.6,23.2-5.8      c0.9,6.2,1.9,11.9,2.9,17.9c4.3-5,9.8-12.1,14.6-18.8c0,0,5.8,4.8,18.9,11.6C217.3,98,211.1,102.9,205.7,108.6z"/>
				<path class="st4" d="M247.6,138.4c-8.2-0.1-16.3,0.5-22.8,1.5c1.1-7.2,2.3-18.2,2.4-29.8c0.1-8.5-0.5-17.3-2.1-25.6      c4.1,0.6,9,1,14.3,1c9.7,0.1,20.6-0.8,28.4-2.4c-0.8,6.3-1,12.8-0.6,19.1c-4.4-0.1-13.3,0.1-20.3,1.1c-0.2,1.1,0,2.6,0,3.8      c5,0,14.3-0.5,20.5-1.1c-0.4,3.4-0.4,7-0.1,10.4c-6.6-0.3-13.5-0.1-20.1,0.7c0,1.3,0.1,2.6,0.1,4.1c6.5,0.3,16.2,0.2,22.4-0.9      c-0.6,6.6-1.2,13.3,0.1,19.9C263.1,139,255.3,138.5,247.6,138.4z"/>
				<path class="st4" d="M277.7,108c0.9-2.4,2-4.8,2.6-6.8c-3-0.3-10.2-1.7-10.2-9.3c0-3.7,3.5-9.4,10.9-9.4c3,0,10.6,1.7,10.6,10      C291.5,100.8,281.3,107.2,277.7,108z"/>
				<path class="st4" d="M304.6,145c-4.5-6.5-9.4-13.6-14.8-19.9c5.7-0.7,16.5-3.2,16.5-8.2c0-2.9-14.4-2.6-14.4-13.3      c0.1-14.8,29.8-19.7,34.9-20.4c3,6.6,8.3,12.4,12,18.5c-4.5,0.5-13.1,4.2-13.1,7.2c0,4.6,14.4,4.5,14.4,13      C340.1,135.1,310.5,144,304.6,145z"/>
			</g>
			<g>
				<path class="st5" d="M137.2,137.5c1.1-7,1.6-17.1,1.6-27c0.1-10.7-0.3-21-1.2-26.5c7.4,0.4,15.4,0.6,22.8,0.2      c-0.9,6.7-1.6,14.8-1.6,23.4c-0.1,9.6,0.6,19.9,2.5,29.7C153.3,137,145.3,137.2,137.2,137.5z"/>
				<path class="st5" d="M205.7,107.4c5,6.3,11.2,12.8,17.2,18.4c-5.8,2.8-16,8.5-21.9,13.9c-5.6-11.2-9.4-17.8-10.5-19.8      c-0.1,5.2,0.4,12.2,1.2,18.2c-6.4-0.7-15-1.8-22.7-0.8c1.1-14.8-0.7-37.5-5-50.3c7.4-0.9,17.6-3.6,23.2-5.8      c0.9,6.2,1.9,11.9,2.9,17.9c4.3-5,9.8-12.1,14.6-18.8c0,0,5.8,4.8,18.9,11.6C217.3,96.9,211.2,101.8,205.7,107.4z"/>
				<path class="st5" d="M247.6,137.3c-8.2-0.1-16.3,0.4-22.8,1.5c1.1-7.2,2.3-18.2,2.4-29.8c0.1-8.5-0.5-17.3-2.1-25.6      c4.1,0.7,9,1,14.3,1c9.7,0.1,20.6-0.8,28.4-2.4c-0.8,6.3-1,12.8-0.6,19.1c-4.4-0.1-13.3,0.2-20.3,1.1c-0.2,1.1,0,2.6,0,3.8      c5,0,14.3-0.5,20.5-1.1c-0.4,3.4-0.4,7-0.1,10.4c-6.6-0.3-13.5-0.1-20.1,0.7c0,1.3,0.1,2.6,0.1,4.1c6.5,0.3,16.2,0.2,22.4-0.9      c-0.6,6.6-1.2,13.3,0.1,19.9C263.1,137.8,255.3,137.3,247.6,137.3z"/>
				<path class="st5" d="M277.7,106.8c0.9-2.4,2-4.8,2.6-6.8c-3-0.3-10.2-1.7-10.2-9.3c0-3.7,3.5-9.4,10.9-9.4c3,0,10.6,1.7,10.6,10      C291.5,99.7,281.3,106,277.7,106.8z"/>
				<path class="st5" d="M304.6,143.8c-4.5-6.5-9.4-13.6-14.8-19.9c5.7-0.7,16.5-3.2,16.5-8.2c0-2.9-14.4-2.6-14.4-13.3      c0.1-14.8,29.8-19.7,34.9-20.4c3,6.6,8.3,12.4,12,18.5c-4.5,0.5-13.1,4.2-13.1,7.2c0,4.6,14.4,4.5,14.4,13      C340.1,134,310.5,142.8,304.6,143.8z"/>
			</g>
		</g>
	</g>
</g>
</svg>