<svg id="Layer_1" data-name="Layer 1" xmlns="http://www.w3.org/2000/svg" xmlns:xlink="http://www.w3.org/1999/xlink" viewBox="0 0 320 220"><defs><style>.cls-1{fill:none;}.cls-2{fill:#231f20;}.cls-3{clip-path:url(#clip-path);}.cls-4{fill:#fff;}</style><clipPath id="clip-path"><rect class="cls-1" x="46.58" y="75.03" width="233.06" height="67.03"/></clipPath></defs><rect class="cls-2" x="16.22" y="14.95" width="290.37" height="192.79" rx="29.23"/><g class="cls-3"><g class="cls-3"><path class="cls-4" d="M145.19,97.94l-7.84,12.53L129.6,97.94h-3.47v21.18h3.47V105.47c0-.25,0-.5,0-.76s0-.53-.05-.81a6.84,6.84,0,0,0,.71,1.4l5.64,9.07h2.79l5.6-9.07c.13-.22.29-.45.44-.68s.3-.47.45-.72q0,.42-.06.81c0,.25,0,.5,0,.76v13.65h3.43V97.94Zm10.67,21.18,6.82-16.65c.06-.16.11-.35.19-.53a5.29,5.29,0,0,0,.2-.66,3.46,3.46,0,0,0,.19.66c.07.18.14.36.2.53l3.72,9.07h-8l2.08,3.1h7.16l1.86,4.49h3.64L165,98h-3.73l-8.93,21.18h3.54Zm53.38,0,8.61-21.18h-3.73l-6.06,16c-.2.54-.4,1.16-.59,1.87-.2-.71-.4-1.33-.6-1.87l-6.06-16h-3.9l8.6,21.18Zm32.83-21.18v21.18h13.8V116H245.54v-18Zm18,0v21.18H274V116H263.55v-18Zm-34.81,3.13h11.1V97.94H221.83v21.18h14.74V116H225.26Zm-30.89,3.22a6,6,0,0,0-1.85-4.66c-1.23-1.13-3.28-1.69-6.17-1.69h-8.64v21.18h3.48V101.07h5.29c2.85,0,4.28,1.18,4.28,3.52,0,2.52-1.54,3.77-4.62,3.77h-2.8l-2,3h4.7l5.85,7.71h4.19l-6.4-8.47c3.13-1.14,4.68-3.25,4.68-6.36m40.5,2.62h-9.41l2.12,3.14h7.28Zm-162.77-6,7,7.18a.71.71,0,0,0,.46.25.75.75,0,0,0,.47-.25l7-7.18a.71.71,0,0,0,.25-.47c0-.22-.12-.34-.38-.34H72.23c-.25,0-.38.12-.38.34a.67.67,0,0,0,.25.47m41-25.47c0-.25-.11-.38-.34-.38a.59.59,0,0,0-.41.21l-5.74,5.83V136l5.74,5.86a.6.6,0,0,0,.41.21c.23,0,.34-.12.34-.37Zm-67,66.28c0,.25.12.37.34.37a.57.57,0,0,0,.42-.21L52.56,136V81.07l-5.74-5.83a.63.63,0,0,0-.43-.21c-.22,0-.34.13-.34.38ZM61,89.65H98.16l5.22-5.31a.57.57,0,0,0,.22-.42c0-.23-.13-.34-.38-.34H55.94c-.26,0-.38.11-.38.34a.57.57,0,0,0,.21.42Zm-5.23,43.1a.61.61,0,0,0-.21.43c0,.22.12.34.38.34H103.2c.25,0,.38-.12.38-.34a.6.6,0,0,0-.22-.43l-5.22-5.31H61Zm39.6-8.14a.64.64,0,0,0,.42.22c.22,0,.34-.13.34-.38V92.65c0-.26-.12-.38-.34-.38a.57.57,0,0,0-.42.21L89.91,98v21.06Zm-26.13-5.53V98l-5.45-5.54a.61.61,0,0,0-.42-.21c-.22,0-.34.12-.34.38v31.79c0,.25.12.38.34.38a.57.57,0,0,0,.42-.22ZM273.87,97.93v.39h1v2.29h.44V98.32h1v-.39Zm5.36,0-1,1.58-1-1.58h-.44v2.68h.44V98.78a.34.34,0,0,0,0-.1,1,1,0,0,0,.09.17l.71,1.15h.35l.71-1.15.06-.09.06-.08s0,.06,0,.1v1.83h.44V97.93Z"/></g></g></svg>