<?xml version="1.0" encoding="UTF-8" standalone="no"?>
<!DOCTYPE svg PUBLIC "-//W3C//DTD SVG 20010904//EN" "http://www.w3.org/TR/2001/REC-SVG-20010904/DTD/svg10.dtd">
<svg version="1.0" xmlns="http://www.w3.org/2000/svg" width="503.000000pt" height="315.000000pt" viewBox="0 0 503.000000 315.000000" preserveAspectRatio="xMidYMid meet">
<metadata>
Created by potrace 1.15, written by Peter Selinger 2001-2017
</metadata>
<g transform="translate(0.000000,315.000000) scale(0.100000,-0.100000)" fill="#000000" stroke="none">
<path d="M0 1575 l0 -1575 2515 0 2515 0 0 1025 0 1025 -26 -10 c-14 -6 -47 -10 -74 -10 -59 0 -99 29 -104 75 -2 17 -4 213 -5 438 l-1 407 -420 0 c-357 0 -425 2 -450 15 -35 18 -44 46 -38 125 l4 60 -1958 0 -1958 0 0 -1575z m4535 1185 c-3 -5 0 -7 9 -4 32 12 107 -70 90 -98 -4 -7 -2 -8 4 -4 9 5 12 -115 12 -484 0 -369 -3 -489 -12 -484 -7 5 -8 3 -3 -5 4 -7 -2 -22 -16 -37 -19 -21 -32 -24 -89 -24 -58 0 -70 3 -90 25 l-23 24 2 436 2 435 -436 0 -436 0 -24 25 c-21 20 -25 33 -25 88 0 54 4 68 25 91 l24 26 496 0 c324 0 494 -3 490 -10z m-376 -419 c73 -38 71 -19 71 -580 l0 -502 -25 -24 c-20 -21 -34 -25 -80 -25 -61 0 -100 14 -89 32 4 7 3 8 -4 4 -28 -17 -32 40 -32 458 l0 426 -430 0 -431 0 -24 25 c-22 21 -25 33 -25 91 0 56 4 72 22 91 l22 23 494 0 c462 -1 497 -2 531 -19z m-3488 -381 c62 -17 85 -54 149 -234 33 -93 57 -173 53 -179 -3 -7 -2 -9 2 -4 5 4 35 -68 68 -160 32 -93 63 -177 67 -188 31 -73 89 -259 83 -268 -3 -6 -1 -7 5 -3 7 4 12 1 12 -6 0 -8 7 -23 15 -34 8 -10 15 -14 14 -9 -3 25 2 56 9 52 4 -3 8 5 8 16 3 38 77 226 87 220 6 -3 7 -1 3 6 -8 12 23 113 33 106 3 -2 7 7 7 18 3 37 60 178 69 170 4 -4 5 -3 1 4 -7 12 74 244 83 238 3 -2 7 7 7 18 1 12 16 59 34 105 45 117 73 137 192 137 86 0 88 -1 120 -33 l33 -32 3 -715 2 -715 -125 0 -125 0 0 443 -1 442 -24 -60 c-13 -33 -60 -159 -105 -280 -45 -121 -87 -233 -95 -250 -7 -16 -17 -42 -20 -57 -4 -16 -12 -25 -18 -21 -5 3 -7 1 -4 -4 4 -6 -2 -35 -12 -65 -46 -134 -71 -152 -197 -146 -118 6 -117 5 -195 221 -21 60 -36 114 -32 120 3 7 2 8 -2 4 -9 -8 -65 131 -68 168 -1 11 -6 23 -10 26 -4 3 -9 15 -10 27 0 11 -4 19 -7 17 -3 -2 -30 66 -60 151 l-55 155 -3 -445 -2 -446 -120 0 -120 0 0 710 0 709 30 35 c17 19 41 37 53 39 43 8 133 7 168 -3z m1599 -630 l0 -620 340 0 340 0 0 -120 0 -121 -427 3 c-410 3 -429 4 -455 23 -60 44 -58 19 -58 769 l0 686 130 0 130 0 0 -620z m1550 500 l0 -120 -215 0 -215 0 0 -620 0 -620 -130 0 -130 0 0 620 0 620 -220 0 -220 0 0 120 0 120 565 0 565 0 0 -120z"/>
<path d="M4025 1735 c0 -220 1 -309 2 -197 2 112 2 292 0 400 -1 108 -2 17 -2 -203z"/>
<path d="M5015 3140 c3 -5 8 -10 11 -10 2 0 4 5 4 10 0 6 -5 10 -11 10 -5 0 -7 -4 -4 -10z"/>
</g>
</svg>