<svg width="301" height="391" viewBox="0 0 301 391" fill="none" xmlns="http://www.w3.org/2000/svg">
<rect x="1" y="1" width="299" height="389" rx="9" fill="#132A3E"/>
<rect x="1" y="1" width="299" height="389" rx="9" stroke="#254D70" stroke-width="2"/>
<path d="M198.5 110V100H188.5V90C188.492 87.3503 187.436 84.8113 185.562 82.9377C183.689 81.064 181.15 80.0079 178.5 80H168.5V70H158.5V80H148.5V70H138.5V80H128.5C125.85 80.0079 123.311 81.064 121.438 82.9377C119.564 84.8113 118.508 87.3503 118.5 90V100H108.5V110H118.5V120H108.5V130H118.5V140C118.508 142.65 119.564 145.189 121.438 147.062C123.311 148.936 125.85 149.992 128.5 150H138.5V160H148.5V150H158.5V160H168.5V150H178.5C181.15 149.992 183.689 148.936 185.562 147.062C187.436 145.189 188.492 142.65 188.5 140V130H198.5V120H188.5V110H198.5ZM178.5 140H128.5V90H178.5V140Z" fill="#EDC8FA"/>
<path d="M150.305 95H143.58L133.53 135H138.665L140.985 125.625H152.565L154.825 135H160.135L150.305 95ZM141.66 121.62L146.75 99.75H146.98L151.895 121.62H141.66ZM164.72 95H169.72V135H164.72V95Z" fill="#EDC8FA"/>
<path d="M112.051 188.18L119.363 204H115.543L114.348 201.07H108.137L106.941 204H103.121L110.434 188.18H112.051ZM111.254 193.5L109.285 198.305H113.223L111.254 193.5ZM130.379 201.07V204H121.824V201.07H124.473V191.227H121.824V188.297H130.379V191.227H127.73V201.07H130.379ZM153.559 188.297V191.227H148.543V203.93H145.309V191.227H140.293V188.297H153.559ZM163.473 195.492C162.973 195.211 162.449 195.07 161.902 195.07C161.215 195.07 160.645 195.297 160.191 195.75C159.738 196.188 159.34 196.734 158.996 197.391V204H156.02V192.164H158.996V194.391C159.402 193.688 159.879 193.102 160.426 192.633C160.988 192.164 161.621 191.93 162.324 191.93C162.746 191.93 163.129 192 163.473 192.141V195.492ZM170.457 191.859C171.098 191.859 171.746 192.008 172.402 192.305C173.059 192.602 173.605 193 174.043 193.5V192.164H177.02V204H174.043V202.008C173.699 202.648 173.199 203.203 172.543 203.672C171.887 204.125 171.121 204.352 170.246 204.352C169.293 204.352 168.41 204.109 167.598 203.625C166.801 203.141 166.16 202.438 165.676 201.516C165.191 200.594 164.949 199.477 164.949 198.164C164.949 196.852 165.191 195.727 165.676 194.789C166.176 193.852 166.84 193.133 167.668 192.633C168.512 192.117 169.441 191.859 170.457 191.859ZM171.066 194.766C170.441 194.766 169.902 194.93 169.449 195.258C169.012 195.57 168.668 195.984 168.418 196.5C168.168 197.016 168.043 197.57 168.043 198.164C168.043 199.055 168.309 199.812 168.84 200.438C169.387 201.062 170.105 201.375 170.996 201.375C171.527 201.375 172.02 201.234 172.473 200.953C172.941 200.672 173.316 200.281 173.598 199.781C173.895 199.266 174.043 198.648 174.043 197.93V196.242C173.621 195.789 173.16 195.43 172.66 195.164C172.176 194.898 171.645 194.766 171.066 194.766ZM186.066 191.859C186.941 191.859 187.66 192 188.223 192.281C188.785 192.562 189.23 192.836 189.559 193.102V195.844C189.152 195.547 188.691 195.297 188.176 195.094C187.676 194.891 187.059 194.789 186.324 194.789C185.73 194.789 185.176 194.938 184.66 195.234C184.16 195.531 183.762 195.93 183.465 196.43C183.168 196.93 183.02 197.5 183.02 198.141C183.02 199.109 183.332 199.906 183.957 200.531C184.582 201.156 185.371 201.469 186.324 201.469C187.059 201.469 187.676 201.375 188.176 201.188C188.691 200.984 189.152 200.734 189.559 200.438V203.156C189.23 203.438 188.785 203.711 188.223 203.977C187.66 204.227 186.941 204.352 186.066 204.352C184.863 204.352 183.793 204.07 182.855 203.508C181.934 202.93 181.199 202.172 180.652 201.234C180.121 200.281 179.855 199.25 179.855 198.141C179.855 197.312 180.004 196.523 180.301 195.773C180.613 195.023 181.051 194.359 181.613 193.781C182.176 193.188 182.832 192.719 183.582 192.375C184.348 192.031 185.176 191.859 186.066 191.859ZM195.184 187.125V197.438L200.012 192.164H203.738L198.629 197.297L203.996 204H200.246L196.66 199.289L195.184 200.766V204H192.207V187.125H195.184Z" fill="white"/>
<path d="M55.6484 247.531V248.859H52.0391V257.953H50.6328V248.859H47.0234V247.531H55.6484ZM61.2578 250.031C61.7891 250.031 62.2734 250.151 62.7109 250.391C63.1484 250.62 63.4974 250.974 63.7578 251.453C64.0182 251.922 64.1484 252.516 64.1484 253.234V258H62.8672L62.8516 253.359C62.8516 252.682 62.7005 252.167 62.3984 251.812C62.1068 251.458 61.6536 251.281 61.0391 251.281C60.6224 251.281 60.2057 251.438 59.7891 251.75C59.3828 252.052 59.0234 252.406 58.7109 252.812V258H57.4297V246.75H58.7109V251.422C58.8776 251.214 59.0911 251.005 59.3516 250.797C59.612 250.578 59.9036 250.396 60.2266 250.25C60.5599 250.104 60.9036 250.031 61.2578 250.031ZM67.8203 246.438C68.1224 246.438 68.3724 246.547 68.5703 246.766C68.7786 246.974 68.8828 247.219 68.8828 247.5C68.8828 247.771 68.7786 248.016 68.5703 248.234C68.3724 248.453 68.1224 248.562 67.8203 248.562C67.5182 248.562 67.263 248.453 67.0547 248.234C66.8568 248.016 66.7578 247.771 66.7578 247.5C66.7578 247.219 66.8568 246.974 67.0547 246.766C67.263 246.547 67.5182 246.438 67.8203 246.438ZM68.6172 250.188V258H67.3359V251.391H66.1016V250.188H68.6172ZM73.7109 250.031C74.1693 250.031 74.5964 250.099 74.9922 250.234C75.388 250.359 75.6745 250.49 75.8516 250.625V252C75.6328 251.833 75.3359 251.672 74.9609 251.516C74.5859 251.359 74.2005 251.281 73.8047 251.281C73.3151 251.281 72.9453 251.396 72.6953 251.625C72.4557 251.854 72.3359 252.094 72.3359 252.344C72.3359 252.542 72.4036 252.745 72.5391 252.953C72.6849 253.151 72.9349 253.312 73.2891 253.438L74.6016 253.906C75.112 254.083 75.4922 254.339 75.7422 254.672C75.9922 255.005 76.1172 255.396 76.1172 255.844C76.1172 256.281 75.9922 256.682 75.7422 257.047C75.5026 257.411 75.1641 257.703 74.7266 257.922C74.2995 258.13 73.8047 258.234 73.2422 258.234C72.9401 258.234 72.6224 258.193 72.2891 258.109C71.9661 258.036 71.6745 257.948 71.4141 257.844C71.1536 257.729 70.9609 257.63 70.8359 257.547V256.172C70.9818 256.276 71.1849 256.396 71.4453 256.531C71.7161 256.656 72.0026 256.766 72.3047 256.859C72.6068 256.943 72.888 256.984 73.1484 256.984C73.638 256.984 74.0234 256.875 74.3047 256.656C74.5964 256.438 74.7422 256.167 74.7422 255.844C74.7422 255.594 74.6432 255.396 74.4453 255.25C74.2578 255.104 73.9818 254.964 73.6172 254.828L72.4609 254.406C71.8568 254.177 71.4557 253.891 71.2578 253.547C71.0599 253.193 70.9609 252.792 70.9609 252.344C70.9609 251.677 71.2109 251.125 71.7109 250.688C72.2109 250.25 72.8776 250.031 73.7109 250.031ZM86.2891 250.031C86.862 250.031 87.3568 250.125 87.7734 250.312C88.1901 250.49 88.4766 250.651 88.6328 250.797V252.094C88.3411 251.875 88.0078 251.688 87.6328 251.531C87.2578 251.365 86.8099 251.281 86.2891 251.281C85.737 251.281 85.2526 251.417 84.8359 251.688C84.4193 251.948 84.0964 252.297 83.8672 252.734C83.6484 253.161 83.5391 253.63 83.5391 254.141C83.5391 254.641 83.6484 255.109 83.8672 255.547C84.0964 255.974 84.4193 256.323 84.8359 256.594C85.2526 256.854 85.737 256.984 86.2891 256.984C86.8099 256.984 87.2578 256.906 87.6328 256.75C88.0078 256.583 88.3411 256.391 88.6328 256.172V257.469C88.4766 257.625 88.1901 257.792 87.7734 257.969C87.3568 258.146 86.862 258.234 86.2891 258.234C85.4974 258.234 84.7943 258.047 84.1797 257.672C83.5651 257.297 83.0807 256.802 82.7266 256.188C82.3828 255.562 82.2109 254.88 82.2109 254.141C82.2109 253.401 82.3828 252.719 82.7266 252.094C83.0807 251.469 83.5651 250.969 84.1797 250.594C84.7943 250.219 85.4974 250.031 86.2891 250.031ZM94.5703 250.031C95.1016 250.031 95.5859 250.151 96.0234 250.391C96.4609 250.62 96.8099 250.974 97.0703 251.453C97.3307 251.922 97.4609 252.516 97.4609 253.234V258H96.1797L96.1641 253.359C96.1641 252.682 96.013 252.167 95.7109 251.812C95.4193 251.458 94.9661 251.281 94.3516 251.281C93.9349 251.281 93.5182 251.438 93.1016 251.75C92.6953 252.052 92.3359 252.406 92.0234 252.812V258H90.7422V246.75H92.0234V251.422C92.1901 251.214 92.4036 251.005 92.6641 250.797C92.9245 250.578 93.2161 250.396 93.5391 250.25C93.8724 250.104 94.2161 250.031 94.5703 250.031ZM103.102 250.031C103.549 250.031 104.003 250.141 104.461 250.359C104.93 250.568 105.331 250.859 105.664 251.234V250.188H106.945V258H105.664V256.672C105.393 257.089 105.023 257.453 104.555 257.766C104.096 258.078 103.57 258.234 102.977 258.234C102.31 258.234 101.701 258.068 101.148 257.734C100.596 257.391 100.154 256.917 99.8203 256.312C99.4974 255.708 99.3359 255.01 99.3359 254.219C99.3359 253.354 99.4974 252.609 99.8203 251.984C100.154 251.359 100.607 250.88 101.18 250.547C101.753 250.203 102.393 250.031 103.102 250.031ZM103.336 251.281C102.773 251.281 102.294 251.422 101.898 251.703C101.503 251.984 101.195 252.349 100.977 252.797C100.768 253.234 100.664 253.708 100.664 254.219C100.664 254.719 100.768 255.182 100.977 255.609C101.185 256.026 101.477 256.359 101.852 256.609C102.237 256.859 102.68 256.984 103.18 256.984C103.659 256.984 104.086 256.859 104.461 256.609C104.836 256.359 105.133 256.016 105.352 255.578C105.57 255.13 105.674 254.63 105.664 254.078L105.648 252.578C105.326 252.172 104.977 251.854 104.602 251.625C104.237 251.396 103.815 251.281 103.336 251.281ZM110.883 246.75V258H109.602V246.75H110.883ZM114.82 246.75V258H113.539V246.75H114.82ZM120.695 250.031C121.497 250.031 122.164 250.198 122.695 250.531C123.227 250.865 123.622 251.318 123.883 251.891C124.154 252.464 124.289 253.109 124.289 253.828V254.594H118.289C118.352 255.031 118.503 255.432 118.742 255.797C118.982 256.161 119.294 256.453 119.68 256.672C120.065 256.88 120.508 256.984 121.008 256.984C121.57 256.984 122.096 256.844 122.586 256.562C123.076 256.271 123.487 255.953 123.82 255.609L123.805 257C123.659 257.177 123.44 257.365 123.148 257.562C122.867 257.75 122.539 257.906 122.164 258.031C121.799 258.167 121.414 258.234 121.008 258.234C120.216 258.234 119.513 258.047 118.898 257.672C118.284 257.297 117.799 256.802 117.445 256.188C117.102 255.562 116.93 254.88 116.93 254.141C116.93 253.401 117.091 252.719 117.414 252.094C117.737 251.469 118.18 250.969 118.742 250.594C119.315 250.219 119.966 250.031 120.695 250.031ZM120.695 251.281C120.049 251.281 119.518 251.5 119.102 251.938C118.685 252.365 118.424 252.885 118.32 253.5H123.023C122.971 252.99 122.826 252.573 122.586 252.25C122.357 251.927 122.076 251.688 121.742 251.531C121.409 251.365 121.06 251.281 120.695 251.281ZM127.68 250.188V251.422C127.846 251.214 128.06 251.005 128.32 250.797C128.581 250.578 128.872 250.396 129.195 250.25C129.529 250.104 129.872 250.031 130.227 250.031C130.758 250.031 131.242 250.151 131.68 250.391C132.117 250.62 132.466 250.974 132.727 251.453C132.987 251.922 133.117 252.516 133.117 253.234V258H131.836L131.82 253.359C131.82 252.682 131.669 252.167 131.367 251.812C131.076 251.458 130.622 251.281 130.008 251.281C129.591 251.281 129.174 251.438 128.758 251.75C128.352 252.052 127.992 252.406 127.68 252.812V258H126.398V250.188H127.68ZM138.758 250.031C139.206 250.031 139.659 250.141 140.117 250.359C140.586 250.568 140.987 250.859 141.32 251.234V250.188H142.602V257.844C142.602 258.771 142.414 259.542 142.039 260.156C141.664 260.771 141.164 261.229 140.539 261.531C139.914 261.833 139.232 261.984 138.492 261.984C138.013 261.984 137.602 261.927 137.258 261.812C136.924 261.708 136.638 261.573 136.398 261.406C136.159 261.25 135.94 261.099 135.742 260.953V259.578C135.898 259.693 136.102 259.839 136.352 260.016C136.612 260.203 136.919 260.37 137.273 260.516C137.638 260.661 138.044 260.734 138.492 260.734C139.003 260.734 139.471 260.641 139.898 260.453C140.326 260.266 140.669 259.99 140.93 259.625C141.19 259.26 141.32 258.823 141.32 258.312V256.672C141.049 257.089 140.68 257.453 140.211 257.766C139.753 258.078 139.227 258.234 138.633 258.234C137.966 258.234 137.357 258.068 136.805 257.734C136.253 257.391 135.81 256.917 135.477 256.312C135.154 255.708 134.992 255.01 134.992 254.219C134.992 253.354 135.154 252.609 135.477 251.984C135.81 251.359 136.263 250.88 136.836 250.547C137.409 250.203 138.049 250.031 138.758 250.031ZM138.992 251.297C138.43 251.297 137.951 251.438 137.555 251.719C137.159 251.99 136.852 252.349 136.633 252.797C136.424 253.234 136.32 253.708 136.32 254.219C136.32 254.719 136.424 255.177 136.633 255.594C136.841 256.01 137.133 256.344 137.508 256.594C137.893 256.844 138.336 256.969 138.836 256.969C139.315 256.969 139.742 256.844 140.117 256.594C140.492 256.344 140.789 256 141.008 255.562C141.227 255.125 141.331 254.63 141.32 254.078L141.305 252.578C140.982 252.172 140.633 251.859 140.258 251.641C139.893 251.411 139.471 251.297 138.992 251.297ZM148.477 250.031C149.279 250.031 149.945 250.198 150.477 250.531C151.008 250.865 151.404 251.318 151.664 251.891C151.935 252.464 152.07 253.109 152.07 253.828V254.594H146.07C146.133 255.031 146.284 255.432 146.523 255.797C146.763 256.161 147.076 256.453 147.461 256.672C147.846 256.88 148.289 256.984 148.789 256.984C149.352 256.984 149.878 256.844 150.367 256.562C150.857 256.271 151.268 255.953 151.602 255.609L151.586 257C151.44 257.177 151.221 257.365 150.93 257.562C150.648 257.75 150.32 257.906 149.945 258.031C149.581 258.167 149.195 258.234 148.789 258.234C147.997 258.234 147.294 258.047 146.68 257.672C146.065 257.297 145.581 256.802 145.227 256.188C144.883 255.562 144.711 254.88 144.711 254.141C144.711 253.401 144.872 252.719 145.195 252.094C145.518 251.469 145.961 250.969 146.523 250.594C147.096 250.219 147.747 250.031 148.477 250.031ZM148.477 251.281C147.831 251.281 147.299 251.5 146.883 251.938C146.466 252.365 146.206 252.885 146.102 253.5H150.805C150.753 252.99 150.607 252.573 150.367 252.25C150.138 251.927 149.857 251.688 149.523 251.531C149.19 251.365 148.841 251.281 148.477 251.281ZM160.117 246.438C160.419 246.438 160.669 246.547 160.867 246.766C161.076 246.974 161.18 247.219 161.18 247.5C161.18 247.771 161.076 248.016 160.867 248.234C160.669 248.453 160.419 248.562 160.117 248.562C159.815 248.562 159.56 248.453 159.352 248.234C159.154 248.016 159.055 247.771 159.055 247.5C159.055 247.219 159.154 246.974 159.352 246.766C159.56 246.547 159.815 246.438 160.117 246.438ZM160.914 250.188V258H159.633V251.391H158.398V250.188H160.914ZM164.961 250.188V251.422C165.128 251.214 165.341 251.005 165.602 250.797C165.862 250.578 166.154 250.396 166.477 250.25C166.81 250.104 167.154 250.031 167.508 250.031C168.039 250.031 168.523 250.151 168.961 250.391C169.398 250.62 169.747 250.974 170.008 251.453C170.268 251.922 170.398 252.516 170.398 253.234V258H169.117L169.102 253.359C169.102 252.682 168.951 252.167 168.648 251.812C168.357 251.458 167.904 251.281 167.289 251.281C166.872 251.281 166.456 251.438 166.039 251.75C165.633 252.052 165.273 252.406 164.961 252.812V258H163.68V250.188H164.961ZM179.711 250.188L176.039 258H175.242L171.727 250.188H173.258L175.617 255.938L178.18 250.188H179.711ZM182.523 246.438C182.826 246.438 183.076 246.547 183.273 246.766C183.482 246.974 183.586 247.219 183.586 247.5C183.586 247.771 183.482 248.016 183.273 248.234C183.076 248.453 182.826 248.562 182.523 248.562C182.221 248.562 181.966 248.453 181.758 248.234C181.56 248.016 181.461 247.771 181.461 247.5C181.461 247.219 181.56 246.974 181.758 246.766C181.966 246.547 182.221 246.438 182.523 246.438ZM183.32 250.188V258H182.039V251.391H180.805V250.188H183.32ZM188.242 247.938V250.188H190.523V251.391H188.242V255.969C188.242 256.292 188.326 256.547 188.492 256.734C188.659 256.922 188.914 257.016 189.258 257.016C189.57 257.016 189.831 256.979 190.039 256.906C190.247 256.823 190.43 256.734 190.586 256.641V257.688C190.378 257.854 190.154 257.984 189.914 258.078C189.685 258.182 189.372 258.234 188.977 258.234C188.31 258.234 187.805 258.036 187.461 257.641C187.128 257.234 186.961 256.698 186.961 256.031V251.391H185.461V251.016C185.971 250.786 186.398 250.411 186.742 249.891C187.086 249.359 187.388 248.708 187.648 247.938H188.242ZM196.07 250.031C196.872 250.031 197.539 250.198 198.07 250.531C198.602 250.865 198.997 251.318 199.258 251.891C199.529 252.464 199.664 253.109 199.664 253.828V254.594H193.664C193.727 255.031 193.878 255.432 194.117 255.797C194.357 256.161 194.669 256.453 195.055 256.672C195.44 256.88 195.883 256.984 196.383 256.984C196.945 256.984 197.471 256.844 197.961 256.562C198.451 256.271 198.862 255.953 199.195 255.609L199.18 257C199.034 257.177 198.815 257.365 198.523 257.562C198.242 257.75 197.914 257.906 197.539 258.031C197.174 258.167 196.789 258.234 196.383 258.234C195.591 258.234 194.888 258.047 194.273 257.672C193.659 257.297 193.174 256.802 192.82 256.188C192.477 255.562 192.305 254.88 192.305 254.141C192.305 253.401 192.466 252.719 192.789 252.094C193.112 251.469 193.555 250.969 194.117 250.594C194.69 250.219 195.341 250.031 196.07 250.031ZM196.07 251.281C195.424 251.281 194.893 251.5 194.477 251.938C194.06 252.365 193.799 252.885 193.695 253.5H198.398C198.346 252.99 198.201 252.573 197.961 252.25C197.732 251.927 197.451 251.688 197.117 251.531C196.784 251.365 196.435 251.281 196.07 251.281ZM204.102 250.031C204.56 250.031 204.987 250.099 205.383 250.234C205.779 250.359 206.065 250.49 206.242 250.625V252C206.023 251.833 205.727 251.672 205.352 251.516C204.977 251.359 204.591 251.281 204.195 251.281C203.706 251.281 203.336 251.396 203.086 251.625C202.846 251.854 202.727 252.094 202.727 252.344C202.727 252.542 202.794 252.745 202.93 252.953C203.076 253.151 203.326 253.312 203.68 253.438L204.992 253.906C205.503 254.083 205.883 254.339 206.133 254.672C206.383 255.005 206.508 255.396 206.508 255.844C206.508 256.281 206.383 256.682 206.133 257.047C205.893 257.411 205.555 257.703 205.117 257.922C204.69 258.13 204.195 258.234 203.633 258.234C203.331 258.234 203.013 258.193 202.68 258.109C202.357 258.036 202.065 257.948 201.805 257.844C201.544 257.729 201.352 257.63 201.227 257.547V256.172C201.372 256.276 201.576 256.396 201.836 256.531C202.107 256.656 202.393 256.766 202.695 256.859C202.997 256.943 203.279 256.984 203.539 256.984C204.029 256.984 204.414 256.875 204.695 256.656C204.987 256.438 205.133 256.167 205.133 255.844C205.133 255.594 205.034 255.396 204.836 255.25C204.648 255.104 204.372 254.964 204.008 254.828L202.852 254.406C202.247 254.177 201.846 253.891 201.648 253.547C201.451 253.193 201.352 252.792 201.352 252.344C201.352 251.677 201.602 251.125 202.102 250.688C202.602 250.25 203.268 250.031 204.102 250.031ZM213.586 250.188L216.32 255.938L218.977 250.188H220.508L214.758 261.75H213.273L215.508 257.531L212.055 250.188H213.586ZM225.602 250.031C226.393 250.031 227.096 250.219 227.711 250.594C228.326 250.969 228.805 251.469 229.148 252.094C229.503 252.719 229.68 253.401 229.68 254.141C229.68 254.88 229.503 255.562 229.148 256.188C228.805 256.802 228.326 257.297 227.711 257.672C227.096 258.047 226.393 258.234 225.602 258.234C224.81 258.234 224.107 258.047 223.492 257.672C222.878 257.297 222.393 256.802 222.039 256.188C221.695 255.562 221.523 254.88 221.523 254.141C221.523 253.401 221.695 252.719 222.039 252.094C222.393 251.469 222.878 250.969 223.492 250.594C224.107 250.219 224.81 250.031 225.602 250.031ZM225.602 251.281C225.049 251.281 224.565 251.417 224.148 251.688C223.732 251.948 223.409 252.297 223.18 252.734C222.961 253.161 222.852 253.63 222.852 254.141C222.852 254.641 222.961 255.109 223.18 255.547C223.409 255.974 223.732 256.323 224.148 256.594C224.565 256.854 225.049 256.984 225.602 256.984C226.164 256.984 226.648 256.854 227.055 256.594C227.471 256.323 227.789 255.974 228.008 255.547C228.237 255.109 228.352 254.641 228.352 254.141C228.352 253.63 228.237 253.161 228.008 252.734C227.789 252.297 227.471 251.948 227.055 251.688C226.648 251.417 226.164 251.281 225.602 251.281ZM238.18 250.188V254.812C238.18 255.5 238.034 256.094 237.742 256.594C237.451 257.094 237.055 257.479 236.555 257.75C236.055 258.021 235.492 258.156 234.867 258.156C234.242 258.156 233.68 258.021 233.18 257.75C232.68 257.479 232.284 257.094 231.992 256.594C231.701 256.094 231.555 255.5 231.555 254.812V250.188H232.883V254.812C232.883 255.49 233.081 256.01 233.477 256.375C233.883 256.729 234.346 256.906 234.867 256.906C235.388 256.906 235.846 256.729 236.242 256.375C236.648 256.01 236.852 255.49 236.852 254.812V250.188H238.18ZM247.445 247.938V250.188H249.727V251.391H247.445V255.969C247.445 256.292 247.529 256.547 247.695 256.734C247.862 256.922 248.117 257.016 248.461 257.016C248.773 257.016 249.034 256.979 249.242 256.906C249.451 256.823 249.633 256.734 249.789 256.641V257.688C249.581 257.854 249.357 257.984 249.117 258.078C248.888 258.182 248.576 258.234 248.18 258.234C247.513 258.234 247.008 258.036 246.664 257.641C246.331 257.234 246.164 256.698 246.164 256.031V251.391H244.664V251.016C245.174 250.786 245.602 250.411 245.945 249.891C246.289 249.359 246.591 248.708 246.852 247.938H247.445ZM255.586 250.031C256.378 250.031 257.081 250.219 257.695 250.594C258.31 250.969 258.789 251.469 259.133 252.094C259.487 252.719 259.664 253.401 259.664 254.141C259.664 254.88 259.487 255.562 259.133 256.188C258.789 256.802 258.31 257.297 257.695 257.672C257.081 258.047 256.378 258.234 255.586 258.234C254.794 258.234 254.091 258.047 253.477 257.672C252.862 257.297 252.378 256.802 252.023 256.188C251.68 255.562 251.508 254.88 251.508 254.141C251.508 253.401 251.68 252.719 252.023 252.094C252.378 251.469 252.862 250.969 253.477 250.594C254.091 250.219 254.794 250.031 255.586 250.031ZM255.586 251.281C255.034 251.281 254.549 251.417 254.133 251.688C253.716 251.948 253.393 252.297 253.164 252.734C252.945 253.161 252.836 253.63 252.836 254.141C252.836 254.641 252.945 255.109 253.164 255.547C253.393 255.974 253.716 256.323 254.133 256.594C254.549 256.854 255.034 256.984 255.586 256.984C256.148 256.984 256.633 256.854 257.039 256.594C257.456 256.323 257.773 255.974 257.992 255.547C258.221 255.109 258.336 254.641 258.336 254.141C258.336 253.63 258.221 253.161 257.992 252.734C257.773 252.297 257.456 251.948 257.039 251.688C256.633 251.417 256.148 251.281 255.586 251.281ZM71.9688 265.75V277H70.6875V275.672C70.4167 276.089 70.0469 276.453 69.5781 276.766C69.1198 277.078 68.5938 277.234 68 277.234C67.3333 277.234 66.724 277.068 66.1719 276.734C65.6198 276.391 65.1771 275.917 64.8438 275.312C64.5208 274.708 64.3594 274.01 64.3594 273.219C64.3594 272.354 64.5208 271.609 64.8438 270.984C65.1771 270.359 65.6302 269.88 66.2031 269.547C66.776 269.203 67.4167 269.031 68.125 269.031C68.5729 269.031 69.026 269.141 69.4844 269.359C69.9531 269.568 70.3542 269.859 70.6875 270.234V265.75H71.9688ZM68.3594 270.312C67.7969 270.312 67.3177 270.453 66.9219 270.734C66.526 271.005 66.2188 271.359 66 271.797C65.7917 272.234 65.6875 272.708 65.6875 273.219C65.6875 273.719 65.7917 274.182 66 274.609C66.2083 275.026 66.5 275.359 66.875 275.609C67.2604 275.859 67.7031 275.984 68.2031 275.984C68.6823 275.984 69.1094 275.859 69.4844 275.609C69.8594 275.359 70.1562 275.016 70.375 274.578C70.5938 274.13 70.6979 273.63 70.6875 273.078L70.6719 271.578C70.349 271.172 70 270.859 69.625 270.641C69.2604 270.422 68.8385 270.312 68.3594 270.312ZM77.8438 269.031C78.6458 269.031 79.3125 269.198 79.8438 269.531C80.375 269.865 80.7708 270.318 81.0312 270.891C81.3021 271.464 81.4375 272.109 81.4375 272.828V273.594H75.4375C75.5 274.031 75.651 274.432 75.8906 274.797C76.1302 275.161 76.4427 275.453 76.8281 275.672C77.2135 275.88 77.6562 275.984 78.1562 275.984C78.7188 275.984 79.2448 275.844 79.7344 275.562C80.224 275.271 80.6354 274.953 80.9688 274.609L80.9531 276C80.8073 276.177 80.5885 276.365 80.2969 276.562C80.0156 276.75 79.6875 276.906 79.3125 277.031C78.9479 277.167 78.5625 277.234 78.1562 277.234C77.3646 277.234 76.6615 277.047 76.0469 276.672C75.4323 276.297 74.9479 275.802 74.5938 275.188C74.25 274.562 74.0781 273.88 74.0781 273.141C74.0781 272.401 74.2396 271.719 74.5625 271.094C74.8854 270.469 75.3281 269.969 75.8906 269.594C76.4635 269.219 77.1146 269.031 77.8438 269.031ZM77.8438 270.281C77.1979 270.281 76.6667 270.5 76.25 270.938C75.8333 271.365 75.5729 271.885 75.4688 272.5H80.1719C80.1198 271.99 79.974 271.573 79.7344 271.25C79.5052 270.927 79.224 270.688 78.8906 270.531C78.5573 270.365 78.2083 270.281 77.8438 270.281ZM90.4375 269.188L86.7656 277H85.9688L82.4531 269.188H83.9844L86.3438 274.938L88.9062 269.188H90.4375ZM95.0625 269.031C95.8646 269.031 96.5312 269.198 97.0625 269.531C97.5938 269.865 97.9896 270.318 98.25 270.891C98.5208 271.464 98.6562 272.109 98.6562 272.828V273.594H92.6562C92.7188 274.031 92.8698 274.432 93.1094 274.797C93.349 275.161 93.6615 275.453 94.0469 275.672C94.4323 275.88 94.875 275.984 95.375 275.984C95.9375 275.984 96.4635 275.844 96.9531 275.562C97.4427 275.271 97.8542 274.953 98.1875 274.609L98.1719 276C98.026 276.177 97.8073 276.365 97.5156 276.562C97.2344 276.75 96.9062 276.906 96.5312 277.031C96.1667 277.167 95.7812 277.234 95.375 277.234C94.5833 277.234 93.8802 277.047 93.2656 276.672C92.651 276.297 92.1667 275.802 91.8125 275.188C91.4688 274.562 91.2969 273.88 91.2969 273.141C91.2969 272.401 91.4583 271.719 91.7812 271.094C92.1042 270.469 92.5469 269.969 93.1094 269.594C93.6823 269.219 94.3333 269.031 95.0625 269.031ZM95.0625 270.281C94.4167 270.281 93.8854 270.5 93.4688 270.938C93.0521 271.365 92.7917 271.885 92.6875 272.5H97.3906C97.3385 271.99 97.1927 271.573 96.9531 271.25C96.724 270.927 96.4427 270.688 96.1094 270.531C95.776 270.365 95.4271 270.281 95.0625 270.281ZM102.047 265.75V277H100.766V265.75H102.047ZM108.234 269.031C109.026 269.031 109.729 269.219 110.344 269.594C110.958 269.969 111.438 270.469 111.781 271.094C112.135 271.719 112.312 272.401 112.312 273.141C112.312 273.88 112.135 274.562 111.781 275.188C111.438 275.802 110.958 276.297 110.344 276.672C109.729 277.047 109.026 277.234 108.234 277.234C107.443 277.234 106.74 277.047 106.125 276.672C105.51 276.297 105.026 275.802 104.672 275.188C104.328 274.562 104.156 273.88 104.156 273.141C104.156 272.401 104.328 271.719 104.672 271.094C105.026 270.469 105.51 269.969 106.125 269.594C106.74 269.219 107.443 269.031 108.234 269.031ZM108.234 270.281C107.682 270.281 107.198 270.417 106.781 270.688C106.365 270.948 106.042 271.297 105.812 271.734C105.594 272.161 105.484 272.63 105.484 273.141C105.484 273.641 105.594 274.109 105.812 274.547C106.042 274.974 106.365 275.323 106.781 275.594C107.198 275.854 107.682 275.984 108.234 275.984C108.797 275.984 109.281 275.854 109.688 275.594C110.104 275.323 110.422 274.974 110.641 274.547C110.87 274.109 110.984 273.641 110.984 273.141C110.984 272.63 110.87 272.161 110.641 271.734C110.422 271.297 110.104 270.948 109.688 270.688C109.281 270.417 108.797 270.281 108.234 270.281ZM118.391 269.031C119.068 269.031 119.677 269.198 120.219 269.531C120.771 269.854 121.208 270.312 121.531 270.906C121.865 271.49 122.031 272.177 122.031 272.969C122.031 273.823 121.865 274.573 121.531 275.219C121.208 275.854 120.76 276.349 120.188 276.703C119.625 277.057 118.984 277.234 118.266 277.234C117.818 277.234 117.359 277.115 116.891 276.875C116.432 276.635 116.036 276.328 115.703 275.953V280.75H114.422V269.188H115.703V270.516C115.974 270.099 116.339 269.75 116.797 269.469C117.266 269.177 117.797 269.031 118.391 269.031ZM118.188 270.281C117.719 270.281 117.292 270.401 116.906 270.641C116.531 270.88 116.234 271.214 116.016 271.641C115.807 272.057 115.703 272.547 115.703 273.109L115.719 274.609C116.052 275.016 116.401 275.349 116.766 275.609C117.13 275.859 117.552 275.984 118.031 275.984C118.594 275.984 119.073 275.839 119.469 275.547C119.865 275.255 120.167 274.88 120.375 274.422C120.594 273.953 120.703 273.469 120.703 272.969C120.703 272.458 120.599 272.005 120.391 271.609C120.182 271.203 119.891 270.88 119.516 270.641C119.141 270.401 118.698 270.281 118.188 270.281ZM132.047 269.031C132.495 269.031 132.948 269.141 133.406 269.359C133.875 269.568 134.276 269.859 134.609 270.234V269.188H135.891V277H134.609V275.672C134.339 276.089 133.969 276.453 133.5 276.766C133.042 277.078 132.516 277.234 131.922 277.234C131.255 277.234 130.646 277.068 130.094 276.734C129.542 276.391 129.099 275.917 128.766 275.312C128.443 274.708 128.281 274.01 128.281 273.219C128.281 272.354 128.443 271.609 128.766 270.984C129.099 270.359 129.552 269.88 130.125 269.547C130.698 269.203 131.339 269.031 132.047 269.031ZM132.281 270.281C131.719 270.281 131.24 270.422 130.844 270.703C130.448 270.984 130.141 271.349 129.922 271.797C129.714 272.234 129.609 272.708 129.609 273.219C129.609 273.719 129.714 274.182 129.922 274.609C130.13 275.026 130.422 275.359 130.797 275.609C131.182 275.859 131.625 275.984 132.125 275.984C132.604 275.984 133.031 275.859 133.406 275.609C133.781 275.359 134.078 275.016 134.297 274.578C134.516 274.13 134.62 273.63 134.609 273.078L134.594 271.578C134.271 271.172 133.922 270.854 133.547 270.625C133.182 270.396 132.76 270.281 132.281 270.281ZM139.828 269.188V270.422C139.995 270.214 140.208 270.005 140.469 269.797C140.729 269.578 141.021 269.396 141.344 269.25C141.677 269.104 142.021 269.031 142.375 269.031C142.906 269.031 143.391 269.151 143.828 269.391C144.266 269.62 144.615 269.974 144.875 270.453C145.135 270.922 145.266 271.516 145.266 272.234V277H143.984L143.969 272.359C143.969 271.682 143.818 271.167 143.516 270.812C143.224 270.458 142.771 270.281 142.156 270.281C141.74 270.281 141.323 270.438 140.906 270.75C140.5 271.052 140.141 271.406 139.828 271.812V277H138.547V269.188H139.828ZM156.797 266.531L161.688 277H160L158.906 274.5H154L152.891 277H151.203L156.094 266.531H156.797ZM156.469 268.906L154.578 273.172H158.328L156.469 268.906ZM168.5 275.672V277H163.562V275.672H165.328V267.859H163.562V266.531H168.5V267.859H166.734V275.672H168.5ZM179.766 269.031C180.557 269.031 181.26 269.219 181.875 269.594C182.49 269.969 182.969 270.469 183.312 271.094C183.667 271.719 183.844 272.401 183.844 273.141C183.844 273.88 183.667 274.562 183.312 275.188C182.969 275.802 182.49 276.297 181.875 276.672C181.26 277.047 180.557 277.234 179.766 277.234C178.974 277.234 178.271 277.047 177.656 276.672C177.042 276.297 176.557 275.802 176.203 275.188C175.859 274.562 175.688 273.88 175.688 273.141C175.688 272.401 175.859 271.719 176.203 271.094C176.557 270.469 177.042 269.969 177.656 269.594C178.271 269.219 178.974 269.031 179.766 269.031ZM179.766 270.281C179.214 270.281 178.729 270.417 178.312 270.688C177.896 270.948 177.573 271.297 177.344 271.734C177.125 272.161 177.016 272.63 177.016 273.141C177.016 273.641 177.125 274.109 177.344 274.547C177.573 274.974 177.896 275.323 178.312 275.594C178.729 275.854 179.214 275.984 179.766 275.984C180.328 275.984 180.812 275.854 181.219 275.594C181.635 275.323 181.953 274.974 182.172 274.547C182.401 274.109 182.516 273.641 182.516 273.141C182.516 272.63 182.401 272.161 182.172 271.734C181.953 271.297 181.635 270.948 181.219 270.688C180.812 270.417 180.328 270.281 179.766 270.281ZM187.234 269.188V270.75C187.536 270.229 187.901 269.812 188.328 269.5C188.755 269.188 189.193 269.031 189.641 269.031C189.943 269.031 190.214 269.083 190.453 269.188V270.672C190.12 270.474 189.786 270.375 189.453 270.375C188.922 270.375 188.49 270.562 188.156 270.938C187.833 271.312 187.526 271.76 187.234 272.281V277H185.953V269.188H187.234ZM203.172 269.188V273.812C203.172 274.5 203.026 275.094 202.734 275.594C202.443 276.094 202.047 276.479 201.547 276.75C201.047 277.021 200.484 277.156 199.859 277.156C199.234 277.156 198.672 277.021 198.172 276.75C197.672 276.479 197.276 276.094 196.984 275.594C196.693 275.094 196.547 274.5 196.547 273.812V269.188H197.875V273.812C197.875 274.49 198.073 275.01 198.469 275.375C198.875 275.729 199.339 275.906 199.859 275.906C200.38 275.906 200.839 275.729 201.234 275.375C201.641 275.01 201.844 274.49 201.844 273.812V269.188H203.172ZM207.922 269.031C208.38 269.031 208.807 269.099 209.203 269.234C209.599 269.359 209.885 269.49 210.062 269.625V271C209.844 270.833 209.547 270.672 209.172 270.516C208.797 270.359 208.411 270.281 208.016 270.281C207.526 270.281 207.156 270.396 206.906 270.625C206.667 270.854 206.547 271.094 206.547 271.344C206.547 271.542 206.615 271.745 206.75 271.953C206.896 272.151 207.146 272.312 207.5 272.438L208.812 272.906C209.323 273.083 209.703 273.339 209.953 273.672C210.203 274.005 210.328 274.396 210.328 274.844C210.328 275.281 210.203 275.682 209.953 276.047C209.714 276.411 209.375 276.703 208.938 276.922C208.51 277.13 208.016 277.234 207.453 277.234C207.151 277.234 206.833 277.193 206.5 277.109C206.177 277.036 205.885 276.948 205.625 276.844C205.365 276.729 205.172 276.63 205.047 276.547V275.172C205.193 275.276 205.396 275.396 205.656 275.531C205.927 275.656 206.214 275.766 206.516 275.859C206.818 275.943 207.099 275.984 207.359 275.984C207.849 275.984 208.234 275.875 208.516 275.656C208.807 275.438 208.953 275.167 208.953 274.844C208.953 274.594 208.854 274.396 208.656 274.25C208.469 274.104 208.193 273.964 207.828 273.828L206.672 273.406C206.068 273.177 205.667 272.891 205.469 272.547C205.271 272.193 205.172 271.792 205.172 271.344C205.172 270.677 205.422 270.125 205.922 269.688C206.422 269.25 207.089 269.031 207.922 269.031ZM215.5 269.031C216.302 269.031 216.969 269.198 217.5 269.531C218.031 269.865 218.427 270.318 218.688 270.891C218.958 271.464 219.094 272.109 219.094 272.828V273.594H213.094C213.156 274.031 213.307 274.432 213.547 274.797C213.786 275.161 214.099 275.453 214.484 275.672C214.87 275.88 215.312 275.984 215.812 275.984C216.375 275.984 216.901 275.844 217.391 275.562C217.88 275.271 218.292 274.953 218.625 274.609L218.609 276C218.464 276.177 218.245 276.365 217.953 276.562C217.672 276.75 217.344 276.906 216.969 277.031C216.604 277.167 216.219 277.234 215.812 277.234C215.021 277.234 214.318 277.047 213.703 276.672C213.089 276.297 212.604 275.802 212.25 275.188C211.906 274.562 211.734 273.88 211.734 273.141C211.734 272.401 211.896 271.719 212.219 271.094C212.542 270.469 212.984 269.969 213.547 269.594C214.12 269.219 214.771 269.031 215.5 269.031ZM215.5 270.281C214.854 270.281 214.323 270.5 213.906 270.938C213.49 271.365 213.229 271.885 213.125 272.5H217.828C217.776 271.99 217.63 271.573 217.391 271.25C217.161 270.927 216.88 270.688 216.547 270.531C216.214 270.365 215.865 270.281 215.5 270.281ZM229.109 269.031C229.557 269.031 230.01 269.141 230.469 269.359C230.938 269.568 231.339 269.859 231.672 270.234V269.188H232.953V277H231.672V275.672C231.401 276.089 231.031 276.453 230.562 276.766C230.104 277.078 229.578 277.234 228.984 277.234C228.318 277.234 227.708 277.068 227.156 276.734C226.604 276.391 226.161 275.917 225.828 275.312C225.505 274.708 225.344 274.01 225.344 273.219C225.344 272.354 225.505 271.609 225.828 270.984C226.161 270.359 226.615 269.88 227.188 269.547C227.76 269.203 228.401 269.031 229.109 269.031ZM229.344 270.281C228.781 270.281 228.302 270.422 227.906 270.703C227.51 270.984 227.203 271.349 226.984 271.797C226.776 272.234 226.672 272.708 226.672 273.219C226.672 273.719 226.776 274.182 226.984 274.609C227.193 275.026 227.484 275.359 227.859 275.609C228.245 275.859 228.688 275.984 229.188 275.984C229.667 275.984 230.094 275.859 230.469 275.609C230.844 275.359 231.141 275.016 231.359 274.578C231.578 274.13 231.682 273.63 231.672 273.078L231.656 271.578C231.333 271.172 230.984 270.854 230.609 270.625C230.245 270.396 229.823 270.281 229.344 270.281ZM236.891 269.188V270.422C237.057 270.214 237.271 270.005 237.531 269.797C237.792 269.578 238.083 269.396 238.406 269.25C238.74 269.104 239.083 269.031 239.438 269.031C239.969 269.031 240.453 269.151 240.891 269.391C241.328 269.62 241.677 269.974 241.938 270.453C242.198 270.922 242.328 271.516 242.328 272.234V277H241.047L241.031 272.359C241.031 271.682 240.88 271.167 240.578 270.812C240.286 270.458 239.833 270.281 239.219 270.281C238.802 270.281 238.385 270.438 237.969 270.75C237.562 271.052 237.203 271.406 236.891 271.812V277H235.609V269.188H236.891ZM56.4922 288.031C57.2943 288.031 57.9609 288.198 58.4922 288.531C59.0234 288.865 59.4193 289.318 59.6797 289.891C59.9505 290.464 60.0859 291.109 60.0859 291.828V292.594H54.0859C54.1484 293.031 54.2995 293.432 54.5391 293.797C54.7786 294.161 55.0911 294.453 55.4766 294.672C55.862 294.88 56.3047 294.984 56.8047 294.984C57.3672 294.984 57.8932 294.844 58.3828 294.562C58.8724 294.271 59.2839 293.953 59.6172 293.609L59.6016 295C59.4557 295.177 59.237 295.365 58.9453 295.562C58.6641 295.75 58.3359 295.906 57.9609 296.031C57.5964 296.167 57.2109 296.234 56.8047 296.234C56.013 296.234 55.3099 296.047 54.6953 295.672C54.0807 295.297 53.5964 294.802 53.2422 294.188C52.8984 293.562 52.7266 292.88 52.7266 292.141C52.7266 291.401 52.888 290.719 53.2109 290.094C53.5339 289.469 53.9766 288.969 54.5391 288.594C55.112 288.219 55.763 288.031 56.4922 288.031ZM56.4922 289.281C55.8464 289.281 55.3151 289.5 54.8984 289.938C54.4818 290.365 54.2214 290.885 54.1172 291.5H58.8203C58.7682 290.99 58.6224 290.573 58.3828 290.25C58.1536 289.927 57.8724 289.688 57.5391 289.531C57.2057 289.365 56.8568 289.281 56.4922 289.281ZM68.9141 288.188L65.6797 291.938L68.9609 296H67.3047L64.8828 292.766L62.4453 296H60.7891L64.0703 291.938L60.8359 288.188H62.4922L64.8828 291L67.2578 288.188H68.9141ZM71.7734 284.438C72.0755 284.438 72.3255 284.547 72.5234 284.766C72.7318 284.974 72.8359 285.219 72.8359 285.5C72.8359 285.771 72.7318 286.016 72.5234 286.234C72.3255 286.453 72.0755 286.562 71.7734 286.562C71.4714 286.562 71.2161 286.453 71.0078 286.234C70.8099 286.016 70.7109 285.771 70.7109 285.5C70.7109 285.219 70.8099 284.974 71.0078 284.766C71.2161 284.547 71.4714 284.438 71.7734 284.438ZM72.5703 288.188V296H71.2891V289.391H70.0547V288.188H72.5703ZM77.6641 288.031C78.1224 288.031 78.5495 288.099 78.9453 288.234C79.3411 288.359 79.6276 288.49 79.8047 288.625V290C79.5859 289.833 79.2891 289.672 78.9141 289.516C78.5391 289.359 78.1536 289.281 77.7578 289.281C77.2682 289.281 76.8984 289.396 76.6484 289.625C76.4089 289.854 76.2891 290.094 76.2891 290.344C76.2891 290.542 76.3568 290.745 76.4922 290.953C76.638 291.151 76.888 291.312 77.2422 291.438L78.5547 291.906C79.0651 292.083 79.4453 292.339 79.6953 292.672C79.9453 293.005 80.0703 293.396 80.0703 293.844C80.0703 294.281 79.9453 294.682 79.6953 295.047C79.4557 295.411 79.1172 295.703 78.6797 295.922C78.2526 296.13 77.7578 296.234 77.1953 296.234C76.8932 296.234 76.5755 296.193 76.2422 296.109C75.9193 296.036 75.6276 295.948 75.3672 295.844C75.1068 295.729 74.9141 295.63 74.7891 295.547V294.172C74.9349 294.276 75.138 294.396 75.3984 294.531C75.6693 294.656 75.9557 294.766 76.2578 294.859C76.5599 294.943 76.8411 294.984 77.1016 294.984C77.5911 294.984 77.9766 294.875 78.2578 294.656C78.5495 294.438 78.6953 294.167 78.6953 293.844C78.6953 293.594 78.5964 293.396 78.3984 293.25C78.2109 293.104 77.9349 292.964 77.5703 292.828L76.4141 292.406C75.8099 292.177 75.4089 291.891 75.2109 291.547C75.013 291.193 74.9141 290.792 74.9141 290.344C74.9141 289.677 75.1641 289.125 75.6641 288.688C76.1641 288.25 76.8307 288.031 77.6641 288.031ZM84.1797 285.938V288.188H86.4609V289.391H84.1797V293.969C84.1797 294.292 84.263 294.547 84.4297 294.734C84.5964 294.922 84.8516 295.016 85.1953 295.016C85.5078 295.016 85.7682 294.979 85.9766 294.906C86.1849 294.823 86.3672 294.734 86.5234 294.641V295.688C86.3151 295.854 86.0911 295.984 85.8516 296.078C85.6224 296.182 85.3099 296.234 84.9141 296.234C84.2474 296.234 83.7422 296.036 83.3984 295.641C83.0651 295.234 82.8984 294.698 82.8984 294.031V289.391H81.3984V289.016C81.9089 288.786 82.3359 288.411 82.6797 287.891C83.0234 287.359 83.3255 286.708 83.5859 285.938H84.1797ZM90.0391 284.438C90.3411 284.438 90.5911 284.547 90.7891 284.766C90.9974 284.974 91.1016 285.219 91.1016 285.5C91.1016 285.771 90.9974 286.016 90.7891 286.234C90.5911 286.453 90.3411 286.562 90.0391 286.562C89.737 286.562 89.4818 286.453 89.2734 286.234C89.0755 286.016 88.9766 285.771 88.9766 285.5C88.9766 285.219 89.0755 284.974 89.2734 284.766C89.4818 284.547 89.737 284.438 90.0391 284.438ZM90.8359 288.188V296H89.5547V289.391H88.3203V288.188H90.8359ZM94.8828 288.188V289.422C95.0495 289.214 95.263 289.005 95.5234 288.797C95.7839 288.578 96.0755 288.396 96.3984 288.25C96.7318 288.104 97.0755 288.031 97.4297 288.031C97.9609 288.031 98.4453 288.151 98.8828 288.391C99.3203 288.62 99.6693 288.974 99.9297 289.453C100.19 289.922 100.32 290.516 100.32 291.234V296H99.0391L99.0234 291.359C99.0234 290.682 98.8724 290.167 98.5703 289.812C98.2786 289.458 97.8255 289.281 97.2109 289.281C96.7943 289.281 96.3776 289.438 95.9609 289.75C95.5547 290.052 95.1953 290.406 94.8828 290.812V296H93.6016V288.188H94.8828ZM105.961 288.031C106.409 288.031 106.862 288.141 107.32 288.359C107.789 288.568 108.19 288.859 108.523 289.234V288.188H109.805V295.844C109.805 296.771 109.617 297.542 109.242 298.156C108.867 298.771 108.367 299.229 107.742 299.531C107.117 299.833 106.435 299.984 105.695 299.984C105.216 299.984 104.805 299.927 104.461 299.812C104.128 299.708 103.841 299.573 103.602 299.406C103.362 299.25 103.143 299.099 102.945 298.953V297.578C103.102 297.693 103.305 297.839 103.555 298.016C103.815 298.203 104.122 298.37 104.477 298.516C104.841 298.661 105.247 298.734 105.695 298.734C106.206 298.734 106.674 298.641 107.102 298.453C107.529 298.266 107.872 297.99 108.133 297.625C108.393 297.26 108.523 296.823 108.523 296.312V294.672C108.253 295.089 107.883 295.453 107.414 295.766C106.956 296.078 106.43 296.234 105.836 296.234C105.169 296.234 104.56 296.068 104.008 295.734C103.456 295.391 103.013 294.917 102.68 294.312C102.357 293.708 102.195 293.01 102.195 292.219C102.195 291.354 102.357 290.609 102.68 289.984C103.013 289.359 103.466 288.88 104.039 288.547C104.612 288.203 105.253 288.031 105.961 288.031ZM106.195 289.297C105.633 289.297 105.154 289.438 104.758 289.719C104.362 289.99 104.055 290.349 103.836 290.797C103.628 291.234 103.523 291.708 103.523 292.219C103.523 292.719 103.628 293.177 103.836 293.594C104.044 294.01 104.336 294.344 104.711 294.594C105.096 294.844 105.539 294.969 106.039 294.969C106.518 294.969 106.945 294.844 107.32 294.594C107.695 294.344 107.992 294 108.211 293.562C108.43 293.125 108.534 292.63 108.523 292.078L108.508 290.578C108.185 290.172 107.836 289.859 107.461 289.641C107.096 289.411 106.674 289.297 106.195 289.297ZM121.57 285.531L126.461 296H124.773L123.68 293.5H118.773L117.664 296H115.977L120.867 285.531H121.57ZM121.242 287.906L119.352 292.172H123.102L121.242 287.906ZM133.273 294.672V296H128.336V294.672H130.102V286.859H128.336V285.531H133.273V286.859H131.508V294.672H133.273ZM142.258 284.438C142.56 284.438 142.81 284.547 143.008 284.766C143.216 284.974 143.32 285.219 143.32 285.5C143.32 285.771 143.216 286.016 143.008 286.234C142.81 286.453 142.56 286.562 142.258 286.562C141.956 286.562 141.701 286.453 141.492 286.234C141.294 286.016 141.195 285.771 141.195 285.5C141.195 285.219 141.294 284.974 141.492 284.766C141.701 284.547 141.956 284.438 142.258 284.438ZM143.055 288.188V296H141.773V289.391H140.539V288.188H143.055ZM147.102 288.188V289.422C147.268 289.214 147.482 289.005 147.742 288.797C148.003 288.578 148.294 288.396 148.617 288.25C148.951 288.104 149.294 288.031 149.648 288.031C150.18 288.031 150.664 288.151 151.102 288.391C151.539 288.62 151.888 288.974 152.148 289.453C152.409 289.922 152.539 290.516 152.539 291.234V296H151.258L151.242 291.359C151.242 290.682 151.091 290.167 150.789 289.812C150.497 289.458 150.044 289.281 149.43 289.281C149.013 289.281 148.596 289.438 148.18 289.75C147.773 290.052 147.414 290.406 147.102 290.812V296H145.82V288.188H147.102ZM160.086 288.188L162.82 293.938L165.477 288.188H167.008L161.258 299.75H159.773L162.008 295.531L158.555 288.188H160.086ZM172.102 288.031C172.893 288.031 173.596 288.219 174.211 288.594C174.826 288.969 175.305 289.469 175.648 290.094C176.003 290.719 176.18 291.401 176.18 292.141C176.18 292.88 176.003 293.562 175.648 294.188C175.305 294.802 174.826 295.297 174.211 295.672C173.596 296.047 172.893 296.234 172.102 296.234C171.31 296.234 170.607 296.047 169.992 295.672C169.378 295.297 168.893 294.802 168.539 294.188C168.195 293.562 168.023 292.88 168.023 292.141C168.023 291.401 168.195 290.719 168.539 290.094C168.893 289.469 169.378 288.969 169.992 288.594C170.607 288.219 171.31 288.031 172.102 288.031ZM172.102 289.281C171.549 289.281 171.065 289.417 170.648 289.688C170.232 289.948 169.909 290.297 169.68 290.734C169.461 291.161 169.352 291.63 169.352 292.141C169.352 292.641 169.461 293.109 169.68 293.547C169.909 293.974 170.232 294.323 170.648 294.594C171.065 294.854 171.549 294.984 172.102 294.984C172.664 294.984 173.148 294.854 173.555 294.594C173.971 294.323 174.289 293.974 174.508 293.547C174.737 293.109 174.852 292.641 174.852 292.141C174.852 291.63 174.737 291.161 174.508 290.734C174.289 290.297 173.971 289.948 173.555 289.688C173.148 289.417 172.664 289.281 172.102 289.281ZM184.68 288.188V292.812C184.68 293.5 184.534 294.094 184.242 294.594C183.951 295.094 183.555 295.479 183.055 295.75C182.555 296.021 181.992 296.156 181.367 296.156C180.742 296.156 180.18 296.021 179.68 295.75C179.18 295.479 178.784 295.094 178.492 294.594C178.201 294.094 178.055 293.5 178.055 292.812V288.188H179.383V292.812C179.383 293.49 179.581 294.01 179.977 294.375C180.383 294.729 180.846 294.906 181.367 294.906C181.888 294.906 182.346 294.729 182.742 294.375C183.148 294.01 183.352 293.49 183.352 292.812V288.188H184.68ZM188.383 288.188V289.75C188.685 289.229 189.049 288.812 189.477 288.5C189.904 288.188 190.341 288.031 190.789 288.031C191.091 288.031 191.362 288.083 191.602 288.188V289.672C191.268 289.474 190.935 289.375 190.602 289.375C190.07 289.375 189.638 289.562 189.305 289.938C188.982 290.312 188.674 290.76 188.383 291.281V296H187.102V288.188H188.383ZM201.898 288.031C202.576 288.031 203.185 288.198 203.727 288.531C204.279 288.854 204.716 289.312 205.039 289.906C205.372 290.49 205.539 291.177 205.539 291.969C205.539 292.823 205.372 293.573 205.039 294.219C204.716 294.854 204.268 295.349 203.695 295.703C203.133 296.057 202.492 296.234 201.773 296.234C201.326 296.234 200.867 296.115 200.398 295.875C199.94 295.635 199.544 295.328 199.211 294.953V299.75H197.93V288.188H199.211V289.516C199.482 289.099 199.846 288.75 200.305 288.469C200.773 288.177 201.305 288.031 201.898 288.031ZM201.695 289.281C201.227 289.281 200.799 289.401 200.414 289.641C200.039 289.88 199.742 290.214 199.523 290.641C199.315 291.057 199.211 291.547 199.211 292.109L199.227 293.609C199.56 294.016 199.909 294.349 200.273 294.609C200.638 294.859 201.06 294.984 201.539 294.984C202.102 294.984 202.581 294.839 202.977 294.547C203.372 294.255 203.674 293.88 203.883 293.422C204.102 292.953 204.211 292.469 204.211 291.969C204.211 291.458 204.107 291.005 203.898 290.609C203.69 290.203 203.398 289.88 203.023 289.641C202.648 289.401 202.206 289.281 201.695 289.281ZM208.93 288.188V289.75C209.232 289.229 209.596 288.812 210.023 288.5C210.451 288.188 210.888 288.031 211.336 288.031C211.638 288.031 211.909 288.083 212.148 288.188V289.672C211.815 289.474 211.482 289.375 211.148 289.375C210.617 289.375 210.185 289.562 209.852 289.938C209.529 290.312 209.221 290.76 208.93 291.281V296H207.648V288.188H208.93ZM217.32 288.031C218.112 288.031 218.815 288.219 219.43 288.594C220.044 288.969 220.523 289.469 220.867 290.094C221.221 290.719 221.398 291.401 221.398 292.141C221.398 292.88 221.221 293.562 220.867 294.188C220.523 294.802 220.044 295.297 219.43 295.672C218.815 296.047 218.112 296.234 217.32 296.234C216.529 296.234 215.826 296.047 215.211 295.672C214.596 295.297 214.112 294.802 213.758 294.188C213.414 293.562 213.242 292.88 213.242 292.141C213.242 291.401 213.414 290.719 213.758 290.094C214.112 289.469 214.596 288.969 215.211 288.594C215.826 288.219 216.529 288.031 217.32 288.031ZM217.32 289.281C216.768 289.281 216.284 289.417 215.867 289.688C215.451 289.948 215.128 290.297 214.898 290.734C214.68 291.161 214.57 291.63 214.57 292.141C214.57 292.641 214.68 293.109 214.898 293.547C215.128 293.974 215.451 294.323 215.867 294.594C216.284 294.854 216.768 294.984 217.32 294.984C217.883 294.984 218.367 294.854 218.773 294.594C219.19 294.323 219.508 293.974 219.727 293.547C219.956 293.109 220.07 292.641 220.07 292.141C220.07 291.63 219.956 291.161 219.727 290.734C219.508 290.297 219.19 289.948 218.773 289.688C218.367 289.417 217.883 289.281 217.32 289.281ZM224.539 284.438C224.841 284.438 225.091 284.547 225.289 284.766C225.497 284.974 225.602 285.219 225.602 285.5C225.602 285.771 225.497 286.016 225.289 286.234C225.091 286.453 224.841 286.562 224.539 286.562C224.237 286.562 223.982 286.453 223.773 286.234C223.576 286.016 223.477 285.771 223.477 285.5C223.477 285.219 223.576 284.974 223.773 284.766C223.982 284.547 224.237 284.438 224.539 284.438ZM225.367 288.188V295.969C225.367 297.021 225.122 297.87 224.633 298.516C224.154 299.161 223.503 299.651 222.68 299.984L222.102 298.828C222.789 298.495 223.289 298.125 223.602 297.719C223.924 297.312 224.086 296.792 224.086 296.156V289.391H222.852V288.188H225.367ZM231.242 288.031C232.044 288.031 232.711 288.198 233.242 288.531C233.773 288.865 234.169 289.318 234.43 289.891C234.701 290.464 234.836 291.109 234.836 291.828V292.594H228.836C228.898 293.031 229.049 293.432 229.289 293.797C229.529 294.161 229.841 294.453 230.227 294.672C230.612 294.88 231.055 294.984 231.555 294.984C232.117 294.984 232.643 294.844 233.133 294.562C233.622 294.271 234.034 293.953 234.367 293.609L234.352 295C234.206 295.177 233.987 295.365 233.695 295.562C233.414 295.75 233.086 295.906 232.711 296.031C232.346 296.167 231.961 296.234 231.555 296.234C230.763 296.234 230.06 296.047 229.445 295.672C228.831 295.297 228.346 294.802 227.992 294.188C227.648 293.562 227.477 292.88 227.477 292.141C227.477 291.401 227.638 290.719 227.961 290.094C228.284 289.469 228.727 288.969 229.289 288.594C229.862 288.219 230.513 288.031 231.242 288.031ZM231.242 289.281C230.596 289.281 230.065 289.5 229.648 289.938C229.232 290.365 228.971 290.885 228.867 291.5H233.57C233.518 290.99 233.372 290.573 233.133 290.25C232.904 289.927 232.622 289.688 232.289 289.531C231.956 289.365 231.607 289.281 231.242 289.281ZM240.477 288.031C241.049 288.031 241.544 288.125 241.961 288.312C242.378 288.49 242.664 288.651 242.82 288.797V290.094C242.529 289.875 242.195 289.688 241.82 289.531C241.445 289.365 240.997 289.281 240.477 289.281C239.924 289.281 239.44 289.417 239.023 289.688C238.607 289.948 238.284 290.297 238.055 290.734C237.836 291.161 237.727 291.63 237.727 292.141C237.727 292.641 237.836 293.109 238.055 293.547C238.284 293.974 238.607 294.323 239.023 294.594C239.44 294.854 239.924 294.984 240.477 294.984C240.997 294.984 241.445 294.906 241.82 294.75C242.195 294.583 242.529 294.391 242.82 294.172V295.469C242.664 295.625 242.378 295.792 241.961 295.969C241.544 296.146 241.049 296.234 240.477 296.234C239.685 296.234 238.982 296.047 238.367 295.672C237.753 295.297 237.268 294.802 236.914 294.188C236.57 293.562 236.398 292.88 236.398 292.141C236.398 291.401 236.57 290.719 236.914 290.094C237.268 289.469 237.753 288.969 238.367 288.594C238.982 288.219 239.685 288.031 240.477 288.031ZM247.086 285.938V288.188H249.367V289.391H247.086V293.969C247.086 294.292 247.169 294.547 247.336 294.734C247.503 294.922 247.758 295.016 248.102 295.016C248.414 295.016 248.674 294.979 248.883 294.906C249.091 294.823 249.273 294.734 249.43 294.641V295.688C249.221 295.854 248.997 295.984 248.758 296.078C248.529 296.182 248.216 296.234 247.82 296.234C247.154 296.234 246.648 296.036 246.305 295.641C245.971 295.234 245.805 294.698 245.805 294.031V289.391H244.305V289.016C244.815 288.786 245.242 288.411 245.586 287.891C245.93 287.359 246.232 286.708 246.492 285.938H247.086ZM252.711 294.094C253.013 294.094 253.268 294.203 253.477 294.422C253.695 294.63 253.805 294.885 253.805 295.188C253.805 295.479 253.695 295.734 253.477 295.953C253.268 296.172 253.013 296.281 252.711 296.281C252.409 296.281 252.148 296.172 251.93 295.953C251.721 295.734 251.617 295.479 251.617 295.188C251.617 294.885 251.721 294.63 251.93 294.422C252.148 294.203 252.409 294.094 252.711 294.094Z" fill="white"/>
</svg>