<svg width="302" height="391" viewBox="0 0 302 391" fill="none" xmlns="http://www.w3.org/2000/svg">
<rect x="1.5" y="1" width="299" height="389" rx="9" fill="#132A3E"/>
<rect x="1.5" y="1" width="299" height="389" rx="9" stroke="#254D70" stroke-width="2"/>
<path d="M140.162 85.1875C140.162 86.1821 139.767 87.1359 139.064 87.8391C138.361 88.5424 137.407 88.9375 136.412 88.9375C135.418 88.9375 134.464 88.5424 133.761 87.8391C133.058 87.1359 132.662 86.1821 132.662 85.1875C132.662 84.1929 133.058 83.2391 133.761 82.5358C134.464 81.8326 135.418 81.4375 136.412 81.4375C137.407 81.4375 138.361 81.8326 139.064 82.5358C139.767 83.2391 140.162 84.1929 140.162 85.1875ZM171.775 88.9375C172.77 88.9375 173.723 88.5424 174.427 87.8391C175.13 87.1359 175.525 86.1821 175.525 85.1875C175.525 84.1929 175.13 83.2391 174.427 82.5358C173.723 81.8326 172.77 81.4375 171.775 81.4375C170.78 81.4375 169.827 81.8326 169.123 82.5358C168.42 83.2391 168.025 84.1929 168.025 85.1875C168.025 86.1821 168.42 87.1359 169.123 87.8391C169.827 88.5424 170.78 88.9375 171.775 88.9375ZM145.577 90.625H162.422C162.413 88.3924 161.518 86.2548 159.935 84.6804C158.352 83.1059 156.21 82.223 153.977 82.225C151.75 82.225 149.613 83.11 148.038 84.6853C146.462 86.2606 145.577 88.3972 145.577 90.625Z" fill="#EDC8FA"/>
<path d="M100.157 103.401L109.45 112.694L103.57 118.574C102.868 119.277 102.474 120.231 102.475 121.225C102.475 149.733 125.564 172.825 154.075 172.825C182.387 172.825 205.379 149.988 205.671 121.739C205.757 121.159 205.706 120.568 205.523 120.012C205.339 119.456 205.028 118.95 204.614 118.536L198.752 112.675L208.026 103.401C213.34 98.0838 209.59 88.9375 202.037 88.9375H187.769C185.912 71.9538 171.561 58.75 154.112 58.75C145.766 58.7438 137.711 61.8226 131.496 67.3948C125.282 72.967 121.346 80.6394 120.445 88.9375H106.15C98.5937 88.9375 94.8437 98.0875 100.157 103.401ZM120.25 96.4375V103.623L119.387 102.76L114.756 107.391L105.464 98.0988C105.32 97.9683 105.222 97.7946 105.186 97.6038C105.159 97.4129 105.184 97.2182 105.261 97.0413C105.331 96.8624 105.449 96.7066 105.602 96.5913C105.763 96.4819 105.956 96.428 106.15 96.4375H120.25ZM109.997 122.751L117.19 115.563L119.537 113.545L120.25 114.258V114.419L131.935 126.389L132.175 126.156L132.325 126.306L142.097 116.53L154.094 104.89L173.474 123.955L175.825 126.303L175.844 126.284L176.012 126.449L180.715 121.473L188.646 113.545L191.256 115.788L198.149 122.68C197.365 146.35 177.925 165.325 154.075 165.325C130.217 165.325 110.8 146.41 109.997 122.751ZM202.72 98.0988L193.45 107.373L188.8 102.723L187.975 103.548V96.4375H202.037C202.3 96.4375 202.465 96.5125 202.581 96.5913C202.712 96.6888 202.844 96.8388 202.926 97.0413C203.002 97.2185 203.027 97.4133 202.997 97.6038C202.962 97.794 202.862 97.9676 202.72 98.0988ZM180.441 110.849L176.429 115.098L175.829 115.698L154.079 93.9475L136.836 111.186L132.261 115.63L127.75 111.123V92.5338C127.764 85.5535 130.548 78.8643 135.491 73.9359C140.435 69.0075 147.132 66.243 154.112 66.25C168.194 66.25 179.702 77.305 180.437 91.2625L180.441 110.849Z" fill="#EDC8FA"/>
<path d="M70.9141 195.188V198.117H64.75V204H61.4922V188.297H72.2031V191.227H64.75V195.188H70.9141ZM78.3438 186C78.9062 186 79.3906 186.203 79.7969 186.609C80.2031 187 80.4062 187.469 80.4062 188.016C80.4062 188.547 80.2031 189.016 79.7969 189.422C79.3906 189.828 78.9062 190.031 78.3438 190.031C77.7812 190.031 77.2969 189.828 76.8906 189.422C76.5 189.016 76.3047 188.547 76.3047 188.016C76.3047 187.469 76.5 187 76.8906 186.609C77.2969 186.203 77.7812 186 78.3438 186ZM80.0781 192.164V204H77.1016V194.695H75.2031V192.164H80.0781ZM91.2812 195.492C90.7812 195.211 90.2578 195.07 89.7109 195.07C89.0234 195.07 88.4531 195.297 88 195.75C87.5469 196.188 87.1484 196.734 86.8047 197.391V204H83.8281V192.164H86.8047V194.391C87.2109 193.688 87.6875 193.102 88.2344 192.633C88.7969 192.164 89.4297 191.93 90.1328 191.93C90.5547 191.93 90.9375 192 91.2812 192.141V195.492ZM97.3984 191.859C98.1328 191.859 98.8125 191.969 99.4375 192.188C100.062 192.406 100.547 192.656 100.891 192.938V195.562C100.516 195.312 100.055 195.07 99.5078 194.836C98.9766 194.602 98.4219 194.484 97.8438 194.484C97.2812 194.484 96.8359 194.609 96.5078 194.859C96.1797 195.109 96.0156 195.406 96.0156 195.75C96.0156 196 96.1094 196.234 96.2969 196.453C96.4844 196.656 96.8438 196.836 97.375 196.992L98.7109 197.438C100.508 197.969 101.406 199.008 101.406 200.555C101.406 201.289 101.195 201.945 100.773 202.523C100.367 203.086 99.8125 203.531 99.1094 203.859C98.4219 204.188 97.6562 204.352 96.8125 204.352C96.0156 204.352 95.2422 204.227 94.4922 203.977C93.7422 203.727 93.1719 203.453 92.7812 203.156V200.555C93.0781 200.758 93.4375 200.953 93.8594 201.141C94.2812 201.328 94.7188 201.484 95.1719 201.609C95.625 201.719 96.0391 201.773 96.4141 201.773C97.0078 201.773 97.4609 201.672 97.7734 201.469C98.1016 201.25 98.2656 200.945 98.2656 200.555C98.2656 200.258 98.1328 200.023 97.8672 199.852C97.6016 199.68 97.2109 199.508 96.6953 199.336L95.2422 198.82C94.3359 198.523 93.7109 198.102 93.3672 197.555C93.0234 197.008 92.8516 196.359 92.8516 195.609C92.8516 194.859 93.0391 194.211 93.4141 193.664C93.8047 193.102 94.3438 192.664 95.0312 192.352C95.7188 192.023 96.5078 191.859 97.3984 191.859ZM108.227 188.719V192.164H111.508V194.648H108.227V199.758C108.227 200.289 108.344 200.711 108.578 201.023C108.828 201.32 109.195 201.469 109.68 201.469C110.102 201.469 110.461 201.422 110.758 201.328C111.07 201.234 111.359 201.102 111.625 200.93V203.297C111.328 203.594 110.953 203.844 110.5 204.047C110.062 204.25 109.508 204.352 108.836 204.352C107.773 204.352 106.906 204.016 106.234 203.344C105.578 202.656 105.25 201.719 105.25 200.531V194.648H103.117V193.125C103.867 192.859 104.555 192.359 105.18 191.625C105.82 190.891 106.328 189.922 106.703 188.719H108.227ZM121.305 196.547V199.359H114.25V196.547H121.305ZM136.633 188.297V191.227H131.617V203.93H128.383V191.227H123.367V188.297H136.633ZM141.578 186C142.141 186 142.625 186.203 143.031 186.609C143.438 187 143.641 187.469 143.641 188.016C143.641 188.547 143.438 189.016 143.031 189.422C142.625 189.828 142.141 190.031 141.578 190.031C141.016 190.031 140.531 189.828 140.125 189.422C139.734 189.016 139.539 188.547 139.539 188.016C139.539 187.469 139.734 187 140.125 186.609C140.531 186.203 141.016 186 141.578 186ZM143.312 192.164V204H140.336V194.695H138.438V192.164H143.312ZM150.039 192.164V193.664C150.398 193.211 150.828 192.797 151.328 192.422C151.844 192.047 152.5 191.859 153.297 191.859C154.125 191.859 154.875 192.055 155.547 192.445C156.219 192.82 156.742 193.391 157.117 194.156C157.586 193.516 158.133 192.977 158.758 192.539C159.383 192.086 160.109 191.859 160.938 191.859C161.734 191.859 162.461 192.047 163.117 192.422C163.773 192.781 164.297 193.32 164.688 194.039C165.094 194.758 165.297 195.656 165.297 196.734V204H162.32L162.297 197.133C162.297 196.336 162.086 195.742 161.664 195.352C161.258 194.961 160.719 194.766 160.047 194.766C159.531 194.766 159.086 194.93 158.711 195.258C158.336 195.57 157.984 195.945 157.656 196.383V204H154.68L154.656 197.133C154.656 196.336 154.445 195.742 154.023 195.352C153.617 194.961 153.086 194.766 152.43 194.766C151.93 194.766 151.484 194.922 151.094 195.234C150.703 195.531 150.352 195.883 150.039 196.289V204H147.062V192.164H150.039ZM173.875 191.859C175.031 191.859 176.023 192.109 176.852 192.609C177.695 193.109 178.336 193.805 178.773 194.695C179.227 195.57 179.453 196.586 179.453 197.742V199.008H170.875C171.031 199.805 171.422 200.445 172.047 200.93C172.672 201.414 173.438 201.656 174.344 201.656C175.203 201.656 175.984 201.484 176.688 201.141C177.391 200.797 177.953 200.445 178.375 200.086L178.352 202.852C177.977 203.18 177.414 203.516 176.664 203.859C175.93 204.188 175.117 204.352 174.227 204.352C173.055 204.352 171.984 204.086 171.016 203.555C170.062 203.023 169.297 202.297 168.719 201.375C168.156 200.453 167.875 199.398 167.875 198.211C167.875 197.055 168.133 196 168.648 195.047C169.164 194.094 169.875 193.328 170.781 192.75C171.688 192.156 172.719 191.859 173.875 191.859ZM173.805 194.461C173.07 194.461 172.453 194.688 171.953 195.141C171.453 195.594 171.109 196.203 170.922 196.969H176.594C176.531 196.125 176.219 195.5 175.656 195.094C175.094 194.672 174.477 194.461 173.805 194.461ZM188.805 196.547V199.359H181.75V196.547H188.805ZM195.812 188.297V194.695H203.102V188.297H206.336V204H203.102V197.625H195.812V204H192.555V188.297H195.812ZM215.195 191.859C215.836 191.859 216.484 192.008 217.141 192.305C217.797 192.602 218.344 193 218.781 193.5V192.164H221.758V204H218.781V202.008C218.438 202.648 217.938 203.203 217.281 203.672C216.625 204.125 215.859 204.352 214.984 204.352C214.031 204.352 213.148 204.109 212.336 203.625C211.539 203.141 210.898 202.438 210.414 201.516C209.93 200.594 209.688 199.477 209.688 198.164C209.688 196.852 209.93 195.727 210.414 194.789C210.914 193.852 211.578 193.133 212.406 192.633C213.25 192.117 214.18 191.859 215.195 191.859ZM215.805 194.766C215.18 194.766 214.641 194.93 214.188 195.258C213.75 195.57 213.406 195.984 213.156 196.5C212.906 197.016 212.781 197.57 212.781 198.164C212.781 199.055 213.047 199.812 213.578 200.438C214.125 201.062 214.844 201.375 215.734 201.375C216.266 201.375 216.758 201.234 217.211 200.953C217.68 200.672 218.055 200.281 218.336 199.781C218.633 199.266 218.781 198.648 218.781 197.93V196.242C218.359 195.789 217.898 195.43 217.398 195.164C216.914 194.898 216.383 194.766 215.805 194.766ZM230.805 191.859C231.68 191.859 232.398 192 232.961 192.281C233.523 192.562 233.969 192.836 234.297 193.102V195.844C233.891 195.547 233.43 195.297 232.914 195.094C232.414 194.891 231.797 194.789 231.062 194.789C230.469 194.789 229.914 194.938 229.398 195.234C228.898 195.531 228.5 195.93 228.203 196.43C227.906 196.93 227.758 197.5 227.758 198.141C227.758 199.109 228.07 199.906 228.695 200.531C229.32 201.156 230.109 201.469 231.062 201.469C231.797 201.469 232.414 201.375 232.914 201.188C233.43 200.984 233.891 200.734 234.297 200.438V203.156C233.969 203.438 233.523 203.711 232.961 203.977C232.398 204.227 231.68 204.352 230.805 204.352C229.602 204.352 228.531 204.07 227.594 203.508C226.672 202.93 225.938 202.172 225.391 201.234C224.859 200.281 224.594 199.25 224.594 198.141C224.594 197.312 224.742 196.523 225.039 195.773C225.352 195.023 225.789 194.359 226.352 193.781C226.914 193.188 227.57 192.719 228.32 192.375C229.086 192.031 229.914 191.859 230.805 191.859ZM239.922 187.125V197.438L244.75 192.164H248.477L243.367 197.297L248.734 204H244.984L241.398 199.289L239.922 200.766V204H236.945V187.125H239.922Z" fill="white"/>
<path d="M75.8438 247.531L71.8281 253.703V258H70.3125V253.906L66.2969 247.531H67.9844L71.0469 252.469L74.1562 247.531H75.8438ZM80.8594 250.031C81.651 250.031 82.3542 250.219 82.9688 250.594C83.5833 250.969 84.0625 251.469 84.4062 252.094C84.7604 252.719 84.9375 253.401 84.9375 254.141C84.9375 254.88 84.7604 255.562 84.4062 256.188C84.0625 256.802 83.5833 257.297 82.9688 257.672C82.3542 258.047 81.651 258.234 80.8594 258.234C80.0677 258.234 79.3646 258.047 78.75 257.672C78.1354 257.297 77.651 256.802 77.2969 256.188C76.9531 255.562 76.7812 254.88 76.7812 254.141C76.7812 253.401 76.9531 252.719 77.2969 252.094C77.651 251.469 78.1354 250.969 78.75 250.594C79.3646 250.219 80.0677 250.031 80.8594 250.031ZM80.8594 251.281C80.3073 251.281 79.8229 251.417 79.4062 251.688C78.9896 251.948 78.6667 252.297 78.4375 252.734C78.2188 253.161 78.1094 253.63 78.1094 254.141C78.1094 254.641 78.2188 255.109 78.4375 255.547C78.6667 255.974 78.9896 256.323 79.4062 256.594C79.8229 256.854 80.3073 256.984 80.8594 256.984C81.4219 256.984 81.9062 256.854 82.3125 256.594C82.7292 256.323 83.0469 255.974 83.2656 255.547C83.4948 255.109 83.6094 254.641 83.6094 254.141C83.6094 253.63 83.4948 253.161 83.2656 252.734C83.0469 252.297 82.7292 251.948 82.3125 251.688C81.9062 251.417 81.4219 251.281 80.8594 251.281ZM93.4375 250.188V254.812C93.4375 255.5 93.2917 256.094 93 256.594C92.7083 257.094 92.3125 257.479 91.8125 257.75C91.3125 258.021 90.75 258.156 90.125 258.156C89.5 258.156 88.9375 258.021 88.4375 257.75C87.9375 257.479 87.5417 257.094 87.25 256.594C86.9583 256.094 86.8125 255.5 86.8125 254.812V250.188H88.1406V254.812C88.1406 255.49 88.3385 256.01 88.7344 256.375C89.1406 256.729 89.6042 256.906 90.125 256.906C90.6458 256.906 91.1042 256.729 91.5 256.375C91.9062 256.01 92.1094 255.49 92.1094 254.812V250.188H93.4375ZM103.766 250.031C104.214 250.031 104.667 250.141 105.125 250.359C105.594 250.568 105.995 250.859 106.328 251.234V250.188H107.609V258H106.328V256.672C106.057 257.089 105.688 257.453 105.219 257.766C104.76 258.078 104.234 258.234 103.641 258.234C102.974 258.234 102.365 258.068 101.812 257.734C101.26 257.391 100.818 256.917 100.484 256.312C100.161 255.708 100 255.01 100 254.219C100 253.354 100.161 252.609 100.484 251.984C100.818 251.359 101.271 250.88 101.844 250.547C102.417 250.203 103.057 250.031 103.766 250.031ZM104 251.281C103.438 251.281 102.958 251.422 102.562 251.703C102.167 251.984 101.859 252.349 101.641 252.797C101.432 253.234 101.328 253.708 101.328 254.219C101.328 254.719 101.432 255.182 101.641 255.609C101.849 256.026 102.141 256.359 102.516 256.609C102.901 256.859 103.344 256.984 103.844 256.984C104.323 256.984 104.75 256.859 105.125 256.609C105.5 256.359 105.797 256.016 106.016 255.578C106.234 255.13 106.339 254.63 106.328 254.078L106.312 252.578C105.99 252.172 105.641 251.854 105.266 251.625C104.901 251.396 104.479 251.281 104 251.281ZM111.547 250.188V251.75C111.849 251.229 112.214 250.812 112.641 250.5C113.068 250.188 113.505 250.031 113.953 250.031C114.255 250.031 114.526 250.083 114.766 250.188V251.672C114.432 251.474 114.099 251.375 113.766 251.375C113.234 251.375 112.802 251.562 112.469 251.938C112.146 252.312 111.839 252.76 111.547 253.281V258H110.266V250.188H111.547ZM119.625 250.031C120.427 250.031 121.094 250.198 121.625 250.531C122.156 250.865 122.552 251.318 122.812 251.891C123.083 252.464 123.219 253.109 123.219 253.828V254.594H117.219C117.281 255.031 117.432 255.432 117.672 255.797C117.911 256.161 118.224 256.453 118.609 256.672C118.995 256.88 119.438 256.984 119.938 256.984C120.5 256.984 121.026 256.844 121.516 256.562C122.005 256.271 122.417 255.953 122.75 255.609L122.734 257C122.589 257.177 122.37 257.365 122.078 257.562C121.797 257.75 121.469 257.906 121.094 258.031C120.729 258.167 120.344 258.234 119.938 258.234C119.146 258.234 118.443 258.047 117.828 257.672C117.214 257.297 116.729 256.802 116.375 256.188C116.031 255.562 115.859 254.88 115.859 254.141C115.859 253.401 116.021 252.719 116.344 252.094C116.667 251.469 117.109 250.969 117.672 250.594C118.245 250.219 118.896 250.031 119.625 250.031ZM119.625 251.281C118.979 251.281 118.448 251.5 118.031 251.938C117.615 252.365 117.354 252.885 117.25 253.5H121.953C121.901 252.99 121.755 252.573 121.516 252.25C121.286 251.927 121.005 251.688 120.672 251.531C120.339 251.365 119.99 251.281 119.625 251.281ZM133.234 250.031C134.036 250.031 134.703 250.198 135.234 250.531C135.766 250.865 136.161 251.318 136.422 251.891C136.693 252.464 136.828 253.109 136.828 253.828V254.594H130.828C130.891 255.031 131.042 255.432 131.281 255.797C131.521 256.161 131.833 256.453 132.219 256.672C132.604 256.88 133.047 256.984 133.547 256.984C134.109 256.984 134.635 256.844 135.125 256.562C135.615 256.271 136.026 255.953 136.359 255.609L136.344 257C136.198 257.177 135.979 257.365 135.688 257.562C135.406 257.75 135.078 257.906 134.703 258.031C134.339 258.167 133.953 258.234 133.547 258.234C132.755 258.234 132.052 258.047 131.438 257.672C130.823 257.297 130.339 256.802 129.984 256.188C129.641 255.562 129.469 254.88 129.469 254.141C129.469 253.401 129.63 252.719 129.953 252.094C130.276 251.469 130.719 250.969 131.281 250.594C131.854 250.219 132.505 250.031 133.234 250.031ZM133.234 251.281C132.589 251.281 132.057 251.5 131.641 251.938C131.224 252.365 130.964 252.885 130.859 253.5H135.562C135.51 252.99 135.365 252.573 135.125 252.25C134.896 251.927 134.615 251.688 134.281 251.531C133.948 251.365 133.599 251.281 133.234 251.281ZM140.219 246.75V258H138.938V246.75H140.219ZM144.125 246.438C144.427 246.438 144.677 246.547 144.875 246.766C145.083 246.974 145.188 247.219 145.188 247.5C145.188 247.771 145.083 248.016 144.875 248.234C144.677 248.453 144.427 248.562 144.125 248.562C143.823 248.562 143.568 248.453 143.359 248.234C143.161 248.016 143.062 247.771 143.062 247.5C143.062 247.219 143.161 246.974 143.359 246.766C143.568 246.547 143.823 246.438 144.125 246.438ZM144.922 250.188V258H143.641V251.391H142.406V250.188H144.922ZM150.906 250.031C151.354 250.031 151.807 250.141 152.266 250.359C152.734 250.568 153.135 250.859 153.469 251.234V250.188H154.75V257.844C154.75 258.771 154.562 259.542 154.188 260.156C153.812 260.771 153.312 261.229 152.688 261.531C152.062 261.833 151.38 261.984 150.641 261.984C150.161 261.984 149.75 261.927 149.406 261.812C149.073 261.708 148.786 261.573 148.547 261.406C148.307 261.25 148.089 261.099 147.891 260.953V259.578C148.047 259.693 148.25 259.839 148.5 260.016C148.76 260.203 149.068 260.37 149.422 260.516C149.786 260.661 150.193 260.734 150.641 260.734C151.151 260.734 151.62 260.641 152.047 260.453C152.474 260.266 152.818 259.99 153.078 259.625C153.339 259.26 153.469 258.823 153.469 258.312V256.672C153.198 257.089 152.828 257.453 152.359 257.766C151.901 258.078 151.375 258.234 150.781 258.234C150.115 258.234 149.505 258.068 148.953 257.734C148.401 257.391 147.958 256.917 147.625 256.312C147.302 255.708 147.141 255.01 147.141 254.219C147.141 253.354 147.302 252.609 147.625 251.984C147.958 251.359 148.411 250.88 148.984 250.547C149.557 250.203 150.198 250.031 150.906 250.031ZM151.141 251.297C150.578 251.297 150.099 251.438 149.703 251.719C149.307 251.99 149 252.349 148.781 252.797C148.573 253.234 148.469 253.708 148.469 254.219C148.469 254.719 148.573 255.177 148.781 255.594C148.99 256.01 149.281 256.344 149.656 256.594C150.042 256.844 150.484 256.969 150.984 256.969C151.464 256.969 151.891 256.844 152.266 256.594C152.641 256.344 152.938 256 153.156 255.562C153.375 255.125 153.479 254.63 153.469 254.078L153.453 252.578C153.13 252.172 152.781 251.859 152.406 251.641C152.042 251.411 151.62 251.297 151.141 251.297ZM158.656 246.438C158.958 246.438 159.208 246.547 159.406 246.766C159.615 246.974 159.719 247.219 159.719 247.5C159.719 247.771 159.615 248.016 159.406 248.234C159.208 248.453 158.958 248.562 158.656 248.562C158.354 248.562 158.099 248.453 157.891 248.234C157.693 248.016 157.594 247.771 157.594 247.5C157.594 247.219 157.693 246.974 157.891 246.766C158.099 246.547 158.354 246.438 158.656 246.438ZM159.453 250.188V258H158.172V251.391H156.938V250.188H159.453ZM166.062 250.031C166.781 250.031 167.422 250.203 167.984 250.547C168.557 250.88 169.005 251.359 169.328 251.984C169.661 252.609 169.828 253.354 169.828 254.219C169.828 255.01 169.661 255.708 169.328 256.312C169.005 256.917 168.568 257.391 168.016 257.734C167.474 258.068 166.865 258.234 166.188 258.234C165.594 258.234 165.062 258.078 164.594 257.766C164.135 257.453 163.771 257.089 163.5 256.672V258H162.219V246.75H163.5V251.234C163.833 250.859 164.229 250.568 164.688 250.359C165.156 250.141 165.615 250.031 166.062 250.031ZM165.828 251.297C165.349 251.297 164.927 251.411 164.562 251.641C164.198 251.859 163.849 252.172 163.516 252.578L163.5 254.078C163.5 254.63 163.604 255.125 163.812 255.562C164.031 256 164.328 256.344 164.703 256.594C165.089 256.844 165.516 256.969 165.984 256.969C166.495 256.969 166.938 256.844 167.312 256.594C167.688 256.344 167.979 256.01 168.188 255.594C168.396 255.177 168.5 254.719 168.5 254.219C168.5 253.708 168.391 253.234 168.172 252.797C167.964 252.349 167.661 251.99 167.266 251.719C166.87 251.438 166.391 251.297 165.828 251.297ZM173.219 246.75V258H171.938V246.75H173.219ZM179.094 250.031C179.896 250.031 180.562 250.198 181.094 250.531C181.625 250.865 182.021 251.318 182.281 251.891C182.552 252.464 182.688 253.109 182.688 253.828V254.594H176.688C176.75 255.031 176.901 255.432 177.141 255.797C177.38 256.161 177.693 256.453 178.078 256.672C178.464 256.88 178.906 256.984 179.406 256.984C179.969 256.984 180.495 256.844 180.984 256.562C181.474 256.271 181.885 255.953 182.219 255.609L182.203 257C182.057 257.177 181.839 257.365 181.547 257.562C181.266 257.75 180.938 257.906 180.562 258.031C180.198 258.167 179.812 258.234 179.406 258.234C178.615 258.234 177.911 258.047 177.297 257.672C176.682 257.297 176.198 256.802 175.844 256.188C175.5 255.562 175.328 254.88 175.328 254.141C175.328 253.401 175.49 252.719 175.812 252.094C176.135 251.469 176.578 250.969 177.141 250.594C177.714 250.219 178.365 250.031 179.094 250.031ZM179.094 251.281C178.448 251.281 177.917 251.5 177.5 251.938C177.083 252.365 176.823 252.885 176.719 253.5H181.422C181.37 252.99 181.224 252.573 180.984 252.25C180.755 251.927 180.474 251.688 180.141 251.531C179.807 251.365 179.458 251.281 179.094 251.281ZM193.531 250.188V251.391H191.25V258H189.969V251.391H188.734V250.188H189.969V249.188C189.969 248.573 190.089 248.073 190.328 247.688C190.568 247.292 190.875 247 191.25 246.812C191.625 246.615 192.005 246.516 192.391 246.516C192.922 246.516 193.354 246.656 193.688 246.938V248.062C193.531 247.958 193.344 247.875 193.125 247.812C192.906 247.75 192.688 247.724 192.469 247.734C192.083 247.745 191.781 247.87 191.562 248.109C191.354 248.339 191.25 248.745 191.25 249.328V250.188H193.531ZM198.766 250.031C199.557 250.031 200.26 250.219 200.875 250.594C201.49 250.969 201.969 251.469 202.312 252.094C202.667 252.719 202.844 253.401 202.844 254.141C202.844 254.88 202.667 255.562 202.312 256.188C201.969 256.802 201.49 257.297 200.875 257.672C200.26 258.047 199.557 258.234 198.766 258.234C197.974 258.234 197.271 258.047 196.656 257.672C196.042 257.297 195.557 256.802 195.203 256.188C194.859 255.562 194.688 254.88 194.688 254.141C194.688 253.401 194.859 252.719 195.203 252.094C195.557 251.469 196.042 250.969 196.656 250.594C197.271 250.219 197.974 250.031 198.766 250.031ZM198.766 251.281C198.214 251.281 197.729 251.417 197.312 251.688C196.896 251.948 196.573 252.297 196.344 252.734C196.125 253.161 196.016 253.63 196.016 254.141C196.016 254.641 196.125 255.109 196.344 255.547C196.573 255.974 196.896 256.323 197.312 256.594C197.729 256.854 198.214 256.984 198.766 256.984C199.328 256.984 199.812 256.854 200.219 256.594C200.635 256.323 200.953 255.974 201.172 255.547C201.401 255.109 201.516 254.641 201.516 254.141C201.516 253.63 201.401 253.161 201.172 252.734C200.953 252.297 200.635 251.948 200.219 251.688C199.812 251.417 199.328 251.281 198.766 251.281ZM206.234 250.188V251.75C206.536 251.229 206.901 250.812 207.328 250.5C207.755 250.188 208.193 250.031 208.641 250.031C208.943 250.031 209.214 250.083 209.453 250.188V251.672C209.12 251.474 208.786 251.375 208.453 251.375C207.922 251.375 207.49 251.562 207.156 251.938C206.833 252.312 206.526 252.76 206.234 253.281V258H204.953V250.188H206.234ZM217.938 247.938V250.188H220.219V251.391H217.938V255.969C217.938 256.292 218.021 256.547 218.188 256.734C218.354 256.922 218.609 257.016 218.953 257.016C219.266 257.016 219.526 256.979 219.734 256.906C219.943 256.823 220.125 256.734 220.281 256.641V257.688C220.073 257.854 219.849 257.984 219.609 258.078C219.38 258.182 219.068 258.234 218.672 258.234C218.005 258.234 217.5 258.036 217.156 257.641C216.823 257.234 216.656 256.698 216.656 256.031V251.391H215.156V251.016C215.667 250.786 216.094 250.411 216.438 249.891C216.781 249.359 217.083 248.708 217.344 247.938H217.938ZM226.375 250.031C226.906 250.031 227.391 250.151 227.828 250.391C228.266 250.62 228.615 250.974 228.875 251.453C229.135 251.922 229.266 252.516 229.266 253.234V258H227.984L227.969 253.359C227.969 252.682 227.818 252.167 227.516 251.812C227.224 251.458 226.771 251.281 226.156 251.281C225.74 251.281 225.323 251.438 224.906 251.75C224.5 252.052 224.141 252.406 223.828 252.812V258H222.547V246.75H223.828V251.422C223.995 251.214 224.208 251.005 224.469 250.797C224.729 250.578 225.021 250.396 225.344 250.25C225.677 250.104 226.021 250.031 226.375 250.031ZM232.938 246.438C233.24 246.438 233.49 246.547 233.688 246.766C233.896 246.974 234 247.219 234 247.5C234 247.771 233.896 248.016 233.688 248.234C233.49 248.453 233.24 248.562 232.938 248.562C232.635 248.562 232.38 248.453 232.172 248.234C231.974 248.016 231.875 247.771 231.875 247.5C231.875 247.219 231.974 246.974 232.172 246.766C232.38 246.547 232.635 246.438 232.938 246.438ZM233.734 250.188V258H232.453V251.391H231.219V250.188H233.734ZM238.828 250.031C239.286 250.031 239.714 250.099 240.109 250.234C240.505 250.359 240.792 250.49 240.969 250.625V252C240.75 251.833 240.453 251.672 240.078 251.516C239.703 251.359 239.318 251.281 238.922 251.281C238.432 251.281 238.062 251.396 237.812 251.625C237.573 251.854 237.453 252.094 237.453 252.344C237.453 252.542 237.521 252.745 237.656 252.953C237.802 253.151 238.052 253.312 238.406 253.438L239.719 253.906C240.229 254.083 240.609 254.339 240.859 254.672C241.109 255.005 241.234 255.396 241.234 255.844C241.234 256.281 241.109 256.682 240.859 257.047C240.62 257.411 240.281 257.703 239.844 257.922C239.417 258.13 238.922 258.234 238.359 258.234C238.057 258.234 237.74 258.193 237.406 258.109C237.083 258.036 236.792 257.948 236.531 257.844C236.271 257.729 236.078 257.63 235.953 257.547V256.172C236.099 256.276 236.302 256.396 236.562 256.531C236.833 256.656 237.12 256.766 237.422 256.859C237.724 256.943 238.005 256.984 238.266 256.984C238.755 256.984 239.141 256.875 239.422 256.656C239.714 256.438 239.859 256.167 239.859 255.844C239.859 255.594 239.76 255.396 239.562 255.25C239.375 255.104 239.099 254.964 238.734 254.828L237.578 254.406C236.974 254.177 236.573 253.891 236.375 253.547C236.177 253.193 236.078 252.792 236.078 252.344C236.078 251.677 236.328 251.125 236.828 250.688C237.328 250.25 237.995 250.031 238.828 250.031ZM59.6484 269.031C60.2214 269.031 60.7161 269.125 61.1328 269.312C61.5495 269.49 61.8359 269.651 61.9922 269.797V271.094C61.7005 270.875 61.3672 270.688 60.9922 270.531C60.6172 270.365 60.1693 270.281 59.6484 270.281C59.0964 270.281 58.612 270.417 58.1953 270.688C57.7786 270.948 57.4557 271.297 57.2266 271.734C57.0078 272.161 56.8984 272.63 56.8984 273.141C56.8984 273.641 57.0078 274.109 57.2266 274.547C57.4557 274.974 57.7786 275.323 58.1953 275.594C58.612 275.854 59.0964 275.984 59.6484 275.984C60.1693 275.984 60.6172 275.906 60.9922 275.75C61.3672 275.583 61.7005 275.391 61.9922 275.172V276.469C61.8359 276.625 61.5495 276.792 61.1328 276.969C60.7161 277.146 60.2214 277.234 59.6484 277.234C58.8568 277.234 58.1536 277.047 57.5391 276.672C56.9245 276.297 56.4401 275.802 56.0859 275.188C55.7422 274.562 55.5703 273.88 55.5703 273.141C55.5703 272.401 55.7422 271.719 56.0859 271.094C56.4401 270.469 56.9245 269.969 57.5391 269.594C58.1536 269.219 58.8568 269.031 59.6484 269.031ZM67.3203 269.031C67.7682 269.031 68.2214 269.141 68.6797 269.359C69.1484 269.568 69.5495 269.859 69.8828 270.234V269.188H71.1641V277H69.8828V275.672C69.612 276.089 69.2422 276.453 68.7734 276.766C68.3151 277.078 67.7891 277.234 67.1953 277.234C66.5286 277.234 65.9193 277.068 65.3672 276.734C64.8151 276.391 64.3724 275.917 64.0391 275.312C63.7161 274.708 63.5547 274.01 63.5547 273.219C63.5547 272.354 63.7161 271.609 64.0391 270.984C64.3724 270.359 64.8255 269.88 65.3984 269.547C65.9714 269.203 66.612 269.031 67.3203 269.031ZM67.5547 270.281C66.9922 270.281 66.513 270.422 66.1172 270.703C65.7214 270.984 65.4141 271.349 65.1953 271.797C64.987 272.234 64.8828 272.708 64.8828 273.219C64.8828 273.719 64.987 274.182 65.1953 274.609C65.4036 275.026 65.6953 275.359 66.0703 275.609C66.4557 275.859 66.8984 275.984 67.3984 275.984C67.8776 275.984 68.3047 275.859 68.6797 275.609C69.0547 275.359 69.3516 275.016 69.5703 274.578C69.7891 274.13 69.8932 273.63 69.8828 273.078L69.8672 271.578C69.5443 271.172 69.1953 270.854 68.8203 270.625C68.4557 270.396 68.0339 270.281 67.5547 270.281ZM75.9766 266.938V269.188H78.2578V270.391H75.9766V274.969C75.9766 275.292 76.0599 275.547 76.2266 275.734C76.3932 275.922 76.6484 276.016 76.9922 276.016C77.3047 276.016 77.5651 275.979 77.7734 275.906C77.9818 275.823 78.1641 275.734 78.3203 275.641V276.688C78.112 276.854 77.888 276.984 77.6484 277.078C77.4193 277.182 77.1068 277.234 76.7109 277.234C76.0443 277.234 75.5391 277.036 75.1953 276.641C74.862 276.234 74.6953 275.698 74.6953 275.031V270.391H73.1953V270.016C73.7057 269.786 74.1328 269.411 74.4766 268.891C74.8203 268.359 75.1224 267.708 75.3828 266.938H75.9766ZM83.8047 269.031C84.6068 269.031 85.2734 269.198 85.8047 269.531C86.3359 269.865 86.7318 270.318 86.9922 270.891C87.263 271.464 87.3984 272.109 87.3984 272.828V273.594H81.3984C81.4609 274.031 81.612 274.432 81.8516 274.797C82.0911 275.161 82.4036 275.453 82.7891 275.672C83.1745 275.88 83.6172 275.984 84.1172 275.984C84.6797 275.984 85.2057 275.844 85.6953 275.562C86.1849 275.271 86.5964 274.953 86.9297 274.609L86.9141 276C86.7682 276.177 86.5495 276.365 86.2578 276.562C85.9766 276.75 85.6484 276.906 85.2734 277.031C84.9089 277.167 84.5234 277.234 84.1172 277.234C83.3255 277.234 82.6224 277.047 82.0078 276.672C81.3932 276.297 80.9089 275.802 80.5547 275.188C80.2109 274.562 80.0391 273.88 80.0391 273.141C80.0391 272.401 80.2005 271.719 80.5234 271.094C80.8464 270.469 81.2891 269.969 81.8516 269.594C82.4245 269.219 83.0755 269.031 83.8047 269.031ZM83.8047 270.281C83.1589 270.281 82.6276 270.5 82.2109 270.938C81.7943 271.365 81.5339 271.885 81.4297 272.5H86.1328C86.0807 271.99 85.9349 271.573 85.6953 271.25C85.4661 270.927 85.1849 270.688 84.8516 270.531C84.5182 270.365 84.1693 270.281 83.8047 270.281ZM92.7266 269.031C93.1745 269.031 93.6276 269.141 94.0859 269.359C94.5547 269.568 94.9557 269.859 95.2891 270.234V269.188H96.5703V276.844C96.5703 277.771 96.3828 278.542 96.0078 279.156C95.6328 279.771 95.1328 280.229 94.5078 280.531C93.8828 280.833 93.2005 280.984 92.4609 280.984C91.9818 280.984 91.5703 280.927 91.2266 280.812C90.8932 280.708 90.6068 280.573 90.3672 280.406C90.1276 280.25 89.9089 280.099 89.7109 279.953V278.578C89.8672 278.693 90.0703 278.839 90.3203 279.016C90.5807 279.203 90.888 279.37 91.2422 279.516C91.6068 279.661 92.013 279.734 92.4609 279.734C92.9714 279.734 93.4401 279.641 93.8672 279.453C94.2943 279.266 94.638 278.99 94.8984 278.625C95.1589 278.26 95.2891 277.823 95.2891 277.312V275.672C95.0182 276.089 94.6484 276.453 94.1797 276.766C93.7214 277.078 93.1953 277.234 92.6016 277.234C91.9349 277.234 91.3255 277.068 90.7734 276.734C90.2214 276.391 89.7786 275.917 89.4453 275.312C89.1224 274.708 88.9609 274.01 88.9609 273.219C88.9609 272.354 89.1224 271.609 89.4453 270.984C89.7786 270.359 90.2318 269.88 90.8047 269.547C91.3776 269.203 92.0182 269.031 92.7266 269.031ZM92.9609 270.297C92.3984 270.297 91.9193 270.438 91.5234 270.719C91.1276 270.99 90.8203 271.349 90.6016 271.797C90.3932 272.234 90.2891 272.708 90.2891 273.219C90.2891 273.719 90.3932 274.177 90.6016 274.594C90.8099 275.01 91.1016 275.344 91.4766 275.594C91.862 275.844 92.3047 275.969 92.8047 275.969C93.2839 275.969 93.7109 275.844 94.0859 275.594C94.4609 275.344 94.7578 275 94.9766 274.562C95.1953 274.125 95.2995 273.63 95.2891 273.078L95.2734 271.578C94.9505 271.172 94.6016 270.859 94.2266 270.641C93.862 270.411 93.4401 270.297 92.9609 270.297ZM102.758 269.031C103.549 269.031 104.253 269.219 104.867 269.594C105.482 269.969 105.961 270.469 106.305 271.094C106.659 271.719 106.836 272.401 106.836 273.141C106.836 273.88 106.659 274.562 106.305 275.188C105.961 275.802 105.482 276.297 104.867 276.672C104.253 277.047 103.549 277.234 102.758 277.234C101.966 277.234 101.263 277.047 100.648 276.672C100.034 276.297 99.5495 275.802 99.1953 275.188C98.8516 274.562 98.6797 273.88 98.6797 273.141C98.6797 272.401 98.8516 271.719 99.1953 271.094C99.5495 270.469 100.034 269.969 100.648 269.594C101.263 269.219 101.966 269.031 102.758 269.031ZM102.758 270.281C102.206 270.281 101.721 270.417 101.305 270.688C100.888 270.948 100.565 271.297 100.336 271.734C100.117 272.161 100.008 272.63 100.008 273.141C100.008 273.641 100.117 274.109 100.336 274.547C100.565 274.974 100.888 275.323 101.305 275.594C101.721 275.854 102.206 275.984 102.758 275.984C103.32 275.984 103.805 275.854 104.211 275.594C104.628 275.323 104.945 274.974 105.164 274.547C105.393 274.109 105.508 273.641 105.508 273.141C105.508 272.63 105.393 272.161 105.164 271.734C104.945 271.297 104.628 270.948 104.211 270.688C103.805 270.417 103.32 270.281 102.758 270.281ZM110.227 269.188V270.75C110.529 270.229 110.893 269.812 111.32 269.5C111.747 269.188 112.185 269.031 112.633 269.031C112.935 269.031 113.206 269.083 113.445 269.188V270.672C113.112 270.474 112.779 270.375 112.445 270.375C111.914 270.375 111.482 270.562 111.148 270.938C110.826 271.312 110.518 271.76 110.227 272.281V277H108.945V269.188H110.227ZM115.523 269.188L118.258 274.938L120.914 269.188H122.445L116.695 280.75H115.211L117.445 276.531L113.992 269.188H115.523ZM129.945 265.438C130.247 265.438 130.497 265.547 130.695 265.766C130.904 265.974 131.008 266.219 131.008 266.5C131.008 266.771 130.904 267.016 130.695 267.234C130.497 267.453 130.247 267.562 129.945 267.562C129.643 267.562 129.388 267.453 129.18 267.234C128.982 267.016 128.883 266.771 128.883 266.5C128.883 266.219 128.982 265.974 129.18 265.766C129.388 265.547 129.643 265.438 129.945 265.438ZM130.742 269.188V277H129.461V270.391H128.227V269.188H130.742ZM137.555 269.188V270.391H135.273V277H133.992V270.391H132.758V269.188H133.992V268.188C133.992 267.573 134.112 267.073 134.352 266.688C134.591 266.292 134.898 266 135.273 265.812C135.648 265.615 136.029 265.516 136.414 265.516C136.945 265.516 137.378 265.656 137.711 265.938V267.062C137.555 266.958 137.367 266.875 137.148 266.812C136.93 266.75 136.711 266.724 136.492 266.734C136.107 266.745 135.805 266.87 135.586 267.109C135.378 267.339 135.273 267.745 135.273 268.328V269.188H137.555ZM147.164 269.031C147.612 269.031 148.065 269.141 148.523 269.359C148.992 269.568 149.393 269.859 149.727 270.234V269.188H151.008V277H149.727V275.672C149.456 276.089 149.086 276.453 148.617 276.766C148.159 277.078 147.633 277.234 147.039 277.234C146.372 277.234 145.763 277.068 145.211 276.734C144.659 276.391 144.216 275.917 143.883 275.312C143.56 274.708 143.398 274.01 143.398 273.219C143.398 272.354 143.56 271.609 143.883 270.984C144.216 270.359 144.669 269.88 145.242 269.547C145.815 269.203 146.456 269.031 147.164 269.031ZM147.398 270.281C146.836 270.281 146.357 270.422 145.961 270.703C145.565 270.984 145.258 271.349 145.039 271.797C144.831 272.234 144.727 272.708 144.727 273.219C144.727 273.719 144.831 274.182 145.039 274.609C145.247 275.026 145.539 275.359 145.914 275.609C146.299 275.859 146.742 275.984 147.242 275.984C147.721 275.984 148.148 275.859 148.523 275.609C148.898 275.359 149.195 275.016 149.414 274.578C149.633 274.13 149.737 273.63 149.727 273.078L149.711 271.578C149.388 271.172 149.039 270.854 148.664 270.625C148.299 270.396 147.878 270.281 147.398 270.281ZM155.82 266.938V269.188H158.102V270.391H155.82V274.969C155.82 275.292 155.904 275.547 156.07 275.734C156.237 275.922 156.492 276.016 156.836 276.016C157.148 276.016 157.409 275.979 157.617 275.906C157.826 275.823 158.008 275.734 158.164 275.641V276.688C157.956 276.854 157.732 276.984 157.492 277.078C157.263 277.182 156.951 277.234 156.555 277.234C155.888 277.234 155.383 277.036 155.039 276.641C154.706 276.234 154.539 275.698 154.539 275.031V270.391H153.039V270.016C153.549 269.786 153.977 269.411 154.32 268.891C154.664 268.359 154.966 267.708 155.227 266.938H155.82ZM166.398 265.75V277H165.117V265.75H166.398ZM172.273 269.031C173.076 269.031 173.742 269.198 174.273 269.531C174.805 269.865 175.201 270.318 175.461 270.891C175.732 271.464 175.867 272.109 175.867 272.828V273.594H169.867C169.93 274.031 170.081 274.432 170.32 274.797C170.56 275.161 170.872 275.453 171.258 275.672C171.643 275.88 172.086 275.984 172.586 275.984C173.148 275.984 173.674 275.844 174.164 275.562C174.654 275.271 175.065 274.953 175.398 274.609L175.383 276C175.237 276.177 175.018 276.365 174.727 276.562C174.445 276.75 174.117 276.906 173.742 277.031C173.378 277.167 172.992 277.234 172.586 277.234C171.794 277.234 171.091 277.047 170.477 276.672C169.862 276.297 169.378 275.802 169.023 275.188C168.68 274.562 168.508 273.88 168.508 273.141C168.508 272.401 168.669 271.719 168.992 271.094C169.315 270.469 169.758 269.969 170.32 269.594C170.893 269.219 171.544 269.031 172.273 269.031ZM172.273 270.281C171.628 270.281 171.096 270.5 170.68 270.938C170.263 271.365 170.003 271.885 169.898 272.5H174.602C174.549 271.99 174.404 271.573 174.164 271.25C173.935 270.927 173.654 270.688 173.32 270.531C172.987 270.365 172.638 270.281 172.273 270.281ZM181.195 269.031C181.643 269.031 182.096 269.141 182.555 269.359C183.023 269.568 183.424 269.859 183.758 270.234V269.188H185.039V277H183.758V275.672C183.487 276.089 183.117 276.453 182.648 276.766C182.19 277.078 181.664 277.234 181.07 277.234C180.404 277.234 179.794 277.068 179.242 276.734C178.69 276.391 178.247 275.917 177.914 275.312C177.591 274.708 177.43 274.01 177.43 273.219C177.43 272.354 177.591 271.609 177.914 270.984C178.247 270.359 178.701 269.88 179.273 269.547C179.846 269.203 180.487 269.031 181.195 269.031ZM181.43 270.281C180.867 270.281 180.388 270.422 179.992 270.703C179.596 270.984 179.289 271.349 179.07 271.797C178.862 272.234 178.758 272.708 178.758 273.219C178.758 273.719 178.862 274.182 179.07 274.609C179.279 275.026 179.57 275.359 179.945 275.609C180.331 275.859 180.773 275.984 181.273 275.984C181.753 275.984 182.18 275.859 182.555 275.609C182.93 275.359 183.227 275.016 183.445 274.578C183.664 274.13 183.768 273.63 183.758 273.078L183.742 271.578C183.419 271.172 183.07 270.854 182.695 270.625C182.331 270.396 181.909 270.281 181.43 270.281ZM190.023 269.031C190.482 269.031 190.909 269.099 191.305 269.234C191.701 269.359 191.987 269.49 192.164 269.625V271C191.945 270.833 191.648 270.672 191.273 270.516C190.898 270.359 190.513 270.281 190.117 270.281C189.628 270.281 189.258 270.396 189.008 270.625C188.768 270.854 188.648 271.094 188.648 271.344C188.648 271.542 188.716 271.745 188.852 271.953C188.997 272.151 189.247 272.312 189.602 272.438L190.914 272.906C191.424 273.083 191.805 273.339 192.055 273.672C192.305 274.005 192.43 274.396 192.43 274.844C192.43 275.281 192.305 275.682 192.055 276.047C191.815 276.411 191.477 276.703 191.039 276.922C190.612 277.13 190.117 277.234 189.555 277.234C189.253 277.234 188.935 277.193 188.602 277.109C188.279 277.036 187.987 276.948 187.727 276.844C187.466 276.729 187.273 276.63 187.148 276.547V275.172C187.294 275.276 187.497 275.396 187.758 275.531C188.029 275.656 188.315 275.766 188.617 275.859C188.919 275.943 189.201 275.984 189.461 275.984C189.951 275.984 190.336 275.875 190.617 275.656C190.909 275.438 191.055 275.167 191.055 274.844C191.055 274.594 190.956 274.396 190.758 274.25C190.57 274.104 190.294 273.964 189.93 273.828L188.773 273.406C188.169 273.177 187.768 272.891 187.57 272.547C187.372 272.193 187.273 271.792 187.273 271.344C187.273 270.677 187.523 270.125 188.023 269.688C188.523 269.25 189.19 269.031 190.023 269.031ZM196.539 266.938V269.188H198.82V270.391H196.539V274.969C196.539 275.292 196.622 275.547 196.789 275.734C196.956 275.922 197.211 276.016 197.555 276.016C197.867 276.016 198.128 275.979 198.336 275.906C198.544 275.823 198.727 275.734 198.883 275.641V276.688C198.674 276.854 198.451 276.984 198.211 277.078C197.982 277.182 197.669 277.234 197.273 277.234C196.607 277.234 196.102 277.036 195.758 276.641C195.424 276.234 195.258 275.698 195.258 275.031V270.391H193.758V270.016C194.268 269.786 194.695 269.411 195.039 268.891C195.383 268.359 195.685 267.708 195.945 266.938H196.539ZM209.664 269.031C210.195 269.031 210.68 269.151 211.117 269.391C211.555 269.62 211.904 269.974 212.164 270.453C212.424 270.922 212.555 271.516 212.555 272.234V277H211.273L211.258 272.359C211.258 271.682 211.107 271.167 210.805 270.812C210.513 270.458 210.06 270.281 209.445 270.281C209.029 270.281 208.612 270.438 208.195 270.75C207.789 271.052 207.43 271.406 207.117 271.812V277H205.836V265.75H207.117V270.422C207.284 270.214 207.497 270.005 207.758 269.797C208.018 269.578 208.31 269.396 208.633 269.25C208.966 269.104 209.31 269.031 209.664 269.031ZM218.195 269.031C218.643 269.031 219.096 269.141 219.555 269.359C220.023 269.568 220.424 269.859 220.758 270.234V269.188H222.039V277H220.758V275.672C220.487 276.089 220.117 276.453 219.648 276.766C219.19 277.078 218.664 277.234 218.07 277.234C217.404 277.234 216.794 277.068 216.242 276.734C215.69 276.391 215.247 275.917 214.914 275.312C214.591 274.708 214.43 274.01 214.43 273.219C214.43 272.354 214.591 271.609 214.914 270.984C215.247 270.359 215.701 269.88 216.273 269.547C216.846 269.203 217.487 269.031 218.195 269.031ZM218.43 270.281C217.867 270.281 217.388 270.422 216.992 270.703C216.596 270.984 216.289 271.349 216.07 271.797C215.862 272.234 215.758 272.708 215.758 273.219C215.758 273.719 215.862 274.182 216.07 274.609C216.279 275.026 216.57 275.359 216.945 275.609C217.331 275.859 217.773 275.984 218.273 275.984C218.753 275.984 219.18 275.859 219.555 275.609C219.93 275.359 220.227 275.016 220.445 274.578C220.664 274.13 220.768 273.63 220.758 273.078L220.742 271.578C220.419 271.172 220.07 270.854 219.695 270.625C219.331 270.396 218.909 270.281 218.43 270.281ZM225.977 265.75V277H224.695V265.75H225.977ZM232.68 269.188V270.391H230.398V277H229.117V270.391H227.883V269.188H229.117V268.188C229.117 267.573 229.237 267.073 229.477 266.688C229.716 266.292 230.023 266 230.398 265.812C230.773 265.615 231.154 265.516 231.539 265.516C232.07 265.516 232.503 265.656 232.836 265.938V267.062C232.68 266.958 232.492 266.875 232.273 266.812C232.055 266.75 231.836 266.724 231.617 266.734C231.232 266.745 230.93 266.87 230.711 267.109C230.503 267.339 230.398 267.745 230.398 268.328V269.188H232.68ZM242.602 269.031C243.393 269.031 244.096 269.219 244.711 269.594C245.326 269.969 245.805 270.469 246.148 271.094C246.503 271.719 246.68 272.401 246.68 273.141C246.68 273.88 246.503 274.562 246.148 275.188C245.805 275.802 245.326 276.297 244.711 276.672C244.096 277.047 243.393 277.234 242.602 277.234C241.81 277.234 241.107 277.047 240.492 276.672C239.878 276.297 239.393 275.802 239.039 275.188C238.695 274.562 238.523 273.88 238.523 273.141C238.523 272.401 238.695 271.719 239.039 271.094C239.393 270.469 239.878 269.969 240.492 269.594C241.107 269.219 241.81 269.031 242.602 269.031ZM242.602 270.281C242.049 270.281 241.565 270.417 241.148 270.688C240.732 270.948 240.409 271.297 240.18 271.734C239.961 272.161 239.852 272.63 239.852 273.141C239.852 273.641 239.961 274.109 240.18 274.547C240.409 274.974 240.732 275.323 241.148 275.594C241.565 275.854 242.049 275.984 242.602 275.984C243.164 275.984 243.648 275.854 244.055 275.594C244.471 275.323 244.789 274.974 245.008 274.547C245.237 274.109 245.352 273.641 245.352 273.141C245.352 272.63 245.237 272.161 245.008 271.734C244.789 271.297 244.471 270.948 244.055 270.688C243.648 270.417 243.164 270.281 242.602 270.281ZM252.836 269.188V270.391H250.555V277H249.273V270.391H248.039V269.188H249.273V268.188C249.273 267.573 249.393 267.073 249.633 266.688C249.872 266.292 250.18 266 250.555 265.812C250.93 265.615 251.31 265.516 251.695 265.516C252.227 265.516 252.659 265.656 252.992 265.938V267.062C252.836 266.958 252.648 266.875 252.43 266.812C252.211 266.75 251.992 266.724 251.773 266.734C251.388 266.745 251.086 266.87 250.867 267.109C250.659 267.339 250.555 267.745 250.555 268.328V269.188H252.836ZM41.5391 288.188L44.2734 293.938L46.9297 288.188H48.4609L42.7109 299.75H41.2266L43.4609 295.531L40.0078 288.188H41.5391ZM53.5547 288.031C54.3464 288.031 55.0495 288.219 55.6641 288.594C56.2786 288.969 56.7578 289.469 57.1016 290.094C57.4557 290.719 57.6328 291.401 57.6328 292.141C57.6328 292.88 57.4557 293.562 57.1016 294.188C56.7578 294.802 56.2786 295.297 55.6641 295.672C55.0495 296.047 54.3464 296.234 53.5547 296.234C52.763 296.234 52.0599 296.047 51.4453 295.672C50.8307 295.297 50.3464 294.802 49.9922 294.188C49.6484 293.562 49.4766 292.88 49.4766 292.141C49.4766 291.401 49.6484 290.719 49.9922 290.094C50.3464 289.469 50.8307 288.969 51.4453 288.594C52.0599 288.219 52.763 288.031 53.5547 288.031ZM53.5547 289.281C53.0026 289.281 52.5182 289.417 52.1016 289.688C51.6849 289.948 51.362 290.297 51.1328 290.734C50.9141 291.161 50.8047 291.63 50.8047 292.141C50.8047 292.641 50.9141 293.109 51.1328 293.547C51.362 293.974 51.6849 294.323 52.1016 294.594C52.5182 294.854 53.0026 294.984 53.5547 294.984C54.1172 294.984 54.6016 294.854 55.0078 294.594C55.4245 294.323 55.7422 293.974 55.9609 293.547C56.1901 293.109 56.3047 292.641 56.3047 292.141C56.3047 291.63 56.1901 291.161 55.9609 290.734C55.7422 290.297 55.4245 289.948 55.0078 289.688C54.6016 289.417 54.1172 289.281 53.5547 289.281ZM66.1328 288.188V292.812C66.1328 293.5 65.987 294.094 65.6953 294.594C65.4036 295.094 65.0078 295.479 64.5078 295.75C64.0078 296.021 63.4453 296.156 62.8203 296.156C62.1953 296.156 61.6328 296.021 61.1328 295.75C60.6328 295.479 60.237 295.094 59.9453 294.594C59.6536 294.094 59.5078 293.5 59.5078 292.812V288.188H60.8359V292.812C60.8359 293.49 61.0339 294.01 61.4297 294.375C61.8359 294.729 62.2995 294.906 62.8203 294.906C63.3411 294.906 63.7995 294.729 64.1953 294.375C64.6016 294.01 64.8047 293.49 64.8047 292.812V288.188H66.1328ZM69.8359 288.188V289.75C70.138 289.229 70.5026 288.812 70.9297 288.5C71.3568 288.188 71.7943 288.031 72.2422 288.031C72.5443 288.031 72.8151 288.083 73.0547 288.188V289.672C72.7214 289.474 72.388 289.375 72.0547 289.375C71.5234 289.375 71.0911 289.562 70.7578 289.938C70.4349 290.312 70.1276 290.76 69.8359 291.281V296H68.5547V288.188H69.8359ZM81.5391 285.938V288.188H83.8203V289.391H81.5391V293.969C81.5391 294.292 81.6224 294.547 81.7891 294.734C81.9557 294.922 82.2109 295.016 82.5547 295.016C82.8672 295.016 83.1276 294.979 83.3359 294.906C83.5443 294.823 83.7266 294.734 83.8828 294.641V295.688C83.6745 295.854 83.4505 295.984 83.2109 296.078C82.9818 296.182 82.6693 296.234 82.2734 296.234C81.6068 296.234 81.1016 296.036 80.7578 295.641C80.4245 295.234 80.2578 294.698 80.2578 294.031V289.391H78.7578V289.016C79.2682 288.786 79.6953 288.411 80.0391 287.891C80.3828 287.359 80.6849 286.708 80.9453 285.938H81.5391ZM89.3672 288.031C90.1693 288.031 90.8359 288.198 91.3672 288.531C91.8984 288.865 92.2943 289.318 92.5547 289.891C92.8255 290.464 92.9609 291.109 92.9609 291.828V292.594H86.9609C87.0234 293.031 87.1745 293.432 87.4141 293.797C87.6536 294.161 87.9661 294.453 88.3516 294.672C88.737 294.88 89.1797 294.984 89.6797 294.984C90.2422 294.984 90.7682 294.844 91.2578 294.562C91.7474 294.271 92.1589 293.953 92.4922 293.609L92.4766 295C92.3307 295.177 92.112 295.365 91.8203 295.562C91.5391 295.75 91.2109 295.906 90.8359 296.031C90.4714 296.167 90.0859 296.234 89.6797 296.234C88.888 296.234 88.1849 296.047 87.5703 295.672C86.9557 295.297 86.4714 294.802 86.1172 294.188C85.7734 293.562 85.6016 292.88 85.6016 292.141C85.6016 291.401 85.763 290.719 86.0859 290.094C86.4089 289.469 86.8516 288.969 87.4141 288.594C87.987 288.219 88.638 288.031 89.3672 288.031ZM89.3672 289.281C88.7214 289.281 88.1901 289.5 87.7734 289.938C87.3568 290.365 87.0964 290.885 86.9922 291.5H91.6953C91.6432 290.99 91.4974 290.573 91.2578 290.25C91.0286 289.927 90.7474 289.688 90.4141 289.531C90.0807 289.365 89.7318 289.281 89.3672 289.281ZM98.2891 288.031C98.737 288.031 99.1901 288.141 99.6484 288.359C100.117 288.568 100.518 288.859 100.852 289.234V288.188H102.133V296H100.852V294.672C100.581 295.089 100.211 295.453 99.7422 295.766C99.2839 296.078 98.7578 296.234 98.1641 296.234C97.4974 296.234 96.888 296.068 96.3359 295.734C95.7839 295.391 95.3411 294.917 95.0078 294.312C94.6849 293.708 94.5234 293.01 94.5234 292.219C94.5234 291.354 94.6849 290.609 95.0078 289.984C95.3411 289.359 95.7943 288.88 96.3672 288.547C96.9401 288.203 97.5807 288.031 98.2891 288.031ZM98.5234 289.281C97.9609 289.281 97.4818 289.422 97.0859 289.703C96.6901 289.984 96.3828 290.349 96.1641 290.797C95.9557 291.234 95.8516 291.708 95.8516 292.219C95.8516 292.719 95.9557 293.182 96.1641 293.609C96.3724 294.026 96.6641 294.359 97.0391 294.609C97.4245 294.859 97.8672 294.984 98.3672 294.984C98.8464 294.984 99.2734 294.859 99.6484 294.609C100.023 294.359 100.32 294.016 100.539 293.578C100.758 293.13 100.862 292.63 100.852 292.078L100.836 290.578C100.513 290.172 100.164 289.854 99.7891 289.625C99.4245 289.396 99.0026 289.281 98.5234 289.281ZM106.07 288.188V289.188C106.32 288.906 106.638 288.646 107.023 288.406C107.419 288.156 107.883 288.031 108.414 288.031C108.977 288.031 109.503 288.167 109.992 288.438C110.482 288.698 110.857 289.094 111.117 289.625C111.482 289.188 111.878 288.812 112.305 288.5C112.732 288.188 113.232 288.031 113.805 288.031C114.336 288.031 114.831 288.151 115.289 288.391C115.758 288.62 116.133 288.974 116.414 289.453C116.706 289.922 116.852 290.516 116.852 291.234V296H115.57L115.555 291.359C115.555 290.682 115.378 290.167 115.023 289.812C114.68 289.458 114.201 289.281 113.586 289.281C113.138 289.281 112.747 289.422 112.414 289.703C112.081 289.984 111.763 290.312 111.461 290.688V296H110.18L110.164 291.359C110.164 290.682 109.987 290.167 109.633 289.812C109.289 289.458 108.81 289.281 108.195 289.281C107.768 289.281 107.378 289.406 107.023 289.656C106.68 289.906 106.362 290.208 106.07 290.562V296H104.789V288.188H106.07ZM125.211 284.438C125.513 284.438 125.763 284.547 125.961 284.766C126.169 284.974 126.273 285.219 126.273 285.5C126.273 285.771 126.169 286.016 125.961 286.234C125.763 286.453 125.513 286.562 125.211 286.562C124.909 286.562 124.654 286.453 124.445 286.234C124.247 286.016 124.148 285.771 124.148 285.5C124.148 285.219 124.247 284.974 124.445 284.766C124.654 284.547 124.909 284.438 125.211 284.438ZM126.008 288.188V296H124.727V289.391H123.492V288.188H126.008ZM131.102 288.031C131.56 288.031 131.987 288.099 132.383 288.234C132.779 288.359 133.065 288.49 133.242 288.625V290C133.023 289.833 132.727 289.672 132.352 289.516C131.977 289.359 131.591 289.281 131.195 289.281C130.706 289.281 130.336 289.396 130.086 289.625C129.846 289.854 129.727 290.094 129.727 290.344C129.727 290.542 129.794 290.745 129.93 290.953C130.076 291.151 130.326 291.312 130.68 291.438L131.992 291.906C132.503 292.083 132.883 292.339 133.133 292.672C133.383 293.005 133.508 293.396 133.508 293.844C133.508 294.281 133.383 294.682 133.133 295.047C132.893 295.411 132.555 295.703 132.117 295.922C131.69 296.13 131.195 296.234 130.633 296.234C130.331 296.234 130.013 296.193 129.68 296.109C129.357 296.036 129.065 295.948 128.805 295.844C128.544 295.729 128.352 295.63 128.227 295.547V294.172C128.372 294.276 128.576 294.396 128.836 294.531C129.107 294.656 129.393 294.766 129.695 294.859C129.997 294.943 130.279 294.984 130.539 294.984C131.029 294.984 131.414 294.875 131.695 294.656C131.987 294.438 132.133 294.167 132.133 293.844C132.133 293.594 132.034 293.396 131.836 293.25C131.648 293.104 131.372 292.964 131.008 292.828L129.852 292.406C129.247 292.177 128.846 291.891 128.648 291.547C128.451 291.193 128.352 290.792 128.352 290.344C128.352 289.677 128.602 289.125 129.102 288.688C129.602 288.25 130.268 288.031 131.102 288.031ZM141.43 288.188V289.188C141.68 288.906 141.997 288.646 142.383 288.406C142.779 288.156 143.242 288.031 143.773 288.031C144.336 288.031 144.862 288.167 145.352 288.438C145.841 288.698 146.216 289.094 146.477 289.625C146.841 289.188 147.237 288.812 147.664 288.5C148.091 288.188 148.591 288.031 149.164 288.031C149.695 288.031 150.19 288.151 150.648 288.391C151.117 288.62 151.492 288.974 151.773 289.453C152.065 289.922 152.211 290.516 152.211 291.234V296H150.93L150.914 291.359C150.914 290.682 150.737 290.167 150.383 289.812C150.039 289.458 149.56 289.281 148.945 289.281C148.497 289.281 148.107 289.422 147.773 289.703C147.44 289.984 147.122 290.312 146.82 290.688V296H145.539L145.523 291.359C145.523 290.682 145.346 290.167 144.992 289.812C144.648 289.458 144.169 289.281 143.555 289.281C143.128 289.281 142.737 289.406 142.383 289.656C142.039 289.906 141.721 290.208 141.43 290.562V296H140.148V288.188H141.43ZM157.852 288.031C158.299 288.031 158.753 288.141 159.211 288.359C159.68 288.568 160.081 288.859 160.414 289.234V288.188H161.695V296H160.414V294.672C160.143 295.089 159.773 295.453 159.305 295.766C158.846 296.078 158.32 296.234 157.727 296.234C157.06 296.234 156.451 296.068 155.898 295.734C155.346 295.391 154.904 294.917 154.57 294.312C154.247 293.708 154.086 293.01 154.086 292.219C154.086 291.354 154.247 290.609 154.57 289.984C154.904 289.359 155.357 288.88 155.93 288.547C156.503 288.203 157.143 288.031 157.852 288.031ZM158.086 289.281C157.523 289.281 157.044 289.422 156.648 289.703C156.253 289.984 155.945 290.349 155.727 290.797C155.518 291.234 155.414 291.708 155.414 292.219C155.414 292.719 155.518 293.182 155.727 293.609C155.935 294.026 156.227 294.359 156.602 294.609C156.987 294.859 157.43 294.984 157.93 294.984C158.409 294.984 158.836 294.859 159.211 294.609C159.586 294.359 159.883 294.016 160.102 293.578C160.32 293.13 160.424 292.63 160.414 292.078L160.398 290.578C160.076 290.172 159.727 289.854 159.352 289.625C158.987 289.396 158.565 289.281 158.086 289.281ZM171.414 284.75V296H170.133V294.672C169.862 295.089 169.492 295.453 169.023 295.766C168.565 296.078 168.039 296.234 167.445 296.234C166.779 296.234 166.169 296.068 165.617 295.734C165.065 295.391 164.622 294.917 164.289 294.312C163.966 293.708 163.805 293.01 163.805 292.219C163.805 291.354 163.966 290.609 164.289 289.984C164.622 289.359 165.076 288.88 165.648 288.547C166.221 288.203 166.862 288.031 167.57 288.031C168.018 288.031 168.471 288.141 168.93 288.359C169.398 288.568 169.799 288.859 170.133 289.234V284.75H171.414ZM167.805 289.312C167.242 289.312 166.763 289.453 166.367 289.734C165.971 290.005 165.664 290.359 165.445 290.797C165.237 291.234 165.133 291.708 165.133 292.219C165.133 292.719 165.237 293.182 165.445 293.609C165.654 294.026 165.945 294.359 166.32 294.609C166.706 294.859 167.148 294.984 167.648 294.984C168.128 294.984 168.555 294.859 168.93 294.609C169.305 294.359 169.602 294.016 169.82 293.578C170.039 293.13 170.143 292.63 170.133 292.078L170.117 290.578C169.794 290.172 169.445 289.859 169.07 289.641C168.706 289.422 168.284 289.312 167.805 289.312ZM177.289 288.031C178.091 288.031 178.758 288.198 179.289 288.531C179.82 288.865 180.216 289.318 180.477 289.891C180.747 290.464 180.883 291.109 180.883 291.828V292.594H174.883C174.945 293.031 175.096 293.432 175.336 293.797C175.576 294.161 175.888 294.453 176.273 294.672C176.659 294.88 177.102 294.984 177.602 294.984C178.164 294.984 178.69 294.844 179.18 294.562C179.669 294.271 180.081 293.953 180.414 293.609L180.398 295C180.253 295.177 180.034 295.365 179.742 295.562C179.461 295.75 179.133 295.906 178.758 296.031C178.393 296.167 178.008 296.234 177.602 296.234C176.81 296.234 176.107 296.047 175.492 295.672C174.878 295.297 174.393 294.802 174.039 294.188C173.695 293.562 173.523 292.88 173.523 292.141C173.523 291.401 173.685 290.719 174.008 290.094C174.331 289.469 174.773 288.969 175.336 288.594C175.909 288.219 176.56 288.031 177.289 288.031ZM177.289 289.281C176.643 289.281 176.112 289.5 175.695 289.938C175.279 290.365 175.018 290.885 174.914 291.5H179.617C179.565 290.99 179.419 290.573 179.18 290.25C178.951 289.927 178.669 289.688 178.336 289.531C178.003 289.365 177.654 289.281 177.289 289.281ZM191.211 288.031C192.003 288.031 192.706 288.219 193.32 288.594C193.935 288.969 194.414 289.469 194.758 290.094C195.112 290.719 195.289 291.401 195.289 292.141C195.289 292.88 195.112 293.562 194.758 294.188C194.414 294.802 193.935 295.297 193.32 295.672C192.706 296.047 192.003 296.234 191.211 296.234C190.419 296.234 189.716 296.047 189.102 295.672C188.487 295.297 188.003 294.802 187.648 294.188C187.305 293.562 187.133 292.88 187.133 292.141C187.133 291.401 187.305 290.719 187.648 290.094C188.003 289.469 188.487 288.969 189.102 288.594C189.716 288.219 190.419 288.031 191.211 288.031ZM191.211 289.281C190.659 289.281 190.174 289.417 189.758 289.688C189.341 289.948 189.018 290.297 188.789 290.734C188.57 291.161 188.461 291.63 188.461 292.141C188.461 292.641 188.57 293.109 188.789 293.547C189.018 293.974 189.341 294.323 189.758 294.594C190.174 294.854 190.659 294.984 191.211 294.984C191.773 294.984 192.258 294.854 192.664 294.594C193.081 294.323 193.398 293.974 193.617 293.547C193.846 293.109 193.961 292.641 193.961 292.141C193.961 291.63 193.846 291.161 193.617 290.734C193.398 290.297 193.081 289.948 192.664 289.688C192.258 289.417 191.773 289.281 191.211 289.281ZM201.445 288.188V289.391H199.164V296H197.883V289.391H196.648V288.188H197.883V287.188C197.883 286.573 198.003 286.073 198.242 285.688C198.482 285.292 198.789 285 199.164 284.812C199.539 284.615 199.919 284.516 200.305 284.516C200.836 284.516 201.268 284.656 201.602 284.938V286.062C201.445 285.958 201.258 285.875 201.039 285.812C200.82 285.75 200.602 285.724 200.383 285.734C199.997 285.745 199.695 285.87 199.477 286.109C199.268 286.339 199.164 286.745 199.164 287.328V288.188H201.445ZM213.867 294.75V296H208.195V294.75H210.273V287.938C209.961 288.208 209.638 288.396 209.305 288.5C208.971 288.604 208.638 288.688 208.305 288.75V287.406C208.909 287.25 209.435 286.995 209.883 286.641C210.331 286.286 210.701 285.917 210.992 285.531H211.68V294.75H213.867ZM218.758 288.031C219.216 288.031 219.643 288.099 220.039 288.234C220.435 288.359 220.721 288.49 220.898 288.625V290C220.68 289.833 220.383 289.672 220.008 289.516C219.633 289.359 219.247 289.281 218.852 289.281C218.362 289.281 217.992 289.396 217.742 289.625C217.503 289.854 217.383 290.094 217.383 290.344C217.383 290.542 217.451 290.745 217.586 290.953C217.732 291.151 217.982 291.312 218.336 291.438L219.648 291.906C220.159 292.083 220.539 292.339 220.789 292.672C221.039 293.005 221.164 293.396 221.164 293.844C221.164 294.281 221.039 294.682 220.789 295.047C220.549 295.411 220.211 295.703 219.773 295.922C219.346 296.13 218.852 296.234 218.289 296.234C217.987 296.234 217.669 296.193 217.336 296.109C217.013 296.036 216.721 295.948 216.461 295.844C216.201 295.729 216.008 295.63 215.883 295.547V294.172C216.029 294.276 216.232 294.396 216.492 294.531C216.763 294.656 217.049 294.766 217.352 294.859C217.654 294.943 217.935 294.984 218.195 294.984C218.685 294.984 219.07 294.875 219.352 294.656C219.643 294.438 219.789 294.167 219.789 293.844C219.789 293.594 219.69 293.396 219.492 293.25C219.305 293.104 219.029 292.964 218.664 292.828L217.508 292.406C216.904 292.177 216.503 291.891 216.305 291.547C216.107 291.193 216.008 290.792 216.008 290.344C216.008 289.677 216.258 289.125 216.758 288.688C217.258 288.25 217.924 288.031 218.758 288.031ZM225.273 285.938V288.188H227.555V289.391H225.273V293.969C225.273 294.292 225.357 294.547 225.523 294.734C225.69 294.922 225.945 295.016 226.289 295.016C226.602 295.016 226.862 294.979 227.07 294.906C227.279 294.823 227.461 294.734 227.617 294.641V295.688C227.409 295.854 227.185 295.984 226.945 296.078C226.716 296.182 226.404 296.234 226.008 296.234C225.341 296.234 224.836 296.036 224.492 295.641C224.159 295.234 223.992 294.698 223.992 294.031V289.391H222.492V289.016C223.003 288.786 223.43 288.411 223.773 287.891C224.117 287.359 224.419 286.708 224.68 285.938H225.273ZM236.727 285.938V288.188H239.008V289.391H236.727V293.969C236.727 294.292 236.81 294.547 236.977 294.734C237.143 294.922 237.398 295.016 237.742 295.016C238.055 295.016 238.315 294.979 238.523 294.906C238.732 294.823 238.914 294.734 239.07 294.641V295.688C238.862 295.854 238.638 295.984 238.398 296.078C238.169 296.182 237.857 296.234 237.461 296.234C236.794 296.234 236.289 296.036 235.945 295.641C235.612 295.234 235.445 294.698 235.445 294.031V289.391H233.945V289.016C234.456 288.786 234.883 288.411 235.227 287.891C235.57 287.359 235.872 286.708 236.133 285.938H236.727ZM242.586 284.438C242.888 284.438 243.138 284.547 243.336 284.766C243.544 284.974 243.648 285.219 243.648 285.5C243.648 285.771 243.544 286.016 243.336 286.234C243.138 286.453 242.888 286.562 242.586 286.562C242.284 286.562 242.029 286.453 241.82 286.234C241.622 286.016 241.523 285.771 241.523 285.5C241.523 285.219 241.622 284.974 241.82 284.766C242.029 284.547 242.284 284.438 242.586 284.438ZM243.383 288.188V296H242.102V289.391H240.867V288.188H243.383ZM247.43 288.188V289.188C247.68 288.906 247.997 288.646 248.383 288.406C248.779 288.156 249.242 288.031 249.773 288.031C250.336 288.031 250.862 288.167 251.352 288.438C251.841 288.698 252.216 289.094 252.477 289.625C252.841 289.188 253.237 288.812 253.664 288.5C254.091 288.188 254.591 288.031 255.164 288.031C255.695 288.031 256.19 288.151 256.648 288.391C257.117 288.62 257.492 288.974 257.773 289.453C258.065 289.922 258.211 290.516 258.211 291.234V296H256.93L256.914 291.359C256.914 290.682 256.737 290.167 256.383 289.812C256.039 289.458 255.56 289.281 254.945 289.281C254.497 289.281 254.107 289.422 253.773 289.703C253.44 289.984 253.122 290.312 252.82 290.688V296H251.539L251.523 291.359C251.523 290.682 251.346 290.167 250.992 289.812C250.648 289.458 250.169 289.281 249.555 289.281C249.128 289.281 248.737 289.406 248.383 289.656C248.039 289.906 247.721 290.208 247.43 290.562V296H246.148V288.188H247.43ZM263.852 288.031C264.654 288.031 265.32 288.198 265.852 288.531C266.383 288.865 266.779 289.318 267.039 289.891C267.31 290.464 267.445 291.109 267.445 291.828V292.594H261.445C261.508 293.031 261.659 293.432 261.898 293.797C262.138 294.161 262.451 294.453 262.836 294.672C263.221 294.88 263.664 294.984 264.164 294.984C264.727 294.984 265.253 294.844 265.742 294.562C266.232 294.271 266.643 293.953 266.977 293.609L266.961 295C266.815 295.177 266.596 295.365 266.305 295.562C266.023 295.75 265.695 295.906 265.32 296.031C264.956 296.167 264.57 296.234 264.164 296.234C263.372 296.234 262.669 296.047 262.055 295.672C261.44 295.297 260.956 294.802 260.602 294.188C260.258 293.562 260.086 292.88 260.086 292.141C260.086 291.401 260.247 290.719 260.57 290.094C260.893 289.469 261.336 288.969 261.898 288.594C262.471 288.219 263.122 288.031 263.852 288.031ZM263.852 289.281C263.206 289.281 262.674 289.5 262.258 289.938C261.841 290.365 261.581 290.885 261.477 291.5H266.18C266.128 290.99 265.982 290.573 265.742 290.25C265.513 289.927 265.232 289.688 264.898 289.531C264.565 289.365 264.216 289.281 263.852 289.281ZM128.492 307.031C129.023 307.031 129.508 307.151 129.945 307.391C130.383 307.62 130.732 307.974 130.992 308.453C131.253 308.922 131.383 309.516 131.383 310.234V315H130.102L130.086 310.359C130.086 309.682 129.935 309.167 129.633 308.812C129.341 308.458 128.888 308.281 128.273 308.281C127.857 308.281 127.44 308.438 127.023 308.75C126.617 309.052 126.258 309.406 125.945 309.812V315H124.664V303.75H125.945V308.422C126.112 308.214 126.326 308.005 126.586 307.797C126.846 307.578 127.138 307.396 127.461 307.25C127.794 307.104 128.138 307.031 128.492 307.031ZM137.023 307.031C137.471 307.031 137.924 307.141 138.383 307.359C138.852 307.568 139.253 307.859 139.586 308.234V307.188H140.867V315H139.586V313.672C139.315 314.089 138.945 314.453 138.477 314.766C138.018 315.078 137.492 315.234 136.898 315.234C136.232 315.234 135.622 315.068 135.07 314.734C134.518 314.391 134.076 313.917 133.742 313.312C133.419 312.708 133.258 312.01 133.258 311.219C133.258 310.354 133.419 309.609 133.742 308.984C134.076 308.359 134.529 307.88 135.102 307.547C135.674 307.203 136.315 307.031 137.023 307.031ZM137.258 308.281C136.695 308.281 136.216 308.422 135.82 308.703C135.424 308.984 135.117 309.349 134.898 309.797C134.69 310.234 134.586 310.708 134.586 311.219C134.586 311.719 134.69 312.182 134.898 312.609C135.107 313.026 135.398 313.359 135.773 313.609C136.159 313.859 136.602 313.984 137.102 313.984C137.581 313.984 138.008 313.859 138.383 313.609C138.758 313.359 139.055 313.016 139.273 312.578C139.492 312.13 139.596 311.63 139.586 311.078L139.57 309.578C139.247 309.172 138.898 308.854 138.523 308.625C138.159 308.396 137.737 308.281 137.258 308.281ZM147.055 307.031C147.628 307.031 148.122 307.125 148.539 307.312C148.956 307.49 149.242 307.651 149.398 307.797V309.094C149.107 308.875 148.773 308.688 148.398 308.531C148.023 308.365 147.576 308.281 147.055 308.281C146.503 308.281 146.018 308.417 145.602 308.688C145.185 308.948 144.862 309.297 144.633 309.734C144.414 310.161 144.305 310.63 144.305 311.141C144.305 311.641 144.414 312.109 144.633 312.547C144.862 312.974 145.185 313.323 145.602 313.594C146.018 313.854 146.503 313.984 147.055 313.984C147.576 313.984 148.023 313.906 148.398 313.75C148.773 313.583 149.107 313.391 149.398 313.172V314.469C149.242 314.625 148.956 314.792 148.539 314.969C148.122 315.146 147.628 315.234 147.055 315.234C146.263 315.234 145.56 315.047 144.945 314.672C144.331 314.297 143.846 313.802 143.492 313.188C143.148 312.562 142.977 311.88 142.977 311.141C142.977 310.401 143.148 309.719 143.492 309.094C143.846 308.469 144.331 307.969 144.945 307.594C145.56 307.219 146.263 307.031 147.055 307.031ZM158.414 307.188L154.789 310.594L158.617 315H156.992L153.898 311.438L152.789 312.469V315H151.508V303.75H152.789V311L156.68 307.188H158.414ZM162.773 307.031C163.576 307.031 164.242 307.198 164.773 307.531C165.305 307.865 165.701 308.318 165.961 308.891C166.232 309.464 166.367 310.109 166.367 310.828V311.594H160.367C160.43 312.031 160.581 312.432 160.82 312.797C161.06 313.161 161.372 313.453 161.758 313.672C162.143 313.88 162.586 313.984 163.086 313.984C163.648 313.984 164.174 313.844 164.664 313.562C165.154 313.271 165.565 312.953 165.898 312.609L165.883 314C165.737 314.177 165.518 314.365 165.227 314.562C164.945 314.75 164.617 314.906 164.242 315.031C163.878 315.167 163.492 315.234 163.086 315.234C162.294 315.234 161.591 315.047 160.977 314.672C160.362 314.297 159.878 313.802 159.523 313.188C159.18 312.562 159.008 311.88 159.008 311.141C159.008 310.401 159.169 309.719 159.492 309.094C159.815 308.469 160.258 307.969 160.82 307.594C161.393 307.219 162.044 307.031 162.773 307.031ZM162.773 308.281C162.128 308.281 161.596 308.5 161.18 308.938C160.763 309.365 160.503 309.885 160.398 310.5H165.102C165.049 309.99 164.904 309.573 164.664 309.25C164.435 308.927 164.154 308.688 163.82 308.531C163.487 308.365 163.138 308.281 162.773 308.281ZM169.758 307.188V308.75C170.06 308.229 170.424 307.812 170.852 307.5C171.279 307.188 171.716 307.031 172.164 307.031C172.466 307.031 172.737 307.083 172.977 307.188V308.672C172.643 308.474 172.31 308.375 171.977 308.375C171.445 308.375 171.013 308.562 170.68 308.938C170.357 309.312 170.049 309.76 169.758 310.281V315H168.477V307.188H169.758ZM176.945 307.031C177.404 307.031 177.831 307.099 178.227 307.234C178.622 307.359 178.909 307.49 179.086 307.625V309C178.867 308.833 178.57 308.672 178.195 308.516C177.82 308.359 177.435 308.281 177.039 308.281C176.549 308.281 176.18 308.396 175.93 308.625C175.69 308.854 175.57 309.094 175.57 309.344C175.57 309.542 175.638 309.745 175.773 309.953C175.919 310.151 176.169 310.312 176.523 310.438L177.836 310.906C178.346 311.083 178.727 311.339 178.977 311.672C179.227 312.005 179.352 312.396 179.352 312.844C179.352 313.281 179.227 313.682 178.977 314.047C178.737 314.411 178.398 314.703 177.961 314.922C177.534 315.13 177.039 315.234 176.477 315.234C176.174 315.234 175.857 315.193 175.523 315.109C175.201 315.036 174.909 314.948 174.648 314.844C174.388 314.729 174.195 314.63 174.07 314.547V313.172C174.216 313.276 174.419 313.396 174.68 313.531C174.951 313.656 175.237 313.766 175.539 313.859C175.841 313.943 176.122 313.984 176.383 313.984C176.872 313.984 177.258 313.875 177.539 313.656C177.831 313.438 177.977 313.167 177.977 312.844C177.977 312.594 177.878 312.396 177.68 312.25C177.492 312.104 177.216 311.964 176.852 311.828L175.695 311.406C175.091 311.177 174.69 310.891 174.492 310.547C174.294 310.193 174.195 309.792 174.195 309.344C174.195 308.677 174.445 308.125 174.945 307.688C175.445 307.25 176.112 307.031 176.945 307.031ZM182.32 313.094C182.622 313.094 182.878 313.203 183.086 313.422C183.305 313.63 183.414 313.885 183.414 314.188C183.414 314.479 183.305 314.734 183.086 314.953C182.878 315.172 182.622 315.281 182.32 315.281C182.018 315.281 181.758 315.172 181.539 314.953C181.331 314.734 181.227 314.479 181.227 314.188C181.227 313.885 181.331 313.63 181.539 313.422C181.758 313.203 182.018 313.094 182.32 313.094Z" fill="white"/>
</svg>
