<svg width="302" height="391" viewBox="0 0 302 391" fill="none" xmlns="http://www.w3.org/2000/svg">
<rect x="1.5" y="1" width="299" height="389" rx="9" fill="#132A3E"/>
<rect x="1.5" y="1" width="299" height="389" rx="9" stroke="#254D70" stroke-width="2"/>
<path d="M141.5 135C122.17 135 106.5 119.33 106.5 100C106.5 80.67 122.17 65 141.5 65C160.83 65 176.5 80.67 176.5 100" stroke="#EDC8FA" stroke-width="4" stroke-linejoin="round"/>
<path d="M204 100H139V165H204V100Z" fill="#EDC8FA" stroke="#EDC8FA" stroke-width="4" stroke-linejoin="round"/>
<path d="M93.9531 187.922C95.1719 187.922 96.2344 188.117 97.1406 188.508C98.0469 188.883 98.75 189.406 99.25 190.078C99.7656 190.75 100.023 191.523 100.023 192.398C100.023 193.18 99.8125 193.875 99.3906 194.484C98.9844 195.094 98.4688 195.562 97.8438 195.891C98.3125 196.016 98.7656 196.227 99.2031 196.523C99.6406 196.805 100 197.188 100.281 197.672C100.562 198.141 100.703 198.742 100.703 199.477C100.703 200.352 100.438 201.156 99.9062 201.891C99.375 202.609 98.6328 203.188 97.6797 203.625C96.7266 204.062 95.6172 204.281 94.3516 204.281C93.6641 204.281 92.9219 204.25 92.125 204.188C91.3281 204.141 90.5703 204.07 89.8516 203.977C89.1328 203.867 88.5234 203.758 88.0234 203.648V188.508C88.8984 188.32 89.8438 188.18 90.8594 188.086C91.875 187.977 92.9062 187.922 93.9531 187.922ZM93.9531 190.898C92.9531 190.898 92.0625 190.977 91.2812 191.133V194.93H94.2109C95.0078 194.93 95.6328 194.734 96.0859 194.344C96.5547 193.953 96.7891 193.453 96.7891 192.844C96.7891 192.219 96.5078 191.742 95.9453 191.414C95.3984 191.07 94.7344 190.898 93.9531 190.898ZM91.2812 201.07C91.7188 201.18 92.2188 201.258 92.7812 201.305C93.3594 201.336 93.8203 201.352 94.1641 201.352C95.0703 201.352 95.8125 201.172 96.3906 200.812C96.9844 200.453 97.2812 199.945 97.2812 199.289C97.2812 198.633 96.9766 198.148 96.3672 197.836C95.7578 197.508 95.0234 197.344 94.1641 197.344H91.2812V201.07ZM108.977 191.859C110.133 191.859 111.125 192.109 111.953 192.609C112.797 193.109 113.438 193.805 113.875 194.695C114.328 195.57 114.555 196.586 114.555 197.742V199.008H105.977C106.133 199.805 106.523 200.445 107.148 200.93C107.773 201.414 108.539 201.656 109.445 201.656C110.305 201.656 111.086 201.484 111.789 201.141C112.492 200.797 113.055 200.445 113.477 200.086L113.453 202.852C113.078 203.18 112.516 203.516 111.766 203.859C111.031 204.188 110.219 204.352 109.328 204.352C108.156 204.352 107.086 204.086 106.117 203.555C105.164 203.023 104.398 202.297 103.82 201.375C103.258 200.453 102.977 199.398 102.977 198.211C102.977 197.055 103.234 196 103.75 195.047C104.266 194.094 104.977 193.328 105.883 192.75C106.789 192.156 107.82 191.859 108.977 191.859ZM108.906 194.461C108.172 194.461 107.555 194.688 107.055 195.141C106.555 195.594 106.211 196.203 106.023 196.969H111.695C111.633 196.125 111.32 195.5 110.758 195.094C110.195 194.672 109.578 194.461 108.906 194.461ZM121.094 191.859C121.828 191.859 122.508 191.969 123.133 192.188C123.758 192.406 124.242 192.656 124.586 192.938V195.562C124.211 195.312 123.75 195.07 123.203 194.836C122.672 194.602 122.117 194.484 121.539 194.484C120.977 194.484 120.531 194.609 120.203 194.859C119.875 195.109 119.711 195.406 119.711 195.75C119.711 196 119.805 196.234 119.992 196.453C120.18 196.656 120.539 196.836 121.07 196.992L122.406 197.438C124.203 197.969 125.102 199.008 125.102 200.555C125.102 201.289 124.891 201.945 124.469 202.523C124.062 203.086 123.508 203.531 122.805 203.859C122.117 204.188 121.352 204.352 120.508 204.352C119.711 204.352 118.938 204.227 118.188 203.977C117.438 203.727 116.867 203.453 116.477 203.156V200.555C116.773 200.758 117.133 200.953 117.555 201.141C117.977 201.328 118.414 201.484 118.867 201.609C119.32 201.719 119.734 201.773 120.109 201.773C120.703 201.773 121.156 201.672 121.469 201.469C121.797 201.25 121.961 200.945 121.961 200.555C121.961 200.258 121.828 200.023 121.562 199.852C121.297 199.68 120.906 199.508 120.391 199.336L118.938 198.82C118.031 198.523 117.406 198.102 117.062 197.555C116.719 197.008 116.547 196.359 116.547 195.609C116.547 194.859 116.734 194.211 117.109 193.664C117.5 193.102 118.039 192.664 118.727 192.352C119.414 192.023 120.203 191.859 121.094 191.859ZM131.922 188.719V192.164H135.203V194.648H131.922V199.758C131.922 200.289 132.039 200.711 132.273 201.023C132.523 201.32 132.891 201.469 133.375 201.469C133.797 201.469 134.156 201.422 134.453 201.328C134.766 201.234 135.055 201.102 135.32 200.93V203.297C135.023 203.594 134.648 203.844 134.195 204.047C133.758 204.25 133.203 204.352 132.531 204.352C131.469 204.352 130.602 204.016 129.93 203.344C129.273 202.656 128.945 201.719 128.945 200.531V194.648H126.812V193.125C127.562 192.859 128.25 192.359 128.875 191.625C129.516 190.891 130.023 189.922 130.398 188.719H131.922ZM152.008 187.922C153.664 187.922 155.117 188.258 156.367 188.93C157.617 189.602 158.586 190.539 159.273 191.742C159.977 192.945 160.328 194.359 160.328 195.984C160.328 197.531 160 198.938 159.344 200.203C158.688 201.453 157.75 202.445 156.531 203.18C155.312 203.914 153.859 204.281 152.172 204.281C151.094 204.281 150.016 204.227 148.938 204.117C147.875 204.008 146.867 203.859 145.914 203.672V188.531C146.883 188.375 147.875 188.234 148.891 188.109C149.906 187.984 150.945 187.922 152.008 187.922ZM152.078 190.969C151.609 190.969 151.117 190.992 150.602 191.039C150.086 191.086 149.609 191.148 149.172 191.227V200.977C149.641 201.07 150.125 201.141 150.625 201.188C151.141 201.219 151.625 201.234 152.078 201.234C153.109 201.234 153.992 201.016 154.727 200.578C155.461 200.125 156.023 199.508 156.414 198.727C156.805 197.945 157 197.07 157 196.102C157 195.102 156.805 194.219 156.414 193.453C156.023 192.688 155.461 192.086 154.727 191.648C153.992 191.195 153.109 190.969 152.078 190.969ZM168.391 191.859C169.547 191.859 170.539 192.109 171.367 192.609C172.211 193.109 172.852 193.805 173.289 194.695C173.742 195.57 173.969 196.586 173.969 197.742V199.008H165.391C165.547 199.805 165.938 200.445 166.562 200.93C167.188 201.414 167.953 201.656 168.859 201.656C169.719 201.656 170.5 201.484 171.203 201.141C171.906 200.797 172.469 200.445 172.891 200.086L172.867 202.852C172.492 203.18 171.93 203.516 171.18 203.859C170.445 204.188 169.633 204.352 168.742 204.352C167.57 204.352 166.5 204.086 165.531 203.555C164.578 203.023 163.812 202.297 163.234 201.375C162.672 200.453 162.391 199.398 162.391 198.211C162.391 197.055 162.648 196 163.164 195.047C163.68 194.094 164.391 193.328 165.297 192.75C166.203 192.156 167.234 191.859 168.391 191.859ZM168.32 194.461C167.586 194.461 166.969 194.688 166.469 195.141C165.969 195.594 165.625 196.203 165.438 196.969H171.109C171.047 196.125 170.734 195.5 170.172 195.094C169.609 194.672 168.992 194.461 168.32 194.461ZM180.508 191.859C181.242 191.859 181.922 191.969 182.547 192.188C183.172 192.406 183.656 192.656 184 192.938V195.562C183.625 195.312 183.164 195.07 182.617 194.836C182.086 194.602 181.531 194.484 180.953 194.484C180.391 194.484 179.945 194.609 179.617 194.859C179.289 195.109 179.125 195.406 179.125 195.75C179.125 196 179.219 196.234 179.406 196.453C179.594 196.656 179.953 196.836 180.484 196.992L181.82 197.438C183.617 197.969 184.516 199.008 184.516 200.555C184.516 201.289 184.305 201.945 183.883 202.523C183.477 203.086 182.922 203.531 182.219 203.859C181.531 204.188 180.766 204.352 179.922 204.352C179.125 204.352 178.352 204.227 177.602 203.977C176.852 203.727 176.281 203.453 175.891 203.156V200.555C176.188 200.758 176.547 200.953 176.969 201.141C177.391 201.328 177.828 201.484 178.281 201.609C178.734 201.719 179.148 201.773 179.523 201.773C180.117 201.773 180.57 201.672 180.883 201.469C181.211 201.25 181.375 200.945 181.375 200.555C181.375 200.258 181.242 200.023 180.977 199.852C180.711 199.68 180.32 199.508 179.805 199.336L178.352 198.82C177.445 198.523 176.82 198.102 176.477 197.555C176.133 197.008 175.961 196.359 175.961 195.609C175.961 194.859 176.148 194.211 176.523 193.664C176.914 193.102 177.453 192.664 178.141 192.352C178.828 192.023 179.617 191.859 180.508 191.859ZM189.531 186C190.094 186 190.578 186.203 190.984 186.609C191.391 187 191.594 187.469 191.594 188.016C191.594 188.547 191.391 189.016 190.984 189.422C190.578 189.828 190.094 190.031 189.531 190.031C188.969 190.031 188.484 189.828 188.078 189.422C187.688 189.016 187.492 188.547 187.492 188.016C187.492 187.469 187.688 187 188.078 186.609C188.484 186.203 188.969 186 189.531 186ZM191.266 192.164V204H188.289V194.695H186.391V192.164H191.266ZM199.703 191.859C200.344 191.859 200.992 192.008 201.648 192.305C202.305 192.602 202.852 193 203.289 193.5V192.164H206.266V203.695C206.266 205.039 205.969 206.172 205.375 207.094C204.781 208.031 203.992 208.742 203.008 209.227C202.023 209.727 200.945 209.977 199.773 209.977C198.727 209.977 197.867 209.82 197.195 209.508C196.523 209.195 195.898 208.836 195.32 208.43V205.617C195.68 205.836 196.055 206.07 196.445 206.32C196.852 206.57 197.305 206.781 197.805 206.953C198.32 207.125 198.914 207.211 199.586 207.211C200.289 207.211 200.922 207.078 201.484 206.812C202.047 206.547 202.484 206.172 202.797 205.688C203.125 205.219 203.289 204.68 203.289 204.07V202.008C202.945 202.648 202.445 203.203 201.789 203.672C201.133 204.125 200.367 204.352 199.492 204.352C198.539 204.352 197.656 204.109 196.844 203.625C196.047 203.141 195.406 202.438 194.922 201.516C194.438 200.594 194.195 199.477 194.195 198.164C194.195 196.852 194.438 195.727 194.922 194.789C195.422 193.852 196.086 193.133 196.914 192.633C197.758 192.117 198.688 191.859 199.703 191.859ZM200.312 194.789C199.688 194.789 199.148 194.953 198.695 195.281C198.258 195.594 197.914 196.008 197.664 196.523C197.414 197.023 197.289 197.57 197.289 198.164C197.289 199.055 197.555 199.812 198.086 200.438C198.633 201.047 199.352 201.352 200.242 201.352C200.773 201.352 201.266 201.219 201.719 200.953C202.188 200.672 202.562 200.281 202.844 199.781C203.141 199.266 203.289 198.648 203.289 197.93V196.242C202.867 195.789 202.406 195.438 201.906 195.188C201.422 194.922 200.891 194.789 200.312 194.789ZM212.898 192.164V193.852C213.258 193.367 213.742 192.914 214.352 192.492C214.977 192.07 215.688 191.859 216.484 191.859C217.688 191.859 218.695 192.266 219.508 193.078C220.32 193.891 220.727 195.109 220.727 196.734V204H217.75L217.727 197.133C217.727 196.336 217.531 195.742 217.141 195.352C216.766 194.961 216.242 194.766 215.57 194.766C215.039 194.766 214.539 194.938 214.07 195.281C213.617 195.625 213.227 196.031 212.898 196.5V204H209.922V192.164H212.898Z" fill="white"/>
<path d="M86.9375 246.75V258H85.6562V256.672C85.3854 257.089 85.0156 257.453 84.5469 257.766C84.0885 258.078 83.5625 258.234 82.9688 258.234C82.3021 258.234 81.6927 258.068 81.1406 257.734C80.5885 257.391 80.1458 256.917 79.8125 256.312C79.4896 255.708 79.3281 255.01 79.3281 254.219C79.3281 253.354 79.4896 252.609 79.8125 251.984C80.1458 251.359 80.599 250.88 81.1719 250.547C81.7448 250.203 82.3854 250.031 83.0938 250.031C83.5417 250.031 83.9948 250.141 84.4531 250.359C84.9219 250.568 85.3229 250.859 85.6562 251.234V246.75H86.9375ZM83.3281 251.312C82.7656 251.312 82.2865 251.453 81.8906 251.734C81.4948 252.005 81.1875 252.359 80.9688 252.797C80.7604 253.234 80.6562 253.708 80.6562 254.219C80.6562 254.719 80.7604 255.182 80.9688 255.609C81.1771 256.026 81.4688 256.359 81.8438 256.609C82.2292 256.859 82.6719 256.984 83.1719 256.984C83.651 256.984 84.0781 256.859 84.4531 256.609C84.8281 256.359 85.125 256.016 85.3438 255.578C85.5625 255.13 85.6667 254.63 85.6562 254.078L85.6406 252.578C85.3177 252.172 84.9688 251.859 84.5938 251.641C84.2292 251.422 83.8073 251.312 83.3281 251.312ZM92.8125 250.031C93.6146 250.031 94.2812 250.198 94.8125 250.531C95.3438 250.865 95.7396 251.318 96 251.891C96.2708 252.464 96.4062 253.109 96.4062 253.828V254.594H90.4062C90.4688 255.031 90.6198 255.432 90.8594 255.797C91.099 256.161 91.4115 256.453 91.7969 256.672C92.1823 256.88 92.625 256.984 93.125 256.984C93.6875 256.984 94.2135 256.844 94.7031 256.562C95.1927 256.271 95.6042 255.953 95.9375 255.609L95.9219 257C95.776 257.177 95.5573 257.365 95.2656 257.562C94.9844 257.75 94.6562 257.906 94.2812 258.031C93.9167 258.167 93.5312 258.234 93.125 258.234C92.3333 258.234 91.6302 258.047 91.0156 257.672C90.401 257.297 89.9167 256.802 89.5625 256.188C89.2188 255.562 89.0469 254.88 89.0469 254.141C89.0469 253.401 89.2083 252.719 89.5312 252.094C89.8542 251.469 90.2969 250.969 90.8594 250.594C91.4323 250.219 92.0833 250.031 92.8125 250.031ZM92.8125 251.281C92.1667 251.281 91.6354 251.5 91.2188 251.938C90.8021 252.365 90.5417 252.885 90.4375 253.5H95.1406C95.0885 252.99 94.9427 252.573 94.7031 252.25C94.474 251.927 94.1927 251.688 93.8594 251.531C93.526 251.365 93.1771 251.281 92.8125 251.281ZM105.406 250.188L101.734 258H100.938L97.4219 250.188H98.9531L101.312 255.938L103.875 250.188H105.406ZM110.031 250.031C110.833 250.031 111.5 250.198 112.031 250.531C112.562 250.865 112.958 251.318 113.219 251.891C113.49 252.464 113.625 253.109 113.625 253.828V254.594H107.625C107.688 255.031 107.839 255.432 108.078 255.797C108.318 256.161 108.63 256.453 109.016 256.672C109.401 256.88 109.844 256.984 110.344 256.984C110.906 256.984 111.432 256.844 111.922 256.562C112.411 256.271 112.823 255.953 113.156 255.609L113.141 257C112.995 257.177 112.776 257.365 112.484 257.562C112.203 257.75 111.875 257.906 111.5 258.031C111.135 258.167 110.75 258.234 110.344 258.234C109.552 258.234 108.849 258.047 108.234 257.672C107.62 257.297 107.135 256.802 106.781 256.188C106.438 255.562 106.266 254.88 106.266 254.141C106.266 253.401 106.427 252.719 106.75 252.094C107.073 251.469 107.516 250.969 108.078 250.594C108.651 250.219 109.302 250.031 110.031 250.031ZM110.031 251.281C109.385 251.281 108.854 251.5 108.438 251.938C108.021 252.365 107.76 252.885 107.656 253.5H112.359C112.307 252.99 112.161 252.573 111.922 252.25C111.693 251.927 111.411 251.688 111.078 251.531C110.745 251.365 110.396 251.281 110.031 251.281ZM117.016 246.75V258H115.734V246.75H117.016ZM123.203 250.031C123.995 250.031 124.698 250.219 125.312 250.594C125.927 250.969 126.406 251.469 126.75 252.094C127.104 252.719 127.281 253.401 127.281 254.141C127.281 254.88 127.104 255.562 126.75 256.188C126.406 256.802 125.927 257.297 125.312 257.672C124.698 258.047 123.995 258.234 123.203 258.234C122.411 258.234 121.708 258.047 121.094 257.672C120.479 257.297 119.995 256.802 119.641 256.188C119.297 255.562 119.125 254.88 119.125 254.141C119.125 253.401 119.297 252.719 119.641 252.094C119.995 251.469 120.479 250.969 121.094 250.594C121.708 250.219 122.411 250.031 123.203 250.031ZM123.203 251.281C122.651 251.281 122.167 251.417 121.75 251.688C121.333 251.948 121.01 252.297 120.781 252.734C120.562 253.161 120.453 253.63 120.453 254.141C120.453 254.641 120.562 255.109 120.781 255.547C121.01 255.974 121.333 256.323 121.75 256.594C122.167 256.854 122.651 256.984 123.203 256.984C123.766 256.984 124.25 256.854 124.656 256.594C125.073 256.323 125.391 255.974 125.609 255.547C125.839 255.109 125.953 254.641 125.953 254.141C125.953 253.63 125.839 253.161 125.609 252.734C125.391 252.297 125.073 251.948 124.656 251.688C124.25 251.417 123.766 251.281 123.203 251.281ZM133.359 250.031C134.036 250.031 134.646 250.198 135.188 250.531C135.74 250.854 136.177 251.312 136.5 251.906C136.833 252.49 137 253.177 137 253.969C137 254.823 136.833 255.573 136.5 256.219C136.177 256.854 135.729 257.349 135.156 257.703C134.594 258.057 133.953 258.234 133.234 258.234C132.786 258.234 132.328 258.115 131.859 257.875C131.401 257.635 131.005 257.328 130.672 256.953V261.75H129.391V250.188H130.672V251.516C130.943 251.099 131.307 250.75 131.766 250.469C132.234 250.177 132.766 250.031 133.359 250.031ZM133.156 251.281C132.688 251.281 132.26 251.401 131.875 251.641C131.5 251.88 131.203 252.214 130.984 252.641C130.776 253.057 130.672 253.547 130.672 254.109L130.688 255.609C131.021 256.016 131.37 256.349 131.734 256.609C132.099 256.859 132.521 256.984 133 256.984C133.562 256.984 134.042 256.839 134.438 256.547C134.833 256.255 135.135 255.88 135.344 255.422C135.562 254.953 135.672 254.469 135.672 253.969C135.672 253.458 135.568 253.005 135.359 252.609C135.151 252.203 134.859 251.88 134.484 251.641C134.109 251.401 133.667 251.281 133.156 251.281ZM147.016 250.031C147.464 250.031 147.917 250.141 148.375 250.359C148.844 250.568 149.245 250.859 149.578 251.234V250.188H150.859V258H149.578V256.672C149.307 257.089 148.938 257.453 148.469 257.766C148.01 258.078 147.484 258.234 146.891 258.234C146.224 258.234 145.615 258.068 145.062 257.734C144.51 257.391 144.068 256.917 143.734 256.312C143.411 255.708 143.25 255.01 143.25 254.219C143.25 253.354 143.411 252.609 143.734 251.984C144.068 251.359 144.521 250.88 145.094 250.547C145.667 250.203 146.307 250.031 147.016 250.031ZM147.25 251.281C146.688 251.281 146.208 251.422 145.812 251.703C145.417 251.984 145.109 252.349 144.891 252.797C144.682 253.234 144.578 253.708 144.578 254.219C144.578 254.719 144.682 255.182 144.891 255.609C145.099 256.026 145.391 256.359 145.766 256.609C146.151 256.859 146.594 256.984 147.094 256.984C147.573 256.984 148 256.859 148.375 256.609C148.75 256.359 149.047 256.016 149.266 255.578C149.484 255.13 149.589 254.63 149.578 254.078L149.562 252.578C149.24 252.172 148.891 251.854 148.516 251.625C148.151 251.396 147.729 251.281 147.25 251.281ZM162.031 250.031C162.562 250.031 163.047 250.151 163.484 250.391C163.922 250.62 164.271 250.974 164.531 251.453C164.792 251.922 164.922 252.516 164.922 253.234V258H163.641L163.625 253.359C163.625 252.682 163.474 252.167 163.172 251.812C162.88 251.458 162.427 251.281 161.812 251.281C161.396 251.281 160.979 251.438 160.562 251.75C160.156 252.052 159.797 252.406 159.484 252.812V258H158.203V246.75H159.484V251.422C159.651 251.214 159.865 251.005 160.125 250.797C160.385 250.578 160.677 250.396 161 250.25C161.333 250.104 161.677 250.031 162.031 250.031ZM170.562 250.031C171.01 250.031 171.464 250.141 171.922 250.359C172.391 250.568 172.792 250.859 173.125 251.234V250.188H174.406V258H173.125V256.672C172.854 257.089 172.484 257.453 172.016 257.766C171.557 258.078 171.031 258.234 170.438 258.234C169.771 258.234 169.161 258.068 168.609 257.734C168.057 257.391 167.615 256.917 167.281 256.312C166.958 255.708 166.797 255.01 166.797 254.219C166.797 253.354 166.958 252.609 167.281 251.984C167.615 251.359 168.068 250.88 168.641 250.547C169.214 250.203 169.854 250.031 170.562 250.031ZM170.797 251.281C170.234 251.281 169.755 251.422 169.359 251.703C168.964 251.984 168.656 252.349 168.438 252.797C168.229 253.234 168.125 253.708 168.125 254.219C168.125 254.719 168.229 255.182 168.438 255.609C168.646 256.026 168.938 256.359 169.312 256.609C169.698 256.859 170.141 256.984 170.641 256.984C171.12 256.984 171.547 256.859 171.922 256.609C172.297 256.359 172.594 256.016 172.812 255.578C173.031 255.13 173.135 254.63 173.125 254.078L173.109 252.578C172.786 252.172 172.438 251.854 172.062 251.625C171.698 251.396 171.276 251.281 170.797 251.281ZM180.594 250.031C181.167 250.031 181.661 250.125 182.078 250.312C182.495 250.49 182.781 250.651 182.938 250.797V252.094C182.646 251.875 182.312 251.688 181.938 251.531C181.562 251.365 181.115 251.281 180.594 251.281C180.042 251.281 179.557 251.417 179.141 251.688C178.724 251.948 178.401 252.297 178.172 252.734C177.953 253.161 177.844 253.63 177.844 254.141C177.844 254.641 177.953 255.109 178.172 255.547C178.401 255.974 178.724 256.323 179.141 256.594C179.557 256.854 180.042 256.984 180.594 256.984C181.115 256.984 181.562 256.906 181.938 256.75C182.312 256.583 182.646 256.391 182.938 256.172V257.469C182.781 257.625 182.495 257.792 182.078 257.969C181.661 258.146 181.167 258.234 180.594 258.234C179.802 258.234 179.099 258.047 178.484 257.672C177.87 257.297 177.385 256.802 177.031 256.188C176.688 255.562 176.516 254.88 176.516 254.141C176.516 253.401 176.688 252.719 177.031 252.094C177.385 251.469 177.87 250.969 178.484 250.594C179.099 250.219 179.802 250.031 180.594 250.031ZM191.953 250.188L188.328 253.594L192.156 258H190.531L187.438 254.438L186.328 255.469V258H185.047V246.75H186.328V254L190.219 250.188H191.953ZM208.5 250.188L205.766 258H204.969L202.828 252.484L200.688 258H199.891L197.156 250.188H198.688L200.422 255.672L202.469 250.188H203.188L205.234 255.672L206.969 250.188H208.5ZM211.312 246.438C211.615 246.438 211.865 246.547 212.062 246.766C212.271 246.974 212.375 247.219 212.375 247.5C212.375 247.771 212.271 248.016 212.062 248.234C211.865 248.453 211.615 248.562 211.312 248.562C211.01 248.562 210.755 248.453 210.547 248.234C210.349 248.016 210.25 247.771 210.25 247.5C210.25 247.219 210.349 246.974 210.547 246.766C210.755 246.547 211.01 246.438 211.312 246.438ZM212.109 250.188V258H210.828V251.391H209.594V250.188H212.109ZM217.031 247.938V250.188H219.312V251.391H217.031V255.969C217.031 256.292 217.115 256.547 217.281 256.734C217.448 256.922 217.703 257.016 218.047 257.016C218.359 257.016 218.62 256.979 218.828 256.906C219.036 256.823 219.219 256.734 219.375 256.641V257.688C219.167 257.854 218.943 257.984 218.703 258.078C218.474 258.182 218.161 258.234 217.766 258.234C217.099 258.234 216.594 258.036 216.25 257.641C215.917 257.234 215.75 256.698 215.75 256.031V251.391H214.25V251.016C214.76 250.786 215.188 250.411 215.531 249.891C215.875 249.359 216.177 248.708 216.438 247.938H217.031ZM225.469 250.031C226 250.031 226.484 250.151 226.922 250.391C227.359 250.62 227.708 250.974 227.969 251.453C228.229 251.922 228.359 252.516 228.359 253.234V258H227.078L227.062 253.359C227.062 252.682 226.911 252.167 226.609 251.812C226.318 251.458 225.865 251.281 225.25 251.281C224.833 251.281 224.417 251.438 224 251.75C223.594 252.052 223.234 252.406 222.922 252.812V258H221.641V246.75H222.922V251.422C223.089 251.214 223.302 251.005 223.562 250.797C223.823 250.578 224.115 250.396 224.438 250.25C224.771 250.104 225.115 250.031 225.469 250.031ZM70.3828 265.438C70.6849 265.438 70.9349 265.547 71.1328 265.766C71.3411 265.974 71.4453 266.219 71.4453 266.5C71.4453 266.771 71.3411 267.016 71.1328 267.234C70.9349 267.453 70.6849 267.562 70.3828 267.562C70.0807 267.562 69.8255 267.453 69.6172 267.234C69.4193 267.016 69.3203 266.771 69.3203 266.5C69.3203 266.219 69.4193 265.974 69.6172 265.766C69.8255 265.547 70.0807 265.438 70.3828 265.438ZM71.1797 269.188V277H69.8984V270.391H68.6641V269.188H71.1797ZM75.2266 269.188V270.422C75.3932 270.214 75.6068 270.005 75.8672 269.797C76.1276 269.578 76.4193 269.396 76.7422 269.25C77.0755 269.104 77.4193 269.031 77.7734 269.031C78.3047 269.031 78.7891 269.151 79.2266 269.391C79.6641 269.62 80.013 269.974 80.2734 270.453C80.5339 270.922 80.6641 271.516 80.6641 272.234V277H79.3828L79.3672 272.359C79.3672 271.682 79.2161 271.167 78.9141 270.812C78.6224 270.458 78.1693 270.281 77.5547 270.281C77.138 270.281 76.7214 270.438 76.3047 270.75C75.8984 271.052 75.5391 271.406 75.2266 271.812V277H73.9453V269.188H75.2266ZM84.3672 269.188V270.422C84.5339 270.214 84.7474 270.005 85.0078 269.797C85.2682 269.578 85.5599 269.396 85.8828 269.25C86.2161 269.104 86.5599 269.031 86.9141 269.031C87.4453 269.031 87.9297 269.151 88.3672 269.391C88.8047 269.62 89.1536 269.974 89.4141 270.453C89.6745 270.922 89.8047 271.516 89.8047 272.234V277H88.5234L88.5078 272.359C88.5078 271.682 88.3568 271.167 88.0547 270.812C87.763 270.458 87.3099 270.281 86.6953 270.281C86.2786 270.281 85.862 270.438 85.4453 270.75C85.0391 271.052 84.6797 271.406 84.3672 271.812V277H83.0859V269.188H84.3672ZM95.7578 269.031C96.5495 269.031 97.2526 269.219 97.8672 269.594C98.4818 269.969 98.9609 270.469 99.3047 271.094C99.6589 271.719 99.8359 272.401 99.8359 273.141C99.8359 273.88 99.6589 274.562 99.3047 275.188C98.9609 275.802 98.4818 276.297 97.8672 276.672C97.2526 277.047 96.5495 277.234 95.7578 277.234C94.9661 277.234 94.263 277.047 93.6484 276.672C93.0339 276.297 92.5495 275.802 92.1953 275.188C91.8516 274.562 91.6797 273.88 91.6797 273.141C91.6797 272.401 91.8516 271.719 92.1953 271.094C92.5495 270.469 93.0339 269.969 93.6484 269.594C94.263 269.219 94.9661 269.031 95.7578 269.031ZM95.7578 270.281C95.2057 270.281 94.7214 270.417 94.3047 270.688C93.888 270.948 93.5651 271.297 93.3359 271.734C93.1172 272.161 93.0078 272.63 93.0078 273.141C93.0078 273.641 93.1172 274.109 93.3359 274.547C93.5651 274.974 93.888 275.323 94.3047 275.594C94.7214 275.854 95.2057 275.984 95.7578 275.984C96.3203 275.984 96.8047 275.854 97.2109 275.594C97.6276 275.323 97.9453 274.974 98.1641 274.547C98.3932 274.109 98.5078 273.641 98.5078 273.141C98.5078 272.63 98.3932 272.161 98.1641 271.734C97.9453 271.297 97.6276 270.948 97.2109 270.688C96.8047 270.417 96.3203 270.281 95.7578 270.281ZM108.523 269.188L104.852 277H104.055L100.539 269.188H102.07L104.43 274.938L106.992 269.188H108.523ZM112.992 269.031C113.44 269.031 113.893 269.141 114.352 269.359C114.82 269.568 115.221 269.859 115.555 270.234V269.188H116.836V277H115.555V275.672C115.284 276.089 114.914 276.453 114.445 276.766C113.987 277.078 113.461 277.234 112.867 277.234C112.201 277.234 111.591 277.068 111.039 276.734C110.487 276.391 110.044 275.917 109.711 275.312C109.388 274.708 109.227 274.01 109.227 273.219C109.227 272.354 109.388 271.609 109.711 270.984C110.044 270.359 110.497 269.88 111.07 269.547C111.643 269.203 112.284 269.031 112.992 269.031ZM113.227 270.281C112.664 270.281 112.185 270.422 111.789 270.703C111.393 270.984 111.086 271.349 110.867 271.797C110.659 272.234 110.555 272.708 110.555 273.219C110.555 273.719 110.659 274.182 110.867 274.609C111.076 275.026 111.367 275.359 111.742 275.609C112.128 275.859 112.57 275.984 113.07 275.984C113.549 275.984 113.977 275.859 114.352 275.609C114.727 275.359 115.023 275.016 115.242 274.578C115.461 274.13 115.565 273.63 115.555 273.078L115.539 271.578C115.216 271.172 114.867 270.854 114.492 270.625C114.128 270.396 113.706 270.281 113.227 270.281ZM121.648 266.938V269.188H123.93V270.391H121.648V274.969C121.648 275.292 121.732 275.547 121.898 275.734C122.065 275.922 122.32 276.016 122.664 276.016C122.977 276.016 123.237 275.979 123.445 275.906C123.654 275.823 123.836 275.734 123.992 275.641V276.688C123.784 276.854 123.56 276.984 123.32 277.078C123.091 277.182 122.779 277.234 122.383 277.234C121.716 277.234 121.211 277.036 120.867 276.641C120.534 276.234 120.367 275.698 120.367 275.031V270.391H118.867V270.016C119.378 269.786 119.805 269.411 120.148 268.891C120.492 268.359 120.794 267.708 121.055 266.938H121.648ZM127.508 265.438C127.81 265.438 128.06 265.547 128.258 265.766C128.466 265.974 128.57 266.219 128.57 266.5C128.57 266.771 128.466 267.016 128.258 267.234C128.06 267.453 127.81 267.562 127.508 267.562C127.206 267.562 126.951 267.453 126.742 267.234C126.544 267.016 126.445 266.771 126.445 266.5C126.445 266.219 126.544 265.974 126.742 265.766C126.951 265.547 127.206 265.438 127.508 265.438ZM128.305 269.188V277H127.023V270.391H125.789V269.188H128.305ZM137.961 269.188L134.289 277H133.492L129.977 269.188H131.508L133.867 274.938L136.43 269.188H137.961ZM142.586 269.031C143.388 269.031 144.055 269.198 144.586 269.531C145.117 269.865 145.513 270.318 145.773 270.891C146.044 271.464 146.18 272.109 146.18 272.828V273.594H140.18C140.242 274.031 140.393 274.432 140.633 274.797C140.872 275.161 141.185 275.453 141.57 275.672C141.956 275.88 142.398 275.984 142.898 275.984C143.461 275.984 143.987 275.844 144.477 275.562C144.966 275.271 145.378 274.953 145.711 274.609L145.695 276C145.549 276.177 145.331 276.365 145.039 276.562C144.758 276.75 144.43 276.906 144.055 277.031C143.69 277.167 143.305 277.234 142.898 277.234C142.107 277.234 141.404 277.047 140.789 276.672C140.174 276.297 139.69 275.802 139.336 275.188C138.992 274.562 138.82 273.88 138.82 273.141C138.82 272.401 138.982 271.719 139.305 271.094C139.628 270.469 140.07 269.969 140.633 269.594C141.206 269.219 141.857 269.031 142.586 269.031ZM142.586 270.281C141.94 270.281 141.409 270.5 140.992 270.938C140.576 271.365 140.315 271.885 140.211 272.5H144.914C144.862 271.99 144.716 271.573 144.477 271.25C144.247 270.927 143.966 270.688 143.633 270.531C143.299 270.365 142.951 270.281 142.586 270.281ZM156.195 269.031C156.643 269.031 157.096 269.141 157.555 269.359C158.023 269.568 158.424 269.859 158.758 270.234V269.188H160.039V277H158.758V275.672C158.487 276.089 158.117 276.453 157.648 276.766C157.19 277.078 156.664 277.234 156.07 277.234C155.404 277.234 154.794 277.068 154.242 276.734C153.69 276.391 153.247 275.917 152.914 275.312C152.591 274.708 152.43 274.01 152.43 273.219C152.43 272.354 152.591 271.609 152.914 270.984C153.247 270.359 153.701 269.88 154.273 269.547C154.846 269.203 155.487 269.031 156.195 269.031ZM156.43 270.281C155.867 270.281 155.388 270.422 154.992 270.703C154.596 270.984 154.289 271.349 154.07 271.797C153.862 272.234 153.758 272.708 153.758 273.219C153.758 273.719 153.862 274.182 154.07 274.609C154.279 275.026 154.57 275.359 154.945 275.609C155.331 275.859 155.773 275.984 156.273 275.984C156.753 275.984 157.18 275.859 157.555 275.609C157.93 275.359 158.227 275.016 158.445 274.578C158.664 274.13 158.768 273.63 158.758 273.078L158.742 271.578C158.419 271.172 158.07 270.854 157.695 270.625C157.331 270.396 156.909 270.281 156.43 270.281ZM163.977 269.188V270.422C164.143 270.214 164.357 270.005 164.617 269.797C164.878 269.578 165.169 269.396 165.492 269.25C165.826 269.104 166.169 269.031 166.523 269.031C167.055 269.031 167.539 269.151 167.977 269.391C168.414 269.62 168.763 269.974 169.023 270.453C169.284 270.922 169.414 271.516 169.414 272.234V277H168.133L168.117 272.359C168.117 271.682 167.966 271.167 167.664 270.812C167.372 270.458 166.919 270.281 166.305 270.281C165.888 270.281 165.471 270.438 165.055 270.75C164.648 271.052 164.289 271.406 163.977 271.812V277H162.695V269.188H163.977ZM178.898 265.75V277H177.617V275.672C177.346 276.089 176.977 276.453 176.508 276.766C176.049 277.078 175.523 277.234 174.93 277.234C174.263 277.234 173.654 277.068 173.102 276.734C172.549 276.391 172.107 275.917 171.773 275.312C171.451 274.708 171.289 274.01 171.289 273.219C171.289 272.354 171.451 271.609 171.773 270.984C172.107 270.359 172.56 269.88 173.133 269.547C173.706 269.203 174.346 269.031 175.055 269.031C175.503 269.031 175.956 269.141 176.414 269.359C176.883 269.568 177.284 269.859 177.617 270.234V265.75H178.898ZM175.289 270.312C174.727 270.312 174.247 270.453 173.852 270.734C173.456 271.005 173.148 271.359 172.93 271.797C172.721 272.234 172.617 272.708 172.617 273.219C172.617 273.719 172.721 274.182 172.93 274.609C173.138 275.026 173.43 275.359 173.805 275.609C174.19 275.859 174.633 275.984 175.133 275.984C175.612 275.984 176.039 275.859 176.414 275.609C176.789 275.359 177.086 275.016 177.305 274.578C177.523 274.13 177.628 273.63 177.617 273.078L177.602 271.578C177.279 271.172 176.93 270.859 176.555 270.641C176.19 270.422 175.768 270.312 175.289 270.312ZM193.133 269.188L189.461 277H188.664L185.148 269.188H186.68L189.039 274.938L191.602 269.188H193.133ZM195.945 265.438C196.247 265.438 196.497 265.547 196.695 265.766C196.904 265.974 197.008 266.219 197.008 266.5C197.008 266.771 196.904 267.016 196.695 267.234C196.497 267.453 196.247 267.562 195.945 267.562C195.643 267.562 195.388 267.453 195.18 267.234C194.982 267.016 194.883 266.771 194.883 266.5C194.883 266.219 194.982 265.974 195.18 265.766C195.388 265.547 195.643 265.438 195.945 265.438ZM196.742 269.188V277H195.461V270.391H194.227V269.188H196.742ZM201.836 269.031C202.294 269.031 202.721 269.099 203.117 269.234C203.513 269.359 203.799 269.49 203.977 269.625V271C203.758 270.833 203.461 270.672 203.086 270.516C202.711 270.359 202.326 270.281 201.93 270.281C201.44 270.281 201.07 270.396 200.82 270.625C200.581 270.854 200.461 271.094 200.461 271.344C200.461 271.542 200.529 271.745 200.664 271.953C200.81 272.151 201.06 272.312 201.414 272.438L202.727 272.906C203.237 273.083 203.617 273.339 203.867 273.672C204.117 274.005 204.242 274.396 204.242 274.844C204.242 275.281 204.117 275.682 203.867 276.047C203.628 276.411 203.289 276.703 202.852 276.922C202.424 277.13 201.93 277.234 201.367 277.234C201.065 277.234 200.747 277.193 200.414 277.109C200.091 277.036 199.799 276.948 199.539 276.844C199.279 276.729 199.086 276.63 198.961 276.547V275.172C199.107 275.276 199.31 275.396 199.57 275.531C199.841 275.656 200.128 275.766 200.43 275.859C200.732 275.943 201.013 275.984 201.273 275.984C201.763 275.984 202.148 275.875 202.43 275.656C202.721 275.438 202.867 275.167 202.867 274.844C202.867 274.594 202.768 274.396 202.57 274.25C202.383 274.104 202.107 273.964 201.742 273.828L200.586 273.406C199.982 273.177 199.581 272.891 199.383 272.547C199.185 272.193 199.086 271.792 199.086 271.344C199.086 270.677 199.336 270.125 199.836 269.688C200.336 269.25 201.003 269.031 201.836 269.031ZM212.586 269.188V273.812C212.586 274.5 212.44 275.094 212.148 275.594C211.857 276.094 211.461 276.479 210.961 276.75C210.461 277.021 209.898 277.156 209.273 277.156C208.648 277.156 208.086 277.021 207.586 276.75C207.086 276.479 206.69 276.094 206.398 275.594C206.107 275.094 205.961 274.5 205.961 273.812V269.188H207.289V273.812C207.289 274.49 207.487 275.01 207.883 275.375C208.289 275.729 208.753 275.906 209.273 275.906C209.794 275.906 210.253 275.729 210.648 275.375C211.055 275.01 211.258 274.49 211.258 273.812V269.188H212.586ZM218.227 269.031C218.674 269.031 219.128 269.141 219.586 269.359C220.055 269.568 220.456 269.859 220.789 270.234V269.188H222.07V277H220.789V275.672C220.518 276.089 220.148 276.453 219.68 276.766C219.221 277.078 218.695 277.234 218.102 277.234C217.435 277.234 216.826 277.068 216.273 276.734C215.721 276.391 215.279 275.917 214.945 275.312C214.622 274.708 214.461 274.01 214.461 273.219C214.461 272.354 214.622 271.609 214.945 270.984C215.279 270.359 215.732 269.88 216.305 269.547C216.878 269.203 217.518 269.031 218.227 269.031ZM218.461 270.281C217.898 270.281 217.419 270.422 217.023 270.703C216.628 270.984 216.32 271.349 216.102 271.797C215.893 272.234 215.789 272.708 215.789 273.219C215.789 273.719 215.893 274.182 216.102 274.609C216.31 275.026 216.602 275.359 216.977 275.609C217.362 275.859 217.805 275.984 218.305 275.984C218.784 275.984 219.211 275.859 219.586 275.609C219.961 275.359 220.258 275.016 220.477 274.578C220.695 274.13 220.799 273.63 220.789 273.078L220.773 271.578C220.451 271.172 220.102 270.854 219.727 270.625C219.362 270.396 218.94 270.281 218.461 270.281ZM226.008 265.75V277H224.727V265.75H226.008ZM229.945 265.75V277H228.664V265.75H229.945ZM233.039 269.188L235.773 274.938L238.43 269.188H239.961L234.211 280.75H232.727L234.961 276.531L231.508 269.188H233.039ZM45.1406 288.031C45.5885 288.031 46.0417 288.141 46.5 288.359C46.9688 288.568 47.3698 288.859 47.7031 289.234V288.188H48.9844V296H47.7031V294.672C47.4323 295.089 47.0625 295.453 46.5938 295.766C46.1354 296.078 45.6094 296.234 45.0156 296.234C44.349 296.234 43.7396 296.068 43.1875 295.734C42.6354 295.391 42.1927 294.917 41.8594 294.312C41.5365 293.708 41.375 293.01 41.375 292.219C41.375 291.354 41.5365 290.609 41.8594 289.984C42.1927 289.359 42.6458 288.88 43.2188 288.547C43.7917 288.203 44.4323 288.031 45.1406 288.031ZM45.375 289.281C44.8125 289.281 44.3333 289.422 43.9375 289.703C43.5417 289.984 43.2344 290.349 43.0156 290.797C42.8073 291.234 42.7031 291.708 42.7031 292.219C42.7031 292.719 42.8073 293.182 43.0156 293.609C43.224 294.026 43.5156 294.359 43.8906 294.609C44.276 294.859 44.7188 294.984 45.2188 294.984C45.6979 294.984 46.125 294.859 46.5 294.609C46.875 294.359 47.1719 294.016 47.3906 293.578C47.6094 293.13 47.7135 292.63 47.7031 292.078L47.6875 290.578C47.3646 290.172 47.0156 289.854 46.6406 289.625C46.276 289.396 45.8542 289.281 45.375 289.281ZM55.6094 288.031C56.2865 288.031 56.8958 288.198 57.4375 288.531C57.9896 288.854 58.4271 289.312 58.75 289.906C59.0833 290.49 59.25 291.177 59.25 291.969C59.25 292.823 59.0833 293.573 58.75 294.219C58.4271 294.854 57.9792 295.349 57.4062 295.703C56.8438 296.057 56.2031 296.234 55.4844 296.234C55.0365 296.234 54.5781 296.115 54.1094 295.875C53.651 295.635 53.2552 295.328 52.9219 294.953V299.75H51.6406V288.188H52.9219V289.516C53.1927 289.099 53.5573 288.75 54.0156 288.469C54.4844 288.177 55.0156 288.031 55.6094 288.031ZM55.4062 289.281C54.9375 289.281 54.5104 289.401 54.125 289.641C53.75 289.88 53.4531 290.214 53.2344 290.641C53.026 291.057 52.9219 291.547 52.9219 292.109L52.9375 293.609C53.2708 294.016 53.6198 294.349 53.9844 294.609C54.349 294.859 54.7708 294.984 55.25 294.984C55.8125 294.984 56.2917 294.839 56.6875 294.547C57.0833 294.255 57.3854 293.88 57.5938 293.422C57.8125 292.953 57.9219 292.469 57.9219 291.969C57.9219 291.458 57.8177 291.005 57.6094 290.609C57.401 290.203 57.1094 289.88 56.7344 289.641C56.3594 289.401 55.9167 289.281 55.4062 289.281ZM65.3281 288.031C66.0052 288.031 66.6146 288.198 67.1562 288.531C67.7083 288.854 68.1458 289.312 68.4688 289.906C68.8021 290.49 68.9688 291.177 68.9688 291.969C68.9688 292.823 68.8021 293.573 68.4688 294.219C68.1458 294.854 67.6979 295.349 67.125 295.703C66.5625 296.057 65.9219 296.234 65.2031 296.234C64.7552 296.234 64.2969 296.115 63.8281 295.875C63.3698 295.635 62.974 295.328 62.6406 294.953V299.75H61.3594V288.188H62.6406V289.516C62.9115 289.099 63.276 288.75 63.7344 288.469C64.2031 288.177 64.7344 288.031 65.3281 288.031ZM65.125 289.281C64.6562 289.281 64.2292 289.401 63.8438 289.641C63.4688 289.88 63.1719 290.214 62.9531 290.641C62.7448 291.057 62.6406 291.547 62.6406 292.109L62.6562 293.609C62.9896 294.016 63.3385 294.349 63.7031 294.609C64.0677 294.859 64.4896 294.984 64.9688 294.984C65.5312 294.984 66.0104 294.839 66.4062 294.547C66.8021 294.255 67.1042 293.88 67.3125 293.422C67.5312 292.953 67.6406 292.469 67.6406 291.969C67.6406 291.458 67.5365 291.005 67.3281 290.609C67.1198 290.203 66.8281 289.88 66.4531 289.641C66.0781 289.401 65.6354 289.281 65.125 289.281ZM74.2969 288.031C75.099 288.031 75.7656 288.198 76.2969 288.531C76.8281 288.865 77.224 289.318 77.4844 289.891C77.7552 290.464 77.8906 291.109 77.8906 291.828V292.594H71.8906C71.9531 293.031 72.1042 293.432 72.3438 293.797C72.5833 294.161 72.8958 294.453 73.2812 294.672C73.6667 294.88 74.1094 294.984 74.6094 294.984C75.1719 294.984 75.6979 294.844 76.1875 294.562C76.6771 294.271 77.0885 293.953 77.4219 293.609L77.4062 295C77.2604 295.177 77.0417 295.365 76.75 295.562C76.4688 295.75 76.1406 295.906 75.7656 296.031C75.401 296.167 75.0156 296.234 74.6094 296.234C73.8177 296.234 73.1146 296.047 72.5 295.672C71.8854 295.297 71.401 294.802 71.0469 294.188C70.7031 293.562 70.5312 292.88 70.5312 292.141C70.5312 291.401 70.6927 290.719 71.0156 290.094C71.3385 289.469 71.7812 288.969 72.3438 288.594C72.9167 288.219 73.5677 288.031 74.2969 288.031ZM74.2969 289.281C73.651 289.281 73.1198 289.5 72.7031 289.938C72.2865 290.365 72.026 290.885 71.9219 291.5H76.625C76.5729 290.99 76.4271 290.573 76.1875 290.25C75.9583 289.927 75.6771 289.688 75.3438 289.531C75.0104 289.365 74.6615 289.281 74.2969 289.281ZM83.2188 288.031C83.6667 288.031 84.1198 288.141 84.5781 288.359C85.0469 288.568 85.4479 288.859 85.7812 289.234V288.188H87.0625V296H85.7812V294.672C85.5104 295.089 85.1406 295.453 84.6719 295.766C84.2135 296.078 83.6875 296.234 83.0938 296.234C82.4271 296.234 81.8177 296.068 81.2656 295.734C80.7135 295.391 80.2708 294.917 79.9375 294.312C79.6146 293.708 79.4531 293.01 79.4531 292.219C79.4531 291.354 79.6146 290.609 79.9375 289.984C80.2708 289.359 80.724 288.88 81.2969 288.547C81.8698 288.203 82.5104 288.031 83.2188 288.031ZM83.4531 289.281C82.8906 289.281 82.4115 289.422 82.0156 289.703C81.6198 289.984 81.3125 290.349 81.0938 290.797C80.8854 291.234 80.7812 291.708 80.7812 292.219C80.7812 292.719 80.8854 293.182 81.0938 293.609C81.3021 294.026 81.5938 294.359 81.9688 294.609C82.3542 294.859 82.7969 294.984 83.2969 294.984C83.776 294.984 84.2031 294.859 84.5781 294.609C84.9531 294.359 85.25 294.016 85.4688 293.578C85.6875 293.13 85.7917 292.63 85.7812 292.078L85.7656 290.578C85.4427 290.172 85.0938 289.854 84.7188 289.625C84.3542 289.396 83.9323 289.281 83.4531 289.281ZM91 284.75V296H89.7188V284.75H91ZM94.9062 284.438C95.2083 284.438 95.4583 284.547 95.6562 284.766C95.8646 284.974 95.9688 285.219 95.9688 285.5C95.9688 285.771 95.8646 286.016 95.6562 286.234C95.4583 286.453 95.2083 286.562 94.9062 286.562C94.6042 286.562 94.349 286.453 94.1406 286.234C93.9427 286.016 93.8438 285.771 93.8438 285.5C93.8438 285.219 93.9427 284.974 94.1406 284.766C94.349 284.547 94.6042 284.438 94.9062 284.438ZM95.7031 288.188V296H94.4219V289.391H93.1875V288.188H95.7031ZM99.75 288.188V289.422C99.9167 289.214 100.13 289.005 100.391 288.797C100.651 288.578 100.943 288.396 101.266 288.25C101.599 288.104 101.943 288.031 102.297 288.031C102.828 288.031 103.312 288.151 103.75 288.391C104.188 288.62 104.536 288.974 104.797 289.453C105.057 289.922 105.188 290.516 105.188 291.234V296H103.906L103.891 291.359C103.891 290.682 103.74 290.167 103.438 289.812C103.146 289.458 102.693 289.281 102.078 289.281C101.661 289.281 101.245 289.438 100.828 289.75C100.422 290.052 100.062 290.406 99.75 290.812V296H98.4688V288.188H99.75ZM110.828 288.031C111.276 288.031 111.729 288.141 112.188 288.359C112.656 288.568 113.057 288.859 113.391 289.234V288.188H114.672V295.844C114.672 296.771 114.484 297.542 114.109 298.156C113.734 298.771 113.234 299.229 112.609 299.531C111.984 299.833 111.302 299.984 110.562 299.984C110.083 299.984 109.672 299.927 109.328 299.812C108.995 299.708 108.708 299.573 108.469 299.406C108.229 299.25 108.01 299.099 107.812 298.953V297.578C107.969 297.693 108.172 297.839 108.422 298.016C108.682 298.203 108.99 298.37 109.344 298.516C109.708 298.661 110.115 298.734 110.562 298.734C111.073 298.734 111.542 298.641 111.969 298.453C112.396 298.266 112.74 297.99 113 297.625C113.26 297.26 113.391 296.823 113.391 296.312V294.672C113.12 295.089 112.75 295.453 112.281 295.766C111.823 296.078 111.297 296.234 110.703 296.234C110.036 296.234 109.427 296.068 108.875 295.734C108.323 295.391 107.88 294.917 107.547 294.312C107.224 293.708 107.062 293.01 107.062 292.219C107.062 291.354 107.224 290.609 107.547 289.984C107.88 289.359 108.333 288.88 108.906 288.547C109.479 288.203 110.12 288.031 110.828 288.031ZM111.062 289.297C110.5 289.297 110.021 289.438 109.625 289.719C109.229 289.99 108.922 290.349 108.703 290.797C108.495 291.234 108.391 291.708 108.391 292.219C108.391 292.719 108.495 293.177 108.703 293.594C108.911 294.01 109.203 294.344 109.578 294.594C109.964 294.844 110.406 294.969 110.906 294.969C111.385 294.969 111.812 294.844 112.188 294.594C112.562 294.344 112.859 294 113.078 293.562C113.297 293.125 113.401 292.63 113.391 292.078L113.375 290.578C113.052 290.172 112.703 289.859 112.328 289.641C111.964 289.411 111.542 289.297 111.062 289.297ZM128.406 288.188V292.812C128.406 293.5 128.26 294.094 127.969 294.594C127.677 295.094 127.281 295.479 126.781 295.75C126.281 296.021 125.719 296.156 125.094 296.156C124.469 296.156 123.906 296.021 123.406 295.75C122.906 295.479 122.51 295.094 122.219 294.594C121.927 294.094 121.781 293.5 121.781 292.812V288.188H123.109V292.812C123.109 293.49 123.307 294.01 123.703 294.375C124.109 294.729 124.573 294.906 125.094 294.906C125.615 294.906 126.073 294.729 126.469 294.375C126.875 294.01 127.078 293.49 127.078 292.812V288.188H128.406ZM133.156 288.031C133.615 288.031 134.042 288.099 134.438 288.234C134.833 288.359 135.12 288.49 135.297 288.625V290C135.078 289.833 134.781 289.672 134.406 289.516C134.031 289.359 133.646 289.281 133.25 289.281C132.76 289.281 132.391 289.396 132.141 289.625C131.901 289.854 131.781 290.094 131.781 290.344C131.781 290.542 131.849 290.745 131.984 290.953C132.13 291.151 132.38 291.312 132.734 291.438L134.047 291.906C134.557 292.083 134.938 292.339 135.188 292.672C135.438 293.005 135.562 293.396 135.562 293.844C135.562 294.281 135.438 294.682 135.188 295.047C134.948 295.411 134.609 295.703 134.172 295.922C133.745 296.13 133.25 296.234 132.688 296.234C132.385 296.234 132.068 296.193 131.734 296.109C131.411 296.036 131.12 295.948 130.859 295.844C130.599 295.729 130.406 295.63 130.281 295.547V294.172C130.427 294.276 130.63 294.396 130.891 294.531C131.161 294.656 131.448 294.766 131.75 294.859C132.052 294.943 132.333 294.984 132.594 294.984C133.083 294.984 133.469 294.875 133.75 294.656C134.042 294.438 134.188 294.167 134.188 293.844C134.188 293.594 134.089 293.396 133.891 293.25C133.703 293.104 133.427 292.964 133.062 292.828L131.906 292.406C131.302 292.177 130.901 291.891 130.703 291.547C130.505 291.193 130.406 290.792 130.406 290.344C130.406 289.677 130.656 289.125 131.156 288.688C131.656 288.25 132.323 288.031 133.156 288.031ZM140.734 288.031C141.536 288.031 142.203 288.198 142.734 288.531C143.266 288.865 143.661 289.318 143.922 289.891C144.193 290.464 144.328 291.109 144.328 291.828V292.594H138.328C138.391 293.031 138.542 293.432 138.781 293.797C139.021 294.161 139.333 294.453 139.719 294.672C140.104 294.88 140.547 294.984 141.047 294.984C141.609 294.984 142.135 294.844 142.625 294.562C143.115 294.271 143.526 293.953 143.859 293.609L143.844 295C143.698 295.177 143.479 295.365 143.188 295.562C142.906 295.75 142.578 295.906 142.203 296.031C141.839 296.167 141.453 296.234 141.047 296.234C140.255 296.234 139.552 296.047 138.938 295.672C138.323 295.297 137.839 294.802 137.484 294.188C137.141 293.562 136.969 292.88 136.969 292.141C136.969 291.401 137.13 290.719 137.453 290.094C137.776 289.469 138.219 288.969 138.781 288.594C139.354 288.219 140.005 288.031 140.734 288.031ZM140.734 289.281C140.089 289.281 139.557 289.5 139.141 289.938C138.724 290.365 138.464 290.885 138.359 291.5H143.062C143.01 290.99 142.865 290.573 142.625 290.25C142.396 289.927 142.115 289.688 141.781 289.531C141.448 289.365 141.099 289.281 140.734 289.281ZM147.719 288.188V289.75C148.021 289.229 148.385 288.812 148.812 288.5C149.24 288.188 149.677 288.031 150.125 288.031C150.427 288.031 150.698 288.083 150.938 288.188V289.672C150.604 289.474 150.271 289.375 149.938 289.375C149.406 289.375 148.974 289.562 148.641 289.938C148.318 290.312 148.01 290.76 147.719 291.281V296H146.438V288.188H147.719ZM158.516 284.438C158.818 284.438 159.068 284.547 159.266 284.766C159.474 284.974 159.578 285.219 159.578 285.5C159.578 285.771 159.474 286.016 159.266 286.234C159.068 286.453 158.818 286.562 158.516 286.562C158.214 286.562 157.958 286.453 157.75 286.234C157.552 286.016 157.453 285.771 157.453 285.5C157.453 285.219 157.552 284.974 157.75 284.766C157.958 284.547 158.214 284.438 158.516 284.438ZM159.312 288.188V296H158.031V289.391H156.797V288.188H159.312ZM163.359 288.188V289.422C163.526 289.214 163.74 289.005 164 288.797C164.26 288.578 164.552 288.396 164.875 288.25C165.208 288.104 165.552 288.031 165.906 288.031C166.438 288.031 166.922 288.151 167.359 288.391C167.797 288.62 168.146 288.974 168.406 289.453C168.667 289.922 168.797 290.516 168.797 291.234V296H167.516L167.5 291.359C167.5 290.682 167.349 290.167 167.047 289.812C166.755 289.458 166.302 289.281 165.688 289.281C165.271 289.281 164.854 289.438 164.438 289.75C164.031 290.052 163.672 290.406 163.359 290.812V296H162.078V288.188H163.359ZM173.375 285.938V288.188H175.656V289.391H173.375V293.969C173.375 294.292 173.458 294.547 173.625 294.734C173.792 294.922 174.047 295.016 174.391 295.016C174.703 295.016 174.964 294.979 175.172 294.906C175.38 294.823 175.562 294.734 175.719 294.641V295.688C175.51 295.854 175.286 295.984 175.047 296.078C174.818 296.182 174.505 296.234 174.109 296.234C173.443 296.234 172.938 296.036 172.594 295.641C172.26 295.234 172.094 294.698 172.094 294.031V289.391H170.594V289.016C171.104 288.786 171.531 288.411 171.875 287.891C172.219 287.359 172.521 286.708 172.781 285.938H173.375ZM181.203 288.031C182.005 288.031 182.672 288.198 183.203 288.531C183.734 288.865 184.13 289.318 184.391 289.891C184.661 290.464 184.797 291.109 184.797 291.828V292.594H178.797C178.859 293.031 179.01 293.432 179.25 293.797C179.49 294.161 179.802 294.453 180.188 294.672C180.573 294.88 181.016 294.984 181.516 294.984C182.078 294.984 182.604 294.844 183.094 294.562C183.583 294.271 183.995 293.953 184.328 293.609L184.312 295C184.167 295.177 183.948 295.365 183.656 295.562C183.375 295.75 183.047 295.906 182.672 296.031C182.307 296.167 181.922 296.234 181.516 296.234C180.724 296.234 180.021 296.047 179.406 295.672C178.792 295.297 178.307 294.802 177.953 294.188C177.609 293.562 177.438 292.88 177.438 292.141C177.438 291.401 177.599 290.719 177.922 290.094C178.245 289.469 178.688 288.969 179.25 288.594C179.823 288.219 180.474 288.031 181.203 288.031ZM181.203 289.281C180.557 289.281 180.026 289.5 179.609 289.938C179.193 290.365 178.932 290.885 178.828 291.5H183.531C183.479 290.99 183.333 290.573 183.094 290.25C182.865 289.927 182.583 289.688 182.25 289.531C181.917 289.365 181.568 289.281 181.203 289.281ZM188.188 288.188V289.75C188.49 289.229 188.854 288.812 189.281 288.5C189.708 288.188 190.146 288.031 190.594 288.031C190.896 288.031 191.167 288.083 191.406 288.188V289.672C191.073 289.474 190.74 289.375 190.406 289.375C189.875 289.375 189.443 289.562 189.109 289.938C188.786 290.312 188.479 290.76 188.188 291.281V296H186.906V288.188H188.188ZM197.094 288.188V289.391H194.812V296H193.531V289.391H192.297V288.188H193.531V287.188C193.531 286.573 193.651 286.073 193.891 285.688C194.13 285.292 194.438 285 194.812 284.812C195.188 284.615 195.568 284.516 195.953 284.516C196.484 284.516 196.917 284.656 197.25 284.938V286.062C197.094 285.958 196.906 285.875 196.688 285.812C196.469 285.75 196.25 285.724 196.031 285.734C195.646 285.745 195.344 285.87 195.125 286.109C194.917 286.339 194.812 286.745 194.812 287.328V288.188H197.094ZM202.016 288.031C202.464 288.031 202.917 288.141 203.375 288.359C203.844 288.568 204.245 288.859 204.578 289.234V288.188H205.859V296H204.578V294.672C204.307 295.089 203.938 295.453 203.469 295.766C203.01 296.078 202.484 296.234 201.891 296.234C201.224 296.234 200.615 296.068 200.062 295.734C199.51 295.391 199.068 294.917 198.734 294.312C198.411 293.708 198.25 293.01 198.25 292.219C198.25 291.354 198.411 290.609 198.734 289.984C199.068 289.359 199.521 288.88 200.094 288.547C200.667 288.203 201.307 288.031 202.016 288.031ZM202.25 289.281C201.688 289.281 201.208 289.422 200.812 289.703C200.417 289.984 200.109 290.349 199.891 290.797C199.682 291.234 199.578 291.708 199.578 292.219C199.578 292.719 199.682 293.182 199.891 293.609C200.099 294.026 200.391 294.359 200.766 294.609C201.151 294.859 201.594 294.984 202.094 294.984C202.573 294.984 203 294.859 203.375 294.609C203.75 294.359 204.047 294.016 204.266 293.578C204.484 293.13 204.589 292.63 204.578 292.078L204.562 290.578C204.24 290.172 203.891 289.854 203.516 289.625C203.151 289.396 202.729 289.281 202.25 289.281ZM212.047 288.031C212.62 288.031 213.115 288.125 213.531 288.312C213.948 288.49 214.234 288.651 214.391 288.797V290.094C214.099 289.875 213.766 289.688 213.391 289.531C213.016 289.365 212.568 289.281 212.047 289.281C211.495 289.281 211.01 289.417 210.594 289.688C210.177 289.948 209.854 290.297 209.625 290.734C209.406 291.161 209.297 291.63 209.297 292.141C209.297 292.641 209.406 293.109 209.625 293.547C209.854 293.974 210.177 294.323 210.594 294.594C211.01 294.854 211.495 294.984 212.047 294.984C212.568 294.984 213.016 294.906 213.391 294.75C213.766 294.583 214.099 294.391 214.391 294.172V295.469C214.234 295.625 213.948 295.792 213.531 295.969C213.115 296.146 212.62 296.234 212.047 296.234C211.255 296.234 210.552 296.047 209.938 295.672C209.323 295.297 208.839 294.802 208.484 294.188C208.141 293.562 207.969 292.88 207.969 292.141C207.969 291.401 208.141 290.719 208.484 290.094C208.839 289.469 209.323 288.969 209.938 288.594C210.552 288.219 211.255 288.031 212.047 288.031ZM219.719 288.031C220.521 288.031 221.188 288.198 221.719 288.531C222.25 288.865 222.646 289.318 222.906 289.891C223.177 290.464 223.312 291.109 223.312 291.828V292.594H217.312C217.375 293.031 217.526 293.432 217.766 293.797C218.005 294.161 218.318 294.453 218.703 294.672C219.089 294.88 219.531 294.984 220.031 294.984C220.594 294.984 221.12 294.844 221.609 294.562C222.099 294.271 222.51 293.953 222.844 293.609L222.828 295C222.682 295.177 222.464 295.365 222.172 295.562C221.891 295.75 221.562 295.906 221.188 296.031C220.823 296.167 220.438 296.234 220.031 296.234C219.24 296.234 218.536 296.047 217.922 295.672C217.307 295.297 216.823 294.802 216.469 294.188C216.125 293.562 215.953 292.88 215.953 292.141C215.953 291.401 216.115 290.719 216.438 290.094C216.76 289.469 217.203 288.969 217.766 288.594C218.339 288.219 218.99 288.031 219.719 288.031ZM219.719 289.281C219.073 289.281 218.542 289.5 218.125 289.938C217.708 290.365 217.448 290.885 217.344 291.5H222.047C221.995 290.99 221.849 290.573 221.609 290.25C221.38 289.927 221.099 289.688 220.766 289.531C220.432 289.365 220.083 289.281 219.719 289.281ZM227.75 288.031C228.208 288.031 228.635 288.099 229.031 288.234C229.427 288.359 229.714 288.49 229.891 288.625V290C229.672 289.833 229.375 289.672 229 289.516C228.625 289.359 228.24 289.281 227.844 289.281C227.354 289.281 226.984 289.396 226.734 289.625C226.495 289.854 226.375 290.094 226.375 290.344C226.375 290.542 226.443 290.745 226.578 290.953C226.724 291.151 226.974 291.312 227.328 291.438L228.641 291.906C229.151 292.083 229.531 292.339 229.781 292.672C230.031 293.005 230.156 293.396 230.156 293.844C230.156 294.281 230.031 294.682 229.781 295.047C229.542 295.411 229.203 295.703 228.766 295.922C228.339 296.13 227.844 296.234 227.281 296.234C226.979 296.234 226.661 296.193 226.328 296.109C226.005 296.036 225.714 295.948 225.453 295.844C225.193 295.729 225 295.63 224.875 295.547V294.172C225.021 294.276 225.224 294.396 225.484 294.531C225.755 294.656 226.042 294.766 226.344 294.859C226.646 294.943 226.927 294.984 227.188 294.984C227.677 294.984 228.062 294.875 228.344 294.656C228.635 294.438 228.781 294.167 228.781 293.844C228.781 293.594 228.682 293.396 228.484 293.25C228.297 293.104 228.021 292.964 227.656 292.828L226.5 292.406C225.896 292.177 225.495 291.891 225.297 291.547C225.099 291.193 225 290.792 225 290.344C225 289.677 225.25 289.125 225.75 288.688C226.25 288.25 226.917 288.031 227.75 288.031ZM240.516 285.219C240.203 285.573 239.901 286.021 239.609 286.562C239.328 287.104 239.078 287.698 238.859 288.344C238.641 288.99 238.469 289.646 238.344 290.312C238.219 290.969 238.156 291.589 238.156 292.172C238.156 292.797 238.219 293.443 238.344 294.109C238.469 294.776 238.641 295.422 238.859 296.047C239.078 296.682 239.328 297.266 239.609 297.797C239.901 298.328 240.203 298.771 240.516 299.125H239.094C238.667 298.677 238.26 298.089 237.875 297.359C237.49 296.641 237.172 295.833 236.922 294.938C236.682 294.042 236.562 293.12 236.562 292.172C236.562 291.495 236.63 290.818 236.766 290.141C236.911 289.464 237.104 288.812 237.344 288.188C237.583 287.562 237.854 286.995 238.156 286.484C238.458 285.974 238.771 285.552 239.094 285.219H240.516ZM251.328 285.5V291.859C251.328 292.766 251.135 293.547 250.75 294.203C250.375 294.849 249.865 295.344 249.219 295.688C248.573 296.031 247.839 296.203 247.016 296.203C246.203 296.203 245.469 296.031 244.812 295.688C244.167 295.344 243.651 294.849 243.266 294.203C242.891 293.547 242.703 292.766 242.703 291.859V285.5H244.109V291.812C244.109 292.521 244.24 293.094 244.5 293.531C244.771 293.969 245.125 294.286 245.562 294.484C246.01 294.672 246.495 294.766 247.016 294.766C247.536 294.755 248.016 294.656 248.453 294.469C248.901 294.271 249.255 293.958 249.516 293.531C249.786 293.094 249.922 292.521 249.922 291.812V285.5H251.328ZM259.547 294.672V296H254.609V294.672H256.375V286.859H254.609V285.531H259.547V286.859H257.781V294.672H259.547ZM262.359 285.219H263.781C264.104 285.552 264.417 285.974 264.719 286.484C265.021 286.995 265.292 287.562 265.531 288.188C265.771 288.812 265.958 289.464 266.094 290.141C266.24 290.818 266.312 291.495 266.312 292.172C266.312 293.12 266.188 294.042 265.938 294.938C265.698 295.833 265.385 296.641 265 297.359C264.615 298.089 264.208 298.677 263.781 299.125H262.359C262.672 298.771 262.969 298.328 263.25 297.797C263.542 297.266 263.797 296.682 264.016 296.047C264.234 295.422 264.406 294.776 264.531 294.109C264.656 293.443 264.719 292.797 264.719 292.172C264.719 291.589 264.656 290.969 264.531 290.312C264.406 289.646 264.234 288.99 264.016 288.344C263.797 287.698 263.542 287.104 263.25 286.562C262.969 286.021 262.672 285.573 262.359 285.219ZM58.5391 307.031C58.987 307.031 59.4401 307.141 59.8984 307.359C60.3672 307.568 60.7682 307.859 61.1016 308.234V307.188H62.3828V315H61.1016V313.672C60.8307 314.089 60.4609 314.453 59.9922 314.766C59.5339 315.078 59.0078 315.234 58.4141 315.234C57.7474 315.234 57.138 315.068 56.5859 314.734C56.0339 314.391 55.5911 313.917 55.2578 313.312C54.9349 312.708 54.7734 312.01 54.7734 311.219C54.7734 310.354 54.9349 309.609 55.2578 308.984C55.5911 308.359 56.0443 307.88 56.6172 307.547C57.1901 307.203 57.8307 307.031 58.5391 307.031ZM58.7734 308.281C58.2109 308.281 57.7318 308.422 57.3359 308.703C56.9401 308.984 56.6328 309.349 56.4141 309.797C56.2057 310.234 56.1016 310.708 56.1016 311.219C56.1016 311.719 56.2057 312.182 56.4141 312.609C56.6224 313.026 56.9141 313.359 57.2891 313.609C57.6745 313.859 58.1172 313.984 58.6172 313.984C59.0964 313.984 59.5234 313.859 59.8984 313.609C60.2734 313.359 60.5703 313.016 60.7891 312.578C61.0078 312.13 61.112 311.63 61.1016 311.078L61.0859 309.578C60.763 309.172 60.4141 308.854 60.0391 308.625C59.6745 308.396 59.2526 308.281 58.7734 308.281ZM66.3203 307.188V308.422C66.487 308.214 66.7005 308.005 66.9609 307.797C67.2214 307.578 67.513 307.396 67.8359 307.25C68.1693 307.104 68.513 307.031 68.8672 307.031C69.3984 307.031 69.8828 307.151 70.3203 307.391C70.7578 307.62 71.1068 307.974 71.3672 308.453C71.6276 308.922 71.7578 309.516 71.7578 310.234V315H70.4766L70.4609 310.359C70.4609 309.682 70.3099 309.167 70.0078 308.812C69.7161 308.458 69.263 308.281 68.6484 308.281C68.2318 308.281 67.8151 308.438 67.3984 308.75C66.9922 309.052 66.6328 309.406 66.3203 309.812V315H65.0391V307.188H66.3203ZM81.2422 303.75V315H79.9609V313.672C79.6901 314.089 79.3203 314.453 78.8516 314.766C78.3932 315.078 77.8672 315.234 77.2734 315.234C76.6068 315.234 75.9974 315.068 75.4453 314.734C74.8932 314.391 74.4505 313.917 74.1172 313.312C73.7943 312.708 73.6328 312.01 73.6328 311.219C73.6328 310.354 73.7943 309.609 74.1172 308.984C74.4505 308.359 74.9036 307.88 75.4766 307.547C76.0495 307.203 76.6901 307.031 77.3984 307.031C77.8464 307.031 78.2995 307.141 78.7578 307.359C79.2266 307.568 79.6276 307.859 79.9609 308.234V303.75H81.2422ZM77.6328 308.312C77.0703 308.312 76.5911 308.453 76.1953 308.734C75.7995 309.005 75.4922 309.359 75.2734 309.797C75.0651 310.234 74.9609 310.708 74.9609 311.219C74.9609 311.719 75.0651 312.182 75.2734 312.609C75.4818 313.026 75.7734 313.359 76.1484 313.609C76.5339 313.859 76.9766 313.984 77.4766 313.984C77.9557 313.984 78.3828 313.859 78.7578 313.609C79.1328 313.359 79.4297 313.016 79.6484 312.578C79.8672 312.13 79.9714 311.63 79.9609 311.078L79.9453 309.578C79.6224 309.172 79.2734 308.859 78.8984 308.641C78.5339 308.422 78.112 308.312 77.6328 308.312ZM94.9766 307.188V311.812C94.9766 312.5 94.8307 313.094 94.5391 313.594C94.2474 314.094 93.8516 314.479 93.3516 314.75C92.8516 315.021 92.2891 315.156 91.6641 315.156C91.0391 315.156 90.4766 315.021 89.9766 314.75C89.4766 314.479 89.0807 314.094 88.7891 313.594C88.4974 313.094 88.3516 312.5 88.3516 311.812V307.188H89.6797V311.812C89.6797 312.49 89.8776 313.01 90.2734 313.375C90.6797 313.729 91.1432 313.906 91.6641 313.906C92.1849 313.906 92.6432 313.729 93.0391 313.375C93.4453 313.01 93.6484 312.49 93.6484 311.812V307.188H94.9766ZM99.7266 307.031C100.185 307.031 100.612 307.099 101.008 307.234C101.404 307.359 101.69 307.49 101.867 307.625V309C101.648 308.833 101.352 308.672 100.977 308.516C100.602 308.359 100.216 308.281 99.8203 308.281C99.3307 308.281 98.9609 308.396 98.7109 308.625C98.4714 308.854 98.3516 309.094 98.3516 309.344C98.3516 309.542 98.4193 309.745 98.5547 309.953C98.7005 310.151 98.9505 310.312 99.3047 310.438L100.617 310.906C101.128 311.083 101.508 311.339 101.758 311.672C102.008 312.005 102.133 312.396 102.133 312.844C102.133 313.281 102.008 313.682 101.758 314.047C101.518 314.411 101.18 314.703 100.742 314.922C100.315 315.13 99.8203 315.234 99.2578 315.234C98.9557 315.234 98.638 315.193 98.3047 315.109C97.9818 315.036 97.6901 314.948 97.4297 314.844C97.1693 314.729 96.9766 314.63 96.8516 314.547V313.172C96.9974 313.276 97.2005 313.396 97.4609 313.531C97.7318 313.656 98.0182 313.766 98.3203 313.859C98.6224 313.943 98.9036 313.984 99.1641 313.984C99.6536 313.984 100.039 313.875 100.32 313.656C100.612 313.438 100.758 313.167 100.758 312.844C100.758 312.594 100.659 312.396 100.461 312.25C100.273 312.104 99.9974 311.964 99.6328 311.828L98.4766 311.406C97.8724 311.177 97.4714 310.891 97.2734 310.547C97.0755 310.193 96.9766 309.792 96.9766 309.344C96.9766 308.677 97.2266 308.125 97.7266 307.688C98.2266 307.25 98.8932 307.031 99.7266 307.031ZM107.305 307.031C108.107 307.031 108.773 307.198 109.305 307.531C109.836 307.865 110.232 308.318 110.492 308.891C110.763 309.464 110.898 310.109 110.898 310.828V311.594H104.898C104.961 312.031 105.112 312.432 105.352 312.797C105.591 313.161 105.904 313.453 106.289 313.672C106.674 313.88 107.117 313.984 107.617 313.984C108.18 313.984 108.706 313.844 109.195 313.562C109.685 313.271 110.096 312.953 110.43 312.609L110.414 314C110.268 314.177 110.049 314.365 109.758 314.562C109.477 314.75 109.148 314.906 108.773 315.031C108.409 315.167 108.023 315.234 107.617 315.234C106.826 315.234 106.122 315.047 105.508 314.672C104.893 314.297 104.409 313.802 104.055 313.188C103.711 312.562 103.539 311.88 103.539 311.141C103.539 310.401 103.701 309.719 104.023 309.094C104.346 308.469 104.789 307.969 105.352 307.594C105.924 307.219 106.576 307.031 107.305 307.031ZM107.305 308.281C106.659 308.281 106.128 308.5 105.711 308.938C105.294 309.365 105.034 309.885 104.93 310.5H109.633C109.581 309.99 109.435 309.573 109.195 309.25C108.966 308.927 108.685 308.688 108.352 308.531C108.018 308.365 107.669 308.281 107.305 308.281ZM114.289 307.188V308.75C114.591 308.229 114.956 307.812 115.383 307.5C115.81 307.188 116.247 307.031 116.695 307.031C116.997 307.031 117.268 307.083 117.508 307.188V308.672C117.174 308.474 116.841 308.375 116.508 308.375C115.977 308.375 115.544 308.562 115.211 308.938C114.888 309.312 114.581 309.76 114.289 310.281V315H113.008V307.188H114.289ZM127.055 307.031C127.857 307.031 128.523 307.198 129.055 307.531C129.586 307.865 129.982 308.318 130.242 308.891C130.513 309.464 130.648 310.109 130.648 310.828V311.594H124.648C124.711 312.031 124.862 312.432 125.102 312.797C125.341 313.161 125.654 313.453 126.039 313.672C126.424 313.88 126.867 313.984 127.367 313.984C127.93 313.984 128.456 313.844 128.945 313.562C129.435 313.271 129.846 312.953 130.18 312.609L130.164 314C130.018 314.177 129.799 314.365 129.508 314.562C129.227 314.75 128.898 314.906 128.523 315.031C128.159 315.167 127.773 315.234 127.367 315.234C126.576 315.234 125.872 315.047 125.258 314.672C124.643 314.297 124.159 313.802 123.805 313.188C123.461 312.562 123.289 311.88 123.289 311.141C123.289 310.401 123.451 309.719 123.773 309.094C124.096 308.469 124.539 307.969 125.102 307.594C125.674 307.219 126.326 307.031 127.055 307.031ZM127.055 308.281C126.409 308.281 125.878 308.5 125.461 308.938C125.044 309.365 124.784 309.885 124.68 310.5H129.383C129.331 309.99 129.185 309.573 128.945 309.25C128.716 308.927 128.435 308.688 128.102 308.531C127.768 308.365 127.419 308.281 127.055 308.281ZM139.477 307.188L136.242 310.938L139.523 315H137.867L135.445 311.766L133.008 315H131.352L134.633 310.938L131.398 307.188H133.055L135.445 310L137.82 307.188H139.477ZM145.055 307.031C145.732 307.031 146.341 307.198 146.883 307.531C147.435 307.854 147.872 308.312 148.195 308.906C148.529 309.49 148.695 310.177 148.695 310.969C148.695 311.823 148.529 312.573 148.195 313.219C147.872 313.854 147.424 314.349 146.852 314.703C146.289 315.057 145.648 315.234 144.93 315.234C144.482 315.234 144.023 315.115 143.555 314.875C143.096 314.635 142.701 314.328 142.367 313.953V318.75H141.086V307.188H142.367V308.516C142.638 308.099 143.003 307.75 143.461 307.469C143.93 307.177 144.461 307.031 145.055 307.031ZM144.852 308.281C144.383 308.281 143.956 308.401 143.57 308.641C143.195 308.88 142.898 309.214 142.68 309.641C142.471 310.057 142.367 310.547 142.367 311.109L142.383 312.609C142.716 313.016 143.065 313.349 143.43 313.609C143.794 313.859 144.216 313.984 144.695 313.984C145.258 313.984 145.737 313.839 146.133 313.547C146.529 313.255 146.831 312.88 147.039 312.422C147.258 311.953 147.367 311.469 147.367 310.969C147.367 310.458 147.263 310.005 147.055 309.609C146.846 309.203 146.555 308.88 146.18 308.641C145.805 308.401 145.362 308.281 144.852 308.281ZM154.023 307.031C154.826 307.031 155.492 307.198 156.023 307.531C156.555 307.865 156.951 308.318 157.211 308.891C157.482 309.464 157.617 310.109 157.617 310.828V311.594H151.617C151.68 312.031 151.831 312.432 152.07 312.797C152.31 313.161 152.622 313.453 153.008 313.672C153.393 313.88 153.836 313.984 154.336 313.984C154.898 313.984 155.424 313.844 155.914 313.562C156.404 313.271 156.815 312.953 157.148 312.609L157.133 314C156.987 314.177 156.768 314.365 156.477 314.562C156.195 314.75 155.867 314.906 155.492 315.031C155.128 315.167 154.742 315.234 154.336 315.234C153.544 315.234 152.841 315.047 152.227 314.672C151.612 314.297 151.128 313.802 150.773 313.188C150.43 312.562 150.258 311.88 150.258 311.141C150.258 310.401 150.419 309.719 150.742 309.094C151.065 308.469 151.508 307.969 152.07 307.594C152.643 307.219 153.294 307.031 154.023 307.031ZM154.023 308.281C153.378 308.281 152.846 308.5 152.43 308.938C152.013 309.365 151.753 309.885 151.648 310.5H156.352C156.299 309.99 156.154 309.573 155.914 309.25C155.685 308.927 155.404 308.688 155.07 308.531C154.737 308.365 154.388 308.281 154.023 308.281ZM161.008 307.188V308.75C161.31 308.229 161.674 307.812 162.102 307.5C162.529 307.188 162.966 307.031 163.414 307.031C163.716 307.031 163.987 307.083 164.227 307.188V308.672C163.893 308.474 163.56 308.375 163.227 308.375C162.695 308.375 162.263 308.562 161.93 308.938C161.607 309.312 161.299 309.76 161.008 310.281V315H159.727V307.188H161.008ZM167.117 303.438C167.419 303.438 167.669 303.547 167.867 303.766C168.076 303.974 168.18 304.219 168.18 304.5C168.18 304.771 168.076 305.016 167.867 305.234C167.669 305.453 167.419 305.562 167.117 305.562C166.815 305.562 166.56 305.453 166.352 305.234C166.154 305.016 166.055 304.771 166.055 304.5C166.055 304.219 166.154 303.974 166.352 303.766C166.56 303.547 166.815 303.438 167.117 303.438ZM167.914 307.188V315H166.633V308.391H165.398V307.188H167.914ZM173.898 307.031C174.701 307.031 175.367 307.198 175.898 307.531C176.43 307.865 176.826 308.318 177.086 308.891C177.357 309.464 177.492 310.109 177.492 310.828V311.594H171.492C171.555 312.031 171.706 312.432 171.945 312.797C172.185 313.161 172.497 313.453 172.883 313.672C173.268 313.88 173.711 313.984 174.211 313.984C174.773 313.984 175.299 313.844 175.789 313.562C176.279 313.271 176.69 312.953 177.023 312.609L177.008 314C176.862 314.177 176.643 314.365 176.352 314.562C176.07 314.75 175.742 314.906 175.367 315.031C175.003 315.167 174.617 315.234 174.211 315.234C173.419 315.234 172.716 315.047 172.102 314.672C171.487 314.297 171.003 313.802 170.648 313.188C170.305 312.562 170.133 311.88 170.133 311.141C170.133 310.401 170.294 309.719 170.617 309.094C170.94 308.469 171.383 307.969 171.945 307.594C172.518 307.219 173.169 307.031 173.898 307.031ZM173.898 308.281C173.253 308.281 172.721 308.5 172.305 308.938C171.888 309.365 171.628 309.885 171.523 310.5H176.227C176.174 309.99 176.029 309.573 175.789 309.25C175.56 308.927 175.279 308.688 174.945 308.531C174.612 308.365 174.263 308.281 173.898 308.281ZM180.883 307.188V308.422C181.049 308.214 181.263 308.005 181.523 307.797C181.784 307.578 182.076 307.396 182.398 307.25C182.732 307.104 183.076 307.031 183.43 307.031C183.961 307.031 184.445 307.151 184.883 307.391C185.32 307.62 185.669 307.974 185.93 308.453C186.19 308.922 186.32 309.516 186.32 310.234V315H185.039L185.023 310.359C185.023 309.682 184.872 309.167 184.57 308.812C184.279 308.458 183.826 308.281 183.211 308.281C182.794 308.281 182.378 308.438 181.961 308.75C181.555 309.052 181.195 309.406 180.883 309.812V315H179.602V307.188H180.883ZM192.273 307.031C192.846 307.031 193.341 307.125 193.758 307.312C194.174 307.49 194.461 307.651 194.617 307.797V309.094C194.326 308.875 193.992 308.688 193.617 308.531C193.242 308.365 192.794 308.281 192.273 308.281C191.721 308.281 191.237 308.417 190.82 308.688C190.404 308.948 190.081 309.297 189.852 309.734C189.633 310.161 189.523 310.63 189.523 311.141C189.523 311.641 189.633 312.109 189.852 312.547C190.081 312.974 190.404 313.323 190.82 313.594C191.237 313.854 191.721 313.984 192.273 313.984C192.794 313.984 193.242 313.906 193.617 313.75C193.992 313.583 194.326 313.391 194.617 313.172V314.469C194.461 314.625 194.174 314.792 193.758 314.969C193.341 315.146 192.846 315.234 192.273 315.234C191.482 315.234 190.779 315.047 190.164 314.672C189.549 314.297 189.065 313.802 188.711 313.188C188.367 312.562 188.195 311.88 188.195 311.141C188.195 310.401 188.367 309.719 188.711 309.094C189.065 308.469 189.549 307.969 190.164 307.594C190.779 307.219 191.482 307.031 192.273 307.031ZM199.945 307.031C200.747 307.031 201.414 307.198 201.945 307.531C202.477 307.865 202.872 308.318 203.133 308.891C203.404 309.464 203.539 310.109 203.539 310.828V311.594H197.539C197.602 312.031 197.753 312.432 197.992 312.797C198.232 313.161 198.544 313.453 198.93 313.672C199.315 313.88 199.758 313.984 200.258 313.984C200.82 313.984 201.346 313.844 201.836 313.562C202.326 313.271 202.737 312.953 203.07 312.609L203.055 314C202.909 314.177 202.69 314.365 202.398 314.562C202.117 314.75 201.789 314.906 201.414 315.031C201.049 315.167 200.664 315.234 200.258 315.234C199.466 315.234 198.763 315.047 198.148 314.672C197.534 314.297 197.049 313.802 196.695 313.188C196.352 312.562 196.18 311.88 196.18 311.141C196.18 310.401 196.341 309.719 196.664 309.094C196.987 308.469 197.43 307.969 197.992 307.594C198.565 307.219 199.216 307.031 199.945 307.031ZM199.945 308.281C199.299 308.281 198.768 308.5 198.352 308.938C197.935 309.365 197.674 309.885 197.57 310.5H202.273C202.221 309.99 202.076 309.573 201.836 309.25C201.607 308.927 201.326 308.688 200.992 308.531C200.659 308.365 200.31 308.281 199.945 308.281ZM207.977 307.031C208.435 307.031 208.862 307.099 209.258 307.234C209.654 307.359 209.94 307.49 210.117 307.625V309C209.898 308.833 209.602 308.672 209.227 308.516C208.852 308.359 208.466 308.281 208.07 308.281C207.581 308.281 207.211 308.396 206.961 308.625C206.721 308.854 206.602 309.094 206.602 309.344C206.602 309.542 206.669 309.745 206.805 309.953C206.951 310.151 207.201 310.312 207.555 310.438L208.867 310.906C209.378 311.083 209.758 311.339 210.008 311.672C210.258 312.005 210.383 312.396 210.383 312.844C210.383 313.281 210.258 313.682 210.008 314.047C209.768 314.411 209.43 314.703 208.992 314.922C208.565 315.13 208.07 315.234 207.508 315.234C207.206 315.234 206.888 315.193 206.555 315.109C206.232 315.036 205.94 314.948 205.68 314.844C205.419 314.729 205.227 314.63 205.102 314.547V313.172C205.247 313.276 205.451 313.396 205.711 313.531C205.982 313.656 206.268 313.766 206.57 313.859C206.872 313.943 207.154 313.984 207.414 313.984C207.904 313.984 208.289 313.875 208.57 313.656C208.862 313.438 209.008 313.167 209.008 312.844C209.008 312.594 208.909 312.396 208.711 312.25C208.523 312.104 208.247 311.964 207.883 311.828L206.727 311.406C206.122 311.177 205.721 310.891 205.523 310.547C205.326 310.193 205.227 309.792 205.227 309.344C205.227 308.677 205.477 308.125 205.977 307.688C206.477 307.25 207.143 307.031 207.977 307.031ZM220.742 304.219C220.43 304.573 220.128 305.021 219.836 305.562C219.555 306.104 219.305 306.698 219.086 307.344C218.867 307.99 218.695 308.646 218.57 309.312C218.445 309.969 218.383 310.589 218.383 311.172C218.383 311.797 218.445 312.443 218.57 313.109C218.695 313.776 218.867 314.422 219.086 315.047C219.305 315.682 219.555 316.266 219.836 316.797C220.128 317.328 220.43 317.771 220.742 318.125H219.32C218.893 317.677 218.487 317.089 218.102 316.359C217.716 315.641 217.398 314.833 217.148 313.938C216.909 313.042 216.789 312.12 216.789 311.172C216.789 310.495 216.857 309.818 216.992 309.141C217.138 308.464 217.331 307.812 217.57 307.188C217.81 306.562 218.081 305.995 218.383 305.484C218.685 304.974 218.997 304.552 219.32 304.219H220.742ZM231.555 304.5V310.859C231.555 311.766 231.362 312.547 230.977 313.203C230.602 313.849 230.091 314.344 229.445 314.688C228.799 315.031 228.065 315.203 227.242 315.203C226.43 315.203 225.695 315.031 225.039 314.688C224.393 314.344 223.878 313.849 223.492 313.203C223.117 312.547 222.93 311.766 222.93 310.859V304.5H224.336V310.812C224.336 311.521 224.466 312.094 224.727 312.531C224.997 312.969 225.352 313.286 225.789 313.484C226.237 313.672 226.721 313.766 227.242 313.766C227.763 313.755 228.242 313.656 228.68 313.469C229.128 313.271 229.482 312.958 229.742 312.531C230.013 312.094 230.148 311.521 230.148 310.812V304.5H231.555ZM243.023 304.531L238.914 309.922L243.023 315H241.148L237.992 310.906L234.992 315H233.273L237.195 309.766L233.273 304.531H235.148L238.117 308.797L241.148 304.531H243.023ZM244.273 304.219H245.695C246.018 304.552 246.331 304.974 246.633 305.484C246.935 305.995 247.206 306.562 247.445 307.188C247.685 307.812 247.872 308.464 248.008 309.141C248.154 309.818 248.227 310.495 248.227 311.172C248.227 312.12 248.102 313.042 247.852 313.938C247.612 314.833 247.299 315.641 246.914 316.359C246.529 317.089 246.122 317.677 245.695 318.125H244.273C244.586 317.771 244.883 317.328 245.164 316.797C245.456 316.266 245.711 315.682 245.93 315.047C246.148 314.422 246.32 313.776 246.445 313.109C246.57 312.443 246.633 311.797 246.633 311.172C246.633 310.589 246.57 309.969 246.445 309.312C246.32 308.646 246.148 307.99 245.93 307.344C245.711 306.698 245.456 306.104 245.164 305.562C244.883 305.021 244.586 304.573 244.273 304.219ZM251.664 313.094C251.966 313.094 252.221 313.203 252.43 313.422C252.648 313.63 252.758 313.885 252.758 314.188C252.758 314.479 252.648 314.734 252.43 314.953C252.221 315.172 251.966 315.281 251.664 315.281C251.362 315.281 251.102 315.172 250.883 314.953C250.674 314.734 250.57 314.479 250.57 314.188C250.57 313.885 250.674 313.63 250.883 313.422C251.102 313.203 251.362 313.094 251.664 313.094Z" fill="white"/>
</svg>