<svg width="301" height="391" viewBox="0 0 301 391" fill="none" xmlns="http://www.w3.org/2000/svg">
<rect x="1" y="1" width="299" height="389" rx="9" fill="#132A3E"/>
<rect x="1" y="1" width="299" height="389" rx="9" stroke="#254D70" stroke-width="2"/>
<path d="M143.5 160C142.083 160 140.897 159.52 139.94 158.56C138.983 157.6 138.503 156.413 138.5 155V95H119.5C117.917 95 116.625 94.4167 115.625 93.25C114.625 92.0833 114.292 90.7083 114.625 89.125C115.708 83.4583 118.522 78.855 123.065 75.315C127.608 71.775 132.753 70.0033 138.5 70H163.5C164.917 70 166.105 70.48 167.065 71.44C168.025 72.4 168.503 73.5867 168.5 75V85L181.25 72.25C181.917 71.5833 182.73 71.0417 183.69 70.625C184.65 70.2083 185.628 70 186.625 70H188.5C189.917 70 191.105 70.4783 192.065 71.435C193.025 72.3917 193.503 73.58 193.5 75V105C193.5 106.417 193.02 107.605 192.06 108.565C191.1 109.525 189.913 110.003 188.5 110H186.625C185.625 110 184.647 109.792 183.69 109.375C182.733 108.958 181.92 108.417 181.25 107.75L168.5 95V155C168.5 156.417 168.02 157.605 167.06 158.565C166.1 159.525 164.913 160.003 163.5 160H143.5ZM148.5 150H158.5V120H148.5V150ZM148.5 110H158.5V80H138.5C136.333 80 134.292 80.4383 132.375 81.315C130.458 82.1917 128.792 83.42 127.375 85H148.5V110Z" fill="#EDC8FA"/>
<path d="M39.9688 187.922C41.1875 187.922 42.25 188.117 43.1562 188.508C44.0625 188.883 44.7656 189.406 45.2656 190.078C45.7812 190.75 46.0391 191.523 46.0391 192.398C46.0391 193.18 45.8281 193.875 45.4062 194.484C45 195.094 44.4844 195.562 43.8594 195.891C44.3281 196.016 44.7812 196.227 45.2188 196.523C45.6562 196.805 46.0156 197.188 46.2969 197.672C46.5781 198.141 46.7188 198.742 46.7188 199.477C46.7188 200.352 46.4531 201.156 45.9219 201.891C45.3906 202.609 44.6484 203.188 43.6953 203.625C42.7422 204.062 41.6328 204.281 40.3672 204.281C39.6797 204.281 38.9375 204.25 38.1406 204.188C37.3438 204.141 36.5859 204.07 35.8672 203.977C35.1484 203.867 34.5391 203.758 34.0391 203.648V188.508C34.9141 188.32 35.8594 188.18 36.875 188.086C37.8906 187.977 38.9219 187.922 39.9688 187.922ZM39.9688 190.898C38.9688 190.898 38.0781 190.977 37.2969 191.133V194.93H40.2266C41.0234 194.93 41.6484 194.734 42.1016 194.344C42.5703 193.953 42.8047 193.453 42.8047 192.844C42.8047 192.219 42.5234 191.742 41.9609 191.414C41.4141 191.07 40.75 190.898 39.9688 190.898ZM37.2969 201.07C37.7344 201.18 38.2344 201.258 38.7969 201.305C39.375 201.336 39.8359 201.352 40.1797 201.352C41.0859 201.352 41.8281 201.172 42.4062 200.812C43 200.453 43.2969 199.945 43.2969 199.289C43.2969 198.633 42.9922 198.148 42.3828 197.836C41.7734 197.508 41.0391 197.344 40.1797 197.344H37.2969V201.07ZM54.9922 191.859C56.1484 191.859 57.1406 192.109 57.9688 192.609C58.8125 193.109 59.4531 193.805 59.8906 194.695C60.3438 195.57 60.5703 196.586 60.5703 197.742V199.008H51.9922C52.1484 199.805 52.5391 200.445 53.1641 200.93C53.7891 201.414 54.5547 201.656 55.4609 201.656C56.3203 201.656 57.1016 201.484 57.8047 201.141C58.5078 200.797 59.0703 200.445 59.4922 200.086L59.4688 202.852C59.0938 203.18 58.5312 203.516 57.7812 203.859C57.0469 204.188 56.2344 204.352 55.3438 204.352C54.1719 204.352 53.1016 204.086 52.1328 203.555C51.1797 203.023 50.4141 202.297 49.8359 201.375C49.2734 200.453 48.9922 199.398 48.9922 198.211C48.9922 197.055 49.25 196 49.7656 195.047C50.2812 194.094 50.9922 193.328 51.8984 192.75C52.8047 192.156 53.8359 191.859 54.9922 191.859ZM54.9219 194.461C54.1875 194.461 53.5703 194.688 53.0703 195.141C52.5703 195.594 52.2266 196.203 52.0391 196.969H57.7109C57.6484 196.125 57.3359 195.5 56.7734 195.094C56.2109 194.672 55.5938 194.461 54.9219 194.461ZM67.1094 191.859C67.8438 191.859 68.5234 191.969 69.1484 192.188C69.7734 192.406 70.2578 192.656 70.6016 192.938V195.562C70.2266 195.312 69.7656 195.07 69.2188 194.836C68.6875 194.602 68.1328 194.484 67.5547 194.484C66.9922 194.484 66.5469 194.609 66.2188 194.859C65.8906 195.109 65.7266 195.406 65.7266 195.75C65.7266 196 65.8203 196.234 66.0078 196.453C66.1953 196.656 66.5547 196.836 67.0859 196.992L68.4219 197.438C70.2188 197.969 71.1172 199.008 71.1172 200.555C71.1172 201.289 70.9062 201.945 70.4844 202.523C70.0781 203.086 69.5234 203.531 68.8203 203.859C68.1328 204.188 67.3672 204.352 66.5234 204.352C65.7266 204.352 64.9531 204.227 64.2031 203.977C63.4531 203.727 62.8828 203.453 62.4922 203.156V200.555C62.7891 200.758 63.1484 200.953 63.5703 201.141C63.9922 201.328 64.4297 201.484 64.8828 201.609C65.3359 201.719 65.75 201.773 66.125 201.773C66.7188 201.773 67.1719 201.672 67.4844 201.469C67.8125 201.25 67.9766 200.945 67.9766 200.555C67.9766 200.258 67.8438 200.023 67.5781 199.852C67.3125 199.68 66.9219 199.508 66.4062 199.336L64.9531 198.82C64.0469 198.523 63.4219 198.102 63.0781 197.555C62.7344 197.008 62.5625 196.359 62.5625 195.609C62.5625 194.859 62.75 194.211 63.125 193.664C63.5156 193.102 64.0547 192.664 64.7422 192.352C65.4297 192.023 66.2188 191.859 67.1094 191.859ZM77.9375 188.719V192.164H81.2188V194.648H77.9375V199.758C77.9375 200.289 78.0547 200.711 78.2891 201.023C78.5391 201.32 78.9062 201.469 79.3906 201.469C79.8125 201.469 80.1719 201.422 80.4688 201.328C80.7812 201.234 81.0703 201.102 81.3359 200.93V203.297C81.0391 203.594 80.6641 203.844 80.2109 204.047C79.7734 204.25 79.2188 204.352 78.5469 204.352C77.4844 204.352 76.6172 204.016 75.9453 203.344C75.2891 202.656 74.9609 201.719 74.9609 200.531V194.648H72.8281V193.125C73.5781 192.859 74.2656 192.359 74.8906 191.625C75.5312 190.891 76.0391 189.922 76.4141 188.719H77.9375ZM95.1875 188.297V194.695H102.477V188.297H105.711V204H102.477V197.625H95.1875V204H91.9297V188.297H95.1875ZM114.57 191.859C115.211 191.859 115.859 192.008 116.516 192.305C117.172 192.602 117.719 193 118.156 193.5V192.164H121.133V204H118.156V202.008C117.812 202.648 117.312 203.203 116.656 203.672C116 204.125 115.234 204.352 114.359 204.352C113.406 204.352 112.523 204.109 111.711 203.625C110.914 203.141 110.273 202.438 109.789 201.516C109.305 200.594 109.062 199.477 109.062 198.164C109.062 196.852 109.305 195.727 109.789 194.789C110.289 193.852 110.953 193.133 111.781 192.633C112.625 192.117 113.555 191.859 114.57 191.859ZM115.18 194.766C114.555 194.766 114.016 194.93 113.562 195.258C113.125 195.57 112.781 195.984 112.531 196.5C112.281 197.016 112.156 197.57 112.156 198.164C112.156 199.055 112.422 199.812 112.953 200.438C113.5 201.062 114.219 201.375 115.109 201.375C115.641 201.375 116.133 201.234 116.586 200.953C117.055 200.672 117.43 200.281 117.711 199.781C118.008 199.266 118.156 198.648 118.156 197.93V196.242C117.734 195.789 117.273 195.43 116.773 195.164C116.289 194.898 115.758 194.766 115.18 194.766ZM132.242 195.492C131.742 195.211 131.219 195.07 130.672 195.07C129.984 195.07 129.414 195.297 128.961 195.75C128.508 196.188 128.109 196.734 127.766 197.391V204H124.789V192.164H127.766V194.391C128.172 193.688 128.648 193.102 129.195 192.633C129.758 192.164 130.391 191.93 131.094 191.93C131.516 191.93 131.898 192 132.242 192.141V195.492ZM145.789 187.125V204H142.812V202.008C142.469 202.648 141.969 203.203 141.312 203.672C140.656 204.125 139.891 204.352 139.016 204.352C138.062 204.352 137.18 204.109 136.367 203.625C135.57 203.141 134.93 202.438 134.445 201.516C133.961 200.594 133.719 199.477 133.719 198.164C133.719 196.852 133.961 195.727 134.445 194.789C134.945 193.852 135.609 193.133 136.438 192.633C137.281 192.117 138.211 191.859 139.227 191.859C139.867 191.859 140.516 192.008 141.172 192.305C141.828 192.602 142.375 193 142.812 193.5V187.125H145.789ZM139.836 194.789C139.211 194.789 138.672 194.953 138.219 195.281C137.781 195.594 137.438 196.008 137.188 196.523C136.938 197.023 136.812 197.57 136.812 198.164C136.812 199.055 137.078 199.812 137.609 200.438C138.156 201.062 138.875 201.375 139.766 201.375C140.297 201.375 140.789 201.234 141.242 200.953C141.711 200.672 142.086 200.281 142.367 199.781C142.664 199.266 142.812 198.648 142.812 197.93V196.242C142.391 195.789 141.93 195.438 141.43 195.188C140.945 194.922 140.414 194.789 139.836 194.789ZM165.898 192.164L161.797 204H159.641L156.875 196.336L154.109 204H151.93L147.852 192.164H151.086L153.266 199.172L155.82 192.164H157.953L160.484 199.172L162.664 192.164H165.898ZM172.18 191.859C172.82 191.859 173.469 192.008 174.125 192.305C174.781 192.602 175.328 193 175.766 193.5V192.164H178.742V204H175.766V202.008C175.422 202.648 174.922 203.203 174.266 203.672C173.609 204.125 172.844 204.352 171.969 204.352C171.016 204.352 170.133 204.109 169.32 203.625C168.523 203.141 167.883 202.438 167.398 201.516C166.914 200.594 166.672 199.477 166.672 198.164C166.672 196.852 166.914 195.727 167.398 194.789C167.898 193.852 168.562 193.133 169.391 192.633C170.234 192.117 171.164 191.859 172.18 191.859ZM172.789 194.766C172.164 194.766 171.625 194.93 171.172 195.258C170.734 195.57 170.391 195.984 170.141 196.5C169.891 197.016 169.766 197.57 169.766 198.164C169.766 199.055 170.031 199.812 170.562 200.438C171.109 201.062 171.828 201.375 172.719 201.375C173.25 201.375 173.742 201.234 174.195 200.953C174.664 200.672 175.039 200.281 175.32 199.781C175.617 199.266 175.766 198.648 175.766 197.93V196.242C175.344 195.789 174.883 195.43 174.383 195.164C173.898 194.898 173.367 194.766 172.789 194.766ZM189.852 195.492C189.352 195.211 188.828 195.07 188.281 195.07C187.594 195.07 187.023 195.297 186.57 195.75C186.117 196.188 185.719 196.734 185.375 197.391V204H182.398V192.164H185.375V194.391C185.781 193.688 186.258 193.102 186.805 192.633C187.367 192.164 188 191.93 188.703 191.93C189.125 191.93 189.508 192 189.852 192.141V195.492ZM197.328 191.859C198.484 191.859 199.477 192.109 200.305 192.609C201.148 193.109 201.789 193.805 202.227 194.695C202.68 195.57 202.906 196.586 202.906 197.742V199.008H194.328C194.484 199.805 194.875 200.445 195.5 200.93C196.125 201.414 196.891 201.656 197.797 201.656C198.656 201.656 199.438 201.484 200.141 201.141C200.844 200.797 201.406 200.445 201.828 200.086L201.805 202.852C201.43 203.18 200.867 203.516 200.117 203.859C199.383 204.188 198.57 204.352 197.68 204.352C196.508 204.352 195.438 204.086 194.469 203.555C193.516 203.023 192.75 202.297 192.172 201.375C191.609 200.453 191.328 199.398 191.328 198.211C191.328 197.055 191.586 196 192.102 195.047C192.617 194.094 193.328 193.328 194.234 192.75C195.141 192.156 196.172 191.859 197.328 191.859ZM197.258 194.461C196.523 194.461 195.906 194.688 195.406 195.141C194.906 195.594 194.562 196.203 194.375 196.969H200.047C199.984 196.125 199.672 195.5 199.109 195.094C198.547 194.672 197.93 194.461 197.258 194.461ZM224.75 188.297V191.227H219.734V203.93H216.5V191.227H211.484V188.297H224.75ZM234.664 195.492C234.164 195.211 233.641 195.07 233.094 195.07C232.406 195.07 231.836 195.297 231.383 195.75C230.93 196.188 230.531 196.734 230.188 197.391V204H227.211V192.164H230.188V194.391C230.594 193.688 231.07 193.102 231.617 192.633C232.18 192.164 232.812 191.93 233.516 191.93C233.938 191.93 234.32 192 234.664 192.141V195.492ZM241.648 191.859C242.289 191.859 242.938 192.008 243.594 192.305C244.25 192.602 244.797 193 245.234 193.5V192.164H248.211V204H245.234V202.008C244.891 202.648 244.391 203.203 243.734 203.672C243.078 204.125 242.312 204.352 241.438 204.352C240.484 204.352 239.602 204.109 238.789 203.625C237.992 203.141 237.352 202.438 236.867 201.516C236.383 200.594 236.141 199.477 236.141 198.164C236.141 196.852 236.383 195.727 236.867 194.789C237.367 193.852 238.031 193.133 238.859 192.633C239.703 192.117 240.633 191.859 241.648 191.859ZM242.258 194.766C241.633 194.766 241.094 194.93 240.641 195.258C240.203 195.57 239.859 195.984 239.609 196.5C239.359 197.016 239.234 197.57 239.234 198.164C239.234 199.055 239.5 199.812 240.031 200.438C240.578 201.062 241.297 201.375 242.188 201.375C242.719 201.375 243.211 201.234 243.664 200.953C244.133 200.672 244.508 200.281 244.789 199.781C245.086 199.266 245.234 198.648 245.234 197.93V196.242C244.812 195.789 244.352 195.43 243.852 195.164C243.367 194.898 242.836 194.766 242.258 194.766ZM257.258 191.859C258.133 191.859 258.852 192 259.414 192.281C259.977 192.562 260.422 192.836 260.75 193.102V195.844C260.344 195.547 259.883 195.297 259.367 195.094C258.867 194.891 258.25 194.789 257.516 194.789C256.922 194.789 256.367 194.938 255.852 195.234C255.352 195.531 254.953 195.93 254.656 196.43C254.359 196.93 254.211 197.5 254.211 198.141C254.211 199.109 254.523 199.906 255.148 200.531C255.773 201.156 256.562 201.469 257.516 201.469C258.25 201.469 258.867 201.375 259.367 201.188C259.883 200.984 260.344 200.734 260.75 200.438V203.156C260.422 203.438 259.977 203.711 259.414 203.977C258.852 204.227 258.133 204.352 257.258 204.352C256.055 204.352 254.984 204.07 254.047 203.508C253.125 202.93 252.391 202.172 251.844 201.234C251.312 200.281 251.047 199.25 251.047 198.141C251.047 197.312 251.195 196.523 251.492 195.773C251.805 195.023 252.242 194.359 252.805 193.781C253.367 193.188 254.023 192.719 254.773 192.375C255.539 192.031 256.367 191.859 257.258 191.859ZM266.375 187.125V197.438L271.203 192.164H274.93L269.82 197.297L275.188 204H271.438L267.852 199.289L266.375 200.766V204H263.398V187.125H266.375Z" fill="white"/>
<path d="M47.9609 247.5V253.859C47.9609 254.766 47.7682 255.547 47.3828 256.203C47.0078 256.849 46.4974 257.344 45.8516 257.688C45.2057 258.031 44.4714 258.203 43.6484 258.203C42.8359 258.203 42.1016 258.031 41.4453 257.688C40.7995 257.344 40.2839 256.849 39.8984 256.203C39.5234 255.547 39.3359 254.766 39.3359 253.859V247.5H40.7422V253.812C40.7422 254.521 40.8724 255.094 41.1328 255.531C41.4036 255.969 41.7578 256.286 42.1953 256.484C42.6432 256.672 43.1276 256.766 43.6484 256.766C44.1693 256.755 44.6484 256.656 45.0859 256.469C45.5339 256.271 45.888 255.958 46.1484 255.531C46.4193 255.094 46.5547 254.521 46.5547 253.812V247.5H47.9609ZM53.1797 250.031C53.638 250.031 54.0651 250.099 54.4609 250.234C54.8568 250.359 55.1432 250.49 55.3203 250.625V252C55.1016 251.833 54.8047 251.672 54.4297 251.516C54.0547 251.359 53.6693 251.281 53.2734 251.281C52.7839 251.281 52.4141 251.396 52.1641 251.625C51.9245 251.854 51.8047 252.094 51.8047 252.344C51.8047 252.542 51.8724 252.745 52.0078 252.953C52.1536 253.151 52.4036 253.312 52.7578 253.438L54.0703 253.906C54.5807 254.083 54.9609 254.339 55.2109 254.672C55.4609 255.005 55.5859 255.396 55.5859 255.844C55.5859 256.281 55.4609 256.682 55.2109 257.047C54.9714 257.411 54.6328 257.703 54.1953 257.922C53.7682 258.13 53.2734 258.234 52.7109 258.234C52.4089 258.234 52.0911 258.193 51.7578 258.109C51.4349 258.036 51.1432 257.948 50.8828 257.844C50.6224 257.729 50.4297 257.63 50.3047 257.547V256.172C50.4505 256.276 50.6536 256.396 50.9141 256.531C51.1849 256.656 51.4714 256.766 51.7734 256.859C52.0755 256.943 52.3568 256.984 52.6172 256.984C53.1068 256.984 53.4922 256.875 53.7734 256.656C54.0651 256.438 54.2109 256.167 54.2109 255.844C54.2109 255.594 54.112 255.396 53.9141 255.25C53.7266 255.104 53.4505 254.964 53.0859 254.828L51.9297 254.406C51.3255 254.177 50.9245 253.891 50.7266 253.547C50.5286 253.193 50.4297 252.792 50.4297 252.344C50.4297 251.677 50.6797 251.125 51.1797 250.688C51.6797 250.25 52.3464 250.031 53.1797 250.031ZM58.7891 246.438C59.0911 246.438 59.3411 246.547 59.5391 246.766C59.7474 246.974 59.8516 247.219 59.8516 247.5C59.8516 247.771 59.7474 248.016 59.5391 248.234C59.3411 248.453 59.0911 248.562 58.7891 248.562C58.487 248.562 58.2318 248.453 58.0234 248.234C57.8255 248.016 57.7266 247.771 57.7266 247.5C57.7266 247.219 57.8255 246.974 58.0234 246.766C58.2318 246.547 58.487 246.438 58.7891 246.438ZM59.5859 250.188V258H58.3047V251.391H57.0703V250.188H59.5859ZM63.6328 250.188V251.422C63.7995 251.214 64.013 251.005 64.2734 250.797C64.5339 250.578 64.8255 250.396 65.1484 250.25C65.4818 250.104 65.8255 250.031 66.1797 250.031C66.7109 250.031 67.1953 250.151 67.6328 250.391C68.0703 250.62 68.4193 250.974 68.6797 251.453C68.9401 251.922 69.0703 252.516 69.0703 253.234V258H67.7891L67.7734 253.359C67.7734 252.682 67.6224 252.167 67.3203 251.812C67.0286 251.458 66.5755 251.281 65.9609 251.281C65.5443 251.281 65.1276 251.438 64.7109 251.75C64.3047 252.052 63.9453 252.406 63.6328 252.812V258H62.3516V250.188H63.6328ZM74.7109 250.031C75.1589 250.031 75.612 250.141 76.0703 250.359C76.5391 250.568 76.9401 250.859 77.2734 251.234V250.188H78.5547V257.844C78.5547 258.771 78.3672 259.542 77.9922 260.156C77.6172 260.771 77.1172 261.229 76.4922 261.531C75.8672 261.833 75.1849 261.984 74.4453 261.984C73.9661 261.984 73.5547 261.927 73.2109 261.812C72.8776 261.708 72.5911 261.573 72.3516 261.406C72.112 261.25 71.8932 261.099 71.6953 260.953V259.578C71.8516 259.693 72.0547 259.839 72.3047 260.016C72.5651 260.203 72.8724 260.37 73.2266 260.516C73.5911 260.661 73.9974 260.734 74.4453 260.734C74.9557 260.734 75.4245 260.641 75.8516 260.453C76.2786 260.266 76.6224 259.99 76.8828 259.625C77.1432 259.26 77.2734 258.823 77.2734 258.312V256.672C77.0026 257.089 76.6328 257.453 76.1641 257.766C75.7057 258.078 75.1797 258.234 74.5859 258.234C73.9193 258.234 73.3099 258.068 72.7578 257.734C72.2057 257.391 71.763 256.917 71.4297 256.312C71.1068 255.708 70.9453 255.01 70.9453 254.219C70.9453 253.354 71.1068 252.609 71.4297 251.984C71.763 251.359 72.2161 250.88 72.7891 250.547C73.362 250.203 74.0026 250.031 74.7109 250.031ZM74.9453 251.297C74.3828 251.297 73.9036 251.438 73.5078 251.719C73.112 251.99 72.8047 252.349 72.5859 252.797C72.3776 253.234 72.2734 253.708 72.2734 254.219C72.2734 254.719 72.3776 255.177 72.5859 255.594C72.7943 256.01 73.0859 256.344 73.4609 256.594C73.8464 256.844 74.2891 256.969 74.7891 256.969C75.2682 256.969 75.6953 256.844 76.0703 256.594C76.4453 256.344 76.7422 256 76.9609 255.562C77.1797 255.125 77.2839 254.63 77.2734 254.078L77.2578 252.578C76.9349 252.172 76.5859 251.859 76.2109 251.641C75.8464 251.411 75.4245 251.297 74.9453 251.297ZM86.3359 250.188L89.0703 255.938L91.7266 250.188H93.2578L87.5078 261.75H86.0234L88.2578 257.531L84.8047 250.188H86.3359ZM98.3516 250.031C99.1432 250.031 99.8464 250.219 100.461 250.594C101.076 250.969 101.555 251.469 101.898 252.094C102.253 252.719 102.43 253.401 102.43 254.141C102.43 254.88 102.253 255.562 101.898 256.188C101.555 256.802 101.076 257.297 100.461 257.672C99.8464 258.047 99.1432 258.234 98.3516 258.234C97.5599 258.234 96.8568 258.047 96.2422 257.672C95.6276 257.297 95.1432 256.802 94.7891 256.188C94.4453 255.562 94.2734 254.88 94.2734 254.141C94.2734 253.401 94.4453 252.719 94.7891 252.094C95.1432 251.469 95.6276 250.969 96.2422 250.594C96.8568 250.219 97.5599 250.031 98.3516 250.031ZM98.3516 251.281C97.7995 251.281 97.3151 251.417 96.8984 251.688C96.4818 251.948 96.1589 252.297 95.9297 252.734C95.7109 253.161 95.6016 253.63 95.6016 254.141C95.6016 254.641 95.7109 255.109 95.9297 255.547C96.1589 255.974 96.4818 256.323 96.8984 256.594C97.3151 256.854 97.7995 256.984 98.3516 256.984C98.9141 256.984 99.3984 256.854 99.8047 256.594C100.221 256.323 100.539 255.974 100.758 255.547C100.987 255.109 101.102 254.641 101.102 254.141C101.102 253.63 100.987 253.161 100.758 252.734C100.539 252.297 100.221 251.948 99.8047 251.688C99.3984 251.417 98.9141 251.281 98.3516 251.281ZM110.93 250.188V254.812C110.93 255.5 110.784 256.094 110.492 256.594C110.201 257.094 109.805 257.479 109.305 257.75C108.805 258.021 108.242 258.156 107.617 258.156C106.992 258.156 106.43 258.021 105.93 257.75C105.43 257.479 105.034 257.094 104.742 256.594C104.451 256.094 104.305 255.5 104.305 254.812V250.188H105.633V254.812C105.633 255.49 105.831 256.01 106.227 256.375C106.633 256.729 107.096 256.906 107.617 256.906C108.138 256.906 108.596 256.729 108.992 256.375C109.398 256.01 109.602 255.49 109.602 254.812V250.188H110.93ZM114.633 250.188V251.75C114.935 251.229 115.299 250.812 115.727 250.5C116.154 250.188 116.591 250.031 117.039 250.031C117.341 250.031 117.612 250.083 117.852 250.188V251.672C117.518 251.474 117.185 251.375 116.852 251.375C116.32 251.375 115.888 251.562 115.555 251.938C115.232 252.312 114.924 252.76 114.633 253.281V258H113.352V250.188H114.633ZM128.148 250.031C128.826 250.031 129.435 250.198 129.977 250.531C130.529 250.854 130.966 251.312 131.289 251.906C131.622 252.49 131.789 253.177 131.789 253.969C131.789 254.823 131.622 255.573 131.289 256.219C130.966 256.854 130.518 257.349 129.945 257.703C129.383 258.057 128.742 258.234 128.023 258.234C127.576 258.234 127.117 258.115 126.648 257.875C126.19 257.635 125.794 257.328 125.461 256.953V261.75H124.18V250.188H125.461V251.516C125.732 251.099 126.096 250.75 126.555 250.469C127.023 250.177 127.555 250.031 128.148 250.031ZM127.945 251.281C127.477 251.281 127.049 251.401 126.664 251.641C126.289 251.88 125.992 252.214 125.773 252.641C125.565 253.057 125.461 253.547 125.461 254.109L125.477 255.609C125.81 256.016 126.159 256.349 126.523 256.609C126.888 256.859 127.31 256.984 127.789 256.984C128.352 256.984 128.831 256.839 129.227 256.547C129.622 256.255 129.924 255.88 130.133 255.422C130.352 254.953 130.461 254.469 130.461 253.969C130.461 253.458 130.357 253.005 130.148 252.609C129.94 252.203 129.648 251.88 129.273 251.641C128.898 251.401 128.456 251.281 127.945 251.281ZM135.18 250.188V251.75C135.482 251.229 135.846 250.812 136.273 250.5C136.701 250.188 137.138 250.031 137.586 250.031C137.888 250.031 138.159 250.083 138.398 250.188V251.672C138.065 251.474 137.732 251.375 137.398 251.375C136.867 251.375 136.435 251.562 136.102 251.938C135.779 252.312 135.471 252.76 135.18 253.281V258H133.898V250.188H135.18ZM143.258 250.031C144.06 250.031 144.727 250.198 145.258 250.531C145.789 250.865 146.185 251.318 146.445 251.891C146.716 252.464 146.852 253.109 146.852 253.828V254.594H140.852C140.914 255.031 141.065 255.432 141.305 255.797C141.544 256.161 141.857 256.453 142.242 256.672C142.628 256.88 143.07 256.984 143.57 256.984C144.133 256.984 144.659 256.844 145.148 256.562C145.638 256.271 146.049 255.953 146.383 255.609L146.367 257C146.221 257.177 146.003 257.365 145.711 257.562C145.43 257.75 145.102 257.906 144.727 258.031C144.362 258.167 143.977 258.234 143.57 258.234C142.779 258.234 142.076 258.047 141.461 257.672C140.846 257.297 140.362 256.802 140.008 256.188C139.664 255.562 139.492 254.88 139.492 254.141C139.492 253.401 139.654 252.719 139.977 252.094C140.299 251.469 140.742 250.969 141.305 250.594C141.878 250.219 142.529 250.031 143.258 250.031ZM143.258 251.281C142.612 251.281 142.081 251.5 141.664 251.938C141.247 252.365 140.987 252.885 140.883 253.5H145.586C145.534 252.99 145.388 252.573 145.148 252.25C144.919 251.927 144.638 251.688 144.305 251.531C143.971 251.365 143.622 251.281 143.258 251.281ZM153.008 250.188V251.391H150.727V258H149.445V251.391H148.211V250.188H149.445V249.188C149.445 248.573 149.565 248.073 149.805 247.688C150.044 247.292 150.352 247 150.727 246.812C151.102 246.615 151.482 246.516 151.867 246.516C152.398 246.516 152.831 246.656 153.164 246.938V248.062C153.008 247.958 152.82 247.875 152.602 247.812C152.383 247.75 152.164 247.724 151.945 247.734C151.56 247.745 151.258 247.87 151.039 248.109C150.831 248.339 150.727 248.745 150.727 249.328V250.188H153.008ZM157.93 250.031C158.732 250.031 159.398 250.198 159.93 250.531C160.461 250.865 160.857 251.318 161.117 251.891C161.388 252.464 161.523 253.109 161.523 253.828V254.594H155.523C155.586 255.031 155.737 255.432 155.977 255.797C156.216 256.161 156.529 256.453 156.914 256.672C157.299 256.88 157.742 256.984 158.242 256.984C158.805 256.984 159.331 256.844 159.82 256.562C160.31 256.271 160.721 255.953 161.055 255.609L161.039 257C160.893 257.177 160.674 257.365 160.383 257.562C160.102 257.75 159.773 257.906 159.398 258.031C159.034 258.167 158.648 258.234 158.242 258.234C157.451 258.234 156.747 258.047 156.133 257.672C155.518 257.297 155.034 256.802 154.68 256.188C154.336 255.562 154.164 254.88 154.164 254.141C154.164 253.401 154.326 252.719 154.648 252.094C154.971 251.469 155.414 250.969 155.977 250.594C156.549 250.219 157.201 250.031 157.93 250.031ZM157.93 251.281C157.284 251.281 156.753 251.5 156.336 251.938C155.919 252.365 155.659 252.885 155.555 253.5H160.258C160.206 252.99 160.06 252.573 159.82 252.25C159.591 251.927 159.31 251.688 158.977 251.531C158.643 251.365 158.294 251.281 157.93 251.281ZM164.914 250.188V251.75C165.216 251.229 165.581 250.812 166.008 250.5C166.435 250.188 166.872 250.031 167.32 250.031C167.622 250.031 167.893 250.083 168.133 250.188V251.672C167.799 251.474 167.466 251.375 167.133 251.375C166.602 251.375 166.169 251.562 165.836 251.938C165.513 252.312 165.206 252.76 164.914 253.281V258H163.633V250.188H164.914ZM171.055 250.188V251.75C171.357 251.229 171.721 250.812 172.148 250.5C172.576 250.188 173.013 250.031 173.461 250.031C173.763 250.031 174.034 250.083 174.273 250.188V251.672C173.94 251.474 173.607 251.375 173.273 251.375C172.742 251.375 172.31 251.562 171.977 251.938C171.654 252.312 171.346 252.76 171.055 253.281V258H169.773V250.188H171.055ZM179.133 250.031C179.935 250.031 180.602 250.198 181.133 250.531C181.664 250.865 182.06 251.318 182.32 251.891C182.591 252.464 182.727 253.109 182.727 253.828V254.594H176.727C176.789 255.031 176.94 255.432 177.18 255.797C177.419 256.161 177.732 256.453 178.117 256.672C178.503 256.88 178.945 256.984 179.445 256.984C180.008 256.984 180.534 256.844 181.023 256.562C181.513 256.271 181.924 255.953 182.258 255.609L182.242 257C182.096 257.177 181.878 257.365 181.586 257.562C181.305 257.75 180.977 257.906 180.602 258.031C180.237 258.167 179.852 258.234 179.445 258.234C178.654 258.234 177.951 258.047 177.336 257.672C176.721 257.297 176.237 256.802 175.883 256.188C175.539 255.562 175.367 254.88 175.367 254.141C175.367 253.401 175.529 252.719 175.852 252.094C176.174 251.469 176.617 250.969 177.18 250.594C177.753 250.219 178.404 250.031 179.133 250.031ZM179.133 251.281C178.487 251.281 177.956 251.5 177.539 251.938C177.122 252.365 176.862 252.885 176.758 253.5H181.461C181.409 252.99 181.263 252.573 181.023 252.25C180.794 251.927 180.513 251.688 180.18 251.531C179.846 251.365 179.497 251.281 179.133 251.281ZM191.898 246.75V258H190.617V256.672C190.346 257.089 189.977 257.453 189.508 257.766C189.049 258.078 188.523 258.234 187.93 258.234C187.263 258.234 186.654 258.068 186.102 257.734C185.549 257.391 185.107 256.917 184.773 256.312C184.451 255.708 184.289 255.01 184.289 254.219C184.289 253.354 184.451 252.609 184.773 251.984C185.107 251.359 185.56 250.88 186.133 250.547C186.706 250.203 187.346 250.031 188.055 250.031C188.503 250.031 188.956 250.141 189.414 250.359C189.883 250.568 190.284 250.859 190.617 251.234V246.75H191.898ZM188.289 251.312C187.727 251.312 187.247 251.453 186.852 251.734C186.456 252.005 186.148 252.359 185.93 252.797C185.721 253.234 185.617 253.708 185.617 254.219C185.617 254.719 185.721 255.182 185.93 255.609C186.138 256.026 186.43 256.359 186.805 256.609C187.19 256.859 187.633 256.984 188.133 256.984C188.612 256.984 189.039 256.859 189.414 256.609C189.789 256.359 190.086 256.016 190.305 255.578C190.523 255.13 190.628 254.63 190.617 254.078L190.602 252.578C190.279 252.172 189.93 251.859 189.555 251.641C189.19 251.422 188.768 251.312 188.289 251.312ZM203.07 250.031C203.602 250.031 204.086 250.151 204.523 250.391C204.961 250.62 205.31 250.974 205.57 251.453C205.831 251.922 205.961 252.516 205.961 253.234V258H204.68L204.664 253.359C204.664 252.682 204.513 252.167 204.211 251.812C203.919 251.458 203.466 251.281 202.852 251.281C202.435 251.281 202.018 251.438 201.602 251.75C201.195 252.052 200.836 252.406 200.523 252.812V258H199.242V246.75H200.523V251.422C200.69 251.214 200.904 251.005 201.164 250.797C201.424 250.578 201.716 250.396 202.039 250.25C202.372 250.104 202.716 250.031 203.07 250.031ZM211.602 250.031C212.049 250.031 212.503 250.141 212.961 250.359C213.43 250.568 213.831 250.859 214.164 251.234V250.188H215.445V258H214.164V256.672C213.893 257.089 213.523 257.453 213.055 257.766C212.596 258.078 212.07 258.234 211.477 258.234C210.81 258.234 210.201 258.068 209.648 257.734C209.096 257.391 208.654 256.917 208.32 256.312C207.997 255.708 207.836 255.01 207.836 254.219C207.836 253.354 207.997 252.609 208.32 251.984C208.654 251.359 209.107 250.88 209.68 250.547C210.253 250.203 210.893 250.031 211.602 250.031ZM211.836 251.281C211.273 251.281 210.794 251.422 210.398 251.703C210.003 251.984 209.695 252.349 209.477 252.797C209.268 253.234 209.164 253.708 209.164 254.219C209.164 254.719 209.268 255.182 209.477 255.609C209.685 256.026 209.977 256.359 210.352 256.609C210.737 256.859 211.18 256.984 211.68 256.984C212.159 256.984 212.586 256.859 212.961 256.609C213.336 256.359 213.633 256.016 213.852 255.578C214.07 255.13 214.174 254.63 214.164 254.078L214.148 252.578C213.826 252.172 213.477 251.854 213.102 251.625C212.737 251.396 212.315 251.281 211.836 251.281ZM219.383 250.188V251.75C219.685 251.229 220.049 250.812 220.477 250.5C220.904 250.188 221.341 250.031 221.789 250.031C222.091 250.031 222.362 250.083 222.602 250.188V251.672C222.268 251.474 221.935 251.375 221.602 251.375C221.07 251.375 220.638 251.562 220.305 251.938C219.982 252.312 219.674 252.76 219.383 253.281V258H218.102V250.188H219.383ZM231.305 246.75V258H230.023V256.672C229.753 257.089 229.383 257.453 228.914 257.766C228.456 258.078 227.93 258.234 227.336 258.234C226.669 258.234 226.06 258.068 225.508 257.734C224.956 257.391 224.513 256.917 224.18 256.312C223.857 255.708 223.695 255.01 223.695 254.219C223.695 253.354 223.857 252.609 224.18 251.984C224.513 251.359 224.966 250.88 225.539 250.547C226.112 250.203 226.753 250.031 227.461 250.031C227.909 250.031 228.362 250.141 228.82 250.359C229.289 250.568 229.69 250.859 230.023 251.234V246.75H231.305ZM227.695 251.312C227.133 251.312 226.654 251.453 226.258 251.734C225.862 252.005 225.555 252.359 225.336 252.797C225.128 253.234 225.023 253.708 225.023 254.219C225.023 254.719 225.128 255.182 225.336 255.609C225.544 256.026 225.836 256.359 226.211 256.609C226.596 256.859 227.039 256.984 227.539 256.984C228.018 256.984 228.445 256.859 228.82 256.609C229.195 256.359 229.492 256.016 229.711 255.578C229.93 255.13 230.034 254.63 230.023 254.078L230.008 252.578C229.685 252.172 229.336 251.859 228.961 251.641C228.596 251.422 228.174 251.312 227.695 251.312ZM244.211 250.188L241.477 258H240.68L238.539 252.484L236.398 258H235.602L232.867 250.188H234.398L236.133 255.672L238.18 250.188H238.898L240.945 255.672L242.68 250.188H244.211ZM248.992 250.031C249.44 250.031 249.893 250.141 250.352 250.359C250.82 250.568 251.221 250.859 251.555 251.234V250.188H252.836V258H251.555V256.672C251.284 257.089 250.914 257.453 250.445 257.766C249.987 258.078 249.461 258.234 248.867 258.234C248.201 258.234 247.591 258.068 247.039 257.734C246.487 257.391 246.044 256.917 245.711 256.312C245.388 255.708 245.227 255.01 245.227 254.219C245.227 253.354 245.388 252.609 245.711 251.984C246.044 251.359 246.497 250.88 247.07 250.547C247.643 250.203 248.284 250.031 248.992 250.031ZM249.227 251.281C248.664 251.281 248.185 251.422 247.789 251.703C247.393 251.984 247.086 252.349 246.867 252.797C246.659 253.234 246.555 253.708 246.555 254.219C246.555 254.719 246.659 255.182 246.867 255.609C247.076 256.026 247.367 256.359 247.742 256.609C248.128 256.859 248.57 256.984 249.07 256.984C249.549 256.984 249.977 256.859 250.352 256.609C250.727 256.359 251.023 256.016 251.242 255.578C251.461 255.13 251.565 254.63 251.555 254.078L251.539 252.578C251.216 252.172 250.867 251.854 250.492 251.625C250.128 251.396 249.706 251.281 249.227 251.281ZM256.773 250.188V251.75C257.076 251.229 257.44 250.812 257.867 250.5C258.294 250.188 258.732 250.031 259.18 250.031C259.482 250.031 259.753 250.083 259.992 250.188V251.672C259.659 251.474 259.326 251.375 258.992 251.375C258.461 251.375 258.029 251.562 257.695 251.938C257.372 252.312 257.065 252.76 256.773 253.281V258H255.492V250.188H256.773ZM264.852 250.031C265.654 250.031 266.32 250.198 266.852 250.531C267.383 250.865 267.779 251.318 268.039 251.891C268.31 252.464 268.445 253.109 268.445 253.828V254.594H262.445C262.508 255.031 262.659 255.432 262.898 255.797C263.138 256.161 263.451 256.453 263.836 256.672C264.221 256.88 264.664 256.984 265.164 256.984C265.727 256.984 266.253 256.844 266.742 256.562C267.232 256.271 267.643 255.953 267.977 255.609L267.961 257C267.815 257.177 267.596 257.365 267.305 257.562C267.023 257.75 266.695 257.906 266.32 258.031C265.956 258.167 265.57 258.234 265.164 258.234C264.372 258.234 263.669 258.047 263.055 257.672C262.44 257.297 261.956 256.802 261.602 256.188C261.258 255.562 261.086 254.88 261.086 254.141C261.086 253.401 261.247 252.719 261.57 252.094C261.893 251.469 262.336 250.969 262.898 250.594C263.471 250.219 264.122 250.031 264.852 250.031ZM264.852 251.281C264.206 251.281 263.674 251.5 263.258 251.938C262.841 252.365 262.581 252.885 262.477 253.5H267.18C267.128 252.99 266.982 252.573 266.742 252.25C266.513 251.927 266.232 251.688 265.898 251.531C265.565 251.365 265.216 251.281 264.852 251.281ZM45.5859 269.031C46.3776 269.031 47.0807 269.219 47.6953 269.594C48.3099 269.969 48.7891 270.469 49.1328 271.094C49.487 271.719 49.6641 272.401 49.6641 273.141C49.6641 273.88 49.487 274.562 49.1328 275.188C48.7891 275.802 48.3099 276.297 47.6953 276.672C47.0807 277.047 46.3776 277.234 45.5859 277.234C44.7943 277.234 44.0911 277.047 43.4766 276.672C42.862 276.297 42.3776 275.802 42.0234 275.188C41.6797 274.562 41.5078 273.88 41.5078 273.141C41.5078 272.401 41.6797 271.719 42.0234 271.094C42.3776 270.469 42.862 269.969 43.4766 269.594C44.0911 269.219 44.7943 269.031 45.5859 269.031ZM45.5859 270.281C45.0339 270.281 44.5495 270.417 44.1328 270.688C43.7161 270.948 43.3932 271.297 43.1641 271.734C42.9453 272.161 42.8359 272.63 42.8359 273.141C42.8359 273.641 42.9453 274.109 43.1641 274.547C43.3932 274.974 43.7161 275.323 44.1328 275.594C44.5495 275.854 45.0339 275.984 45.5859 275.984C46.1484 275.984 46.6328 275.854 47.0391 275.594C47.4557 275.323 47.7734 274.974 47.9922 274.547C48.2214 274.109 48.3359 273.641 48.3359 273.141C48.3359 272.63 48.2214 272.161 47.9922 271.734C47.7734 271.297 47.4557 270.948 47.0391 270.688C46.6328 270.417 46.1484 270.281 45.5859 270.281ZM53.0547 269.188V270.75C53.3568 270.229 53.7214 269.812 54.1484 269.5C54.5755 269.188 55.013 269.031 55.4609 269.031C55.763 269.031 56.0339 269.083 56.2734 269.188V270.672C55.9401 270.474 55.6068 270.375 55.2734 270.375C54.7422 270.375 54.3099 270.562 53.9766 270.938C53.6536 271.312 53.3464 271.76 53.0547 272.281V277H51.7734V269.188H53.0547ZM66.4297 269.031C66.9609 269.031 67.4453 269.151 67.8828 269.391C68.3203 269.62 68.6693 269.974 68.9297 270.453C69.1901 270.922 69.3203 271.516 69.3203 272.234V277H68.0391L68.0234 272.359C68.0234 271.682 67.8724 271.167 67.5703 270.812C67.2786 270.458 66.8255 270.281 66.2109 270.281C65.7943 270.281 65.3776 270.438 64.9609 270.75C64.5547 271.052 64.1953 271.406 63.8828 271.812V277H62.6016V265.75H63.8828V270.422C64.0495 270.214 64.263 270.005 64.5234 269.797C64.7839 269.578 65.0755 269.396 65.3984 269.25C65.7318 269.104 66.0755 269.031 66.4297 269.031ZM74.9609 269.031C75.4089 269.031 75.862 269.141 76.3203 269.359C76.7891 269.568 77.1901 269.859 77.5234 270.234V269.188H78.8047V277H77.5234V275.672C77.2526 276.089 76.8828 276.453 76.4141 276.766C75.9557 277.078 75.4297 277.234 74.8359 277.234C74.1693 277.234 73.5599 277.068 73.0078 276.734C72.4557 276.391 72.013 275.917 71.6797 275.312C71.3568 274.708 71.1953 274.01 71.1953 273.219C71.1953 272.354 71.3568 271.609 71.6797 270.984C72.013 270.359 72.4661 269.88 73.0391 269.547C73.612 269.203 74.2526 269.031 74.9609 269.031ZM75.1953 270.281C74.6328 270.281 74.1536 270.422 73.7578 270.703C73.362 270.984 73.0547 271.349 72.8359 271.797C72.6276 272.234 72.5234 272.708 72.5234 273.219C72.5234 273.719 72.6276 274.182 72.8359 274.609C73.0443 275.026 73.3359 275.359 73.7109 275.609C74.0964 275.859 74.5391 275.984 75.0391 275.984C75.5182 275.984 75.9453 275.859 76.3203 275.609C76.6953 275.359 76.9922 275.016 77.2109 274.578C77.4297 274.13 77.5339 273.63 77.5234 273.078L77.5078 271.578C77.1849 271.172 76.8359 270.854 76.4609 270.625C76.0964 270.396 75.6745 270.281 75.1953 270.281ZM82.7422 269.188V270.75C83.0443 270.229 83.4089 269.812 83.8359 269.5C84.263 269.188 84.7005 269.031 85.1484 269.031C85.4505 269.031 85.7214 269.083 85.9609 269.188V270.672C85.6276 270.474 85.2943 270.375 84.9609 270.375C84.4297 270.375 83.9974 270.562 83.6641 270.938C83.3411 271.312 83.0339 271.76 82.7422 272.281V277H81.4609V269.188H82.7422ZM94.6641 265.75V277H93.3828V275.672C93.112 276.089 92.7422 276.453 92.2734 276.766C91.8151 277.078 91.2891 277.234 90.6953 277.234C90.0286 277.234 89.4193 277.068 88.8672 276.734C88.3151 276.391 87.8724 275.917 87.5391 275.312C87.2161 274.708 87.0547 274.01 87.0547 273.219C87.0547 272.354 87.2161 271.609 87.5391 270.984C87.8724 270.359 88.3255 269.88 88.8984 269.547C89.4714 269.203 90.112 269.031 90.8203 269.031C91.2682 269.031 91.7214 269.141 92.1797 269.359C92.6484 269.568 93.0495 269.859 93.3828 270.234V265.75H94.6641ZM91.0547 270.312C90.4922 270.312 90.013 270.453 89.6172 270.734C89.2214 271.005 88.9141 271.359 88.6953 271.797C88.487 272.234 88.3828 272.708 88.3828 273.219C88.3828 273.719 88.487 274.182 88.6953 274.609C88.9036 275.026 89.1953 275.359 89.5703 275.609C89.9557 275.859 90.3984 275.984 90.8984 275.984C91.3776 275.984 91.8047 275.859 92.1797 275.609C92.5547 275.359 92.8516 275.016 93.0703 274.578C93.2891 274.13 93.3932 273.63 93.3828 273.078L93.3672 271.578C93.0443 271.172 92.6953 270.859 92.3203 270.641C91.9557 270.422 91.5339 270.312 91.0547 270.312ZM107.57 269.188L104.836 277H104.039L101.898 271.484L99.7578 277H98.9609L96.2266 269.188H97.7578L99.4922 274.672L101.539 269.188H102.258L104.305 274.672L106.039 269.188H107.57ZM112.352 269.031C112.799 269.031 113.253 269.141 113.711 269.359C114.18 269.568 114.581 269.859 114.914 270.234V269.188H116.195V277H114.914V275.672C114.643 276.089 114.273 276.453 113.805 276.766C113.346 277.078 112.82 277.234 112.227 277.234C111.56 277.234 110.951 277.068 110.398 276.734C109.846 276.391 109.404 275.917 109.07 275.312C108.747 274.708 108.586 274.01 108.586 273.219C108.586 272.354 108.747 271.609 109.07 270.984C109.404 270.359 109.857 269.88 110.43 269.547C111.003 269.203 111.643 269.031 112.352 269.031ZM112.586 270.281C112.023 270.281 111.544 270.422 111.148 270.703C110.753 270.984 110.445 271.349 110.227 271.797C110.018 272.234 109.914 272.708 109.914 273.219C109.914 273.719 110.018 274.182 110.227 274.609C110.435 275.026 110.727 275.359 111.102 275.609C111.487 275.859 111.93 275.984 112.43 275.984C112.909 275.984 113.336 275.859 113.711 275.609C114.086 275.359 114.383 275.016 114.602 274.578C114.82 274.13 114.924 273.63 114.914 273.078L114.898 271.578C114.576 271.172 114.227 270.854 113.852 270.625C113.487 270.396 113.065 270.281 112.586 270.281ZM120.133 269.188V270.75C120.435 270.229 120.799 269.812 121.227 269.5C121.654 269.188 122.091 269.031 122.539 269.031C122.841 269.031 123.112 269.083 123.352 269.188V270.672C123.018 270.474 122.685 270.375 122.352 270.375C121.82 270.375 121.388 270.562 121.055 270.938C120.732 271.312 120.424 271.76 120.133 272.281V277H118.852V269.188H120.133ZM128.211 269.031C129.013 269.031 129.68 269.198 130.211 269.531C130.742 269.865 131.138 270.318 131.398 270.891C131.669 271.464 131.805 272.109 131.805 272.828V273.594H125.805C125.867 274.031 126.018 274.432 126.258 274.797C126.497 275.161 126.81 275.453 127.195 275.672C127.581 275.88 128.023 275.984 128.523 275.984C129.086 275.984 129.612 275.844 130.102 275.562C130.591 275.271 131.003 274.953 131.336 274.609L131.32 276C131.174 276.177 130.956 276.365 130.664 276.562C130.383 276.75 130.055 276.906 129.68 277.031C129.315 277.167 128.93 277.234 128.523 277.234C127.732 277.234 127.029 277.047 126.414 276.672C125.799 276.297 125.315 275.802 124.961 275.188C124.617 274.562 124.445 273.88 124.445 273.141C124.445 272.401 124.607 271.719 124.93 271.094C125.253 270.469 125.695 269.969 126.258 269.594C126.831 269.219 127.482 269.031 128.211 269.031ZM128.211 270.281C127.565 270.281 127.034 270.5 126.617 270.938C126.201 271.365 125.94 271.885 125.836 272.5H130.539C130.487 271.99 130.341 271.573 130.102 271.25C129.872 270.927 129.591 270.688 129.258 270.531C128.924 270.365 128.576 270.281 128.211 270.281ZM141.82 269.031C142.622 269.031 143.289 269.198 143.82 269.531C144.352 269.865 144.747 270.318 145.008 270.891C145.279 271.464 145.414 272.109 145.414 272.828V273.594H139.414C139.477 274.031 139.628 274.432 139.867 274.797C140.107 275.161 140.419 275.453 140.805 275.672C141.19 275.88 141.633 275.984 142.133 275.984C142.695 275.984 143.221 275.844 143.711 275.562C144.201 275.271 144.612 274.953 144.945 274.609L144.93 276C144.784 276.177 144.565 276.365 144.273 276.562C143.992 276.75 143.664 276.906 143.289 277.031C142.924 277.167 142.539 277.234 142.133 277.234C141.341 277.234 140.638 277.047 140.023 276.672C139.409 276.297 138.924 275.802 138.57 275.188C138.227 274.562 138.055 273.88 138.055 273.141C138.055 272.401 138.216 271.719 138.539 271.094C138.862 270.469 139.305 269.969 139.867 269.594C140.44 269.219 141.091 269.031 141.82 269.031ZM141.82 270.281C141.174 270.281 140.643 270.5 140.227 270.938C139.81 271.365 139.549 271.885 139.445 272.5H144.148C144.096 271.99 143.951 271.573 143.711 271.25C143.482 270.927 143.201 270.688 142.867 270.531C142.534 270.365 142.185 270.281 141.82 270.281ZM148.805 269.188V270.188C149.055 269.906 149.372 269.646 149.758 269.406C150.154 269.156 150.617 269.031 151.148 269.031C151.711 269.031 152.237 269.167 152.727 269.438C153.216 269.698 153.591 270.094 153.852 270.625C154.216 270.188 154.612 269.812 155.039 269.5C155.466 269.188 155.966 269.031 156.539 269.031C157.07 269.031 157.565 269.151 158.023 269.391C158.492 269.62 158.867 269.974 159.148 270.453C159.44 270.922 159.586 271.516 159.586 272.234V277H158.305L158.289 272.359C158.289 271.682 158.112 271.167 157.758 270.812C157.414 270.458 156.935 270.281 156.32 270.281C155.872 270.281 155.482 270.422 155.148 270.703C154.815 270.984 154.497 271.312 154.195 271.688V277H152.914L152.898 272.359C152.898 271.682 152.721 271.167 152.367 270.812C152.023 270.458 151.544 270.281 150.93 270.281C150.503 270.281 150.112 270.406 149.758 270.656C149.414 270.906 149.096 271.208 148.805 271.562V277H147.523V269.188H148.805ZM168.398 269.188V273.812C168.398 274.5 168.253 275.094 167.961 275.594C167.669 276.094 167.273 276.479 166.773 276.75C166.273 277.021 165.711 277.156 165.086 277.156C164.461 277.156 163.898 277.021 163.398 276.75C162.898 276.479 162.503 276.094 162.211 275.594C161.919 275.094 161.773 274.5 161.773 273.812V269.188H163.102V273.812C163.102 274.49 163.299 275.01 163.695 275.375C164.102 275.729 164.565 275.906 165.086 275.906C165.607 275.906 166.065 275.729 166.461 275.375C166.867 275.01 167.07 274.49 167.07 273.812V269.188H168.398ZM172.102 265.75V277H170.82V265.75H172.102ZM177.977 269.031C178.424 269.031 178.878 269.141 179.336 269.359C179.805 269.568 180.206 269.859 180.539 270.234V269.188H181.82V277H180.539V275.672C180.268 276.089 179.898 276.453 179.43 276.766C178.971 277.078 178.445 277.234 177.852 277.234C177.185 277.234 176.576 277.068 176.023 276.734C175.471 276.391 175.029 275.917 174.695 275.312C174.372 274.708 174.211 274.01 174.211 273.219C174.211 272.354 174.372 271.609 174.695 270.984C175.029 270.359 175.482 269.88 176.055 269.547C176.628 269.203 177.268 269.031 177.977 269.031ZM178.211 270.281C177.648 270.281 177.169 270.422 176.773 270.703C176.378 270.984 176.07 271.349 175.852 271.797C175.643 272.234 175.539 272.708 175.539 273.219C175.539 273.719 175.643 274.182 175.852 274.609C176.06 275.026 176.352 275.359 176.727 275.609C177.112 275.859 177.555 275.984 178.055 275.984C178.534 275.984 178.961 275.859 179.336 275.609C179.711 275.359 180.008 275.016 180.227 274.578C180.445 274.13 180.549 273.63 180.539 273.078L180.523 271.578C180.201 271.172 179.852 270.854 179.477 270.625C179.112 270.396 178.69 270.281 178.211 270.281ZM186.633 266.938V269.188H188.914V270.391H186.633V274.969C186.633 275.292 186.716 275.547 186.883 275.734C187.049 275.922 187.305 276.016 187.648 276.016C187.961 276.016 188.221 275.979 188.43 275.906C188.638 275.823 188.82 275.734 188.977 275.641V276.688C188.768 276.854 188.544 276.984 188.305 277.078C188.076 277.182 187.763 277.234 187.367 277.234C186.701 277.234 186.195 277.036 185.852 276.641C185.518 276.234 185.352 275.698 185.352 275.031V270.391H183.852V270.016C184.362 269.786 184.789 269.411 185.133 268.891C185.477 268.359 185.779 267.708 186.039 266.938H186.633ZM194.773 269.031C195.565 269.031 196.268 269.219 196.883 269.594C197.497 269.969 197.977 270.469 198.32 271.094C198.674 271.719 198.852 272.401 198.852 273.141C198.852 273.88 198.674 274.562 198.32 275.188C197.977 275.802 197.497 276.297 196.883 276.672C196.268 277.047 195.565 277.234 194.773 277.234C193.982 277.234 193.279 277.047 192.664 276.672C192.049 276.297 191.565 275.802 191.211 275.188C190.867 274.562 190.695 273.88 190.695 273.141C190.695 272.401 190.867 271.719 191.211 271.094C191.565 270.469 192.049 269.969 192.664 269.594C193.279 269.219 193.982 269.031 194.773 269.031ZM194.773 270.281C194.221 270.281 193.737 270.417 193.32 270.688C192.904 270.948 192.581 271.297 192.352 271.734C192.133 272.161 192.023 272.63 192.023 273.141C192.023 273.641 192.133 274.109 192.352 274.547C192.581 274.974 192.904 275.323 193.32 275.594C193.737 275.854 194.221 275.984 194.773 275.984C195.336 275.984 195.82 275.854 196.227 275.594C196.643 275.323 196.961 274.974 197.18 274.547C197.409 274.109 197.523 273.641 197.523 273.141C197.523 272.63 197.409 272.161 197.18 271.734C196.961 271.297 196.643 270.948 196.227 270.688C195.82 270.417 195.336 270.281 194.773 270.281ZM202.242 269.188V270.75C202.544 270.229 202.909 269.812 203.336 269.5C203.763 269.188 204.201 269.031 204.648 269.031C204.951 269.031 205.221 269.083 205.461 269.188V270.672C205.128 270.474 204.794 270.375 204.461 270.375C203.93 270.375 203.497 270.562 203.164 270.938C202.841 271.312 202.534 271.76 202.242 272.281V277H200.961V269.188H202.242ZM207.648 275.156L208.93 275.594L207.523 279.766L206.555 279.516L207.648 275.156ZM220.039 269.031C220.758 269.031 221.398 269.203 221.961 269.547C222.534 269.88 222.982 270.359 223.305 270.984C223.638 271.609 223.805 272.354 223.805 273.219C223.805 274.01 223.638 274.708 223.305 275.312C222.982 275.917 222.544 276.391 221.992 276.734C221.451 277.068 220.841 277.234 220.164 277.234C219.57 277.234 219.039 277.078 218.57 276.766C218.112 276.453 217.747 276.089 217.477 275.672V277H216.195V265.75H217.477V270.234C217.81 269.859 218.206 269.568 218.664 269.359C219.133 269.141 219.591 269.031 220.039 269.031ZM219.805 270.297C219.326 270.297 218.904 270.411 218.539 270.641C218.174 270.859 217.826 271.172 217.492 271.578L217.477 273.078C217.477 273.63 217.581 274.125 217.789 274.562C218.008 275 218.305 275.344 218.68 275.594C219.065 275.844 219.492 275.969 219.961 275.969C220.471 275.969 220.914 275.844 221.289 275.594C221.664 275.344 221.956 275.01 222.164 274.594C222.372 274.177 222.477 273.719 222.477 273.219C222.477 272.708 222.367 272.234 222.148 271.797C221.94 271.349 221.638 270.99 221.242 270.719C220.846 270.438 220.367 270.297 219.805 270.297ZM232.305 269.188V273.812C232.305 274.5 232.159 275.094 231.867 275.594C231.576 276.094 231.18 276.479 230.68 276.75C230.18 277.021 229.617 277.156 228.992 277.156C228.367 277.156 227.805 277.021 227.305 276.75C226.805 276.479 226.409 276.094 226.117 275.594C225.826 275.094 225.68 274.5 225.68 273.812V269.188H227.008V273.812C227.008 274.49 227.206 275.01 227.602 275.375C228.008 275.729 228.471 275.906 228.992 275.906C229.513 275.906 229.971 275.729 230.367 275.375C230.773 275.01 230.977 274.49 230.977 273.812V269.188H232.305ZM235.977 265.438C236.279 265.438 236.529 265.547 236.727 265.766C236.935 265.974 237.039 266.219 237.039 266.5C237.039 266.771 236.935 267.016 236.727 267.234C236.529 267.453 236.279 267.562 235.977 267.562C235.674 267.562 235.419 267.453 235.211 267.234C235.013 267.016 234.914 266.771 234.914 266.5C234.914 266.219 235.013 265.974 235.211 265.766C235.419 265.547 235.674 265.438 235.977 265.438ZM236.773 269.188V277H235.492V270.391H234.258V269.188H236.773ZM240.82 265.75V277H239.539V265.75H240.82ZM250.539 265.75V277H249.258V275.672C248.987 276.089 248.617 276.453 248.148 276.766C247.69 277.078 247.164 277.234 246.57 277.234C245.904 277.234 245.294 277.068 244.742 276.734C244.19 276.391 243.747 275.917 243.414 275.312C243.091 274.708 242.93 274.01 242.93 273.219C242.93 272.354 243.091 271.609 243.414 270.984C243.747 270.359 244.201 269.88 244.773 269.547C245.346 269.203 245.987 269.031 246.695 269.031C247.143 269.031 247.596 269.141 248.055 269.359C248.523 269.568 248.924 269.859 249.258 270.234V265.75H250.539ZM246.93 270.312C246.367 270.312 245.888 270.453 245.492 270.734C245.096 271.005 244.789 271.359 244.57 271.797C244.362 272.234 244.258 272.708 244.258 273.219C244.258 273.719 244.362 274.182 244.57 274.609C244.779 275.026 245.07 275.359 245.445 275.609C245.831 275.859 246.273 275.984 246.773 275.984C247.253 275.984 247.68 275.859 248.055 275.609C248.43 275.359 248.727 275.016 248.945 274.578C249.164 274.13 249.268 273.63 249.258 273.078L249.242 271.578C248.919 271.172 248.57 270.859 248.195 270.641C247.831 270.422 247.409 270.312 246.93 270.312ZM261.102 269.031C261.549 269.031 262.003 269.141 262.461 269.359C262.93 269.568 263.331 269.859 263.664 270.234V269.188H264.945V277H263.664V275.672C263.393 276.089 263.023 276.453 262.555 276.766C262.096 277.078 261.57 277.234 260.977 277.234C260.31 277.234 259.701 277.068 259.148 276.734C258.596 276.391 258.154 275.917 257.82 275.312C257.497 274.708 257.336 274.01 257.336 273.219C257.336 272.354 257.497 271.609 257.82 270.984C258.154 270.359 258.607 269.88 259.18 269.547C259.753 269.203 260.393 269.031 261.102 269.031ZM261.336 270.281C260.773 270.281 260.294 270.422 259.898 270.703C259.503 270.984 259.195 271.349 258.977 271.797C258.768 272.234 258.664 272.708 258.664 273.219C258.664 273.719 258.768 274.182 258.977 274.609C259.185 275.026 259.477 275.359 259.852 275.609C260.237 275.859 260.68 275.984 261.18 275.984C261.659 275.984 262.086 275.859 262.461 275.609C262.836 275.359 263.133 275.016 263.352 274.578C263.57 274.13 263.674 273.63 263.664 273.078L263.648 271.578C263.326 271.172 262.977 270.854 262.602 270.625C262.237 270.396 261.815 270.281 261.336 270.281ZM82.7891 288.031C83.3203 288.031 83.8047 288.151 84.2422 288.391C84.6797 288.62 85.0286 288.974 85.2891 289.453C85.5495 289.922 85.6797 290.516 85.6797 291.234V296H84.3984L84.3828 291.359C84.3828 290.682 84.2318 290.167 83.9297 289.812C83.638 289.458 83.1849 289.281 82.5703 289.281C82.1536 289.281 81.737 289.438 81.3203 289.75C80.9141 290.052 80.5547 290.406 80.2422 290.812V296H78.9609V284.75H80.2422V289.422C80.4089 289.214 80.6224 289.005 80.8828 288.797C81.1432 288.578 81.4349 288.396 81.7578 288.25C82.0911 288.104 82.4349 288.031 82.7891 288.031ZM91.3203 288.031C91.7682 288.031 92.2214 288.141 92.6797 288.359C93.1484 288.568 93.5495 288.859 93.8828 289.234V288.188H95.1641V296H93.8828V294.672C93.612 295.089 93.2422 295.453 92.7734 295.766C92.3151 296.078 91.7891 296.234 91.1953 296.234C90.5286 296.234 89.9193 296.068 89.3672 295.734C88.8151 295.391 88.3724 294.917 88.0391 294.312C87.7161 293.708 87.5547 293.01 87.5547 292.219C87.5547 291.354 87.7161 290.609 88.0391 289.984C88.3724 289.359 88.8255 288.88 89.3984 288.547C89.9714 288.203 90.612 288.031 91.3203 288.031ZM91.5547 289.281C90.9922 289.281 90.513 289.422 90.1172 289.703C89.7214 289.984 89.4141 290.349 89.1953 290.797C88.987 291.234 88.8828 291.708 88.8828 292.219C88.8828 292.719 88.987 293.182 89.1953 293.609C89.4036 294.026 89.6953 294.359 90.0703 294.609C90.4557 294.859 90.8984 294.984 91.3984 294.984C91.8776 294.984 92.3047 294.859 92.6797 294.609C93.0547 294.359 93.3516 294.016 93.5703 293.578C93.7891 293.13 93.8932 292.63 93.8828 292.078L93.8672 290.578C93.5443 290.172 93.1953 289.854 92.8203 289.625C92.4557 289.396 92.0339 289.281 91.5547 289.281ZM101.352 288.031C101.924 288.031 102.419 288.125 102.836 288.312C103.253 288.49 103.539 288.651 103.695 288.797V290.094C103.404 289.875 103.07 289.688 102.695 289.531C102.32 289.365 101.872 289.281 101.352 289.281C100.799 289.281 100.315 289.417 99.8984 289.688C99.4818 289.948 99.1589 290.297 98.9297 290.734C98.7109 291.161 98.6016 291.63 98.6016 292.141C98.6016 292.641 98.7109 293.109 98.9297 293.547C99.1589 293.974 99.4818 294.323 99.8984 294.594C100.315 294.854 100.799 294.984 101.352 294.984C101.872 294.984 102.32 294.906 102.695 294.75C103.07 294.583 103.404 294.391 103.695 294.172V295.469C103.539 295.625 103.253 295.792 102.836 295.969C102.419 296.146 101.924 296.234 101.352 296.234C100.56 296.234 99.8568 296.047 99.2422 295.672C98.6276 295.297 98.1432 294.802 97.7891 294.188C97.4453 293.562 97.2734 292.88 97.2734 292.141C97.2734 291.401 97.4453 290.719 97.7891 290.094C98.1432 289.469 98.6276 288.969 99.2422 288.594C99.8568 288.219 100.56 288.031 101.352 288.031ZM112.711 288.188L109.086 291.594L112.914 296H111.289L108.195 292.438L107.086 293.469V296H105.805V284.75H107.086V292L110.977 288.188H112.711ZM122.539 288.031C123.331 288.031 124.034 288.219 124.648 288.594C125.263 288.969 125.742 289.469 126.086 290.094C126.44 290.719 126.617 291.401 126.617 292.141C126.617 292.88 126.44 293.562 126.086 294.188C125.742 294.802 125.263 295.297 124.648 295.672C124.034 296.047 123.331 296.234 122.539 296.234C121.747 296.234 121.044 296.047 120.43 295.672C119.815 295.297 119.331 294.802 118.977 294.188C118.633 293.562 118.461 292.88 118.461 292.141C118.461 291.401 118.633 290.719 118.977 290.094C119.331 289.469 119.815 288.969 120.43 288.594C121.044 288.219 121.747 288.031 122.539 288.031ZM122.539 289.281C121.987 289.281 121.503 289.417 121.086 289.688C120.669 289.948 120.346 290.297 120.117 290.734C119.898 291.161 119.789 291.63 119.789 292.141C119.789 292.641 119.898 293.109 120.117 293.547C120.346 293.974 120.669 294.323 121.086 294.594C121.503 294.854 121.987 294.984 122.539 294.984C123.102 294.984 123.586 294.854 123.992 294.594C124.409 294.323 124.727 293.974 124.945 293.547C125.174 293.109 125.289 292.641 125.289 292.141C125.289 291.63 125.174 291.161 124.945 290.734C124.727 290.297 124.409 289.948 123.992 289.688C123.586 289.417 123.102 289.281 122.539 289.281ZM132.773 288.188V289.391H130.492V296H129.211V289.391H127.977V288.188H129.211V287.188C129.211 286.573 129.331 286.073 129.57 285.688C129.81 285.292 130.117 285 130.492 284.812C130.867 284.615 131.247 284.516 131.633 284.516C132.164 284.516 132.596 284.656 132.93 284.938V286.062C132.773 285.958 132.586 285.875 132.367 285.812C132.148 285.75 131.93 285.724 131.711 285.734C131.326 285.745 131.023 285.87 130.805 286.109C130.596 286.339 130.492 286.745 130.492 287.328V288.188H132.773ZM139.602 288.188L142.336 293.938L144.992 288.188H146.523L140.773 299.75H139.289L141.523 295.531L138.07 288.188H139.602ZM151.617 288.031C152.409 288.031 153.112 288.219 153.727 288.594C154.341 288.969 154.82 289.469 155.164 290.094C155.518 290.719 155.695 291.401 155.695 292.141C155.695 292.88 155.518 293.562 155.164 294.188C154.82 294.802 154.341 295.297 153.727 295.672C153.112 296.047 152.409 296.234 151.617 296.234C150.826 296.234 150.122 296.047 149.508 295.672C148.893 295.297 148.409 294.802 148.055 294.188C147.711 293.562 147.539 292.88 147.539 292.141C147.539 291.401 147.711 290.719 148.055 290.094C148.409 289.469 148.893 288.969 149.508 288.594C150.122 288.219 150.826 288.031 151.617 288.031ZM151.617 289.281C151.065 289.281 150.581 289.417 150.164 289.688C149.747 289.948 149.424 290.297 149.195 290.734C148.977 291.161 148.867 291.63 148.867 292.141C148.867 292.641 148.977 293.109 149.195 293.547C149.424 293.974 149.747 294.323 150.164 294.594C150.581 294.854 151.065 294.984 151.617 294.984C152.18 294.984 152.664 294.854 153.07 294.594C153.487 294.323 153.805 293.974 154.023 293.547C154.253 293.109 154.367 292.641 154.367 292.141C154.367 291.63 154.253 291.161 154.023 290.734C153.805 290.297 153.487 289.948 153.07 289.688C152.664 289.417 152.18 289.281 151.617 289.281ZM164.195 288.188V292.812C164.195 293.5 164.049 294.094 163.758 294.594C163.466 295.094 163.07 295.479 162.57 295.75C162.07 296.021 161.508 296.156 160.883 296.156C160.258 296.156 159.695 296.021 159.195 295.75C158.695 295.479 158.299 295.094 158.008 294.594C157.716 294.094 157.57 293.5 157.57 292.812V288.188H158.898V292.812C158.898 293.49 159.096 294.01 159.492 294.375C159.898 294.729 160.362 294.906 160.883 294.906C161.404 294.906 161.862 294.729 162.258 294.375C162.664 294.01 162.867 293.49 162.867 292.812V288.188H164.195ZM167.898 288.188V289.75C168.201 289.229 168.565 288.812 168.992 288.5C169.419 288.188 169.857 288.031 170.305 288.031C170.607 288.031 170.878 288.083 171.117 288.188V289.672C170.784 289.474 170.451 289.375 170.117 289.375C169.586 289.375 169.154 289.562 168.82 289.938C168.497 290.312 168.19 290.76 167.898 291.281V296H166.617V288.188H167.898ZM180.977 288.031C181.549 288.031 182.044 288.125 182.461 288.312C182.878 288.49 183.164 288.651 183.32 288.797V290.094C183.029 289.875 182.695 289.688 182.32 289.531C181.945 289.365 181.497 289.281 180.977 289.281C180.424 289.281 179.94 289.417 179.523 289.688C179.107 289.948 178.784 290.297 178.555 290.734C178.336 291.161 178.227 291.63 178.227 292.141C178.227 292.641 178.336 293.109 178.555 293.547C178.784 293.974 179.107 294.323 179.523 294.594C179.94 294.854 180.424 294.984 180.977 294.984C181.497 294.984 181.945 294.906 182.32 294.75C182.695 294.583 183.029 294.391 183.32 294.172V295.469C183.164 295.625 182.878 295.792 182.461 295.969C182.044 296.146 181.549 296.234 180.977 296.234C180.185 296.234 179.482 296.047 178.867 295.672C178.253 295.297 177.768 294.802 177.414 294.188C177.07 293.562 176.898 292.88 176.898 292.141C176.898 291.401 177.07 290.719 177.414 290.094C177.768 289.469 178.253 288.969 178.867 288.594C179.482 288.219 180.185 288.031 180.977 288.031ZM189.258 288.031C189.789 288.031 190.273 288.151 190.711 288.391C191.148 288.62 191.497 288.974 191.758 289.453C192.018 289.922 192.148 290.516 192.148 291.234V296H190.867L190.852 291.359C190.852 290.682 190.701 290.167 190.398 289.812C190.107 289.458 189.654 289.281 189.039 289.281C188.622 289.281 188.206 289.438 187.789 289.75C187.383 290.052 187.023 290.406 186.711 290.812V296H185.43V284.75H186.711V289.422C186.878 289.214 187.091 289.005 187.352 288.797C187.612 288.578 187.904 288.396 188.227 288.25C188.56 288.104 188.904 288.031 189.258 288.031ZM198.102 288.031C198.893 288.031 199.596 288.219 200.211 288.594C200.826 288.969 201.305 289.469 201.648 290.094C202.003 290.719 202.18 291.401 202.18 292.141C202.18 292.88 202.003 293.562 201.648 294.188C201.305 294.802 200.826 295.297 200.211 295.672C199.596 296.047 198.893 296.234 198.102 296.234C197.31 296.234 196.607 296.047 195.992 295.672C195.378 295.297 194.893 294.802 194.539 294.188C194.195 293.562 194.023 292.88 194.023 292.141C194.023 291.401 194.195 290.719 194.539 290.094C194.893 289.469 195.378 288.969 195.992 288.594C196.607 288.219 197.31 288.031 198.102 288.031ZM198.102 289.281C197.549 289.281 197.065 289.417 196.648 289.688C196.232 289.948 195.909 290.297 195.68 290.734C195.461 291.161 195.352 291.63 195.352 292.141C195.352 292.641 195.461 293.109 195.68 293.547C195.909 293.974 196.232 294.323 196.648 294.594C197.065 294.854 197.549 294.984 198.102 294.984C198.664 294.984 199.148 294.854 199.555 294.594C199.971 294.323 200.289 293.974 200.508 293.547C200.737 293.109 200.852 292.641 200.852 292.141C200.852 291.63 200.737 291.161 200.508 290.734C200.289 290.297 199.971 289.948 199.555 289.688C199.148 289.417 198.664 289.281 198.102 289.281ZM205.539 284.438C205.841 284.438 206.091 284.547 206.289 284.766C206.497 284.974 206.602 285.219 206.602 285.5C206.602 285.771 206.497 286.016 206.289 286.234C206.091 286.453 205.841 286.562 205.539 286.562C205.237 286.562 204.982 286.453 204.773 286.234C204.576 286.016 204.477 285.771 204.477 285.5C204.477 285.219 204.576 284.974 204.773 284.766C204.982 284.547 205.237 284.438 205.539 284.438ZM206.336 288.188V296H205.055V289.391H203.82V288.188H206.336ZM212.633 288.031C213.206 288.031 213.701 288.125 214.117 288.312C214.534 288.49 214.82 288.651 214.977 288.797V290.094C214.685 289.875 214.352 289.688 213.977 289.531C213.602 289.365 213.154 289.281 212.633 289.281C212.081 289.281 211.596 289.417 211.18 289.688C210.763 289.948 210.44 290.297 210.211 290.734C209.992 291.161 209.883 291.63 209.883 292.141C209.883 292.641 209.992 293.109 210.211 293.547C210.44 293.974 210.763 294.323 211.18 294.594C211.596 294.854 212.081 294.984 212.633 294.984C213.154 294.984 213.602 294.906 213.977 294.75C214.352 294.583 214.685 294.391 214.977 294.172V295.469C214.82 295.625 214.534 295.792 214.117 295.969C213.701 296.146 213.206 296.234 212.633 296.234C211.841 296.234 211.138 296.047 210.523 295.672C209.909 295.297 209.424 294.802 209.07 294.188C208.727 293.562 208.555 292.88 208.555 292.141C208.555 291.401 208.727 290.719 209.07 290.094C209.424 289.469 209.909 288.969 210.523 288.594C211.138 288.219 211.841 288.031 212.633 288.031ZM220.305 288.031C221.107 288.031 221.773 288.198 222.305 288.531C222.836 288.865 223.232 289.318 223.492 289.891C223.763 290.464 223.898 291.109 223.898 291.828V292.594H217.898C217.961 293.031 218.112 293.432 218.352 293.797C218.591 294.161 218.904 294.453 219.289 294.672C219.674 294.88 220.117 294.984 220.617 294.984C221.18 294.984 221.706 294.844 222.195 294.562C222.685 294.271 223.096 293.953 223.43 293.609L223.414 295C223.268 295.177 223.049 295.365 222.758 295.562C222.477 295.75 222.148 295.906 221.773 296.031C221.409 296.167 221.023 296.234 220.617 296.234C219.826 296.234 219.122 296.047 218.508 295.672C217.893 295.297 217.409 294.802 217.055 294.188C216.711 293.562 216.539 292.88 216.539 292.141C216.539 291.401 216.701 290.719 217.023 290.094C217.346 289.469 217.789 288.969 218.352 288.594C218.924 288.219 219.576 288.031 220.305 288.031ZM220.305 289.281C219.659 289.281 219.128 289.5 218.711 289.938C218.294 290.365 218.034 290.885 217.93 291.5H222.633C222.581 290.99 222.435 290.573 222.195 290.25C221.966 289.927 221.685 289.688 221.352 289.531C221.018 289.365 220.669 289.281 220.305 289.281ZM227.023 294.094C227.326 294.094 227.581 294.203 227.789 294.422C228.008 294.63 228.117 294.885 228.117 295.188C228.117 295.479 228.008 295.734 227.789 295.953C227.581 296.172 227.326 296.281 227.023 296.281C226.721 296.281 226.461 296.172 226.242 295.953C226.034 295.734 225.93 295.479 225.93 295.188C225.93 294.885 226.034 294.63 226.242 294.422C226.461 294.203 226.721 294.094 227.023 294.094Z" fill="white"/>
</svg>