<svg width="301" height="391" viewBox="0 0 301 391" fill="none" xmlns="http://www.w3.org/2000/svg">
<rect x="1" y="1" width="299" height="389" rx="9" fill="#132A3E"/>
<rect x="1" y="1" width="299" height="389" rx="9" stroke="#254D70" stroke-width="2"/>
<g clip-path="url(#clip0_386_29)">
<path d="M125.28 71.175C126.084 70.4978 127.081 70.0912 128.13 70.0131C129.178 69.935 130.224 70.1894 131.12 70.74C148.4 81.375 157.87 94.83 162.92 109.64C164.17 113.305 165.145 117.04 165.9 120.82C171.045 112.17 179.265 105.31 191.645 100.36C192.518 100.011 193.471 99.916 194.396 100.085C195.321 100.253 196.179 100.679 196.873 101.313C197.567 101.947 198.068 102.764 198.318 103.67C198.569 104.576 198.559 105.534 198.29 106.435L197.385 109.455C190.585 132.095 188.5 139.03 188.5 155C188.5 156.326 187.973 157.598 187.036 158.536C186.098 159.473 184.826 160 183.5 160C182.174 160 180.902 159.473 179.965 158.536C179.027 157.598 178.5 156.326 178.5 155C178.5 139.725 180.4 131.5 185.35 114.79C179.74 118.51 176.045 122.83 173.565 127.615C169.74 134.985 168.5 144.025 168.5 155C168.5 156.326 167.973 157.598 167.036 158.536C166.098 159.473 164.826 160 163.5 160C162.174 160 160.902 159.473 159.965 158.536C159.027 157.598 158.5 156.326 158.5 155C158.5 140.04 157.85 125.765 153.455 112.865C150.505 104.22 145.845 96.11 138.365 88.855C143.45 108.155 143.5 126.775 143.5 153.725V155C143.5 156.326 142.973 157.598 142.036 158.536C141.098 159.473 139.826 160 138.5 160C137.174 160 135.902 159.473 134.965 158.536C134.027 157.598 133.5 156.326 133.5 155C133.5 143.55 133.45 133.145 130.615 124.35C128.985 119.285 126.415 114.75 122.2 110.98C126.8 126.745 128.5 138.415 128.5 155C128.5 156.326 127.973 157.598 127.036 158.536C126.098 159.473 124.826 160 123.5 160C122.174 160 120.902 159.473 119.965 158.536C119.027 157.598 118.5 156.326 118.5 155C118.5 135.68 116.14 123.725 108.755 101.58C108.454 100.676 108.419 99.7043 108.652 98.7802C108.885 97.8562 109.377 97.018 110.071 96.3644C110.764 95.7108 111.63 95.269 112.566 95.0911C113.503 94.9131 114.47 95.0064 115.355 95.36C122.33 98.145 127.63 101.865 131.63 106.26C130.291 96.1713 127.681 86.2927 123.86 76.86C123.469 75.8835 123.395 74.8084 123.65 73.7877C123.905 72.767 124.475 71.8527 125.28 71.175Z" fill="#EDC8FA"/>
</g>
<path d="M51.8984 187.922C53.1172 187.922 54.1797 188.117 55.0859 188.508C55.9922 188.883 56.6953 189.406 57.1953 190.078C57.7109 190.75 57.9688 191.523 57.9688 192.398C57.9688 193.18 57.7578 193.875 57.3359 194.484C56.9297 195.094 56.4141 195.562 55.7891 195.891C56.2578 196.016 56.7109 196.227 57.1484 196.523C57.5859 196.805 57.9453 197.188 58.2266 197.672C58.5078 198.141 58.6484 198.742 58.6484 199.477C58.6484 200.352 58.3828 201.156 57.8516 201.891C57.3203 202.609 56.5781 203.188 55.625 203.625C54.6719 204.062 53.5625 204.281 52.2969 204.281C51.6094 204.281 50.8672 204.25 50.0703 204.188C49.2734 204.141 48.5156 204.07 47.7969 203.977C47.0781 203.867 46.4688 203.758 45.9688 203.648V188.508C46.8438 188.32 47.7891 188.18 48.8047 188.086C49.8203 187.977 50.8516 187.922 51.8984 187.922ZM51.8984 190.898C50.8984 190.898 50.0078 190.977 49.2266 191.133V194.93H52.1562C52.9531 194.93 53.5781 194.734 54.0312 194.344C54.5 193.953 54.7344 193.453 54.7344 192.844C54.7344 192.219 54.4531 191.742 53.8906 191.414C53.3438 191.07 52.6797 190.898 51.8984 190.898ZM49.2266 201.07C49.6641 201.18 50.1641 201.258 50.7266 201.305C51.3047 201.336 51.7656 201.352 52.1094 201.352C53.0156 201.352 53.7578 201.172 54.3359 200.812C54.9297 200.453 55.2266 199.945 55.2266 199.289C55.2266 198.633 54.9219 198.148 54.3125 197.836C53.7031 197.508 52.9688 197.344 52.1094 197.344H49.2266V201.07ZM66.9219 191.859C68.0781 191.859 69.0703 192.109 69.8984 192.609C70.7422 193.109 71.3828 193.805 71.8203 194.695C72.2734 195.57 72.5 196.586 72.5 197.742V199.008H63.9219C64.0781 199.805 64.4688 200.445 65.0938 200.93C65.7188 201.414 66.4844 201.656 67.3906 201.656C68.25 201.656 69.0312 201.484 69.7344 201.141C70.4375 200.797 71 200.445 71.4219 200.086L71.3984 202.852C71.0234 203.18 70.4609 203.516 69.7109 203.859C68.9766 204.188 68.1641 204.352 67.2734 204.352C66.1016 204.352 65.0312 204.086 64.0625 203.555C63.1094 203.023 62.3438 202.297 61.7656 201.375C61.2031 200.453 60.9219 199.398 60.9219 198.211C60.9219 197.055 61.1797 196 61.6953 195.047C62.2109 194.094 62.9219 193.328 63.8281 192.75C64.7344 192.156 65.7656 191.859 66.9219 191.859ZM66.8516 194.461C66.1172 194.461 65.5 194.688 65 195.141C64.5 195.594 64.1562 196.203 63.9688 196.969H69.6406C69.5781 196.125 69.2656 195.5 68.7031 195.094C68.1406 194.672 67.5234 194.461 66.8516 194.461ZM79.0391 191.859C79.7734 191.859 80.4531 191.969 81.0781 192.188C81.7031 192.406 82.1875 192.656 82.5312 192.938V195.562C82.1562 195.312 81.6953 195.07 81.1484 194.836C80.6172 194.602 80.0625 194.484 79.4844 194.484C78.9219 194.484 78.4766 194.609 78.1484 194.859C77.8203 195.109 77.6562 195.406 77.6562 195.75C77.6562 196 77.75 196.234 77.9375 196.453C78.125 196.656 78.4844 196.836 79.0156 196.992L80.3516 197.438C82.1484 197.969 83.0469 199.008 83.0469 200.555C83.0469 201.289 82.8359 201.945 82.4141 202.523C82.0078 203.086 81.4531 203.531 80.75 203.859C80.0625 204.188 79.2969 204.352 78.4531 204.352C77.6562 204.352 76.8828 204.227 76.1328 203.977C75.3828 203.727 74.8125 203.453 74.4219 203.156V200.555C74.7188 200.758 75.0781 200.953 75.5 201.141C75.9219 201.328 76.3594 201.484 76.8125 201.609C77.2656 201.719 77.6797 201.773 78.0547 201.773C78.6484 201.773 79.1016 201.672 79.4141 201.469C79.7422 201.25 79.9062 200.945 79.9062 200.555C79.9062 200.258 79.7734 200.023 79.5078 199.852C79.2422 199.68 78.8516 199.508 78.3359 199.336L76.8828 198.82C75.9766 198.523 75.3516 198.102 75.0078 197.555C74.6641 197.008 74.4922 196.359 74.4922 195.609C74.4922 194.859 74.6797 194.211 75.0547 193.664C75.4453 193.102 75.9844 192.664 76.6719 192.352C77.3594 192.023 78.1484 191.859 79.0391 191.859ZM89.8672 188.719V192.164H93.1484V194.648H89.8672V199.758C89.8672 200.289 89.9844 200.711 90.2188 201.023C90.4688 201.32 90.8359 201.469 91.3203 201.469C91.7422 201.469 92.1016 201.422 92.3984 201.328C92.7109 201.234 93 201.102 93.2656 200.93V203.297C92.9688 203.594 92.5938 203.844 92.1406 204.047C91.7031 204.25 91.1484 204.352 90.4766 204.352C89.4141 204.352 88.5469 204.016 87.875 203.344C87.2188 202.656 86.8906 201.719 86.8906 200.531V194.648H84.7578V193.125C85.5078 192.859 86.1953 192.359 86.8203 191.625C87.4609 190.891 87.9688 189.922 88.3438 188.719H89.8672ZM108.148 187.992C109.055 187.992 109.883 188.117 110.633 188.367C111.383 188.617 112.016 188.906 112.531 189.234V192.445C111.969 192.102 111.367 191.781 110.727 191.484C110.086 191.188 109.359 191.039 108.547 191.039C108.141 191.039 107.734 191.102 107.328 191.227C106.938 191.352 106.609 191.539 106.344 191.789C106.094 192.039 105.969 192.359 105.969 192.75C105.969 193.266 106.195 193.656 106.648 193.922C107.102 194.188 107.656 194.453 108.312 194.719L110.234 195.516C111.328 195.984 112.133 196.555 112.648 197.227C113.164 197.898 113.422 198.664 113.422 199.523C113.422 200.461 113.148 201.289 112.602 202.008C112.07 202.711 111.352 203.266 110.445 203.672C109.555 204.078 108.562 204.281 107.469 204.281C106.547 204.281 105.664 204.125 104.82 203.812C103.977 203.5 103.242 203.117 102.617 202.664V199.453C103.305 199.953 104.062 200.375 104.891 200.719C105.719 201.062 106.602 201.234 107.539 201.234C108.195 201.234 108.758 201.109 109.227 200.859C109.695 200.594 109.93 200.203 109.93 199.688C109.93 199.281 109.734 198.953 109.344 198.703C108.969 198.438 108.555 198.219 108.102 198.047L105.688 197.109C104.469 196.641 103.641 196.031 103.203 195.281C102.781 194.516 102.57 193.672 102.57 192.75C102.57 191.797 102.828 190.969 103.344 190.266C103.875 189.547 104.562 188.992 105.406 188.602C106.25 188.195 107.164 187.992 108.148 187.992ZM126.641 192.164V199.219C126.641 200.266 126.406 201.172 125.938 201.938C125.469 202.688 124.828 203.266 124.016 203.672C123.219 204.078 122.312 204.281 121.297 204.281C120.266 204.281 119.344 204.078 118.531 203.672C117.734 203.266 117.102 202.688 116.633 201.938C116.18 201.172 115.953 200.266 115.953 199.219V192.164H118.953L118.977 198.68C118.977 199.602 119.188 200.289 119.609 200.742C120.031 201.195 120.594 201.422 121.297 201.422C121.984 201.422 122.539 201.195 122.961 200.742C123.398 200.289 123.617 199.602 123.617 198.68V192.164H126.641ZM133.859 191.859C134.594 191.859 135.273 191.969 135.898 192.188C136.523 192.406 137.008 192.656 137.352 192.938V195.562C136.977 195.312 136.516 195.07 135.969 194.836C135.438 194.602 134.883 194.484 134.305 194.484C133.742 194.484 133.297 194.609 132.969 194.859C132.641 195.109 132.477 195.406 132.477 195.75C132.477 196 132.57 196.234 132.758 196.453C132.945 196.656 133.305 196.836 133.836 196.992L135.172 197.438C136.969 197.969 137.867 199.008 137.867 200.555C137.867 201.289 137.656 201.945 137.234 202.523C136.828 203.086 136.273 203.531 135.57 203.859C134.883 204.188 134.117 204.352 133.273 204.352C132.477 204.352 131.703 204.227 130.953 203.977C130.203 203.727 129.633 203.453 129.242 203.156V200.555C129.539 200.758 129.898 200.953 130.32 201.141C130.742 201.328 131.18 201.484 131.633 201.609C132.086 201.719 132.5 201.773 132.875 201.773C133.469 201.773 133.922 201.672 134.234 201.469C134.562 201.25 134.727 200.945 134.727 200.555C134.727 200.258 134.594 200.023 134.328 199.852C134.062 199.68 133.672 199.508 133.156 199.336L131.703 198.82C130.797 198.523 130.172 198.102 129.828 197.555C129.484 197.008 129.312 196.359 129.312 195.609C129.312 194.859 129.5 194.211 129.875 193.664C130.266 193.102 130.805 192.664 131.492 192.352C132.18 192.023 132.969 191.859 133.859 191.859ZM144.688 188.719V192.164H147.969V194.648H144.688V199.758C144.688 200.289 144.805 200.711 145.039 201.023C145.289 201.32 145.656 201.469 146.141 201.469C146.562 201.469 146.922 201.422 147.219 201.328C147.531 201.234 147.82 201.102 148.086 200.93V203.297C147.789 203.594 147.414 203.844 146.961 204.047C146.523 204.25 145.969 204.352 145.297 204.352C144.234 204.352 143.367 204.016 142.695 203.344C142.039 202.656 141.711 201.719 141.711 200.531V194.648H139.578V193.125C140.328 192.859 141.016 192.359 141.641 191.625C142.281 190.891 142.789 189.922 143.164 188.719H144.688ZM155.703 191.859C156.344 191.859 156.992 192.008 157.648 192.305C158.305 192.602 158.852 193 159.289 193.5V192.164H162.266V204H159.289V202.008C158.945 202.648 158.445 203.203 157.789 203.672C157.133 204.125 156.367 204.352 155.492 204.352C154.539 204.352 153.656 204.109 152.844 203.625C152.047 203.141 151.406 202.438 150.922 201.516C150.438 200.594 150.195 199.477 150.195 198.164C150.195 196.852 150.438 195.727 150.922 194.789C151.422 193.852 152.086 193.133 152.914 192.633C153.758 192.117 154.688 191.859 155.703 191.859ZM156.312 194.766C155.688 194.766 155.148 194.93 154.695 195.258C154.258 195.57 153.914 195.984 153.664 196.5C153.414 197.016 153.289 197.57 153.289 198.164C153.289 199.055 153.555 199.812 154.086 200.438C154.633 201.062 155.352 201.375 156.242 201.375C156.773 201.375 157.266 201.234 157.719 200.953C158.188 200.672 158.562 200.281 158.844 199.781C159.141 199.266 159.289 198.648 159.289 197.93V196.242C158.867 195.789 158.406 195.43 157.906 195.164C157.422 194.898 156.891 194.766 156.312 194.766ZM168.406 186C168.969 186 169.453 186.203 169.859 186.609C170.266 187 170.469 187.469 170.469 188.016C170.469 188.547 170.266 189.016 169.859 189.422C169.453 189.828 168.969 190.031 168.406 190.031C167.844 190.031 167.359 189.828 166.953 189.422C166.562 189.016 166.367 188.547 166.367 188.016C166.367 187.469 166.562 187 166.953 186.609C167.359 186.203 167.844 186 168.406 186ZM170.141 192.164V204H167.164V194.695H165.266V192.164H170.141ZM176.867 192.164V193.852C177.227 193.367 177.711 192.914 178.32 192.492C178.945 192.07 179.656 191.859 180.453 191.859C181.656 191.859 182.664 192.266 183.477 193.078C184.289 193.891 184.695 195.109 184.695 196.734V204H181.719L181.695 197.133C181.695 196.336 181.5 195.742 181.109 195.352C180.734 194.961 180.211 194.766 179.539 194.766C179.008 194.766 178.508 194.938 178.039 195.281C177.586 195.625 177.195 196.031 176.867 196.5V204H173.891V192.164H176.867ZM192.805 191.859C193.445 191.859 194.094 192.008 194.75 192.305C195.406 192.602 195.953 193 196.391 193.5V192.164H199.367V204H196.391V202.008C196.047 202.648 195.547 203.203 194.891 203.672C194.234 204.125 193.469 204.352 192.594 204.352C191.641 204.352 190.758 204.109 189.945 203.625C189.148 203.141 188.508 202.438 188.023 201.516C187.539 200.594 187.297 199.477 187.297 198.164C187.297 196.852 187.539 195.727 188.023 194.789C188.523 193.852 189.188 193.133 190.016 192.633C190.859 192.117 191.789 191.859 192.805 191.859ZM193.414 194.766C192.789 194.766 192.25 194.93 191.797 195.258C191.359 195.57 191.016 195.984 190.766 196.5C190.516 197.016 190.391 197.57 190.391 198.164C190.391 199.055 190.656 199.812 191.188 200.438C191.734 201.062 192.453 201.375 193.344 201.375C193.875 201.375 194.367 201.234 194.82 200.953C195.289 200.672 195.664 200.281 195.945 199.781C196.242 199.266 196.391 198.648 196.391 197.93V196.242C195.969 195.789 195.508 195.43 195.008 195.164C194.523 194.898 193.992 194.766 193.414 194.766ZM209.586 191.859C210.602 191.859 211.523 192.117 212.352 192.633C213.195 193.133 213.859 193.852 214.344 194.789C214.844 195.727 215.094 196.852 215.094 198.164C215.094 199.477 214.844 200.594 214.344 201.516C213.859 202.438 213.211 203.141 212.398 203.625C211.602 204.109 210.734 204.352 209.797 204.352C208.922 204.352 208.156 204.125 207.5 203.672C206.844 203.203 206.344 202.648 206 202.008V204H203.023V187.125H206V193.5C206.438 193 206.977 192.602 207.617 192.305C208.273 192.008 208.93 191.859 209.586 191.859ZM208.977 194.789C208.398 194.789 207.859 194.922 207.359 195.188C206.875 195.438 206.422 195.789 206 196.242V197.93C205.984 198.648 206.117 199.266 206.398 199.781C206.695 200.281 207.078 200.672 207.547 200.953C208.016 201.219 208.516 201.352 209.047 201.352C209.938 201.352 210.648 201.047 211.18 200.438C211.727 199.812 212 199.055 212 198.164C212 197.57 211.875 197.023 211.625 196.523C211.375 196.008 211.023 195.594 210.57 195.281C210.117 194.953 209.586 194.789 208.977 194.789ZM220.414 186C220.977 186 221.461 186.203 221.867 186.609C222.273 187 222.477 187.469 222.477 188.016C222.477 188.547 222.273 189.016 221.867 189.422C221.461 189.828 220.977 190.031 220.414 190.031C219.852 190.031 219.367 189.828 218.961 189.422C218.57 189.016 218.375 188.547 218.375 188.016C218.375 187.469 218.57 187 218.961 186.609C219.367 186.203 219.852 186 220.414 186ZM222.148 192.164V204H219.172V194.695H217.273V192.164H222.148ZM228.875 187.125V204H225.898V187.125H228.875ZM234.992 186C235.555 186 236.039 186.203 236.445 186.609C236.852 187 237.055 187.469 237.055 188.016C237.055 188.547 236.852 189.016 236.445 189.422C236.039 189.828 235.555 190.031 234.992 190.031C234.43 190.031 233.945 189.828 233.539 189.422C233.148 189.016 232.953 188.547 232.953 188.016C232.953 187.469 233.148 187 233.539 186.609C233.945 186.203 234.43 186 234.992 186ZM236.727 192.164V204H233.75V194.695H231.852V192.164H236.727ZM244.766 188.719V192.164H248.047V194.648H244.766V199.758C244.766 200.289 244.883 200.711 245.117 201.023C245.367 201.32 245.734 201.469 246.219 201.469C246.641 201.469 247 201.422 247.297 201.328C247.609 201.234 247.898 201.102 248.164 200.93V203.297C247.867 203.594 247.492 203.844 247.039 204.047C246.602 204.25 246.047 204.352 245.375 204.352C244.312 204.352 243.445 204.016 242.773 203.344C242.117 202.656 241.789 201.719 241.789 200.531V194.648H239.656V193.125C240.406 192.859 241.094 192.359 241.719 191.625C242.359 190.891 242.867 189.922 243.242 188.719H244.766ZM253.086 192.164L256.461 199.711L259.742 192.164H263.141L254.539 209.625H251.164L254.727 203.133L249.617 192.164H253.086ZM129.781 217.297V223.695H137.07V217.297H140.305V233H137.07V226.625H129.781V233H126.523V217.297H129.781ZM149.164 220.859C149.805 220.859 150.453 221.008 151.109 221.305C151.766 221.602 152.312 222 152.75 222.5V221.164H155.727V233H152.75V231.008C152.406 231.648 151.906 232.203 151.25 232.672C150.594 233.125 149.828 233.352 148.953 233.352C148 233.352 147.117 233.109 146.305 232.625C145.508 232.141 144.867 231.438 144.383 230.516C143.898 229.594 143.656 228.477 143.656 227.164C143.656 225.852 143.898 224.727 144.383 223.789C144.883 222.852 145.547 222.133 146.375 221.633C147.219 221.117 148.148 220.859 149.164 220.859ZM149.773 223.766C149.148 223.766 148.609 223.93 148.156 224.258C147.719 224.57 147.375 224.984 147.125 225.5C146.875 226.016 146.75 226.57 146.75 227.164C146.75 228.055 147.016 228.812 147.547 229.438C148.094 230.062 148.812 230.375 149.703 230.375C150.234 230.375 150.727 230.234 151.18 229.953C151.648 229.672 152.023 229.281 152.305 228.781C152.602 228.266 152.75 227.648 152.75 226.93V225.242C152.328 224.789 151.867 224.43 151.367 224.164C150.883 223.898 150.352 223.766 149.773 223.766ZM164.773 220.859C165.648 220.859 166.367 221 166.93 221.281C167.492 221.562 167.938 221.836 168.266 222.102V224.844C167.859 224.547 167.398 224.297 166.883 224.094C166.383 223.891 165.766 223.789 165.031 223.789C164.438 223.789 163.883 223.938 163.367 224.234C162.867 224.531 162.469 224.93 162.172 225.43C161.875 225.93 161.727 226.5 161.727 227.141C161.727 228.109 162.039 228.906 162.664 229.531C163.289 230.156 164.078 230.469 165.031 230.469C165.766 230.469 166.383 230.375 166.883 230.188C167.398 229.984 167.859 229.734 168.266 229.438V232.156C167.938 232.438 167.492 232.711 166.93 232.977C166.367 233.227 165.648 233.352 164.773 233.352C163.57 233.352 162.5 233.07 161.562 232.508C160.641 231.93 159.906 231.172 159.359 230.234C158.828 229.281 158.562 228.25 158.562 227.141C158.562 226.312 158.711 225.523 159.008 224.773C159.32 224.023 159.758 223.359 160.32 222.781C160.883 222.188 161.539 221.719 162.289 221.375C163.055 221.031 163.883 220.859 164.773 220.859ZM173.891 216.125V226.438L178.719 221.164H182.445L177.336 226.297L182.703 233H178.953L175.367 228.289L173.891 229.766V233H170.914V216.125H173.891Z" fill="white"/>
<path d="M52.2344 275.75V287H50.9531V285.672C50.6823 286.089 50.3125 286.453 49.8438 286.766C49.3854 287.078 48.8594 287.234 48.2656 287.234C47.599 287.234 46.9896 287.068 46.4375 286.734C45.8854 286.391 45.4427 285.917 45.1094 285.312C44.7865 284.708 44.625 284.01 44.625 283.219C44.625 282.354 44.7865 281.609 45.1094 280.984C45.4427 280.359 45.8958 279.88 46.4688 279.547C47.0417 279.203 47.6823 279.031 48.3906 279.031C48.8385 279.031 49.2917 279.141 49.75 279.359C50.2188 279.568 50.6198 279.859 50.9531 280.234V275.75H52.2344ZM48.625 280.312C48.0625 280.312 47.5833 280.453 47.1875 280.734C46.7917 281.005 46.4844 281.359 46.2656 281.797C46.0573 282.234 45.9531 282.708 45.9531 283.219C45.9531 283.719 46.0573 284.182 46.2656 284.609C46.474 285.026 46.7656 285.359 47.1406 285.609C47.526 285.859 47.9688 285.984 48.4688 285.984C48.9479 285.984 49.375 285.859 49.75 285.609C50.125 285.359 50.4219 285.016 50.6406 284.578C50.8594 284.13 50.9635 283.63 50.9531 283.078L50.9375 281.578C50.6146 281.172 50.2656 280.859 49.8906 280.641C49.526 280.422 49.1042 280.312 48.625 280.312ZM58.1094 279.031C58.9115 279.031 59.5781 279.198 60.1094 279.531C60.6406 279.865 61.0365 280.318 61.2969 280.891C61.5677 281.464 61.7031 282.109 61.7031 282.828V283.594H55.7031C55.7656 284.031 55.9167 284.432 56.1562 284.797C56.3958 285.161 56.7083 285.453 57.0938 285.672C57.4792 285.88 57.9219 285.984 58.4219 285.984C58.9844 285.984 59.5104 285.844 60 285.562C60.4896 285.271 60.901 284.953 61.2344 284.609L61.2188 286C61.0729 286.177 60.8542 286.365 60.5625 286.562C60.2812 286.75 59.9531 286.906 59.5781 287.031C59.2135 287.167 58.8281 287.234 58.4219 287.234C57.6302 287.234 56.9271 287.047 56.3125 286.672C55.6979 286.297 55.2135 285.802 54.8594 285.188C54.5156 284.562 54.3438 283.88 54.3438 283.141C54.3438 282.401 54.5052 281.719 54.8281 281.094C55.151 280.469 55.5938 279.969 56.1562 279.594C56.7292 279.219 57.3802 279.031 58.1094 279.031ZM58.1094 280.281C57.4635 280.281 56.9323 280.5 56.5156 280.938C56.099 281.365 55.8385 281.885 55.7344 282.5H60.4375C60.3854 281.99 60.2396 281.573 60 281.25C59.7708 280.927 59.4896 280.688 59.1562 280.531C58.8229 280.365 58.474 280.281 58.1094 280.281ZM70.7031 279.188L67.0312 287H66.2344L62.7188 279.188H64.25L66.6094 284.938L69.1719 279.188H70.7031ZM75.3281 279.031C76.1302 279.031 76.7969 279.198 77.3281 279.531C77.8594 279.865 78.2552 280.318 78.5156 280.891C78.7865 281.464 78.9219 282.109 78.9219 282.828V283.594H72.9219C72.9844 284.031 73.1354 284.432 73.375 284.797C73.6146 285.161 73.9271 285.453 74.3125 285.672C74.6979 285.88 75.1406 285.984 75.6406 285.984C76.2031 285.984 76.7292 285.844 77.2188 285.562C77.7083 285.271 78.1198 284.953 78.4531 284.609L78.4375 286C78.2917 286.177 78.0729 286.365 77.7812 286.562C77.5 286.75 77.1719 286.906 76.7969 287.031C76.4323 287.167 76.0469 287.234 75.6406 287.234C74.849 287.234 74.1458 287.047 73.5312 286.672C72.9167 286.297 72.4323 285.802 72.0781 285.188C71.7344 284.562 71.5625 283.88 71.5625 283.141C71.5625 282.401 71.724 281.719 72.0469 281.094C72.3698 280.469 72.8125 279.969 73.375 279.594C73.9479 279.219 74.599 279.031 75.3281 279.031ZM75.3281 280.281C74.6823 280.281 74.151 280.5 73.7344 280.938C73.3177 281.365 73.0573 281.885 72.9531 282.5H77.6562C77.6042 281.99 77.4583 281.573 77.2188 281.25C76.9896 280.927 76.7083 280.688 76.375 280.531C76.0417 280.365 75.6927 280.281 75.3281 280.281ZM82.3125 275.75V287H81.0312V275.75H82.3125ZM88.5 279.031C89.2917 279.031 89.9948 279.219 90.6094 279.594C91.224 279.969 91.7031 280.469 92.0469 281.094C92.401 281.719 92.5781 282.401 92.5781 283.141C92.5781 283.88 92.401 284.562 92.0469 285.188C91.7031 285.802 91.224 286.297 90.6094 286.672C89.9948 287.047 89.2917 287.234 88.5 287.234C87.7083 287.234 87.0052 287.047 86.3906 286.672C85.776 286.297 85.2917 285.802 84.9375 285.188C84.5938 284.562 84.4219 283.88 84.4219 283.141C84.4219 282.401 84.5938 281.719 84.9375 281.094C85.2917 280.469 85.776 279.969 86.3906 279.594C87.0052 279.219 87.7083 279.031 88.5 279.031ZM88.5 280.281C87.9479 280.281 87.4635 280.417 87.0469 280.688C86.6302 280.948 86.3073 281.297 86.0781 281.734C85.8594 282.161 85.75 282.63 85.75 283.141C85.75 283.641 85.8594 284.109 86.0781 284.547C86.3073 284.974 86.6302 285.323 87.0469 285.594C87.4635 285.854 87.9479 285.984 88.5 285.984C89.0625 285.984 89.5469 285.854 89.9531 285.594C90.3698 285.323 90.6875 284.974 90.9062 284.547C91.1354 284.109 91.25 283.641 91.25 283.141C91.25 282.63 91.1354 282.161 90.9062 281.734C90.6875 281.297 90.3698 280.948 89.9531 280.688C89.5469 280.417 89.0625 280.281 88.5 280.281ZM98.6562 279.031C99.3333 279.031 99.9427 279.198 100.484 279.531C101.036 279.854 101.474 280.312 101.797 280.906C102.13 281.49 102.297 282.177 102.297 282.969C102.297 283.823 102.13 284.573 101.797 285.219C101.474 285.854 101.026 286.349 100.453 286.703C99.8906 287.057 99.25 287.234 98.5312 287.234C98.0833 287.234 97.625 287.115 97.1562 286.875C96.6979 286.635 96.3021 286.328 95.9688 285.953V290.75H94.6875V279.188H95.9688V280.516C96.2396 280.099 96.6042 279.75 97.0625 279.469C97.5312 279.177 98.0625 279.031 98.6562 279.031ZM98.4531 280.281C97.9844 280.281 97.5573 280.401 97.1719 280.641C96.7969 280.88 96.5 281.214 96.2812 281.641C96.0729 282.057 95.9688 282.547 95.9688 283.109L95.9844 284.609C96.3177 285.016 96.6667 285.349 97.0312 285.609C97.3958 285.859 97.8177 285.984 98.2969 285.984C98.8594 285.984 99.3385 285.839 99.7344 285.547C100.13 285.255 100.432 284.88 100.641 284.422C100.859 283.953 100.969 283.469 100.969 282.969C100.969 282.458 100.865 282.005 100.656 281.609C100.448 281.203 100.156 280.88 99.7812 280.641C99.4062 280.401 98.9635 280.281 98.4531 280.281ZM112.312 279.031C112.76 279.031 113.214 279.141 113.672 279.359C114.141 279.568 114.542 279.859 114.875 280.234V279.188H116.156V287H114.875V285.672C114.604 286.089 114.234 286.453 113.766 286.766C113.307 287.078 112.781 287.234 112.188 287.234C111.521 287.234 110.911 287.068 110.359 286.734C109.807 286.391 109.365 285.917 109.031 285.312C108.708 284.708 108.547 284.01 108.547 283.219C108.547 282.354 108.708 281.609 109.031 280.984C109.365 280.359 109.818 279.88 110.391 279.547C110.964 279.203 111.604 279.031 112.312 279.031ZM112.547 280.281C111.984 280.281 111.505 280.422 111.109 280.703C110.714 280.984 110.406 281.349 110.188 281.797C109.979 282.234 109.875 282.708 109.875 283.219C109.875 283.719 109.979 284.182 110.188 284.609C110.396 285.026 110.688 285.359 111.062 285.609C111.448 285.859 111.891 285.984 112.391 285.984C112.87 285.984 113.297 285.859 113.672 285.609C114.047 285.359 114.344 285.016 114.562 284.578C114.781 284.13 114.885 283.63 114.875 283.078L114.859 281.578C114.536 281.172 114.188 280.854 113.812 280.625C113.448 280.396 113.026 280.281 112.547 280.281ZM127.328 279.031C127.859 279.031 128.344 279.151 128.781 279.391C129.219 279.62 129.568 279.974 129.828 280.453C130.089 280.922 130.219 281.516 130.219 282.234V287H128.938L128.922 282.359C128.922 281.682 128.771 281.167 128.469 280.812C128.177 280.458 127.724 280.281 127.109 280.281C126.693 280.281 126.276 280.438 125.859 280.75C125.453 281.052 125.094 281.406 124.781 281.812V287H123.5V275.75H124.781V280.422C124.948 280.214 125.161 280.005 125.422 279.797C125.682 279.578 125.974 279.396 126.297 279.25C126.63 279.104 126.974 279.031 127.328 279.031ZM135.859 279.031C136.307 279.031 136.76 279.141 137.219 279.359C137.688 279.568 138.089 279.859 138.422 280.234V279.188H139.703V287H138.422V285.672C138.151 286.089 137.781 286.453 137.312 286.766C136.854 287.078 136.328 287.234 135.734 287.234C135.068 287.234 134.458 287.068 133.906 286.734C133.354 286.391 132.911 285.917 132.578 285.312C132.255 284.708 132.094 284.01 132.094 283.219C132.094 282.354 132.255 281.609 132.578 280.984C132.911 280.359 133.365 279.88 133.938 279.547C134.51 279.203 135.151 279.031 135.859 279.031ZM136.094 280.281C135.531 280.281 135.052 280.422 134.656 280.703C134.26 280.984 133.953 281.349 133.734 281.797C133.526 282.234 133.422 282.708 133.422 283.219C133.422 283.719 133.526 284.182 133.734 284.609C133.943 285.026 134.234 285.359 134.609 285.609C134.995 285.859 135.438 285.984 135.938 285.984C136.417 285.984 136.844 285.859 137.219 285.609C137.594 285.359 137.891 285.016 138.109 284.578C138.328 284.13 138.432 283.63 138.422 283.078L138.406 281.578C138.083 281.172 137.734 280.854 137.359 280.625C136.995 280.396 136.573 280.281 136.094 280.281ZM145.891 279.031C146.464 279.031 146.958 279.125 147.375 279.312C147.792 279.49 148.078 279.651 148.234 279.797V281.094C147.943 280.875 147.609 280.688 147.234 280.531C146.859 280.365 146.411 280.281 145.891 280.281C145.339 280.281 144.854 280.417 144.438 280.688C144.021 280.948 143.698 281.297 143.469 281.734C143.25 282.161 143.141 282.63 143.141 283.141C143.141 283.641 143.25 284.109 143.469 284.547C143.698 284.974 144.021 285.323 144.438 285.594C144.854 285.854 145.339 285.984 145.891 285.984C146.411 285.984 146.859 285.906 147.234 285.75C147.609 285.583 147.943 285.391 148.234 285.172V286.469C148.078 286.625 147.792 286.792 147.375 286.969C146.958 287.146 146.464 287.234 145.891 287.234C145.099 287.234 144.396 287.047 143.781 286.672C143.167 286.297 142.682 285.802 142.328 285.188C141.984 284.562 141.812 283.88 141.812 283.141C141.812 282.401 141.984 281.719 142.328 281.094C142.682 280.469 143.167 279.969 143.781 279.594C144.396 279.219 145.099 279.031 145.891 279.031ZM157.25 279.188L153.625 282.594L157.453 287H155.828L152.734 283.438L151.625 284.469V287H150.344V275.75H151.625V283L155.516 279.188H157.25ZM165.703 276.938V279.188H167.984V280.391H165.703V284.969C165.703 285.292 165.786 285.547 165.953 285.734C166.12 285.922 166.375 286.016 166.719 286.016C167.031 286.016 167.292 285.979 167.5 285.906C167.708 285.823 167.891 285.734 168.047 285.641V286.688C167.839 286.854 167.615 286.984 167.375 287.078C167.146 287.182 166.833 287.234 166.438 287.234C165.771 287.234 165.266 287.036 164.922 286.641C164.589 286.234 164.422 285.698 164.422 285.031V280.391H162.922V280.016C163.432 279.786 163.859 279.411 164.203 278.891C164.547 278.359 164.849 277.708 165.109 276.938H165.703ZM174.141 279.031C174.672 279.031 175.156 279.151 175.594 279.391C176.031 279.62 176.38 279.974 176.641 280.453C176.901 280.922 177.031 281.516 177.031 282.234V287H175.75L175.734 282.359C175.734 281.682 175.583 281.167 175.281 280.812C174.99 280.458 174.536 280.281 173.922 280.281C173.505 280.281 173.089 280.438 172.672 280.75C172.266 281.052 171.906 281.406 171.594 281.812V287H170.312V275.75H171.594V280.422C171.76 280.214 171.974 280.005 172.234 279.797C172.495 279.578 172.786 279.396 173.109 279.25C173.443 279.104 173.786 279.031 174.141 279.031ZM182.672 279.031C183.12 279.031 183.573 279.141 184.031 279.359C184.5 279.568 184.901 279.859 185.234 280.234V279.188H186.516V287H185.234V285.672C184.964 286.089 184.594 286.453 184.125 286.766C183.667 287.078 183.141 287.234 182.547 287.234C181.88 287.234 181.271 287.068 180.719 286.734C180.167 286.391 179.724 285.917 179.391 285.312C179.068 284.708 178.906 284.01 178.906 283.219C178.906 282.354 179.068 281.609 179.391 280.984C179.724 280.359 180.177 279.88 180.75 279.547C181.323 279.203 181.964 279.031 182.672 279.031ZM182.906 280.281C182.344 280.281 181.865 280.422 181.469 280.703C181.073 280.984 180.766 281.349 180.547 281.797C180.339 282.234 180.234 282.708 180.234 283.219C180.234 283.719 180.339 284.182 180.547 284.609C180.755 285.026 181.047 285.359 181.422 285.609C181.807 285.859 182.25 285.984 182.75 285.984C183.229 285.984 183.656 285.859 184.031 285.609C184.406 285.359 184.703 285.016 184.922 284.578C185.141 284.13 185.245 283.63 185.234 283.078L185.219 281.578C184.896 281.172 184.547 280.854 184.172 280.625C183.807 280.396 183.385 280.281 182.906 280.281ZM191.328 276.938V279.188H193.609V280.391H191.328V284.969C191.328 285.292 191.411 285.547 191.578 285.734C191.745 285.922 192 286.016 192.344 286.016C192.656 286.016 192.917 285.979 193.125 285.906C193.333 285.823 193.516 285.734 193.672 285.641V286.688C193.464 286.854 193.24 286.984 193 287.078C192.771 287.182 192.458 287.234 192.062 287.234C191.396 287.234 190.891 287.036 190.547 286.641C190.214 286.234 190.047 285.698 190.047 285.031V280.391H188.547V280.016C189.057 279.786 189.484 279.411 189.828 278.891C190.172 278.359 190.474 277.708 190.734 276.938H191.328ZM204.594 279.031C205.271 279.031 205.88 279.198 206.422 279.531C206.974 279.854 207.411 280.312 207.734 280.906C208.068 281.49 208.234 282.177 208.234 282.969C208.234 283.823 208.068 284.573 207.734 285.219C207.411 285.854 206.964 286.349 206.391 286.703C205.828 287.057 205.188 287.234 204.469 287.234C204.021 287.234 203.562 287.115 203.094 286.875C202.635 286.635 202.24 286.328 201.906 285.953V290.75H200.625V279.188H201.906V280.516C202.177 280.099 202.542 279.75 203 279.469C203.469 279.177 204 279.031 204.594 279.031ZM204.391 280.281C203.922 280.281 203.495 280.401 203.109 280.641C202.734 280.88 202.438 281.214 202.219 281.641C202.01 282.057 201.906 282.547 201.906 283.109L201.922 284.609C202.255 285.016 202.604 285.349 202.969 285.609C203.333 285.859 203.755 285.984 204.234 285.984C204.797 285.984 205.276 285.839 205.672 285.547C206.068 285.255 206.37 284.88 206.578 284.422C206.797 283.953 206.906 283.469 206.906 282.969C206.906 282.458 206.802 282.005 206.594 281.609C206.385 281.203 206.094 280.88 205.719 280.641C205.344 280.401 204.901 280.281 204.391 280.281ZM211.625 279.188V280.75C211.927 280.229 212.292 279.812 212.719 279.5C213.146 279.188 213.583 279.031 214.031 279.031C214.333 279.031 214.604 279.083 214.844 279.188V280.672C214.51 280.474 214.177 280.375 213.844 280.375C213.312 280.375 212.88 280.562 212.547 280.938C212.224 281.312 211.917 281.76 211.625 282.281V287H210.344V279.188H211.625ZM220.016 279.031C220.807 279.031 221.51 279.219 222.125 279.594C222.74 279.969 223.219 280.469 223.562 281.094C223.917 281.719 224.094 282.401 224.094 283.141C224.094 283.88 223.917 284.562 223.562 285.188C223.219 285.802 222.74 286.297 222.125 286.672C221.51 287.047 220.807 287.234 220.016 287.234C219.224 287.234 218.521 287.047 217.906 286.672C217.292 286.297 216.807 285.802 216.453 285.188C216.109 284.562 215.938 283.88 215.938 283.141C215.938 282.401 216.109 281.719 216.453 281.094C216.807 280.469 217.292 279.969 217.906 279.594C218.521 279.219 219.224 279.031 220.016 279.031ZM220.016 280.281C219.464 280.281 218.979 280.417 218.562 280.688C218.146 280.948 217.823 281.297 217.594 281.734C217.375 282.161 217.266 282.63 217.266 283.141C217.266 283.641 217.375 284.109 217.594 284.547C217.823 284.974 218.146 285.323 218.562 285.594C218.979 285.854 219.464 285.984 220.016 285.984C220.578 285.984 221.062 285.854 221.469 285.594C221.885 285.323 222.203 284.974 222.422 284.547C222.651 284.109 222.766 283.641 222.766 283.141C222.766 282.63 222.651 282.161 222.422 281.734C222.203 281.297 221.885 280.948 221.469 280.688C221.062 280.417 220.578 280.281 220.016 280.281ZM232.781 279.188L229.109 287H228.312L224.797 279.188H226.328L228.688 284.938L231.25 279.188H232.781ZM235.594 275.438C235.896 275.438 236.146 275.547 236.344 275.766C236.552 275.974 236.656 276.219 236.656 276.5C236.656 276.771 236.552 277.016 236.344 277.234C236.146 277.453 235.896 277.562 235.594 277.562C235.292 277.562 235.036 277.453 234.828 277.234C234.63 277.016 234.531 276.771 234.531 276.5C234.531 276.219 234.63 275.974 234.828 275.766C235.036 275.547 235.292 275.438 235.594 275.438ZM236.391 279.188V287H235.109V280.391H233.875V279.188H236.391ZM246.219 275.75V287H244.938V285.672C244.667 286.089 244.297 286.453 243.828 286.766C243.37 287.078 242.844 287.234 242.25 287.234C241.583 287.234 240.974 287.068 240.422 286.734C239.87 286.391 239.427 285.917 239.094 285.312C238.771 284.708 238.609 284.01 238.609 283.219C238.609 282.354 238.771 281.609 239.094 280.984C239.427 280.359 239.88 279.88 240.453 279.547C241.026 279.203 241.667 279.031 242.375 279.031C242.823 279.031 243.276 279.141 243.734 279.359C244.203 279.568 244.604 279.859 244.938 280.234V275.75H246.219ZM242.609 280.312C242.047 280.312 241.568 280.453 241.172 280.734C240.776 281.005 240.469 281.359 240.25 281.797C240.042 282.234 239.938 282.708 239.938 283.219C239.938 283.719 240.042 284.182 240.25 284.609C240.458 285.026 240.75 285.359 241.125 285.609C241.51 285.859 241.953 285.984 242.453 285.984C242.932 285.984 243.359 285.859 243.734 285.609C244.109 285.359 244.406 285.016 244.625 284.578C244.844 284.13 244.948 283.63 244.938 283.078L244.922 281.578C244.599 281.172 244.25 280.859 243.875 280.641C243.51 280.422 243.089 280.312 242.609 280.312ZM252.094 279.031C252.896 279.031 253.562 279.198 254.094 279.531C254.625 279.865 255.021 280.318 255.281 280.891C255.552 281.464 255.688 282.109 255.688 282.828V283.594H249.688C249.75 284.031 249.901 284.432 250.141 284.797C250.38 285.161 250.693 285.453 251.078 285.672C251.464 285.88 251.906 285.984 252.406 285.984C252.969 285.984 253.495 285.844 253.984 285.562C254.474 285.271 254.885 284.953 255.219 284.609L255.203 286C255.057 286.177 254.839 286.365 254.547 286.562C254.266 286.75 253.938 286.906 253.562 287.031C253.198 287.167 252.812 287.234 252.406 287.234C251.615 287.234 250.911 287.047 250.297 286.672C249.682 286.297 249.198 285.802 248.844 285.188C248.5 284.562 248.328 283.88 248.328 283.141C248.328 282.401 248.49 281.719 248.812 281.094C249.135 280.469 249.578 279.969 250.141 279.594C250.714 279.219 251.365 279.031 252.094 279.031ZM252.094 280.281C251.448 280.281 250.917 280.5 250.5 280.938C250.083 281.365 249.823 281.885 249.719 282.5H254.422C254.37 281.99 254.224 281.573 253.984 281.25C253.755 280.927 253.474 280.688 253.141 280.531C252.807 280.365 252.458 280.281 252.094 280.281ZM260.125 279.031C260.583 279.031 261.01 279.099 261.406 279.234C261.802 279.359 262.089 279.49 262.266 279.625V281C262.047 280.833 261.75 280.672 261.375 280.516C261 280.359 260.615 280.281 260.219 280.281C259.729 280.281 259.359 280.396 259.109 280.625C258.87 280.854 258.75 281.094 258.75 281.344C258.75 281.542 258.818 281.745 258.953 281.953C259.099 282.151 259.349 282.312 259.703 282.438L261.016 282.906C261.526 283.083 261.906 283.339 262.156 283.672C262.406 284.005 262.531 284.396 262.531 284.844C262.531 285.281 262.406 285.682 262.156 286.047C261.917 286.411 261.578 286.703 261.141 286.922C260.714 287.13 260.219 287.234 259.656 287.234C259.354 287.234 259.036 287.193 258.703 287.109C258.38 287.036 258.089 286.948 257.828 286.844C257.568 286.729 257.375 286.63 257.25 286.547V285.172C257.396 285.276 257.599 285.396 257.859 285.531C258.13 285.656 258.417 285.766 258.719 285.859C259.021 285.943 259.302 285.984 259.562 285.984C260.052 285.984 260.438 285.875 260.719 285.656C261.01 285.438 261.156 285.167 261.156 284.844C261.156 284.594 261.057 284.396 260.859 284.25C260.672 284.104 260.396 283.964 260.031 283.828L258.875 283.406C258.271 283.177 257.87 282.891 257.672 282.547C257.474 282.193 257.375 281.792 257.375 281.344C257.375 280.677 257.625 280.125 258.125 279.688C258.625 279.25 259.292 279.031 260.125 279.031ZM54.3281 298.031C54.776 298.031 55.2292 298.141 55.6875 298.359C56.1562 298.568 56.5573 298.859 56.8906 299.234V298.188H58.1719V306H56.8906V304.672C56.6198 305.089 56.25 305.453 55.7812 305.766C55.3229 306.078 54.7969 306.234 54.2031 306.234C53.5365 306.234 52.9271 306.068 52.375 305.734C51.8229 305.391 51.3802 304.917 51.0469 304.312C50.724 303.708 50.5625 303.01 50.5625 302.219C50.5625 301.354 50.724 300.609 51.0469 299.984C51.3802 299.359 51.8333 298.88 52.4062 298.547C52.9792 298.203 53.6198 298.031 54.3281 298.031ZM54.5625 299.281C54 299.281 53.5208 299.422 53.125 299.703C52.7292 299.984 52.4219 300.349 52.2031 300.797C51.9948 301.234 51.8906 301.708 51.8906 302.219C51.8906 302.719 51.9948 303.182 52.2031 303.609C52.4115 304.026 52.7031 304.359 53.0781 304.609C53.4635 304.859 53.9062 304.984 54.4062 304.984C54.8854 304.984 55.3125 304.859 55.6875 304.609C56.0625 304.359 56.3594 304.016 56.5781 303.578C56.7969 303.13 56.901 302.63 56.8906 302.078L56.875 300.578C56.5521 300.172 56.2031 299.854 55.8281 299.625C55.4635 299.396 55.0417 299.281 54.5625 299.281ZM62.1094 298.188V299.422C62.276 299.214 62.4896 299.005 62.75 298.797C63.0104 298.578 63.3021 298.396 63.625 298.25C63.9583 298.104 64.3021 298.031 64.6562 298.031C65.1875 298.031 65.6719 298.151 66.1094 298.391C66.5469 298.62 66.8958 298.974 67.1562 299.453C67.4167 299.922 67.5469 300.516 67.5469 301.234V306H66.2656L66.25 301.359C66.25 300.682 66.099 300.167 65.7969 299.812C65.5052 299.458 65.0521 299.281 64.4375 299.281C64.0208 299.281 63.6042 299.438 63.1875 299.75C62.7812 300.052 62.4219 300.406 62.1094 300.812V306H60.8281V298.188H62.1094ZM75.9062 294.438C76.2083 294.438 76.4583 294.547 76.6562 294.766C76.8646 294.974 76.9688 295.219 76.9688 295.5C76.9688 295.771 76.8646 296.016 76.6562 296.234C76.4583 296.453 76.2083 296.562 75.9062 296.562C75.6042 296.562 75.349 296.453 75.1406 296.234C74.9427 296.016 74.8438 295.771 74.8438 295.5C74.8438 295.219 74.9427 294.974 75.1406 294.766C75.349 294.547 75.6042 294.438 75.9062 294.438ZM76.7031 298.188V306H75.4219V299.391H74.1875V298.188H76.7031ZM80.75 298.188V299.422C80.9167 299.214 81.1302 299.005 81.3906 298.797C81.651 298.578 81.9427 298.396 82.2656 298.25C82.599 298.104 82.9427 298.031 83.2969 298.031C83.8281 298.031 84.3125 298.151 84.75 298.391C85.1875 298.62 85.5365 298.974 85.7969 299.453C86.0573 299.922 86.1875 300.516 86.1875 301.234V306H84.9062L84.8906 301.359C84.8906 300.682 84.7396 300.167 84.4375 299.812C84.1458 299.458 83.6927 299.281 83.0781 299.281C82.6615 299.281 82.2448 299.438 81.8281 299.75C81.4219 300.052 81.0625 300.406 80.75 300.812V306H79.4688V298.188H80.75ZM89.8906 298.188V299.422C90.0573 299.214 90.2708 299.005 90.5312 298.797C90.7917 298.578 91.0833 298.396 91.4062 298.25C91.7396 298.104 92.0833 298.031 92.4375 298.031C92.9688 298.031 93.4531 298.151 93.8906 298.391C94.3281 298.62 94.6771 298.974 94.9375 299.453C95.1979 299.922 95.3281 300.516 95.3281 301.234V306H94.0469L94.0312 301.359C94.0312 300.682 93.8802 300.167 93.5781 299.812C93.2865 299.458 92.8333 299.281 92.2188 299.281C91.8021 299.281 91.3854 299.438 90.9688 299.75C90.5625 300.052 90.2031 300.406 89.8906 300.812V306H88.6094V298.188H89.8906ZM101.281 298.031C102.073 298.031 102.776 298.219 103.391 298.594C104.005 298.969 104.484 299.469 104.828 300.094C105.182 300.719 105.359 301.401 105.359 302.141C105.359 302.88 105.182 303.562 104.828 304.188C104.484 304.802 104.005 305.297 103.391 305.672C102.776 306.047 102.073 306.234 101.281 306.234C100.49 306.234 99.7865 306.047 99.1719 305.672C98.5573 305.297 98.0729 304.802 97.7188 304.188C97.375 303.562 97.2031 302.88 97.2031 302.141C97.2031 301.401 97.375 300.719 97.7188 300.094C98.0729 299.469 98.5573 298.969 99.1719 298.594C99.7865 298.219 100.49 298.031 101.281 298.031ZM101.281 299.281C100.729 299.281 100.245 299.417 99.8281 299.688C99.4115 299.948 99.0885 300.297 98.8594 300.734C98.6406 301.161 98.5312 301.63 98.5312 302.141C98.5312 302.641 98.6406 303.109 98.8594 303.547C99.0885 303.974 99.4115 304.323 99.8281 304.594C100.245 304.854 100.729 304.984 101.281 304.984C101.844 304.984 102.328 304.854 102.734 304.594C103.151 304.323 103.469 303.974 103.688 303.547C103.917 303.109 104.031 302.641 104.031 302.141C104.031 301.63 103.917 301.161 103.688 300.734C103.469 300.297 103.151 299.948 102.734 299.688C102.328 299.417 101.844 299.281 101.281 299.281ZM114.047 298.188L110.375 306H109.578L106.062 298.188H107.594L109.953 303.938L112.516 298.188H114.047ZM118.516 298.031C118.964 298.031 119.417 298.141 119.875 298.359C120.344 298.568 120.745 298.859 121.078 299.234V298.188H122.359V306H121.078V304.672C120.807 305.089 120.438 305.453 119.969 305.766C119.51 306.078 118.984 306.234 118.391 306.234C117.724 306.234 117.115 306.068 116.562 305.734C116.01 305.391 115.568 304.917 115.234 304.312C114.911 303.708 114.75 303.01 114.75 302.219C114.75 301.354 114.911 300.609 115.234 299.984C115.568 299.359 116.021 298.88 116.594 298.547C117.167 298.203 117.807 298.031 118.516 298.031ZM118.75 299.281C118.188 299.281 117.708 299.422 117.312 299.703C116.917 299.984 116.609 300.349 116.391 300.797C116.182 301.234 116.078 301.708 116.078 302.219C116.078 302.719 116.182 303.182 116.391 303.609C116.599 304.026 116.891 304.359 117.266 304.609C117.651 304.859 118.094 304.984 118.594 304.984C119.073 304.984 119.5 304.859 119.875 304.609C120.25 304.359 120.547 304.016 120.766 303.578C120.984 303.13 121.089 302.63 121.078 302.078L121.062 300.578C120.74 300.172 120.391 299.854 120.016 299.625C119.651 299.396 119.229 299.281 118.75 299.281ZM127.172 295.938V298.188H129.453V299.391H127.172V303.969C127.172 304.292 127.255 304.547 127.422 304.734C127.589 304.922 127.844 305.016 128.188 305.016C128.5 305.016 128.76 304.979 128.969 304.906C129.177 304.823 129.359 304.734 129.516 304.641V305.688C129.307 305.854 129.083 305.984 128.844 306.078C128.615 306.182 128.302 306.234 127.906 306.234C127.24 306.234 126.734 306.036 126.391 305.641C126.057 305.234 125.891 304.698 125.891 304.031V299.391H124.391V299.016C124.901 298.786 125.328 298.411 125.672 297.891C126.016 297.359 126.318 296.708 126.578 295.938H127.172ZM133.031 294.438C133.333 294.438 133.583 294.547 133.781 294.766C133.99 294.974 134.094 295.219 134.094 295.5C134.094 295.771 133.99 296.016 133.781 296.234C133.583 296.453 133.333 296.562 133.031 296.562C132.729 296.562 132.474 296.453 132.266 296.234C132.068 296.016 131.969 295.771 131.969 295.5C131.969 295.219 132.068 294.974 132.266 294.766C132.474 294.547 132.729 294.438 133.031 294.438ZM133.828 298.188V306H132.547V299.391H131.312V298.188H133.828ZM143.484 298.188L139.812 306H139.016L135.5 298.188H137.031L139.391 303.938L141.953 298.188H143.484ZM148.109 298.031C148.911 298.031 149.578 298.198 150.109 298.531C150.641 298.865 151.036 299.318 151.297 299.891C151.568 300.464 151.703 301.109 151.703 301.828V302.594H145.703C145.766 303.031 145.917 303.432 146.156 303.797C146.396 304.161 146.708 304.453 147.094 304.672C147.479 304.88 147.922 304.984 148.422 304.984C148.984 304.984 149.51 304.844 150 304.562C150.49 304.271 150.901 303.953 151.234 303.609L151.219 305C151.073 305.177 150.854 305.365 150.562 305.562C150.281 305.75 149.953 305.906 149.578 306.031C149.214 306.167 148.828 306.234 148.422 306.234C147.63 306.234 146.927 306.047 146.312 305.672C145.698 305.297 145.214 304.802 144.859 304.188C144.516 303.562 144.344 302.88 144.344 302.141C144.344 301.401 144.505 300.719 144.828 300.094C145.151 299.469 145.594 298.969 146.156 298.594C146.729 298.219 147.38 298.031 148.109 298.031ZM148.109 299.281C147.464 299.281 146.932 299.5 146.516 299.938C146.099 300.365 145.839 300.885 145.734 301.5H150.438C150.385 300.99 150.24 300.573 150 300.25C149.771 299.927 149.49 299.688 149.156 299.531C148.823 299.365 148.474 299.281 148.109 299.281ZM161.719 298.031C162.167 298.031 162.62 298.141 163.078 298.359C163.547 298.568 163.948 298.859 164.281 299.234V298.188H165.562V306H164.281V304.672C164.01 305.089 163.641 305.453 163.172 305.766C162.714 306.078 162.188 306.234 161.594 306.234C160.927 306.234 160.318 306.068 159.766 305.734C159.214 305.391 158.771 304.917 158.438 304.312C158.115 303.708 157.953 303.01 157.953 302.219C157.953 301.354 158.115 300.609 158.438 299.984C158.771 299.359 159.224 298.88 159.797 298.547C160.37 298.203 161.01 298.031 161.719 298.031ZM161.953 299.281C161.391 299.281 160.911 299.422 160.516 299.703C160.12 299.984 159.812 300.349 159.594 300.797C159.385 301.234 159.281 301.708 159.281 302.219C159.281 302.719 159.385 303.182 159.594 303.609C159.802 304.026 160.094 304.359 160.469 304.609C160.854 304.859 161.297 304.984 161.797 304.984C162.276 304.984 162.703 304.859 163.078 304.609C163.453 304.359 163.75 304.016 163.969 303.578C164.188 303.13 164.292 302.63 164.281 302.078L164.266 300.578C163.943 300.172 163.594 299.854 163.219 299.625C162.854 299.396 162.432 299.281 161.953 299.281ZM169.5 298.188V299.422C169.667 299.214 169.88 299.005 170.141 298.797C170.401 298.578 170.693 298.396 171.016 298.25C171.349 298.104 171.693 298.031 172.047 298.031C172.578 298.031 173.062 298.151 173.5 298.391C173.938 298.62 174.286 298.974 174.547 299.453C174.807 299.922 174.938 300.516 174.938 301.234V306H173.656L173.641 301.359C173.641 300.682 173.49 300.167 173.188 299.812C172.896 299.458 172.443 299.281 171.828 299.281C171.411 299.281 170.995 299.438 170.578 299.75C170.172 300.052 169.812 300.406 169.5 300.812V306H168.219V298.188H169.5ZM184.422 294.75V306H183.141V304.672C182.87 305.089 182.5 305.453 182.031 305.766C181.573 306.078 181.047 306.234 180.453 306.234C179.786 306.234 179.177 306.068 178.625 305.734C178.073 305.391 177.63 304.917 177.297 304.312C176.974 303.708 176.812 303.01 176.812 302.219C176.812 301.354 176.974 300.609 177.297 299.984C177.63 299.359 178.083 298.88 178.656 298.547C179.229 298.203 179.87 298.031 180.578 298.031C181.026 298.031 181.479 298.141 181.938 298.359C182.406 298.568 182.807 298.859 183.141 299.234V294.75H184.422ZM180.812 299.312C180.25 299.312 179.771 299.453 179.375 299.734C178.979 300.005 178.672 300.359 178.453 300.797C178.245 301.234 178.141 301.708 178.141 302.219C178.141 302.719 178.245 303.182 178.453 303.609C178.661 304.026 178.953 304.359 179.328 304.609C179.714 304.859 180.156 304.984 180.656 304.984C181.135 304.984 181.562 304.859 181.938 304.609C182.312 304.359 182.609 304.016 182.828 303.578C183.047 303.13 183.151 302.63 183.141 302.078L183.125 300.578C182.802 300.172 182.453 299.859 182.078 299.641C181.714 299.422 181.292 299.312 180.812 299.312ZM195.734 298.031C196.411 298.031 197.021 298.198 197.562 298.531C198.115 298.854 198.552 299.312 198.875 299.906C199.208 300.49 199.375 301.177 199.375 301.969C199.375 302.823 199.208 303.573 198.875 304.219C198.552 304.854 198.104 305.349 197.531 305.703C196.969 306.057 196.328 306.234 195.609 306.234C195.161 306.234 194.703 306.115 194.234 305.875C193.776 305.635 193.38 305.328 193.047 304.953V309.75H191.766V298.188H193.047V299.516C193.318 299.099 193.682 298.75 194.141 298.469C194.609 298.177 195.141 298.031 195.734 298.031ZM195.531 299.281C195.062 299.281 194.635 299.401 194.25 299.641C193.875 299.88 193.578 300.214 193.359 300.641C193.151 301.057 193.047 301.547 193.047 302.109L193.062 303.609C193.396 304.016 193.745 304.349 194.109 304.609C194.474 304.859 194.896 304.984 195.375 304.984C195.938 304.984 196.417 304.839 196.812 304.547C197.208 304.255 197.51 303.88 197.719 303.422C197.938 302.953 198.047 302.469 198.047 301.969C198.047 301.458 197.943 301.005 197.734 300.609C197.526 300.203 197.234 299.88 196.859 299.641C196.484 299.401 196.042 299.281 195.531 299.281ZM202.766 298.188V299.75C203.068 299.229 203.432 298.812 203.859 298.5C204.286 298.188 204.724 298.031 205.172 298.031C205.474 298.031 205.745 298.083 205.984 298.188V299.672C205.651 299.474 205.318 299.375 204.984 299.375C204.453 299.375 204.021 299.562 203.688 299.938C203.365 300.312 203.057 300.76 202.766 301.281V306H201.484V298.188H202.766ZM210.844 298.031C211.292 298.031 211.745 298.141 212.203 298.359C212.672 298.568 213.073 298.859 213.406 299.234V298.188H214.688V306H213.406V304.672C213.135 305.089 212.766 305.453 212.297 305.766C211.839 306.078 211.312 306.234 210.719 306.234C210.052 306.234 209.443 306.068 208.891 305.734C208.339 305.391 207.896 304.917 207.562 304.312C207.24 303.708 207.078 303.01 207.078 302.219C207.078 301.354 207.24 300.609 207.562 299.984C207.896 299.359 208.349 298.88 208.922 298.547C209.495 298.203 210.135 298.031 210.844 298.031ZM211.078 299.281C210.516 299.281 210.036 299.422 209.641 299.703C209.245 299.984 208.938 300.349 208.719 300.797C208.51 301.234 208.406 301.708 208.406 302.219C208.406 302.719 208.51 303.182 208.719 303.609C208.927 304.026 209.219 304.359 209.594 304.609C209.979 304.859 210.422 304.984 210.922 304.984C211.401 304.984 211.828 304.859 212.203 304.609C212.578 304.359 212.875 304.016 213.094 303.578C213.312 303.13 213.417 302.63 213.406 302.078L213.391 300.578C213.068 300.172 212.719 299.854 212.344 299.625C211.979 299.396 211.557 299.281 211.078 299.281ZM220.875 298.031C221.448 298.031 221.943 298.125 222.359 298.312C222.776 298.49 223.062 298.651 223.219 298.797V300.094C222.927 299.875 222.594 299.688 222.219 299.531C221.844 299.365 221.396 299.281 220.875 299.281C220.323 299.281 219.839 299.417 219.422 299.688C219.005 299.948 218.682 300.297 218.453 300.734C218.234 301.161 218.125 301.63 218.125 302.141C218.125 302.641 218.234 303.109 218.453 303.547C218.682 303.974 219.005 304.323 219.422 304.594C219.839 304.854 220.323 304.984 220.875 304.984C221.396 304.984 221.844 304.906 222.219 304.75C222.594 304.583 222.927 304.391 223.219 304.172V305.469C223.062 305.625 222.776 305.792 222.359 305.969C221.943 306.146 221.448 306.234 220.875 306.234C220.083 306.234 219.38 306.047 218.766 305.672C218.151 305.297 217.667 304.802 217.312 304.188C216.969 303.562 216.797 302.88 216.797 302.141C216.797 301.401 216.969 300.719 217.312 300.094C217.667 299.469 218.151 298.969 218.766 298.594C219.38 298.219 220.083 298.031 220.875 298.031ZM227.484 295.938V298.188H229.766V299.391H227.484V303.969C227.484 304.292 227.568 304.547 227.734 304.734C227.901 304.922 228.156 305.016 228.5 305.016C228.812 305.016 229.073 304.979 229.281 304.906C229.49 304.823 229.672 304.734 229.828 304.641V305.688C229.62 305.854 229.396 305.984 229.156 306.078C228.927 306.182 228.615 306.234 228.219 306.234C227.552 306.234 227.047 306.036 226.703 305.641C226.37 305.234 226.203 304.698 226.203 304.031V299.391H224.703V299.016C225.214 298.786 225.641 298.411 225.984 297.891C226.328 297.359 226.63 296.708 226.891 295.938H227.484ZM233.344 294.438C233.646 294.438 233.896 294.547 234.094 294.766C234.302 294.974 234.406 295.219 234.406 295.5C234.406 295.771 234.302 296.016 234.094 296.234C233.896 296.453 233.646 296.562 233.344 296.562C233.042 296.562 232.786 296.453 232.578 296.234C232.38 296.016 232.281 295.771 232.281 295.5C232.281 295.219 232.38 294.974 232.578 294.766C232.786 294.547 233.042 294.438 233.344 294.438ZM234.141 298.188V306H232.859V299.391H231.625V298.188H234.141ZM240.438 298.031C241.01 298.031 241.505 298.125 241.922 298.312C242.339 298.49 242.625 298.651 242.781 298.797V300.094C242.49 299.875 242.156 299.688 241.781 299.531C241.406 299.365 240.958 299.281 240.438 299.281C239.885 299.281 239.401 299.417 238.984 299.688C238.568 299.948 238.245 300.297 238.016 300.734C237.797 301.161 237.688 301.63 237.688 302.141C237.688 302.641 237.797 303.109 238.016 303.547C238.245 303.974 238.568 304.323 238.984 304.594C239.401 304.854 239.885 304.984 240.438 304.984C240.958 304.984 241.406 304.906 241.781 304.75C242.156 304.583 242.49 304.391 242.781 304.172V305.469C242.625 305.625 242.339 305.792 241.922 305.969C241.505 306.146 241.01 306.234 240.438 306.234C239.646 306.234 238.943 306.047 238.328 305.672C237.714 305.297 237.229 304.802 236.875 304.188C236.531 303.562 236.359 302.88 236.359 302.141C236.359 301.401 236.531 300.719 236.875 300.094C237.229 299.469 237.714 298.969 238.328 298.594C238.943 298.219 239.646 298.031 240.438 298.031ZM248.109 298.031C248.557 298.031 249.01 298.141 249.469 298.359C249.938 298.568 250.339 298.859 250.672 299.234V298.188H251.953V306H250.672V304.672C250.401 305.089 250.031 305.453 249.562 305.766C249.104 306.078 248.578 306.234 247.984 306.234C247.318 306.234 246.708 306.068 246.156 305.734C245.604 305.391 245.161 304.917 244.828 304.312C244.505 303.708 244.344 303.01 244.344 302.219C244.344 301.354 244.505 300.609 244.828 299.984C245.161 299.359 245.615 298.88 246.188 298.547C246.76 298.203 247.401 298.031 248.109 298.031ZM248.344 299.281C247.781 299.281 247.302 299.422 246.906 299.703C246.51 299.984 246.203 300.349 245.984 300.797C245.776 301.234 245.672 301.708 245.672 302.219C245.672 302.719 245.776 303.182 245.984 303.609C246.193 304.026 246.484 304.359 246.859 304.609C247.245 304.859 247.688 304.984 248.188 304.984C248.667 304.984 249.094 304.859 249.469 304.609C249.844 304.359 250.141 304.016 250.359 303.578C250.578 303.13 250.682 302.63 250.672 302.078L250.656 300.578C250.333 300.172 249.984 299.854 249.609 299.625C249.245 299.396 248.823 299.281 248.344 299.281ZM255.891 294.75V306H254.609V294.75H255.891ZM70.5547 317.031C71.013 317.031 71.4401 317.099 71.8359 317.234C72.2318 317.359 72.5182 317.49 72.6953 317.625V319C72.4766 318.833 72.1797 318.672 71.8047 318.516C71.4297 318.359 71.0443 318.281 70.6484 318.281C70.1589 318.281 69.7891 318.396 69.5391 318.625C69.2995 318.854 69.1797 319.094 69.1797 319.344C69.1797 319.542 69.2474 319.745 69.3828 319.953C69.5286 320.151 69.7786 320.312 70.1328 320.438L71.4453 320.906C71.9557 321.083 72.3359 321.339 72.5859 321.672C72.8359 322.005 72.9609 322.396 72.9609 322.844C72.9609 323.281 72.8359 323.682 72.5859 324.047C72.3464 324.411 72.0078 324.703 71.5703 324.922C71.1432 325.13 70.6484 325.234 70.0859 325.234C69.7839 325.234 69.4661 325.193 69.1328 325.109C68.8099 325.036 68.5182 324.948 68.2578 324.844C67.9974 324.729 67.8047 324.63 67.6797 324.547V323.172C67.8255 323.276 68.0286 323.396 68.2891 323.531C68.5599 323.656 68.8464 323.766 69.1484 323.859C69.4505 323.943 69.7318 323.984 69.9922 323.984C70.4818 323.984 70.8672 323.875 71.1484 323.656C71.4401 323.438 71.5859 323.167 71.5859 322.844C71.5859 322.594 71.487 322.396 71.2891 322.25C71.1016 322.104 70.8255 321.964 70.4609 321.828L69.3047 321.406C68.7005 321.177 68.2995 320.891 68.1016 320.547C67.9036 320.193 67.8047 319.792 67.8047 319.344C67.8047 318.677 68.0547 318.125 68.5547 317.688C69.0547 317.25 69.7214 317.031 70.5547 317.031ZM78.4453 317.031C79.237 317.031 79.9401 317.219 80.5547 317.594C81.1693 317.969 81.6484 318.469 81.9922 319.094C82.3464 319.719 82.5234 320.401 82.5234 321.141C82.5234 321.88 82.3464 322.562 81.9922 323.188C81.6484 323.802 81.1693 324.297 80.5547 324.672C79.9401 325.047 79.237 325.234 78.4453 325.234C77.6536 325.234 76.9505 325.047 76.3359 324.672C75.7214 324.297 75.237 323.802 74.8828 323.188C74.5391 322.562 74.3672 321.88 74.3672 321.141C74.3672 320.401 74.5391 319.719 74.8828 319.094C75.237 318.469 75.7214 317.969 76.3359 317.594C76.9505 317.219 77.6536 317.031 78.4453 317.031ZM78.4453 318.281C77.8932 318.281 77.4089 318.417 76.9922 318.688C76.5755 318.948 76.2526 319.297 76.0234 319.734C75.8047 320.161 75.6953 320.63 75.6953 321.141C75.6953 321.641 75.8047 322.109 76.0234 322.547C76.2526 322.974 76.5755 323.323 76.9922 323.594C77.4089 323.854 77.8932 323.984 78.4453 323.984C79.0078 323.984 79.4922 323.854 79.8984 323.594C80.3151 323.323 80.6328 322.974 80.8516 322.547C81.0807 322.109 81.1953 321.641 81.1953 321.141C81.1953 320.63 81.0807 320.161 80.8516 319.734C80.6328 319.297 80.3151 318.948 79.8984 318.688C79.4922 318.417 79.0078 318.281 78.4453 318.281ZM85.9141 313.75V325H84.6328V313.75H85.9141ZM94.9609 317.188V321.812C94.9609 322.5 94.8151 323.094 94.5234 323.594C94.2318 324.094 93.8359 324.479 93.3359 324.75C92.8359 325.021 92.2734 325.156 91.6484 325.156C91.0234 325.156 90.4609 325.021 89.9609 324.75C89.4609 324.479 89.0651 324.094 88.7734 323.594C88.4818 323.094 88.3359 322.5 88.3359 321.812V317.188H89.6641V321.812C89.6641 322.49 89.862 323.01 90.2578 323.375C90.6641 323.729 91.1276 323.906 91.6484 323.906C92.1693 323.906 92.6276 323.729 93.0234 323.375C93.4297 323.01 93.6328 322.49 93.6328 321.812V317.188H94.9609ZM99.5391 314.938V317.188H101.82V318.391H99.5391V322.969C99.5391 323.292 99.6224 323.547 99.7891 323.734C99.9557 323.922 100.211 324.016 100.555 324.016C100.867 324.016 101.128 323.979 101.336 323.906C101.544 323.823 101.727 323.734 101.883 323.641V324.688C101.674 324.854 101.451 324.984 101.211 325.078C100.982 325.182 100.669 325.234 100.273 325.234C99.6068 325.234 99.1016 325.036 98.7578 324.641C98.4245 324.234 98.2578 323.698 98.2578 323.031V318.391H96.7578V318.016C97.2682 317.786 97.6953 317.411 98.0391 316.891C98.3828 316.359 98.6849 315.708 98.9453 314.938H99.5391ZM105.398 313.438C105.701 313.438 105.951 313.547 106.148 313.766C106.357 313.974 106.461 314.219 106.461 314.5C106.461 314.771 106.357 315.016 106.148 315.234C105.951 315.453 105.701 315.562 105.398 315.562C105.096 315.562 104.841 315.453 104.633 315.234C104.435 315.016 104.336 314.771 104.336 314.5C104.336 314.219 104.435 313.974 104.633 313.766C104.841 313.547 105.096 313.438 105.398 313.438ZM106.195 317.188V325H104.914V318.391H103.68V317.188H106.195ZM112.492 317.031C113.284 317.031 113.987 317.219 114.602 317.594C115.216 317.969 115.695 318.469 116.039 319.094C116.393 319.719 116.57 320.401 116.57 321.141C116.57 321.88 116.393 322.562 116.039 323.188C115.695 323.802 115.216 324.297 114.602 324.672C113.987 325.047 113.284 325.234 112.492 325.234C111.701 325.234 110.997 325.047 110.383 324.672C109.768 324.297 109.284 323.802 108.93 323.188C108.586 322.562 108.414 321.88 108.414 321.141C108.414 320.401 108.586 319.719 108.93 319.094C109.284 318.469 109.768 317.969 110.383 317.594C110.997 317.219 111.701 317.031 112.492 317.031ZM112.492 318.281C111.94 318.281 111.456 318.417 111.039 318.688C110.622 318.948 110.299 319.297 110.07 319.734C109.852 320.161 109.742 320.63 109.742 321.141C109.742 321.641 109.852 322.109 110.07 322.547C110.299 322.974 110.622 323.323 111.039 323.594C111.456 323.854 111.94 323.984 112.492 323.984C113.055 323.984 113.539 323.854 113.945 323.594C114.362 323.323 114.68 322.974 114.898 322.547C115.128 322.109 115.242 321.641 115.242 321.141C115.242 320.63 115.128 320.161 114.898 319.734C114.68 319.297 114.362 318.948 113.945 318.688C113.539 318.417 113.055 318.281 112.492 318.281ZM119.961 317.188V318.422C120.128 318.214 120.341 318.005 120.602 317.797C120.862 317.578 121.154 317.396 121.477 317.25C121.81 317.104 122.154 317.031 122.508 317.031C123.039 317.031 123.523 317.151 123.961 317.391C124.398 317.62 124.747 317.974 125.008 318.453C125.268 318.922 125.398 319.516 125.398 320.234V325H124.117L124.102 320.359C124.102 319.682 123.951 319.167 123.648 318.812C123.357 318.458 122.904 318.281 122.289 318.281C121.872 318.281 121.456 318.438 121.039 318.75C120.633 319.052 120.273 319.406 119.961 319.812V325H118.68V317.188H119.961ZM134.664 314.938V317.188H136.945V318.391H134.664V322.969C134.664 323.292 134.747 323.547 134.914 323.734C135.081 323.922 135.336 324.016 135.68 324.016C135.992 324.016 136.253 323.979 136.461 323.906C136.669 323.823 136.852 323.734 137.008 323.641V324.688C136.799 324.854 136.576 324.984 136.336 325.078C136.107 325.182 135.794 325.234 135.398 325.234C134.732 325.234 134.227 325.036 133.883 324.641C133.549 324.234 133.383 323.698 133.383 323.031V318.391H131.883V318.016C132.393 317.786 132.82 317.411 133.164 316.891C133.508 316.359 133.81 315.708 134.07 314.938H134.664ZM143.102 317.031C143.633 317.031 144.117 317.151 144.555 317.391C144.992 317.62 145.341 317.974 145.602 318.453C145.862 318.922 145.992 319.516 145.992 320.234V325H144.711L144.695 320.359C144.695 319.682 144.544 319.167 144.242 318.812C143.951 318.458 143.497 318.281 142.883 318.281C142.466 318.281 142.049 318.438 141.633 318.75C141.227 319.052 140.867 319.406 140.555 319.812V325H139.273V313.75H140.555V318.422C140.721 318.214 140.935 318.005 141.195 317.797C141.456 317.578 141.747 317.396 142.07 317.25C142.404 317.104 142.747 317.031 143.102 317.031ZM151.633 317.031C152.081 317.031 152.534 317.141 152.992 317.359C153.461 317.568 153.862 317.859 154.195 318.234V317.188H155.477V325H154.195V323.672C153.924 324.089 153.555 324.453 153.086 324.766C152.628 325.078 152.102 325.234 151.508 325.234C150.841 325.234 150.232 325.068 149.68 324.734C149.128 324.391 148.685 323.917 148.352 323.312C148.029 322.708 147.867 322.01 147.867 321.219C147.867 320.354 148.029 319.609 148.352 318.984C148.685 318.359 149.138 317.88 149.711 317.547C150.284 317.203 150.924 317.031 151.633 317.031ZM151.867 318.281C151.305 318.281 150.826 318.422 150.43 318.703C150.034 318.984 149.727 319.349 149.508 319.797C149.299 320.234 149.195 320.708 149.195 321.219C149.195 321.719 149.299 322.182 149.508 322.609C149.716 323.026 150.008 323.359 150.383 323.609C150.768 323.859 151.211 323.984 151.711 323.984C152.19 323.984 152.617 323.859 152.992 323.609C153.367 323.359 153.664 323.016 153.883 322.578C154.102 322.13 154.206 321.63 154.195 321.078L154.18 319.578C153.857 319.172 153.508 318.854 153.133 318.625C152.768 318.396 152.346 318.281 151.867 318.281ZM160.289 314.938V317.188H162.57V318.391H160.289V322.969C160.289 323.292 160.372 323.547 160.539 323.734C160.706 323.922 160.961 324.016 161.305 324.016C161.617 324.016 161.878 323.979 162.086 323.906C162.294 323.823 162.477 323.734 162.633 323.641V324.688C162.424 324.854 162.201 324.984 161.961 325.078C161.732 325.182 161.419 325.234 161.023 325.234C160.357 325.234 159.852 325.036 159.508 324.641C159.174 324.234 159.008 323.698 159.008 323.031V318.391H157.508V318.016C158.018 317.786 158.445 317.411 158.789 316.891C159.133 316.359 159.435 315.708 159.695 314.938H160.289ZM173.555 317.031C174.232 317.031 174.841 317.198 175.383 317.531C175.935 317.854 176.372 318.312 176.695 318.906C177.029 319.49 177.195 320.177 177.195 320.969C177.195 321.823 177.029 322.573 176.695 323.219C176.372 323.854 175.924 324.349 175.352 324.703C174.789 325.057 174.148 325.234 173.43 325.234C172.982 325.234 172.523 325.115 172.055 324.875C171.596 324.635 171.201 324.328 170.867 323.953V328.75H169.586V317.188H170.867V318.516C171.138 318.099 171.503 317.75 171.961 317.469C172.43 317.177 172.961 317.031 173.555 317.031ZM173.352 318.281C172.883 318.281 172.456 318.401 172.07 318.641C171.695 318.88 171.398 319.214 171.18 319.641C170.971 320.057 170.867 320.547 170.867 321.109L170.883 322.609C171.216 323.016 171.565 323.349 171.93 323.609C172.294 323.859 172.716 323.984 173.195 323.984C173.758 323.984 174.237 323.839 174.633 323.547C175.029 323.255 175.331 322.88 175.539 322.422C175.758 321.953 175.867 321.469 175.867 320.969C175.867 320.458 175.763 320.005 175.555 319.609C175.346 319.203 175.055 318.88 174.68 318.641C174.305 318.401 173.862 318.281 173.352 318.281ZM180.586 317.188V318.75C180.888 318.229 181.253 317.812 181.68 317.5C182.107 317.188 182.544 317.031 182.992 317.031C183.294 317.031 183.565 317.083 183.805 317.188V318.672C183.471 318.474 183.138 318.375 182.805 318.375C182.273 318.375 181.841 318.562 181.508 318.938C181.185 319.312 180.878 319.76 180.586 320.281V325H179.305V317.188H180.586ZM188.977 317.031C189.768 317.031 190.471 317.219 191.086 317.594C191.701 317.969 192.18 318.469 192.523 319.094C192.878 319.719 193.055 320.401 193.055 321.141C193.055 321.88 192.878 322.562 192.523 323.188C192.18 323.802 191.701 324.297 191.086 324.672C190.471 325.047 189.768 325.234 188.977 325.234C188.185 325.234 187.482 325.047 186.867 324.672C186.253 324.297 185.768 323.802 185.414 323.188C185.07 322.562 184.898 321.88 184.898 321.141C184.898 320.401 185.07 319.719 185.414 319.094C185.768 318.469 186.253 317.969 186.867 317.594C187.482 317.219 188.185 317.031 188.977 317.031ZM188.977 318.281C188.424 318.281 187.94 318.417 187.523 318.688C187.107 318.948 186.784 319.297 186.555 319.734C186.336 320.161 186.227 320.63 186.227 321.141C186.227 321.641 186.336 322.109 186.555 322.547C186.784 322.974 187.107 323.323 187.523 323.594C187.94 323.854 188.424 323.984 188.977 323.984C189.539 323.984 190.023 323.854 190.43 323.594C190.846 323.323 191.164 322.974 191.383 322.547C191.612 322.109 191.727 321.641 191.727 321.141C191.727 320.63 191.612 320.161 191.383 319.734C191.164 319.297 190.846 318.948 190.43 318.688C190.023 318.417 189.539 318.281 188.977 318.281ZM196.445 317.188V318.188C196.695 317.906 197.013 317.646 197.398 317.406C197.794 317.156 198.258 317.031 198.789 317.031C199.352 317.031 199.878 317.167 200.367 317.438C200.857 317.698 201.232 318.094 201.492 318.625C201.857 318.188 202.253 317.812 202.68 317.5C203.107 317.188 203.607 317.031 204.18 317.031C204.711 317.031 205.206 317.151 205.664 317.391C206.133 317.62 206.508 317.974 206.789 318.453C207.081 318.922 207.227 319.516 207.227 320.234V325H205.945L205.93 320.359C205.93 319.682 205.753 319.167 205.398 318.812C205.055 318.458 204.576 318.281 203.961 318.281C203.513 318.281 203.122 318.422 202.789 318.703C202.456 318.984 202.138 319.312 201.836 319.688V325H200.555L200.539 320.359C200.539 319.682 200.362 319.167 200.008 318.812C199.664 318.458 199.185 318.281 198.57 318.281C198.143 318.281 197.753 318.406 197.398 318.656C197.055 318.906 196.737 319.208 196.445 319.562V325H195.164V317.188H196.445ZM213.18 317.031C213.971 317.031 214.674 317.219 215.289 317.594C215.904 317.969 216.383 318.469 216.727 319.094C217.081 319.719 217.258 320.401 217.258 321.141C217.258 321.88 217.081 322.562 216.727 323.188C216.383 323.802 215.904 324.297 215.289 324.672C214.674 325.047 213.971 325.234 213.18 325.234C212.388 325.234 211.685 325.047 211.07 324.672C210.456 324.297 209.971 323.802 209.617 323.188C209.273 322.562 209.102 321.88 209.102 321.141C209.102 320.401 209.273 319.719 209.617 319.094C209.971 318.469 210.456 317.969 211.07 317.594C211.685 317.219 212.388 317.031 213.18 317.031ZM213.18 318.281C212.628 318.281 212.143 318.417 211.727 318.688C211.31 318.948 210.987 319.297 210.758 319.734C210.539 320.161 210.43 320.63 210.43 321.141C210.43 321.641 210.539 322.109 210.758 322.547C210.987 322.974 211.31 323.323 211.727 323.594C212.143 323.854 212.628 323.984 213.18 323.984C213.742 323.984 214.227 323.854 214.633 323.594C215.049 323.323 215.367 322.974 215.586 322.547C215.815 322.109 215.93 321.641 215.93 321.141C215.93 320.63 215.815 320.161 215.586 319.734C215.367 319.297 215.049 318.948 214.633 318.688C214.227 318.417 213.742 318.281 213.18 318.281ZM221.211 314.938V317.188H223.492V318.391H221.211V322.969C221.211 323.292 221.294 323.547 221.461 323.734C221.628 323.922 221.883 324.016 222.227 324.016C222.539 324.016 222.799 323.979 223.008 323.906C223.216 323.823 223.398 323.734 223.555 323.641V324.688C223.346 324.854 223.122 324.984 222.883 325.078C222.654 325.182 222.341 325.234 221.945 325.234C221.279 325.234 220.773 325.036 220.43 324.641C220.096 324.234 219.93 323.698 219.93 323.031V318.391H218.43V318.016C218.94 317.786 219.367 317.411 219.711 316.891C220.055 316.359 220.357 315.708 220.617 314.938H221.211ZM229.039 317.031C229.841 317.031 230.508 317.198 231.039 317.531C231.57 317.865 231.966 318.318 232.227 318.891C232.497 319.464 232.633 320.109 232.633 320.828V321.594H226.633C226.695 322.031 226.846 322.432 227.086 322.797C227.326 323.161 227.638 323.453 228.023 323.672C228.409 323.88 228.852 323.984 229.352 323.984C229.914 323.984 230.44 323.844 230.93 323.562C231.419 323.271 231.831 322.953 232.164 322.609L232.148 324C232.003 324.177 231.784 324.365 231.492 324.562C231.211 324.75 230.883 324.906 230.508 325.031C230.143 325.167 229.758 325.234 229.352 325.234C228.56 325.234 227.857 325.047 227.242 324.672C226.628 324.297 226.143 323.802 225.789 323.188C225.445 322.562 225.273 321.88 225.273 321.141C225.273 320.401 225.435 319.719 225.758 319.094C226.081 318.469 226.523 317.969 227.086 317.594C227.659 317.219 228.31 317.031 229.039 317.031ZM229.039 318.281C228.393 318.281 227.862 318.5 227.445 318.938C227.029 319.365 226.768 319.885 226.664 320.5H231.367C231.315 319.99 231.169 319.573 230.93 319.25C230.701 318.927 230.419 318.688 230.086 318.531C229.753 318.365 229.404 318.281 229.039 318.281ZM237.07 317.031C237.529 317.031 237.956 317.099 238.352 317.234C238.747 317.359 239.034 317.49 239.211 317.625V319C238.992 318.833 238.695 318.672 238.32 318.516C237.945 318.359 237.56 318.281 237.164 318.281C236.674 318.281 236.305 318.396 236.055 318.625C235.815 318.854 235.695 319.094 235.695 319.344C235.695 319.542 235.763 319.745 235.898 319.953C236.044 320.151 236.294 320.312 236.648 320.438L237.961 320.906C238.471 321.083 238.852 321.339 239.102 321.672C239.352 322.005 239.477 322.396 239.477 322.844C239.477 323.281 239.352 323.682 239.102 324.047C238.862 324.411 238.523 324.703 238.086 324.922C237.659 325.13 237.164 325.234 236.602 325.234C236.299 325.234 235.982 325.193 235.648 325.109C235.326 325.036 235.034 324.948 234.773 324.844C234.513 324.729 234.32 324.63 234.195 324.547V323.172C234.341 323.276 234.544 323.396 234.805 323.531C235.076 323.656 235.362 323.766 235.664 323.859C235.966 323.943 236.247 323.984 236.508 323.984C236.997 323.984 237.383 323.875 237.664 323.656C237.956 323.438 238.102 323.167 238.102 322.844C238.102 322.594 238.003 322.396 237.805 322.25C237.617 322.104 237.341 321.964 236.977 321.828L235.82 321.406C235.216 321.177 234.815 320.891 234.617 320.547C234.419 320.193 234.32 319.792 234.32 319.344C234.32 318.677 234.57 318.125 235.07 317.688C235.57 317.25 236.237 317.031 237.07 317.031ZM60.7344 336.031C61.1927 336.031 61.6198 336.099 62.0156 336.234C62.4115 336.359 62.6979 336.49 62.875 336.625V338C62.6562 337.833 62.3594 337.672 61.9844 337.516C61.6094 337.359 61.224 337.281 60.8281 337.281C60.3385 337.281 59.9688 337.396 59.7188 337.625C59.4792 337.854 59.3594 338.094 59.3594 338.344C59.3594 338.542 59.4271 338.745 59.5625 338.953C59.7083 339.151 59.9583 339.312 60.3125 339.438L61.625 339.906C62.1354 340.083 62.5156 340.339 62.7656 340.672C63.0156 341.005 63.1406 341.396 63.1406 341.844C63.1406 342.281 63.0156 342.682 62.7656 343.047C62.526 343.411 62.1875 343.703 61.75 343.922C61.3229 344.13 60.8281 344.234 60.2656 344.234C59.9635 344.234 59.6458 344.193 59.3125 344.109C58.9896 344.036 58.6979 343.948 58.4375 343.844C58.1771 343.729 57.9844 343.63 57.8594 343.547V342.172C58.0052 342.276 58.2083 342.396 58.4688 342.531C58.7396 342.656 59.026 342.766 59.3281 342.859C59.6302 342.943 59.9115 342.984 60.1719 342.984C60.6615 342.984 61.0469 342.875 61.3281 342.656C61.6198 342.438 61.7656 342.167 61.7656 341.844C61.7656 341.594 61.6667 341.396 61.4688 341.25C61.2812 341.104 61.0052 340.964 60.6406 340.828L59.4844 340.406C58.8802 340.177 58.4792 339.891 58.2812 339.547C58.0833 339.193 57.9844 338.792 57.9844 338.344C57.9844 337.677 58.2344 337.125 58.7344 336.688C59.2344 336.25 59.901 336.031 60.7344 336.031ZM71.4844 336.188V340.812C71.4844 341.5 71.3385 342.094 71.0469 342.594C70.7552 343.094 70.3594 343.479 69.8594 343.75C69.3594 344.021 68.7969 344.156 68.1719 344.156C67.5469 344.156 66.9844 344.021 66.4844 343.75C65.9844 343.479 65.5885 343.094 65.2969 342.594C65.0052 342.094 64.8594 341.5 64.8594 340.812V336.188H66.1875V340.812C66.1875 341.49 66.3854 342.01 66.7812 342.375C67.1875 342.729 67.651 342.906 68.1719 342.906C68.6927 342.906 69.151 342.729 69.5469 342.375C69.9531 342.01 70.1562 341.49 70.1562 340.812V336.188H71.4844ZM76.2344 336.031C76.6927 336.031 77.1198 336.099 77.5156 336.234C77.9115 336.359 78.1979 336.49 78.375 336.625V338C78.1562 337.833 77.8594 337.672 77.4844 337.516C77.1094 337.359 76.724 337.281 76.3281 337.281C75.8385 337.281 75.4688 337.396 75.2188 337.625C74.9792 337.854 74.8594 338.094 74.8594 338.344C74.8594 338.542 74.9271 338.745 75.0625 338.953C75.2083 339.151 75.4583 339.312 75.8125 339.438L77.125 339.906C77.6354 340.083 78.0156 340.339 78.2656 340.672C78.5156 341.005 78.6406 341.396 78.6406 341.844C78.6406 342.281 78.5156 342.682 78.2656 343.047C78.026 343.411 77.6875 343.703 77.25 343.922C76.8229 344.13 76.3281 344.234 75.7656 344.234C75.4635 344.234 75.1458 344.193 74.8125 344.109C74.4896 344.036 74.1979 343.948 73.9375 343.844C73.6771 343.729 73.4844 343.63 73.3594 343.547V342.172C73.5052 342.276 73.7083 342.396 73.9688 342.531C74.2396 342.656 74.526 342.766 74.8281 342.859C75.1302 342.943 75.4115 342.984 75.6719 342.984C76.1615 342.984 76.5469 342.875 76.8281 342.656C77.1198 342.438 77.2656 342.167 77.2656 341.844C77.2656 341.594 77.1667 341.396 76.9688 341.25C76.7812 341.104 76.5052 340.964 76.1406 340.828L74.9844 340.406C74.3802 340.177 73.9792 339.891 73.7812 339.547C73.5833 339.193 73.4844 338.792 73.4844 338.344C73.4844 337.677 73.7344 337.125 74.2344 336.688C74.7344 336.25 75.401 336.031 76.2344 336.031ZM82.75 333.938V336.188H85.0312V337.391H82.75V341.969C82.75 342.292 82.8333 342.547 83 342.734C83.1667 342.922 83.4219 343.016 83.7656 343.016C84.0781 343.016 84.3385 342.979 84.5469 342.906C84.7552 342.823 84.9375 342.734 85.0938 342.641V343.688C84.8854 343.854 84.6615 343.984 84.4219 344.078C84.1927 344.182 83.8802 344.234 83.4844 344.234C82.8177 344.234 82.3125 344.036 81.9688 343.641C81.6354 343.234 81.4688 342.698 81.4688 342.031V337.391H79.9688V337.016C80.4792 336.786 80.9062 336.411 81.25 335.891C81.5938 335.359 81.8958 334.708 82.1562 333.938H82.75ZM90.5781 336.031C91.026 336.031 91.4792 336.141 91.9375 336.359C92.4062 336.568 92.8073 336.859 93.1406 337.234V336.188H94.4219V344H93.1406V342.672C92.8698 343.089 92.5 343.453 92.0312 343.766C91.5729 344.078 91.0469 344.234 90.4531 344.234C89.7865 344.234 89.1771 344.068 88.625 343.734C88.0729 343.391 87.6302 342.917 87.2969 342.312C86.974 341.708 86.8125 341.01 86.8125 340.219C86.8125 339.354 86.974 338.609 87.2969 337.984C87.6302 337.359 88.0833 336.88 88.6562 336.547C89.2292 336.203 89.8698 336.031 90.5781 336.031ZM90.8125 337.281C90.25 337.281 89.7708 337.422 89.375 337.703C88.9792 337.984 88.6719 338.349 88.4531 338.797C88.2448 339.234 88.1406 339.708 88.1406 340.219C88.1406 340.719 88.2448 341.182 88.4531 341.609C88.6615 342.026 88.9531 342.359 89.3281 342.609C89.7135 342.859 90.1562 342.984 90.6562 342.984C91.1354 342.984 91.5625 342.859 91.9375 342.609C92.3125 342.359 92.6094 342.016 92.8281 341.578C93.0469 341.13 93.151 340.63 93.1406 340.078L93.125 338.578C92.8021 338.172 92.4531 337.854 92.0781 337.625C91.7135 337.396 91.2917 337.281 90.8125 337.281ZM98.3281 332.438C98.6302 332.438 98.8802 332.547 99.0781 332.766C99.2865 332.974 99.3906 333.219 99.3906 333.5C99.3906 333.771 99.2865 334.016 99.0781 334.234C98.8802 334.453 98.6302 334.562 98.3281 334.562C98.026 334.562 97.7708 334.453 97.5625 334.234C97.3646 334.016 97.2656 333.771 97.2656 333.5C97.2656 333.219 97.3646 332.974 97.5625 332.766C97.7708 332.547 98.026 332.438 98.3281 332.438ZM99.125 336.188V344H97.8438V337.391H96.6094V336.188H99.125ZM103.172 336.188V337.422C103.339 337.214 103.552 337.005 103.812 336.797C104.073 336.578 104.365 336.396 104.688 336.25C105.021 336.104 105.365 336.031 105.719 336.031C106.25 336.031 106.734 336.151 107.172 336.391C107.609 336.62 107.958 336.974 108.219 337.453C108.479 337.922 108.609 338.516 108.609 339.234V344H107.328L107.312 339.359C107.312 338.682 107.161 338.167 106.859 337.812C106.568 337.458 106.115 337.281 105.5 337.281C105.083 337.281 104.667 337.438 104.25 337.75C103.844 338.052 103.484 338.406 103.172 338.812V344H101.891V336.188H103.172ZM114.25 336.031C114.698 336.031 115.151 336.141 115.609 336.359C116.078 336.568 116.479 336.859 116.812 337.234V336.188H118.094V344H116.812V342.672C116.542 343.089 116.172 343.453 115.703 343.766C115.245 344.078 114.719 344.234 114.125 344.234C113.458 344.234 112.849 344.068 112.297 343.734C111.745 343.391 111.302 342.917 110.969 342.312C110.646 341.708 110.484 341.01 110.484 340.219C110.484 339.354 110.646 338.609 110.969 337.984C111.302 337.359 111.755 336.88 112.328 336.547C112.901 336.203 113.542 336.031 114.25 336.031ZM114.484 337.281C113.922 337.281 113.443 337.422 113.047 337.703C112.651 337.984 112.344 338.349 112.125 338.797C111.917 339.234 111.812 339.708 111.812 340.219C111.812 340.719 111.917 341.182 112.125 341.609C112.333 342.026 112.625 342.359 113 342.609C113.385 342.859 113.828 342.984 114.328 342.984C114.807 342.984 115.234 342.859 115.609 342.609C115.984 342.359 116.281 342.016 116.5 341.578C116.719 341.13 116.823 340.63 116.812 340.078L116.797 338.578C116.474 338.172 116.125 337.854 115.75 337.625C115.385 337.396 114.964 337.281 114.484 337.281ZM124.594 336.031C125.312 336.031 125.953 336.203 126.516 336.547C127.089 336.88 127.536 337.359 127.859 337.984C128.193 338.609 128.359 339.354 128.359 340.219C128.359 341.01 128.193 341.708 127.859 342.312C127.536 342.917 127.099 343.391 126.547 343.734C126.005 344.068 125.396 344.234 124.719 344.234C124.125 344.234 123.594 344.078 123.125 343.766C122.667 343.453 122.302 343.089 122.031 342.672V344H120.75V332.75H122.031V337.234C122.365 336.859 122.76 336.568 123.219 336.359C123.688 336.141 124.146 336.031 124.594 336.031ZM124.359 337.297C123.88 337.297 123.458 337.411 123.094 337.641C122.729 337.859 122.38 338.172 122.047 338.578L122.031 340.078C122.031 340.63 122.135 341.125 122.344 341.562C122.562 342 122.859 342.344 123.234 342.594C123.62 342.844 124.047 342.969 124.516 342.969C125.026 342.969 125.469 342.844 125.844 342.594C126.219 342.344 126.51 342.01 126.719 341.594C126.927 341.177 127.031 340.719 127.031 340.219C127.031 339.708 126.922 339.234 126.703 338.797C126.495 338.349 126.193 337.99 125.797 337.719C125.401 337.438 124.922 337.297 124.359 337.297ZM131.75 332.75V344H130.469V332.75H131.75ZM137.625 336.031C138.427 336.031 139.094 336.198 139.625 336.531C140.156 336.865 140.552 337.318 140.812 337.891C141.083 338.464 141.219 339.109 141.219 339.828V340.594H135.219C135.281 341.031 135.432 341.432 135.672 341.797C135.911 342.161 136.224 342.453 136.609 342.672C136.995 342.88 137.438 342.984 137.938 342.984C138.5 342.984 139.026 342.844 139.516 342.562C140.005 342.271 140.417 341.953 140.75 341.609L140.734 343C140.589 343.177 140.37 343.365 140.078 343.562C139.797 343.75 139.469 343.906 139.094 344.031C138.729 344.167 138.344 344.234 137.938 344.234C137.146 344.234 136.443 344.047 135.828 343.672C135.214 343.297 134.729 342.802 134.375 342.188C134.031 341.562 133.859 340.88 133.859 340.141C133.859 339.401 134.021 338.719 134.344 338.094C134.667 337.469 135.109 336.969 135.672 336.594C136.245 336.219 136.896 336.031 137.625 336.031ZM137.625 337.281C136.979 337.281 136.448 337.5 136.031 337.938C135.615 338.365 135.354 338.885 135.25 339.5H139.953C139.901 338.99 139.755 338.573 139.516 338.25C139.286 337.927 139.005 337.688 138.672 337.531C138.339 337.365 137.99 337.281 137.625 337.281ZM155.078 332.75V344H153.797V342.672C153.526 343.089 153.156 343.453 152.688 343.766C152.229 344.078 151.703 344.234 151.109 344.234C150.443 344.234 149.833 344.068 149.281 343.734C148.729 343.391 148.286 342.917 147.953 342.312C147.63 341.708 147.469 341.01 147.469 340.219C147.469 339.354 147.63 338.609 147.953 337.984C148.286 337.359 148.74 336.88 149.312 336.547C149.885 336.203 150.526 336.031 151.234 336.031C151.682 336.031 152.135 336.141 152.594 336.359C153.062 336.568 153.464 336.859 153.797 337.234V332.75H155.078ZM151.469 337.312C150.906 337.312 150.427 337.453 150.031 337.734C149.635 338.005 149.328 338.359 149.109 338.797C148.901 339.234 148.797 339.708 148.797 340.219C148.797 340.719 148.901 341.182 149.109 341.609C149.318 342.026 149.609 342.359 149.984 342.609C150.37 342.859 150.812 342.984 151.312 342.984C151.792 342.984 152.219 342.859 152.594 342.609C152.969 342.359 153.266 342.016 153.484 341.578C153.703 341.13 153.807 340.63 153.797 340.078L153.781 338.578C153.458 338.172 153.109 337.859 152.734 337.641C152.37 337.422 151.948 337.312 151.469 337.312ZM160.953 336.031C161.755 336.031 162.422 336.198 162.953 336.531C163.484 336.865 163.88 337.318 164.141 337.891C164.411 338.464 164.547 339.109 164.547 339.828V340.594H158.547C158.609 341.031 158.76 341.432 159 341.797C159.24 342.161 159.552 342.453 159.938 342.672C160.323 342.88 160.766 342.984 161.266 342.984C161.828 342.984 162.354 342.844 162.844 342.562C163.333 342.271 163.745 341.953 164.078 341.609L164.062 343C163.917 343.177 163.698 343.365 163.406 343.562C163.125 343.75 162.797 343.906 162.422 344.031C162.057 344.167 161.672 344.234 161.266 344.234C160.474 344.234 159.771 344.047 159.156 343.672C158.542 343.297 158.057 342.802 157.703 342.188C157.359 341.562 157.188 340.88 157.188 340.141C157.188 339.401 157.349 338.719 157.672 338.094C157.995 337.469 158.438 336.969 159 336.594C159.573 336.219 160.224 336.031 160.953 336.031ZM160.953 337.281C160.307 337.281 159.776 337.5 159.359 337.938C158.943 338.365 158.682 338.885 158.578 339.5H163.281C163.229 338.99 163.083 338.573 162.844 338.25C162.615 337.927 162.333 337.688 162 337.531C161.667 337.365 161.318 337.281 160.953 337.281ZM173.547 336.188L169.875 344H169.078L165.562 336.188H167.094L169.453 341.938L172.016 336.188H173.547ZM178.172 336.031C178.974 336.031 179.641 336.198 180.172 336.531C180.703 336.865 181.099 337.318 181.359 337.891C181.63 338.464 181.766 339.109 181.766 339.828V340.594H175.766C175.828 341.031 175.979 341.432 176.219 341.797C176.458 342.161 176.771 342.453 177.156 342.672C177.542 342.88 177.984 342.984 178.484 342.984C179.047 342.984 179.573 342.844 180.062 342.562C180.552 342.271 180.964 341.953 181.297 341.609L181.281 343C181.135 343.177 180.917 343.365 180.625 343.562C180.344 343.75 180.016 343.906 179.641 344.031C179.276 344.167 178.891 344.234 178.484 344.234C177.693 344.234 176.99 344.047 176.375 343.672C175.76 343.297 175.276 342.802 174.922 342.188C174.578 341.562 174.406 340.88 174.406 340.141C174.406 339.401 174.568 338.719 174.891 338.094C175.214 337.469 175.656 336.969 176.219 336.594C176.792 336.219 177.443 336.031 178.172 336.031ZM178.172 337.281C177.526 337.281 176.995 337.5 176.578 337.938C176.161 338.365 175.901 338.885 175.797 339.5H180.5C180.448 338.99 180.302 338.573 180.062 338.25C179.833 337.927 179.552 337.688 179.219 337.531C178.885 337.365 178.536 337.281 178.172 337.281ZM185.156 332.75V344H183.875V332.75H185.156ZM191.344 336.031C192.135 336.031 192.839 336.219 193.453 336.594C194.068 336.969 194.547 337.469 194.891 338.094C195.245 338.719 195.422 339.401 195.422 340.141C195.422 340.88 195.245 341.562 194.891 342.188C194.547 342.802 194.068 343.297 193.453 343.672C192.839 344.047 192.135 344.234 191.344 344.234C190.552 344.234 189.849 344.047 189.234 343.672C188.62 343.297 188.135 342.802 187.781 342.188C187.438 341.562 187.266 340.88 187.266 340.141C187.266 339.401 187.438 338.719 187.781 338.094C188.135 337.469 188.62 336.969 189.234 336.594C189.849 336.219 190.552 336.031 191.344 336.031ZM191.344 337.281C190.792 337.281 190.307 337.417 189.891 337.688C189.474 337.948 189.151 338.297 188.922 338.734C188.703 339.161 188.594 339.63 188.594 340.141C188.594 340.641 188.703 341.109 188.922 341.547C189.151 341.974 189.474 342.323 189.891 342.594C190.307 342.854 190.792 342.984 191.344 342.984C191.906 342.984 192.391 342.854 192.797 342.594C193.214 342.323 193.531 341.974 193.75 341.547C193.979 341.109 194.094 340.641 194.094 340.141C194.094 339.63 193.979 339.161 193.75 338.734C193.531 338.297 193.214 337.948 192.797 337.688C192.391 337.417 191.906 337.281 191.344 337.281ZM201.5 336.031C202.177 336.031 202.786 336.198 203.328 336.531C203.88 336.854 204.318 337.312 204.641 337.906C204.974 338.49 205.141 339.177 205.141 339.969C205.141 340.823 204.974 341.573 204.641 342.219C204.318 342.854 203.87 343.349 203.297 343.703C202.734 344.057 202.094 344.234 201.375 344.234C200.927 344.234 200.469 344.115 200 343.875C199.542 343.635 199.146 343.328 198.812 342.953V347.75H197.531V336.188H198.812V337.516C199.083 337.099 199.448 336.75 199.906 336.469C200.375 336.177 200.906 336.031 201.5 336.031ZM201.297 337.281C200.828 337.281 200.401 337.401 200.016 337.641C199.641 337.88 199.344 338.214 199.125 338.641C198.917 339.057 198.812 339.547 198.812 340.109L198.828 341.609C199.161 342.016 199.51 342.349 199.875 342.609C200.24 342.859 200.661 342.984 201.141 342.984C201.703 342.984 202.182 342.839 202.578 342.547C202.974 342.255 203.276 341.88 203.484 341.422C203.703 340.953 203.812 340.469 203.812 339.969C203.812 339.458 203.708 339.005 203.5 338.609C203.292 338.203 203 337.88 202.625 337.641C202.25 337.401 201.807 337.281 201.297 337.281ZM208.531 336.188V337.188C208.781 336.906 209.099 336.646 209.484 336.406C209.88 336.156 210.344 336.031 210.875 336.031C211.438 336.031 211.964 336.167 212.453 336.438C212.943 336.698 213.318 337.094 213.578 337.625C213.943 337.188 214.339 336.812 214.766 336.5C215.193 336.188 215.693 336.031 216.266 336.031C216.797 336.031 217.292 336.151 217.75 336.391C218.219 336.62 218.594 336.974 218.875 337.453C219.167 337.922 219.312 338.516 219.312 339.234V344H218.031L218.016 339.359C218.016 338.682 217.839 338.167 217.484 337.812C217.141 337.458 216.661 337.281 216.047 337.281C215.599 337.281 215.208 337.422 214.875 337.703C214.542 337.984 214.224 338.312 213.922 338.688V344H212.641L212.625 339.359C212.625 338.682 212.448 338.167 212.094 337.812C211.75 337.458 211.271 337.281 210.656 337.281C210.229 337.281 209.839 337.406 209.484 337.656C209.141 337.906 208.823 338.208 208.531 338.562V344H207.25V336.188H208.531ZM224.953 336.031C225.755 336.031 226.422 336.198 226.953 336.531C227.484 336.865 227.88 337.318 228.141 337.891C228.411 338.464 228.547 339.109 228.547 339.828V340.594H222.547C222.609 341.031 222.76 341.432 223 341.797C223.24 342.161 223.552 342.453 223.938 342.672C224.323 342.88 224.766 342.984 225.266 342.984C225.828 342.984 226.354 342.844 226.844 342.562C227.333 342.271 227.745 341.953 228.078 341.609L228.062 343C227.917 343.177 227.698 343.365 227.406 343.562C227.125 343.75 226.797 343.906 226.422 344.031C226.057 344.167 225.672 344.234 225.266 344.234C224.474 344.234 223.771 344.047 223.156 343.672C222.542 343.297 222.057 342.802 221.703 342.188C221.359 341.562 221.188 340.88 221.188 340.141C221.188 339.401 221.349 338.719 221.672 338.094C221.995 337.469 222.438 336.969 223 336.594C223.573 336.219 224.224 336.031 224.953 336.031ZM224.953 337.281C224.307 337.281 223.776 337.5 223.359 337.938C222.943 338.365 222.682 338.885 222.578 339.5H227.281C227.229 338.99 227.083 338.573 226.844 338.25C226.615 337.927 226.333 337.688 226 337.531C225.667 337.365 225.318 337.281 224.953 337.281ZM231.938 336.188V337.422C232.104 337.214 232.318 337.005 232.578 336.797C232.839 336.578 233.13 336.396 233.453 336.25C233.786 336.104 234.13 336.031 234.484 336.031C235.016 336.031 235.5 336.151 235.938 336.391C236.375 336.62 236.724 336.974 236.984 337.453C237.245 337.922 237.375 338.516 237.375 339.234V344H236.094L236.078 339.359C236.078 338.682 235.927 338.167 235.625 337.812C235.333 337.458 234.88 337.281 234.266 337.281C233.849 337.281 233.432 337.438 233.016 337.75C232.609 338.052 232.25 338.406 231.938 338.812V344H230.656V336.188H231.938ZM241.953 333.938V336.188H244.234V337.391H241.953V341.969C241.953 342.292 242.036 342.547 242.203 342.734C242.37 342.922 242.625 343.016 242.969 343.016C243.281 343.016 243.542 342.979 243.75 342.906C243.958 342.823 244.141 342.734 244.297 342.641V343.688C244.089 343.854 243.865 343.984 243.625 344.078C243.396 344.182 243.083 344.234 242.688 344.234C242.021 344.234 241.516 344.036 241.172 343.641C240.839 343.234 240.672 342.698 240.672 342.031V337.391H239.172V337.016C239.682 336.786 240.109 336.411 240.453 335.891C240.797 335.359 241.099 334.708 241.359 333.938H241.953ZM247.578 342.094C247.88 342.094 248.135 342.203 248.344 342.422C248.562 342.63 248.672 342.885 248.672 343.188C248.672 343.479 248.562 343.734 248.344 343.953C248.135 344.172 247.88 344.281 247.578 344.281C247.276 344.281 247.016 344.172 246.797 343.953C246.589 343.734 246.484 343.479 246.484 343.188C246.484 342.885 246.589 342.63 246.797 342.422C247.016 342.203 247.276 342.094 247.578 342.094Z" fill="white"/>
<defs>
<clipPath id="clip0_386_29">
<rect width="120" height="120" fill="white" transform="translate(93.5 55)"/>
</clipPath>
</defs>
</svg>